<?xml version="1.0" standalone="no"?>
<!DOCTYPE svg PUBLIC "-//W3C//DTD SVG 1.1//EN" "http://www.w3.org/Graphics/SVG/1.1/DTD/svg11.dtd" >
<svg xmlns="http://www.w3.org/2000/svg" xmlns:xlink="http://www.w3.org/1999/xlink" version="1.1">
<metadata>
Created by FontForge 20170731 at Tue Dec  6 14:19:15 2022
 By Aleksey,,,

Copyright (c) 2020 by Dirtyline Studio. All rights reserved.

</metadata>
<defs>
<font id="DXRigraf-SemiBoldItalic" horiz-adv-x="1656" >
  <font-face 
    font-family="DX-Rigraf SemBd Ita"
    font-weight="600"
    font-style="italic"
    font-stretch="normal"
    units-per-em="2048"
    panose-1="0 0 0 0 0 0 0 0 0 0"
    ascent="1536"
    descent="-512"
    x-height="1024"
    cap-height="1434"
    bbox="-272 -612 5100 2101"
    underline-thickness="102"
    underline-position="-358"
    unicode-range="U+000D-1F310"
  />
<missing-glyph horiz-adv-x="378" 
 />
    <glyph glyph-name=".notdef" horiz-adv-x="378" 
 />
    <glyph glyph-name="uni0000" horiz-adv-x="0" 
 />
    <glyph glyph-name="uni000D" unicode="&#xd;" horiz-adv-x="342" 
 />
    <glyph glyph-name="space" unicode=" " horiz-adv-x="491" 
 />
    <glyph glyph-name="exclam" unicode="!" horiz-adv-x="524" 
d="M408 1505h241l-217 -1095h-196zM135 45q10 62 54.5 100.5t103.5 38.5q60 0 91 -38t19 -101q-10 -64 -55 -102.5t-104 -38.5q-60 0 -90.5 38.5t-18.5 102.5z" />
    <glyph glyph-name="quotedbl" unicode="&#x22;" horiz-adv-x="927" 
d="M737 1325q12 63 56 101t104 38q62 0 88.5 -50t11.5 -138q-22 -119 -99.5 -208.5t-174.5 -106.5l-12 102q86 26 120 125q-53 6 -78 42.5t-16 94.5zM387 1325q10 63 55 101t105 38q63 0 89 -50t11 -138q-20 -118 -98.5 -208t-175.5 -107l-13 102q87 26 121 125
q-53 6 -78 42.5t-16 94.5z" />
    <glyph glyph-name="numbersign" unicode="#" horiz-adv-x="1429" 
d="M307 328h-188l39 227h229l127 317h-176l41 228h215l127 334h235l-127 -334h301l130 334h233l-127 -334h199l-41 -228h-238l-127 -317h182l-38 -227h-224l-114 -297h-234l115 297h-303l-115 -297h-233zM621 555h303l129 317h-305z" />
    <glyph glyph-name="dollar" unicode="$" horiz-adv-x="987" 
d="M66 123l92 219q164 -129 364 -129l70 391q-140 69 -192 106q-153 108 -155 270q-1 38 7 81q31 174 162 278t325 107l41 229h54l-41 -231q197 -15 346 -121l-90 -213q-138 97 -295 109l-70 -404l1 -1h1l1 -1h1l1 -1h1l1 -1h1q140 -74 197 -124q143 -123 110 -312
q-28 -159 -150 -262.5t-312 -120.5l-41 -234h-54l39 230q-244 0 -415 135zM633 842l65 379q-100 -1 -160.5 -43t-72.5 -113t31.5 -121t136.5 -102zM641 580l-63 -363q91 13 146.5 57.5t66.5 108.5q11 63 -28.5 107.5t-121.5 89.5z" />
    <glyph glyph-name="percent" unicode="%" horiz-adv-x="2084" 
d="M276 1055q31 183 154.5 296t292.5 113q167 0 251 -113t52 -296t-155.5 -296.5t-290.5 -113.5q-169 0 -253.5 113.5t-50.5 296.5zM913 0h-235l745 1434h234zM465 1055q-19 -101 22 -165.5t121 -64.5q83 0 146 64t82 166q19 101 -22.5 164t-123.5 63t-145 -63t-80 -164z
M1311 379q32 183 155.5 296t290.5 113q168 0 252 -113t53 -296q-34 -183 -158 -296.5t-292 -113.5q-167 0 -250 113.5t-51 296.5zM1501 379q-19 -101 21.5 -165t122.5 -64q83 0 145.5 63.5t81.5 165.5q17 101 -24 164t-124 63q-82 0 -144 -63t-79 -164z" />
    <glyph glyph-name="ampersand" unicode="&#x26;" horiz-adv-x="1460" 
d="M459 756q-79 145 -51 299q32 186 177 297.5t359 111.5q222 0 312 -124t40 -343h-182q29 110 -22.5 172t-169.5 62q-108 0 -178 -54t-89 -155q-12 -67 11 -133t96 -146t116 -119.5t155 -133.5q24 -21 36 -31q57 97 82 227h-195l33 180h576l-33 -180h-166
q-37 -205 -135 -360q100 -83 151 -154l-161 -190q-44 78 -134 165q-200 -178 -481 -178q-226 0 -343 114t-83 304q22 120 96.5 218t182.5 151zM573 604q-113 -69 -133 -180q-17 -101 47 -161t187 -60q148 0 250 92q-26 21 -113.5 90.5t-142 119t-95.5 99.5z" />
    <glyph glyph-name="quotesingle" unicode="'" horiz-adv-x="577" 
d="M387 1325q10 63 55 101t105 38q63 0 89 -50t11 -138q-20 -118 -98.5 -208t-175.5 -107l-13 102q87 26 121 125q-53 6 -78 42.5t-16 94.5z" />
    <glyph glyph-name="parenleft" unicode="(" horiz-adv-x="585" 
d="M252 631q48 260 147.5 490t221.5 384h231q-115 -142 -207 -374t-139 -498q-47 -267 -37.5 -499.5t74.5 -375.5h-232q-67 153 -84.5 375t25.5 498z" />
    <glyph glyph-name="parenright" unicode=")" horiz-adv-x="585" 
d="M553 631q-45 -260 -144.5 -490t-222.5 -383h-229q115 142 206.5 375t137.5 500q49 266 39.5 497.5t-74.5 374.5h230q67 -155 84 -376t-27 -498z" />
    <glyph glyph-name="asterisk" unicode="*" horiz-adv-x="600" 
d="M567 768l-86 258l-180 -266l-98 123l200 200l-186 82l80 156l166 -133l29 291h137l-70 -291l215 135l25 -149l-219 -91l127 -200z" />
    <glyph glyph-name="plus" unicode="+" horiz-adv-x="927" 
d="M457 483h-285l39 228h287l59 346h184l-61 -346h285l-39 -228h-285l-61 -348h-185z" />
    <glyph glyph-name="comma" unicode="," horiz-adv-x="442" 
d="M82 111q12 63 56 101t104 38q61 0 88 -50.5t12 -138.5q-20 -119 -97.5 -208.5t-174.5 -106.5l-13 102q90 28 119 125q-53 6 -78 43t-16 95z" />
    <glyph glyph-name="hyphen" unicode="-" horiz-adv-x="1052" 
d="M1049 711l-41 -228h-795l41 228h795z" />
    <glyph glyph-name="period" unicode="." horiz-adv-x="489" 
d="M129 109q12 64 56 102.5t104 38.5q59 0 89.5 -38.5t18.5 -102.5q-10 -63 -54.5 -101.5t-104.5 -38.5t-90 38.5t-19 101.5z" />
    <glyph glyph-name="slash" unicode="/" horiz-adv-x="866" 
d="M-6 -31l1046 1495h172l-1028 -1495h-190z" />
    <glyph glyph-name="zero" unicode="0" horiz-adv-x="1349" 
d="M668 -31q-270 0 -392.5 202t-62.5 546q62 344 255.5 545.5t463.5 201.5q272 0 395 -201t62 -546q-60 -345 -254.5 -546.5t-466.5 -201.5zM467 717q-43 -245 19 -379.5t223 -134.5q163 0 274 134.5t154 379.5q42 246 -20.5 380t-225.5 134q-162 0 -272.5 -135t-151.5 -379
z" />
    <glyph glyph-name="one" unicode="1" horiz-adv-x="796" 
d="M309 1210q124 0 226.5 60.5t156.5 163.5h240l-252 -1434h-240l205 1161q-57 -75 -164 -125.5t-211 -50.5z" />
    <glyph glyph-name="two" unicode="2" horiz-adv-x="1126" 
d="M123 227q14 77 44.5 141t76 113t89.5 83t105 71q54 32 131.5 66t134 59t113.5 59t92.5 82t46.5 111q19 104 -32.5 161.5t-163.5 57.5q-164 0 -385 -105l-23 220q242 118 461 118q224 0 326.5 -126t64.5 -351q-13 -76 -39.5 -140.5t-65 -113t-79 -86t-95 -68.5t-99 -51
t-103.5 -43q-17 -7 -56.5 -22.5t-57 -22.5t-51 -21.5t-50 -24.5t-42 -25t-39 -29t-29 -32t-24 -38t-12.5 -43h682l-40 -227h-920z" />
    <glyph glyph-name="three" unicode="3" horiz-adv-x="1175" 
d="M74 88l100 219q94 -56 177 -80t184 -24q300 0 335 213q17 95 -35.5 147.5t-166.5 52.5h-213l39 226h184q115 0 182.5 50.5t85.5 141.5q15 96 -40 146.5t-183 50.5q-177 0 -356 -105l-25 220q201 118 453 118q225 0 333.5 -100t77.5 -277q-23 -127 -100.5 -215.5
t-196.5 -123.5q120 -28 176 -127.5t31 -243.5q-35 -196 -189 -302t-405 -106q-243 0 -448 119z" />
    <glyph glyph-name="four" unicode="4" horiz-adv-x="1185" 
d="M117 289l30 172l811 973h240l-162 -920h195l-39 -225h-195l-51 -289h-239l51 289h-641zM430 514h369l94 541z" />
    <glyph glyph-name="five" unicode="5" horiz-adv-x="1146" 
d="M84 88l102 219q102 -56 179.5 -80t158.5 -24q147 0 236 70.5t112 201.5q23 125 -32 194.5t-172 69.5q-149 0 -242 -90l-170 78l203 707h772l-39 -228h-602l-101 -342q142 107 304 107q190 0 280.5 -135t52.5 -361q-43 -242 -202.5 -374t-407.5 -132q-231 0 -432 119z" />
    <glyph glyph-name="six" unicode="6" horiz-adv-x="1259" 
d="M662 -31q-262 0 -378.5 197t-56.5 532q63 355 266 560.5t494 205.5q212 0 389 -118l-98 -220q-169 105 -326 105q-99 0 -180.5 -40t-136.5 -110t-90 -159.5t-49 -194.5q68 114 180 180t239 66q198 0 291.5 -130t55.5 -347q-43 -237 -206.5 -382t-393.5 -145zM811 743
q-101 0 -196.5 -61.5t-151.5 -159.5q0 -319 242 -319q117 0 197.5 74.5t103.5 201.5q22 125 -29.5 194.5t-165.5 69.5z" />
    <glyph glyph-name="seven" unicode="7" horiz-adv-x="1021" 
d="M348 1434h846l-29 -172l-686 -1262h-276l684 1206h-578z" />
    <glyph glyph-name="eight" unicode="8" horiz-adv-x="1208" 
d="M598 -31q-253 0 -372 107t-85 301q25 145 117.5 242.5t230.5 125.5q-106 37 -153 127t-25 215q31 175 176 276t375 101q228 0 338.5 -101t79.5 -276q-22 -124 -101.5 -214.5t-199.5 -127.5q130 -28 188 -125.5t33 -242.5q-35 -194 -192 -301t-410 -107zM555 1034
q-17 -92 33.5 -144t163.5 -52q112 0 181 52t87 144q15 92 -36.5 144.5t-162.5 52.5q-112 0 -181.5 -52.5t-84.5 -144.5zM715 631q-128 0 -207 -56.5t-96 -158.5q-19 -102 40 -157.5t187 -55.5q129 0 208.5 56t96.5 157q19 102 -41 158.5t-188 56.5z" />
    <glyph glyph-name="nine" unicode="9" horiz-adv-x="1267" 
d="M256 938q41 236 208.5 381t399.5 145q263 0 376 -194t52 -539q-63 -362 -263 -562t-497 -200q-219 0 -401 119l100 219q168 -104 328 -104q190 0 308.5 134t162.5 372q-67 -118 -179.5 -183t-244.5 -65q-198 0 -293 129.5t-57 347.5zM512 952q-23 -124 30 -193t169 -69
q102 0 198.5 57.5t151.5 153.5q3 162 -58 246t-182 84q-119 0 -203 -76t-106 -203z" />
    <glyph glyph-name="colon" unicode=":" horiz-adv-x="503" 
d="M279 913q10 64 54.5 103t104.5 39q59 0 90 -39t21 -103q-12 -63 -56.5 -101t-103.5 -38q-60 0 -90 38t-20 101zM137 109q12 64 55 102.5t103 38.5q61 0 92 -38.5t19 -102.5q-10 -62 -55.5 -101t-104.5 -39q-60 0 -90 38.5t-19 101.5z" />
    <glyph glyph-name="semicolon" unicode=";" horiz-adv-x="458" 
d="M231 913q10 64 55.5 103t104.5 39q60 0 90.5 -39t20.5 -103q-12 -63 -56 -101t-104 -38q-59 0 -90 38.5t-21 100.5zM90 111q12 63 55.5 101t102.5 38q63 0 90 -50.5t12 -138.5q-22 -120 -99.5 -209t-174.5 -106l-10 102q89 29 118 125q-54 6 -78.5 42.5t-15.5 95.5z" />
    <glyph glyph-name="less" unicode="&#x3c;" horiz-adv-x="796" 
d="M885 1110l-51 -287l-478 -227l400 -227l-49 -287l-519 399l41 232z" />
    <glyph glyph-name="equal" unicode="=" horiz-adv-x="989" 
d="M1032 743h-815l41 228h815zM166 455h815l-39 -228h-815z" />
    <glyph glyph-name="greater" unicode="&#x3e;" horiz-adv-x="796" 
d="M119 82l49 287l481 227l-399 227l51 287l516 -397l-41 -232z" />
    <glyph glyph-name="question" unicode="?" horiz-adv-x="995" 
d="M297 1163l-23 219q245 154 474 154q212 0 317 -124t68 -331q-16 -91 -54.5 -161t-87 -112.5t-104 -76t-109 -60t-98.5 -54.5t-76.5 -69t-38.5 -95l-8 -43h-207l10 77q12 79 45 141.5t76.5 102.5t94 72.5t100.5 60t93 57.5t74 73t40 98q17 98 -37.5 154.5t-163.5 56.5
q-85 0 -187.5 -39.5t-197.5 -100.5zM365 -96q-62 0 -93.5 39.5t-19.5 105.5q10 64 56 104t106 40q62 0 93 -40t21 -104q-12 -65 -57 -105t-106 -40z" />
    <glyph glyph-name="at" unicode="@" horiz-adv-x="1740" 
d="M86 608q35 196 133.5 364t238.5 284t315 181.5t360 65.5q243 0 416 -109t247 -309t29 -458q-22 -122 -67 -217t-103.5 -153t-124.5 -87.5t-137 -30.5q-90 0 -142 62.5t-53 177.5q-72 -123 -187 -195.5t-241 -72.5q-175 0 -269.5 135.5t-58.5 349.5q38 213 181.5 349
t318.5 136q113 0 197 -60.5t118 -164.5l35 195h195l-82 -467q-25 -149 8.5 -224t114.5 -75q84 0 144.5 92.5t90.5 259.5q34 182 0.5 330t-118 253t-219.5 162.5t-304 57.5q-233 0 -439.5 -104t-348.5 -295t-184 -433q-32 -182 4.5 -337.5t127.5 -263.5t232 -169t315 -61
q332 0 568 209l26 -52q-250 -221 -606 -221q-186 0 -338 65.5t-250.5 181.5t-138 284t-4.5 364zM639 596q-25 -137 38.5 -226t186.5 -89q125 0 224 90.5t124 224.5q23 136 -43.5 226.5t-191.5 90.5q-123 0 -219 -89.5t-119 -227.5z" />
    <glyph glyph-name="A" unicode="A" horiz-adv-x="1388" 
d="M795 1434h305l274 -1434h-266l-53 315h-611l-163 -315h-269zM551 541h477l-117 696z" />
    <glyph glyph-name="B" unicode="B" horiz-adv-x="1327" 
d="M399 1434h629q198 0 296 -102t67 -275q-19 -105 -77 -182.5t-149 -118.5q97 -43 138 -134t18 -219q-32 -187 -166.5 -295t-333.5 -108h-674zM956 1206h-372l-64 -362h375q98 0 160.5 47t79.5 135q15 88 -32 134t-147 46zM899 616h-420l-67 -389h417q98 0 162.5 50.5
t81.5 144.5q17 92 -30 143t-144 51z" />
    <glyph glyph-name="C" unicode="C" horiz-adv-x="1236" 
d="M768 -31q-155 0 -276.5 54.5t-194 153t-101 236t2.5 304.5q40 220 157.5 390t293 263.5t382.5 93.5q220 0 402 -106l-103 -221q-159 94 -340 94q-203 0 -350.5 -140.5t-187.5 -373.5q-41 -233 56 -373.5t300 -140.5q180 0 373 94l24 -221q-219 -107 -438 -107z" />
    <glyph glyph-name="D" unicode="D" horiz-adv-x="1425" 
d="M399 1434h527q311 0 460 -194.5t91 -522.5q-57 -327 -275 -522t-528 -195h-527zM426 227h262q203 0 351 134t186 356q40 222 -60.5 355.5t-304.5 133.5h-260z" />
    <glyph glyph-name="E" unicode="E" horiz-adv-x="1161" 
d="M399 1434h910l-39 -228h-670l-61 -348h626l-41 -225h-626l-72 -406h670l-39 -227h-910z" />
    <glyph glyph-name="F" unicode="F" horiz-adv-x="1103" 
d="M387 0h-240l252 1434h893l-39 -228h-653l-74 -415h604l-38 -228h-607z" />
    <glyph glyph-name="G" unicode="G" horiz-adv-x="1366" 
d="M659 -31q-116 0 -213.5 53.5t-161.5 152t-89.5 236.5t4.5 306q60 336 290.5 538.5t552.5 202.5q220 0 406 -110l-102 -222q-168 99 -332 99q-219 0 -369.5 -135.5t-191.5 -372.5q-41 -229 47 -371.5t243 -142.5q124 0 228.5 96.5t148.5 251.5h-327l41 227h573l-137 -778
h-187l66 367q-33 -81 -77.5 -148.5t-104.5 -125.5t-139 -91t-169 -33z" />
    <glyph glyph-name="H" unicode="H" horiz-adv-x="1470" 
d="M399 1434h240l-100 -576h696l102 576h238l-252 -1434h-240l113 633h-698l-111 -633h-240z" />
    <glyph glyph-name="I" unicode="I" horiz-adv-x="536" 
d="M147 0l252 1434h240l-252 -1434h-240z" />
    <glyph glyph-name="J" unicode="J" horiz-adv-x="1089" 
d="M18 59l101 224q177 -80 330 -80t249 103t131 304l146 824h239l-147 -832q-53 -299 -226.5 -466t-432.5 -167q-193 0 -390 90z" />
    <glyph glyph-name="K" unicode="K" horiz-adv-x="1335" 
d="M399 1434h240l-119 -678l699 678h307l-670 -643l463 -791h-301l-342 610l-217 -204l-72 -406h-240z" />
    <glyph glyph-name="L" unicode="L" horiz-adv-x="1062" 
d="M147 0l252 1434h240l-213 -1207h647l-39 -227h-887z" />
    <glyph glyph-name="M" unicode="M" horiz-adv-x="1820" 
d="M147 0l252 1434h324l248 -1084l631 1084h323l-252 -1434h-239l190 1077l-627 -1077h-174l-245 1077l-191 -1077h-240z" />
    <glyph glyph-name="N" unicode="N" horiz-adv-x="1447" 
d="M147 0l252 1434h240l494 -1024l180 1024h239l-252 -1434h-239l-494 1024l-180 -1024h-240z" />
    <glyph glyph-name="O" unicode="O" horiz-adv-x="1546" 
d="M768 -31q-311 0 -469 206t-100 542q60 335 290.5 541t542.5 206q204 0 347 -92.5t201 -263t19 -391.5q-60 -336 -290 -542t-541 -206zM809 203q206 0 352.5 142.5t186.5 371.5q26 150 -7 266.5t-123.5 182t-226.5 65.5q-206 0 -352 -142.5t-186 -371.5t55 -371.5
t301 -142.5z" />
    <glyph glyph-name="P" unicode="P" horiz-adv-x="1284" 
d="M1384 909q-44 -251 -215 -388.5t-438 -137.5h-276l-68 -383h-240l252 1434h516q267 0 390 -137.5t79 -387.5zM1133 909q52 297 -273 297h-260l-106 -596h260q326 0 379 299z" />
    <glyph glyph-name="Q" unicode="Q" horiz-adv-x="1546" 
d="M1069 -264l-41 -242q-72 -2 -133.5 -0.5t-112.5 7.5t-90 21t-65.5 38.5t-39.5 60t-12 86.5q4 94 130 264q-139 12 -247 70t-173.5 155t-90 229t4.5 292q60 335 290.5 541t542.5 206q204 0 347 -92.5t201 -263t19 -391.5q-55 -314 -263 -516.5t-494 -227.5
q-86 -128 -82 -178q2 -71 139 -71q56 0 170 12zM809 203q206 0 352.5 142.5t186.5 371.5q26 150 -7 266.5t-123.5 182t-226.5 65.5q-206 0 -352 -142.5t-186 -371.5t55 -371.5t301 -142.5z" />
    <glyph glyph-name="R" unicode="R" horiz-adv-x="1300" 
d="M735 0l-63 504h-197l-88 -504h-240l252 1434h533q266 0 385 -117t78 -346q-31 -180 -142 -287t-321 -156l49 -303h281l-39 -225h-488zM877 1206h-277l-84 -477h266q162 0 251 57t112 185q22 123 -43.5 179t-224.5 56z" />
    <glyph glyph-name="S" unicode="S" horiz-adv-x="1130" 
d="M63 106l103 228q195 -131 403 -131q141 0 225.5 47.5t98.5 124.5q9 54 -25 97.5t-95 74.5t-136.5 62t-149 70.5t-132 88.5t-86.5 126t-11 175q32 181 184.5 288t380.5 107q128 0 247.5 -33.5t209.5 -89.5l-102 -223q-182 113 -392 113q-121 0 -191.5 -42.5t-82.5 -115.5
q-8 -45 11 -83.5t57.5 -68t90.5 -56t110 -53t115.5 -55.5t108 -66.5t86 -82t50.5 -106.5t2 -135q-31 -178 -194.5 -288t-416.5 -110q-260 0 -469 137z" />
    <glyph glyph-name="T" unicode="T" horiz-adv-x="1271" 
d="M233 1206l39 228h1231l-39 -228h-495l-213 -1206h-240l213 1206h-496z" />
    <glyph glyph-name="U" unicode="U" horiz-adv-x="1398" 
d="M242 643l139 791h240l-140 -785q-37 -212 29.5 -329t224.5 -117q157 0 264.5 116.5t145.5 329.5l137 785h240l-140 -791q-55 -312 -240 -493t-448 -181q-264 0 -385.5 181t-66.5 493z" />
    <glyph glyph-name="V" unicode="V" horiz-adv-x="1394" 
d="M270 1434h279l184 -1227l619 1227h278l-772 -1434h-321z" />
    <glyph glyph-name="W" unicode="W" horiz-adv-x="2164" 
d="M270 1434h275l123 -1227l557 1227h221l125 -1227l555 1227h274l-696 -1434h-322l-120 1018l-480 -1018h-321z" />
    <glyph glyph-name="X" unicode="X" horiz-adv-x="1267" 
d="M16 0l582 727l-297 707h289l203 -541l393 541h287l-543 -707l323 -727h-297l-221 565l-422 -565h-297z" />
    <glyph glyph-name="Y" unicode="Y" horiz-adv-x="1239" 
d="M578 438l-320 996h268l213 -762l480 762h270l-672 -996l-78 -438h-239z" />
    <glyph glyph-name="Z" unicode="Z" horiz-adv-x="1138" 
d="M55 0l31 172l911 1034h-721l39 228h1016l-28 -172l-920 -1035h747l-38 -227h-1037z" />
    <glyph glyph-name="bracketleft" unicode="[" horiz-adv-x="745" 
d="M414 1505h532l-41 -227h-293l-227 -1292h291l-39 -228h-533z" />
    <glyph glyph-name="backslash" unicode="\" horiz-adv-x="874" 
d="M436 1464l482 -1495h-201l-481 1495h200z" />
    <glyph glyph-name="bracketright" unicode="]" horiz-adv-x="770" 
d="M88 -14h291l229 1292h-291l41 227h531l-309 -1747h-531z" />
    <glyph glyph-name="asciicircum" unicode="^" horiz-adv-x="1048" 
d="M207 668l426 766h285l153 -766h-229l-99 577l-307 -577h-229z" />
    <glyph glyph-name="underscore" unicode="_" horiz-adv-x="1083" 
d="M1051 -31l-39 -227h-1035l39 227h1035z" />
    <glyph glyph-name="grave" unicode="`" horiz-adv-x="796" 
d="M700 1176h-114l-62 360h144z" />
    <glyph glyph-name="a.1" unicode="a" horiz-adv-x="1249" 
d="M156 512q28 159 110 283.5t197 192t242 67.5q121 0 211.5 -65.5t130.5 -178.5l34 213h224l-181 -1024h-223l39 213q-79 -113 -192.5 -178.5t-235.5 -65.5q-193 0 -295.5 151.5t-60.5 391.5zM387 512q-27 -152 38.5 -250t199.5 -98t237.5 100t128.5 248q27 149 -42 248.5
t-204 99.5q-132 0 -232 -98t-126 -250z" />
    <glyph glyph-name="b" unicode="b" horiz-adv-x="1239" 
d="M1264 512q-41 -240 -197.5 -391.5t-351.5 -151.5q-120 0 -210 65t-130 179l-37 -213h-223l266 1505h223l-125 -694q80 113 194 178.5t236 65.5q193 0 295 -151.5t60 -391.5zM1034 512q26 152 -39 249t-198 97q-136 0 -240 -98.5t-129 -247.5q-27 -148 42 -247t204 -99
q134 0 234 97t126 249z" />
    <glyph glyph-name="c" unicode="c" horiz-adv-x="1034" 
d="M772 1055q193 0 326 -121l-80 -180q-123 104 -260 104q-140 0 -242.5 -95.5t-130.5 -250.5q-26 -156 42.5 -251t207.5 -95t297 104l16 -180q-173 -121 -366 -121q-230 0 -348.5 151.5t-77.5 391.5q43 241 214.5 392t401.5 151z" />
    <glyph glyph-name="d" unicode="d" horiz-adv-x="1284" 
d="M156 512q28 159 110 283.5t197.5 192t241.5 67.5q121 0 210.5 -65.5t128.5 -178.5l123 694h224l-267 -1505h-221l37 213q-78 -113 -191.5 -178.5t-234.5 -65.5q-195 0 -297.5 151.5t-60.5 391.5zM385 512q-26 -152 40 -249t200 -97t237.5 99t130.5 247q25 149 -43 247.5
t-202 98.5t-234.5 -97t-128.5 -249z" />
    <glyph glyph-name="e.1" unicode="e" horiz-adv-x="1085" 
d="M1022 96q-83 -59 -194 -93t-218 -34q-235 0 -363.5 153t-90.5 390q38 239 194 387t369 156q89 3 163 -21t120.5 -65t70 -95.5t19.5 -110.5t-39 -112.5t-99 -99.5q-30 -51 -151 -93.5t-412 -101.5q21 -91 96.5 -140.5t176.5 -49.5q78 0 170 29t172 79zM696 858
q-125 -9 -212.5 -114t-94.5 -261q227 46 338.5 81t142.5 83q28 26 38 58.5t-0.5 62.5t-35.5 54t-71.5 34.5t-104.5 1.5z" />
    <glyph glyph-name="f.1" unicode="f" horiz-adv-x="952" 
d="M260 805l37 219h219l-27 145q24 148 140 253.5t282 105.5q120 0 222 -45l-97 -230q-88 41 -155 41q-81 0 -137 -51t-74 -153l-13 -66h330l-37 -219h-303l-235 -1317h-404l39 219l182 2l195 1096h-164z" />
    <glyph glyph-name="g.1" unicode="g" horiz-adv-x="1222" 
d="M137 512q41 239 198 391t351 152q121 0 211.5 -65.5t128.5 -178.5l37 213h223l-170 -956q-101 -580 -665 -580q-217 0 -414 90l86 199q177 -80 356 -80q98 0 173 28t122.5 79t75.5 111t41 134l31 166q-79 -116 -189 -181t-231 -65q-204 0 -306 150.5t-59 392.5zM365 512
q-26 -152 40.5 -249t200.5 -97t237 99t130 247q25 150 -43 248t-203 98q-134 0 -235 -97t-127 -249z" />
    <glyph glyph-name="h" unicode="h" horiz-adv-x="1234" 
d="M158 0l266 1505h221l-123 -698q80 113 194 180.5t236 67.5q160 0 232.5 -111t38.5 -307l-113 -637h-223l104 590q23 132 -16 200t-139 68q-128 0 -234 -100t-131 -246l-90 -512h-223z" />
    <glyph glyph-name="i.1" unicode="i" horiz-adv-x="645" 
d="M387 1384q12 68 58 112t108 44q63 0 93 -43.5t18 -112.5q-12 -70 -57 -112.5t-109 -42.5q-63 0 -93 43t-18 112zM182 0l180 1024h138q45 1 58.5 -35t2.5 -98l-117 -664h142l-41 -227h-363z" />
    <glyph glyph-name="j" unicode="j" horiz-adv-x="557" 
d="M385 1384q12 69 57.5 112.5t108.5 43.5q62 0 92.5 -44t18.5 -112q-12 -70 -57 -112.5t-109 -42.5t-93.5 42.5t-17.5 112.5zM-272 -467l77 182q64 -30 134 -30q175 0 219 249l190 1090h223l-194 -1102q-38 -218 -157 -326t-286 -108q-111 0 -206 45z" />
    <glyph glyph-name="k.1" unicode="k" horiz-adv-x="1198" 
d="M424 1505h221l-131 -741l463 260q134 0 202 -83.5t42 -227.5q-25 -143 -123 -230.5t-244 -87.5h-57l256 -395h-258l-238 395l25 133h209q200 0 227 158q11 62 -12 101.5t-70 39.5l-453 -241l-104 -586h-221z" />
    <glyph glyph-name="l" unicode="l" horiz-adv-x="557" 
d="M158 0l266 1505h221l-264 -1505h-223z" />
    <glyph glyph-name="m" unicode="m" horiz-adv-x="1740" 
d="M332 1024h221l-37 -223q54 116 145.5 185t202.5 69q113 0 180 -74.5t72 -202.5q159 277 377 277q145 0 208 -111t28 -307l-111 -637h-223l104 590q24 135 -9.5 201.5t-109.5 66.5q-99 0 -183.5 -102t-109.5 -244l-90 -512h-223l105 590q21 126 -16 197t-120 71
q-99 0 -175.5 -97.5t-102.5 -234.5l-92 -526h-221z" />
    <glyph glyph-name="n" unicode="n" horiz-adv-x="1210" 
d="M809 858q-128 0 -233.5 -100t-131.5 -246l-90 -512h-223l182 1024h222l-37 -217q78 112 192.5 180t235.5 68q161 0 233 -111t37 -307l-113 -637h-221l105 590q23 132 -17 200t-141 68z" />
    <glyph glyph-name="o" unicode="o" horiz-adv-x="1163" 
d="M553 -31q-238 0 -358.5 149.5t-77.5 393.5t216 393.5t410 149.5q238 0 359 -149.5t78 -393.5t-216 -393.5t-411 -149.5zM588 166q136 0 236 96.5t128 249.5q27 153 -39 249.5t-202 96.5q-137 0 -238 -97t-127 -249q-27 -152 39 -249t203 -97z" />
    <glyph glyph-name="p" unicode="p" horiz-adv-x="1282" 
d="M72 -481l266 1505h223l-39 -213q80 114 193 179t235 65q193 0 296 -151.5t61 -391.5q-28 -159 -110 -283.5t-197 -192t-242 -67.5q-121 0 -211.5 65.5t-128.5 178.5l-123 -694h-223zM838 858q-134 0 -238 -98.5t-129 -247.5q-26 -148 43 -247t203 -99q133 0 233.5 97
t126.5 249t-39.5 249t-199.5 97z" />
    <glyph glyph-name="q" unicode="q" horiz-adv-x="1284" 
d="M705 1055q122 0 211 -65t128 -179l37 213h224l-265 -1505h-223l123 694q-79 -113 -192.5 -178.5t-235.5 -65.5q-193 0 -295 151.5t-61 391.5q28 159 110 283.5t197.5 192t241.5 67.5zM625 166q135 0 238 99t128 247q26 149 -41.5 247.5t-201.5 98.5t-235.5 -97
t-127.5 -249t40 -249t200 -97z" />
    <glyph glyph-name="r" unicode="r" horiz-adv-x="780" 
d="M913 1036l-39 -211q-40 24 -108 17q-117 -8 -213.5 -122t-126.5 -286l-76 -434h-221l180 1024h221l-34 -205q68 113 153.5 174.5t177.5 61.5q39 0 86 -19z" />
    <glyph glyph-name="s" unicode="s" horiz-adv-x="976" 
d="M72 96l82 187q72 -49 176 -83t196 -34q83 0 136 28t61 72q6 33 -21.5 62t-75 52.5t-105.5 48t-115 57t-102 72t-67 99t-10 131.5q23 127 130.5 197t275.5 70q215 0 409 -119l-94 -186q-90 51 -165.5 79.5t-161.5 28.5q-153 0 -168 -94q-7 -36 13 -67.5t57 -53.5
t85.5 -45.5t99.5 -44.5t98.5 -50.5t83 -62.5t52 -81.5t6.5 -106.5q-21 -125 -142.5 -204t-309.5 -79q-123 0 -234 35t-190 92z" />
    <glyph glyph-name="t" unicode="t" horiz-adv-x="794" 
d="M551 805l-68 -391q-3 -16 -5.5 -32.5t-3.5 -48.5t3.5 -56.5t19 -47t38.5 -28.5q31 -7 105 4t110 26l-7 -217q-113 -45 -194 -45q-175 0 -251.5 113.5t-39.5 320.5l72 402h-154l21 117l198 104l105 309h145l-55 -311h309l-39 -219h-309z" />
    <glyph glyph-name="u" unicode="u" horiz-adv-x="1212" 
d="M528 1024l-104 -590q-23 -132 15.5 -200t135.5 -68q123 0 225 100t128 246l90 512h223l-182 -1024h-221q3 18 18 106.5t18 106.5q-77 -112 -186.5 -178t-228.5 -66q-157 0 -228.5 111t-37.5 307l112 637h223z" />
    <glyph glyph-name="v" unicode="v" horiz-adv-x="1081" 
d="M188 1024h240l145 -836l441 836h239l-569 -1024h-287z" />
    <glyph glyph-name="w" unicode="w" horiz-adv-x="1824" 
d="M659 0h-274l-188 1024h239l125 -836l422 836h219l127 -836l420 836h240l-549 -1024h-277l-119 748z" />
    <glyph glyph-name="x" unicode="x" horiz-adv-x="1005" 
d="M23 0l409 526l-203 498h240l147 -387l285 387h238l-379 -498l225 -526h-256l-151 412l-302 -412h-253z" />
    <glyph glyph-name="y" unicode="y" horiz-adv-x="1054" 
d="M369 0l-209 1024h241l146 -836l438 836h242l-856 -1536h-246l309 512h-65z" />
    <glyph glyph-name="z" unicode="z" horiz-adv-x="966" 
d="M922 0h-869l19 109l641 696h-488l39 219h830l-19 -109l-639 -696h525z" />
    <glyph glyph-name="braceleft" unicode="{" horiz-adv-x="770" 
d="M664 -229q-67 -13 -121 -13q-181 0 -263.5 100.5t-31.5 317.5l31 141q26 113 -11 162t-139 49l43 238q103 0 156 52t67 161l19 139q14 111 53 193.5t98.5 130.5t131.5 71t159 23q60 0 115 -12l-43 -240q-52 6 -99 0q-169 -18 -190 -229l-14 -99q-10 -84 -40.5 -144.5
t-72 -96.5t-104.5 -68q78 -46 107 -116t1 -193l-22 -98q-50 -212 112 -230q40 -6 96 0z" />
    <glyph glyph-name="bar" unicode="|" horiz-adv-x="612" 
d="M102 -481l351 1986h237l-350 -1986h-238z" />
    <glyph glyph-name="braceright" unicode="}" horiz-adv-x="770" 
d="M334 1524q64 12 121 12q69 0 123 -14t97 -45t66 -80t28 -118.5t-17 -160.5l-33 -139q-27 -114 9.5 -163.5t137.5 -49.5l-43 -238q-103 0 -155 -51.5t-66 -159.5l-16 -141q-28 -217 -146.5 -317.5t-298.5 -100.5q-49 0 -116 13l45 239q53 -6 100 0q164 18 188 230l13 98
q16 123 70.5 192.5t150.5 116.5q-39 24 -63.5 49t-43 62.5t-18 84t11.5 113.5l23 99q50 211 -109 229q-43 6 -98 0z" />
    <glyph glyph-name="asciitilde" unicode="~" horiz-adv-x="1071" 
d="M219 614q60 63 115.5 91t126.5 28q69 0 194 -41t199 -41q103 0 199 51l6 -131q-106 -118 -240 -118q-68 0 -193.5 41t-203.5 41q-104 0 -197 -52z" />
    <glyph glyph-name="exclamdown" unicode="&#xa1;" horiz-adv-x="524" 
d="M453 1079q-60 0 -90.5 38.5t-20.5 101.5q12 64 55.5 102.5t102.5 38.5q60 0 91 -38.5t21 -102.5q-12 -63 -56 -101.5t-103 -38.5zM340 -242h-242l217 1096h197z" />
    <glyph glyph-name="cent" unicode="&#xa2;" horiz-adv-x="1021" 
d="M193 717q41 235 206.5 386t388.5 157l50 276h53l-49 -279q173 -6 291 -118l-80 -181q-121 100 -244 105l-123 -692q128 6 283 104l14 -180q-159 -113 -332 -119l-49 -278h-53l49 276q-221 6 -333.5 157t-71.5 386zM633 373l121 688q-125 -14 -216 -108t-116 -236
q-26 -142 32.5 -236t178.5 -108z" />
    <glyph glyph-name="sterling" unicode="&#xa3;" horiz-adv-x="1067" 
d="M80 0l41 227h313l-20 453h-213l12 68h188l48 264q44 252 180 388t342 136q146 0 291 -84l-95 -221q-107 72 -221 72q-208 0 -262 -299l-45 -256h332l-13 -68h-329l-82 -453h487l-41 -227h-913z" />
    <glyph glyph-name="currency" unicode="&#xa4;" horiz-adv-x="954" 
d="M229 717q20 128 103 227l-99 158l158 160l125 -199q72 37 156 37q81 0 141 -37l197 199l100 -160l-156 -158q48 -95 27 -227q-27 -136 -109 -230l99 -157l-156 -160l-123 201q-76 -37 -155 -37q-82 0 -142 37l-194 -201l-101 160l156 157q-51 94 -27 230zM395 717
q-20 -107 26.5 -173.5t139.5 -66.5q89 0 160.5 64.5t91.5 175.5q19 107 -28 173t-140 66q-91 0 -161 -66t-89 -173z" />
    <glyph glyph-name="yen" unicode="&#xa5;" horiz-adv-x="1304" 
d="M575 549l-286 885h268l215 -762l479 762h269l-598 -885h249l-12 -68h-280l-29 -43l-12 -67h303l-11 -68h-305l-53 -303h-240l54 303h-301l10 68h303l12 67l-14 43h-283l13 68h249z" />
    <glyph glyph-name="brokenbar" unicode="&#xa6;" horiz-adv-x="610" 
d="M535 625h-238l156 880h237zM96 -512l156 881h237l-155 -881h-238z" />
    <glyph glyph-name="section" unicode="&#xa7;" horiz-adv-x="1038" 
d="M96 82l84 184q79 -48 179.5 -74t191.5 -26q193 0 217 129q6 34 -10.5 58t-48 36.5t-74.5 23t-90.5 18.5t-94.5 21.5t-88 32.5t-70 52.5t-40 80t0 115.5q24 131 117 215q-63 67 -41 195q28 155 145.5 238t312.5 83q228 0 373 -106l-84 -184q-42 32 -133 63t-186 31
q-181 0 -199 -121q-7 -42 21 -68t77.5 -38.5t110.5 -23t121 -29.5t106.5 -49t68.5 -89.5t7 -144.5q-25 -136 -108 -216q56 -69 34 -194q-28 -162 -149.5 -244t-327.5 -82q-245 0 -422 113zM584 846q-89 -26 -101 -109q-9 -52 24 -74.5t101 -35.5q96 -18 135 -33
q84 29 99 111q5 31 -3 52t-31.5 33.5t-44.5 18.5t-58 12q-20 5 -60.5 12.5t-60.5 12.5z" />
    <glyph glyph-name="dieresis" unicode="&#xa8;" horiz-adv-x="952" 
d="M766 1317q9 54 45 86.5t86 32.5q51 0 76 -32.5t16 -86.5t-46 -86.5t-87 -32.5t-74.5 32.5t-15.5 86.5zM426 1317q10 54 46.5 86.5t86.5 32.5q51 0 76 -32.5t16 -86.5t-46 -86.5t-87 -32.5t-75.5 32.5t-16.5 86.5z" />
    <glyph glyph-name="copyright" unicode="&#xa9;" horiz-adv-x="1466" 
d="M686 -31q-136 0 -247 36.5t-186 102.5t-122.5 159t-56.5 206.5t12 243.5q28 162 102.5 299t184.5 236.5t258.5 155.5t318.5 56q226 0 377 -97t208 -265t19 -385q-29 -162 -104 -299t-185.5 -237t-259.5 -156t-319 -56zM698 37q308 0 522.5 190t268.5 490q19 119 10 222
t-52.5 188t-112.5 145.5t-170 93.5t-224 33q-206 0 -374.5 -89t-274.5 -242.5t-141 -350.5t17 -350.5t189 -241.5t342 -88zM367 717q37 217 191 355t368 138q187 0 307 -114l-74 -166q-120 102 -246 102q-130 0 -221.5 -88t-116.5 -227q-24 -138 36.5 -226t189.5 -88
q128 0 282 101l17 -166q-168 -115 -348 -115q-214 0 -319 138.5t-66 355.5z" />
    <glyph glyph-name="ordfeminine" unicode="&#xaa;" horiz-adv-x="772" 
d="M211 934q20 109 99.5 172t201.5 63q92 0 150 -32t83 -72l11 57q18 100 -20.5 150.5t-127.5 50.5q-88 0 -235 -57l-13 135q157 63 297 63q163 0 225.5 -86t30.5 -266l-67 -391h-162l14 84q-36 -40 -106.5 -73.5t-163.5 -33.5q-122 0 -179 63.5t-38 172.5zM375 934
q-9 -56 24 -86.5t105 -30.5q118 0 211 80l14 76q-70 80 -184 80q-71 0 -115 -31.5t-55 -87.5z" />
    <glyph glyph-name="guillemotleft" unicode="&#xab;" horiz-adv-x="753" 
d="M469 596l240 389h182l-201 -389l64 -389h-183zM213 207l-104 389l241 389h180l-200 -389l63 -389h-180z" />
    <glyph glyph-name="logicalnot" unicode="&#xac;" horiz-adv-x="960" 
d="M182 551l41 227h742l-97 -549h-182l57 322h-561z" />
    <glyph glyph-name="registered" unicode="&#xae;" horiz-adv-x="1355" 
d="M131 1010q54 302 265.5 486.5t504.5 184.5q145 0 258.5 -48t182.5 -136t96 -212t-2 -275q-54 -301 -266 -485.5t-506 -184.5q-293 0 -440 184.5t-93 485.5zM197 1010q-47 -272 84 -438t395 -166t454.5 166t237.5 438q47 274 -84 440t-395 166q-263 0 -454 -166.5
t-238 -439.5zM584 600h-135l143 819h278q149 0 219 -71t46 -205q-18 -111 -88 -178t-181 -86l181 -279h-179l-151 266h-86zM846 1284h-144l-49 -280h144q176 0 200 139q14 72 -23 106.5t-128 34.5z" />
    <glyph glyph-name="macron" unicode="&#xaf;" horiz-adv-x="913" 
d="M971 1434l-35 -197h-528l32 197h531z" />
    <glyph glyph-name="degree" unicode="&#xb0;" horiz-adv-x="1302" 
d="M752 512q-220 0 -333 143t-73 369q40 227 203 369.5t383 142.5q218 0 329.5 -142.5t71.5 -369.5t-201.5 -369.5t-379.5 -142.5zM791 739q116 0 204 77t111 208q24 129 -37 207t-178 78q-116 0 -204.5 -78t-111.5 -207q-24 -128 38 -206.5t178 -78.5z" />
    <glyph glyph-name="plusminus" unicode="&#xb1;" horiz-adv-x="927" 
d="M508 776h-285l39 228h287l59 346h185l-62 -346h285l-39 -228h-285l-61 -348h-185zM127 227h754l-41 -227h-754z" />
    <glyph glyph-name="twosuperior" unicode="&#xb2;" horiz-adv-x="704" 
d="M250 877q14 75 57 124.5t111 90.5q33 20 86.5 43.5t87 39t63.5 46t37 71.5q18 111 -102 111q-91 0 -205 -57l-12 127q129 63 248 63q121 0 175.5 -67.5t34.5 -188.5q-11 -61 -37 -107.5t-65 -77.5t-74.5 -50t-83.5 -37q-11 -5 -38.5 -16t-38.5 -15.5t-32 -14.5
t-30.5 -17.5t-22 -18.5t-18 -23t-8.5 -26h362l-22 -129h-496z" />
    <glyph glyph-name="threesuperior" unicode="&#xb3;" horiz-adv-x="665" 
d="M174 782l57 127q95 -57 197 -57q77 0 123 28.5t55 82.5q9 51 -20.5 78.5t-93.5 27.5h-111l22 127h97q129 0 145 104q9 50 -19.5 75.5t-97.5 25.5q-98 0 -194 -58l-12 127q114 66 247 66q124 0 183.5 -55t42.5 -152q-12 -69 -55 -117.5t-109 -68.5q66 -15 97 -70t17 -133
q-19 -107 -103 -165t-222 -58q-133 0 -246 65z" />
    <glyph glyph-name="acute" unicode="&#xb4;" horiz-adv-x="798" 
d="M627 1180h-115l162 356h141z" />
    <glyph glyph-name="paragraph" unicode="&#xb6;" horiz-adv-x="1642" 
d="M174 829q47 261 226 433t395 172h958l-336 -1915h-237l295 1685h-238l-295 -1685h-240l125 708h-243q-144 0 -248.5 78t-147.5 216t-14 308zM657 453h209l133 751h-208q-137 0 -248.5 -108t-139.5 -269q-29 -159 44 -266.5t210 -107.5z" />
    <glyph glyph-name="periodcentered" unicode="&#xb7;" horiz-adv-x="534" 
d="M246 643q10 63 55 101t105 38q59 0 88.5 -38t19.5 -101t-55 -101t-105 -38q-59 0 -88.5 38t-19.5 101z" />
    <glyph glyph-name="cedilla" unicode="&#xb8;" horiz-adv-x="903" 
d="M160 -475l39 88q73 -33 125 -33q133 0 157 119q9 53 -9.5 80.5t-57.5 27.5q-26 0 -51.5 -11.5t-34.5 -20.5l-45 39l139 204h98l-108 -137q31 17 67 17q78 0 118.5 -52.5t23.5 -138.5q-19 -103 -96.5 -161t-196.5 -58q-92 0 -168 37z" />
    <glyph glyph-name="onesuperior" unicode="&#xb9;" horiz-adv-x="501" 
d="M346 1389q123 0 189 116h131l-134 -757h-133l109 606q-33 -42 -82 -67t-102 -25z" />
    <glyph glyph-name="ordmasculine" unicode="&#xba;" horiz-adv-x="854" 
d="M549 698q-167 0 -251.5 105.5t-55.5 277.5q31 172 153 277.5t289 105.5q169 0 253.5 -105.5t53.5 -277.5q-29 -172 -151 -277.5t-291 -105.5zM408 1081q-19 -104 27 -171.5t140 -67.5t163.5 67.5t88.5 171.5t-26.5 173t-138.5 69q-95 0 -165 -68.5t-89 -173.5z" />
    <glyph glyph-name="guillemotright" unicode="&#xbb;" horiz-adv-x="753" 
d="M614 207h-180l199 389l-62 389h181l102 -389zM74 207l198 389l-61 389h182l101 -389l-238 -389h-182z" />
    <glyph glyph-name="onequarter" unicode="&#xbc;" horiz-adv-x="1443" 
d="M346 1386q123 0 189 119h131l-134 -757h-133l109 606q-33 -42 -82 -68t-102 -26zM211 -31l1046 1495h173l-1029 -1495h-190zM717 158l16 94l428 536h135l-88 -503h101l-23 -127h-100l-29 -160h-135l29 160h-334zM897 285h176l51 284z" />
    <glyph glyph-name="onehalf" unicode="&#xbd;" horiz-adv-x="1470" 
d="M346 1386q123 0 189 119h131l-134 -757h-133l109 606q-33 -42 -82 -68t-102 -26zM197 -31l1046 1495h170l-1028 -1495h-188zM883 129q12 75 55.5 124.5t112.5 88.5q32 20 85.5 44.5t87 40t63 46.5t36.5 72q18 110 -100 110q-90 0 -207 -57l-12 127q132 63 247 63
q123 0 178 -68t33 -190q-8 -49 -28 -89t-43.5 -67t-57.5 -50t-62.5 -36.5t-66.5 -27.5q-11 -5 -38.5 -16t-38.5 -15.5t-32 -14.5t-30.5 -17.5t-22 -18.5t-18 -23t-8.5 -26h362l-22 -129h-496z" />
    <glyph glyph-name="threequarters" unicode="&#xbe;" horiz-adv-x="1521" 
d="M233 782l58 127q52 -31 96 -44t100 -13q77 0 123.5 28.5t55.5 82.5q9 51 -21 78.5t-94 27.5h-111l23 127h96q130 0 146 104q9 50 -19.5 75.5t-97.5 25.5q-99 0 -195 -58l-12 127q114 66 248 66q124 0 183 -55t42 -152q-12 -69 -55 -117.5t-109 -68.5q66 -15 97 -70
t18 -133q-19 -107 -103.5 -165t-222.5 -58q-133 0 -246 65zM303 -31l1047 1495h172l-1030 -1495h-189zM795 158l16 94l430 536h133l-88 -503h100l-22 -127h-100l-29 -160h-133l26 160h-333zM975 285h178l49 284z" />
    <glyph glyph-name="questiondown" unicode="&#xbf;" horiz-adv-x="995" 
d="M815 1151q61 0 93 -40t20 -105q-10 -64 -56 -104t-108 -40q-60 0 -91.5 40t-21.5 104q12 66 57 105.5t107 39.5zM885 -109l20 -219q-240 -153 -471 -153q-212 0 -317 123.5t-68 330.5q16 91 54 161t86.5 113t104 76.5t109.5 60t99 54.5t76 69t38 95l7 43h208l-12 -78
q-12 -79 -45 -141t-76.5 -101.5t-93.5 -72t-100 -60.5t-92 -58t-73 -73t-40 -98q-19 -97 36 -154t163 -57q167 0 387 139z" />
    <glyph glyph-name="Agrave" unicode="&#xc0;" horiz-adv-x="1388" 
d="M1024 1585h-117l-59 361h143zM795 1434h305l274 -1434h-266l-53 315h-611l-163 -315h-269zM551 541h477l-117 696z" />
    <glyph glyph-name="Aacute" unicode="&#xc1;" horiz-adv-x="1388" 
d="M1018 1589h-115l160 357h143zM795 1434h305l274 -1434h-266l-53 315h-611l-163 -315h-269zM551 541h477l-117 696z" />
    <glyph glyph-name="Acircumflex" unicode="&#xc2;" horiz-adv-x="1388" 
d="M684 1569l240 379h192l105 -379h-142l-75 284l-179 -284h-141zM795 1434h305l274 -1434h-266l-53 315h-611l-163 -315h-269zM551 541h477l-117 696z" />
    <glyph glyph-name="Atilde" unicode="&#xc3;" horiz-adv-x="1388" 
d="M717 1712q35 59 79 91t89 32q39 0 111 -44t120 -44q60 0 133 63l15 -122q-28 -48 -76 -74.5t-96 -26.5q-38 0 -111 40t-119 40q-61 0 -129 -68zM795 1434h305l274 -1434h-266l-53 315h-611l-163 -315h-269zM551 541h477l-117 696z" />
    <glyph glyph-name="Adieresis" unicode="&#xc4;" horiz-adv-x="1388" 
d="M1075 1726q9 54 45 86.5t86 32.5q51 0 76 -32.5t16 -86.5q-9 -53 -46 -85.5t-87 -32.5t-74.5 32t-15.5 86zM735 1726q10 54 46.5 86.5t86.5 32.5q51 0 76.5 -32.5t16.5 -86.5q-9 -53 -46.5 -85.5t-87.5 -32.5t-75.5 32t-16.5 86zM795 1434h305l274 -1434h-266l-53 315
h-611l-163 -315h-269zM551 541h477l-117 696z" />
    <glyph glyph-name="Aring" unicode="&#xc5;" horiz-adv-x="1388" 
d="M977 1618q-106 0 -162 67.5t-37 174.5t98.5 174t186.5 67q109 0 165.5 -67t37.5 -174t-99.5 -174.5t-189.5 -67.5zM901 1860q-9 -57 17 -91t81 -34t94 34t50 91q9 57 -17.5 91t-81.5 34t-93.5 -34t-49.5 -91zM795 1434h305l274 -1434h-266l-53 315h-611l-163 -315h-269z
M551 541h477l-117 696z" />
    <glyph glyph-name="AE" unicode="&#xc6;" horiz-adv-x="1880" 
d="M-10 0l975 1434h1060l-38 -228h-670l-60 -348h625l-41 -225h-624l-72 -406h670l-41 -227h-910l56 315h-449l-213 -315h-268zM1083 1237l-471 -696h349z" />
    <glyph glyph-name="Ccedilla" unicode="&#xc7;" horiz-adv-x="1236" 
d="M594 -10q-230 54 -337 249t-56 478q59 333 288 540t541 207q223 0 402 -106l-101 -221q-163 94 -340 94q-203 0 -350 -140.5t-188 -373.5t56 -373.5t300 -140.5q180 0 373 94l24 -221q-219 -107 -440 -107q-42 0 -88 6l-74 -94q34 17 70 17q78 0 117 -52t22 -139
q-19 -103 -96.5 -161t-196.5 -58q-94 0 -166 37l39 88q70 -33 125 -33q64 0 105 30t51 89q10 52 -9 80t-59 28q-46 0 -86 -32l-43 39z" />
    <glyph glyph-name="Egrave" unicode="&#xc8;" horiz-adv-x="1161" 
d="M948 1585h-114l-62 361h143zM399 1434h910l-39 -228h-670l-61 -348h626l-41 -225h-626l-72 -406h670l-39 -227h-910z" />
    <glyph glyph-name="Eacute" unicode="&#xc9;" horiz-adv-x="1161" 
d="M928 1589h-115l162 357h141zM399 1434h910l-39 -228h-670l-61 -348h626l-41 -225h-626l-72 -406h670l-39 -227h-910z" />
    <glyph glyph-name="Ecircumflex" unicode="&#xca;" horiz-adv-x="1161" 
d="M594 1569l240 379h190l106 -379h-141l-78 284l-176 -284h-141zM399 1434h910l-39 -228h-670l-61 -348h626l-41 -225h-626l-72 -406h670l-39 -227h-910z" />
    <glyph glyph-name="Edieresis" unicode="&#xcb;" horiz-adv-x="1161" 
d="M983 1726q9 54 46 86.5t87 32.5t75 -32.5t15 -86.5q-9 -54 -45.5 -86t-87.5 -32q-50 0 -74.5 32t-15.5 86zM645 1726q9 54 46 86.5t87 32.5t75.5 -32.5t16.5 -86.5q-9 -53 -46 -85.5t-87 -32.5t-75.5 32t-16.5 86zM399 1434h910l-39 -228h-670l-61 -348h626l-41 -225
h-626l-72 -406h670l-39 -227h-910z" />
    <glyph glyph-name="Igrave" unicode="&#xcc;" horiz-adv-x="536" 
d="M594 1585h-117l-59 361h143zM147 0l252 1434h240l-252 -1434h-240z" />
    <glyph glyph-name="Iacute" unicode="&#xcd;" horiz-adv-x="536" 
d="M594 1589h-115l160 357h143zM147 0l252 1434h240l-252 -1434h-240z" />
    <glyph glyph-name="Icircumflex" unicode="&#xce;" horiz-adv-x="536" 
d="M258 1569l238 379h192l107 -379h-144l-76 284l-176 -284h-141zM147 0l252 1434h240l-252 -1434h-240z" />
    <glyph glyph-name="Idieresis" unicode="&#xcf;" horiz-adv-x="536" 
d="M635 1731q9 53 46 85.5t87 32.5t74.5 -32t15.5 -86t-45.5 -86.5t-87.5 -32.5q-50 0 -74.5 32.5t-15.5 86.5zM297 1731q9 53 46 85.5t87 32.5t75 -32.5t15 -85.5q-9 -54 -45.5 -86.5t-87.5 -32.5q-50 0 -74.5 32.5t-15.5 86.5zM147 0l252 1434h240l-252 -1434h-240z" />
    <glyph glyph-name="Eth" unicode="&#xd0;" horiz-adv-x="1441" 
d="M268 586h-143l41 227h141l109 621h526q310 0 460 -194t93 -523q-59 -327 -277 -522t-528 -195h-526zM920 586h-414l-64 -359h263q204 0 351 134t185 356q40 222 -60 355.5t-304 133.5h-261l-69 -393h414z" />
    <glyph glyph-name="Ntilde" unicode="&#xd1;" horiz-adv-x="1447" 
d="M745 1712q33 59 77.5 91t90.5 32q32 0 71 -22t80.5 -44t80.5 -22q60 0 133 63l14 -122q-28 -47 -76.5 -74t-95.5 -27q-38 0 -110.5 40t-120.5 40q-58 0 -129 -68zM147 0l252 1434h240l494 -1024l180 1024h239l-252 -1434h-239l-494 1024l-180 -1024h-240z" />
    <glyph glyph-name="Ograve" unicode="&#xd2;" horiz-adv-x="1546" 
d="M1114 1585h-117l-61 361h145zM768 -31q-311 0 -469 206t-100 542q60 335 290.5 541t542.5 206q204 0 347 -92.5t201 -263t19 -391.5q-60 -336 -290 -542t-541 -206zM809 203q206 0 352.5 142.5t186.5 371.5q26 150 -7 266.5t-123.5 182t-226.5 65.5q-206 0 -352 -142.5
t-186 -371.5t55 -371.5t301 -142.5z" />
    <glyph glyph-name="Oacute" unicode="&#xd3;" horiz-adv-x="1546" 
d="M1110 1589h-115l160 357h143zM768 -31q-311 0 -469 206t-100 542q60 335 290.5 541t542.5 206q204 0 347 -92.5t201 -263t19 -391.5q-60 -336 -290 -542t-541 -206zM809 203q206 0 352.5 142.5t186.5 371.5q26 150 -7 266.5t-123.5 182t-226.5 65.5q-206 0 -352 -142.5
t-186 -371.5t55 -371.5t301 -142.5z" />
    <glyph glyph-name="Ocircumflex" unicode="&#xd4;" horiz-adv-x="1546" 
d="M764 1569l240 379h190l106 -379h-141l-78 284l-176 -284h-141zM768 -31q-311 0 -469 206t-100 542q60 335 290.5 541t542.5 206q204 0 347 -92.5t201 -263t19 -391.5q-60 -336 -290 -542t-541 -206zM809 203q206 0 352.5 142.5t186.5 371.5q26 150 -7 266.5t-123.5 182
t-226.5 65.5q-206 0 -352 -142.5t-186 -371.5t55 -371.5t301 -142.5z" />
    <glyph glyph-name="Otilde" unicode="&#xd5;" horiz-adv-x="1546" 
d="M797 1712q33 59 77.5 91t90.5 32q32 0 70.5 -22t80 -44t80.5 -22q57 0 133 63l14 -122q-28 -47 -76.5 -74t-95.5 -27q-39 0 -112 40t-119 40q-58 0 -129 -68zM768 -31q-311 0 -469 206t-100 542q60 335 290.5 541t542.5 206q204 0 347 -92.5t201 -263t19 -391.5
q-60 -336 -290 -542t-541 -206zM809 203q206 0 352.5 142.5t186.5 371.5q26 150 -7 266.5t-123.5 182t-226.5 65.5q-206 0 -352 -142.5t-186 -371.5t55 -371.5t301 -142.5z" />
    <glyph glyph-name="Odieresis" unicode="&#xd6;" horiz-adv-x="1546" 
d="M1153 1726q9 54 46 86.5t87 32.5t75 -32.5t15 -86.5q-9 -54 -45.5 -86t-87.5 -32q-50 0 -74.5 32t-15.5 86zM815 1726q9 54 46 86.5t87 32.5t75.5 -32.5t16.5 -86.5q-9 -53 -46 -85.5t-87 -32.5t-75.5 32t-16.5 86zM768 -31q-311 0 -469 206t-100 542q60 335 290.5 541
t542.5 206q204 0 347 -92.5t201 -263t19 -391.5q-60 -336 -290 -542t-541 -206zM809 203q206 0 352.5 142.5t186.5 371.5q26 150 -7 266.5t-123.5 182t-226.5 65.5q-206 0 -352 -142.5t-186 -371.5t55 -371.5t301 -142.5z" />
    <glyph glyph-name="multiply" unicode="&#xd7;" horiz-adv-x="948" 
d="M451 596l-158 254l156 160l159 -254l240 245l100 -159l-239 -246l157 -252l-157 -162l-156 254l-242 -246l-98 160z" />
    <glyph glyph-name="Oslash" unicode="&#xd8;" horiz-adv-x="1546" 
d="M201 717q38 221 156.5 391.5t293.5 263t379 92.5q157 0 270 -55l41 55h254l-129 -170q95 -98 130.5 -245.5t5.5 -331.5q-60 -335 -292 -541.5t-544 -206.5q-148 0 -260 56l-41 -56h-254l125 164q-97 98 -132.5 248.5t-2.5 335.5zM453 717q-40 -220 59 -352l625 833
q-64 33 -146 33q-207 0 -353 -142.5t-185 -371.5zM670 238q52 -35 139 -35q206 0 352.5 142.5t186.5 371.5q19 108 2.5 195t-64.5 147z" />
    <glyph glyph-name="Ugrave" unicode="&#xd9;" horiz-adv-x="1398" 
d="M1034 1585h-116l-62 361h143zM242 643l139 791h240l-140 -785q-37 -212 29.5 -329t224.5 -117q157 0 264.5 116.5t145.5 329.5l137 785h240l-140 -791q-55 -312 -240 -493t-448 -181q-264 0 -385.5 181t-66.5 493z" />
    <glyph glyph-name="Uacute" unicode="&#xda;" horiz-adv-x="1398" 
d="M975 1589h-115l160 357h143zM242 643l139 791h240l-140 -785q-37 -212 29.5 -329t224.5 -117q157 0 264.5 116.5t145.5 329.5l137 785h240l-140 -791q-55 -312 -240 -493t-448 -181q-264 0 -385.5 181t-66.5 493z" />
    <glyph glyph-name="Ucircumflex" unicode="&#xdb;" horiz-adv-x="1398" 
d="M690 1569l238 379h192l107 -379h-144l-75 284l-177 -284h-141zM242 643l139 791h240l-140 -785q-37 -212 29.5 -329t224.5 -117q157 0 264.5 116.5t145.5 329.5l137 785h240l-140 -791q-55 -312 -240 -493t-448 -181q-264 0 -385.5 181t-66.5 493z" />
    <glyph glyph-name="Udieresis" unicode="&#xdc;" horiz-adv-x="1398" 
d="M1079 1726q9 54 45 86.5t86 32.5q51 0 76.5 -32.5t16.5 -86.5q-9 -53 -46.5 -85.5t-87.5 -32.5t-74.5 32t-15.5 86zM739 1726q10 54 46.5 86.5t86.5 32.5q51 0 76.5 -32.5t16.5 -86.5q-9 -53 -46.5 -85.5t-87.5 -32.5t-75.5 32t-16.5 86zM242 643l139 791h240l-140 -785
q-37 -212 29.5 -329t224.5 -117q157 0 264.5 116.5t145.5 329.5l137 785h240l-140 -791q-55 -312 -240 -493t-448 -181q-264 0 -385.5 181t-66.5 493z" />
    <glyph glyph-name="Yacute" unicode="&#xdd;" horiz-adv-x="1239" 
d="M946 1589h-115l162 357h142zM578 438l-320 996h268l213 -762l480 762h270l-672 -996l-78 -438h-239z" />
    <glyph glyph-name="Thorn" unicode="&#xde;" horiz-adv-x="1284" 
d="M147 0l252 1434h240l-33 -185h277q267 0 390 -137t79 -387q-43 -250 -214.5 -387t-439.5 -137h-276l-35 -201h-240zM827 1024h-260l-104 -598h258q326 0 379 299t-273 299z" />
    <glyph glyph-name="germandbls" unicode="&#xdf;" horiz-adv-x="1259" 
d="M1022 422q15 93 -31.5 143.5t-144.5 50.5h-203l39 211l389 207q-5 87 -54 130.5t-151 43.5h-67q-123 0 -209 -80t-107 -200l-164 -928h-223l176 999q34 192 172.5 313.5t335.5 121.5h156q205 0 304 -115t67 -291l-453 -231h156q142 -14 215.5 -124t44.5 -270
q-32 -187 -167 -295t-335 -108h-254l41 227h223q98 0 162.5 50.5t81.5 144.5z" />
    <glyph glyph-name="agrave" unicode="&#xe0;" horiz-adv-x="1153" 
d="M887 1176h-117l-61 360h145zM979 203q14 -17 41 -17q32 0 75 17.5t64 32.5q-3 -15 -18.5 -101t-18.5 -102q-40 -37 -109.5 -52t-121.5 -10q-41 1 -71 17t-44.5 38t-22.5 46.5t-9.5 40t-0.5 20.5l33 184q-87 -156 -209.5 -252t-244.5 -96q-47 0 -88.5 15t-74 45
t-46.5 81.5t-2 116.5q13 71 48.5 130t90.5 103t110 75t125 61q120 47 338 109q-26 147 -205 147q-92 0 -191.5 -34.5t-154.5 -80.5l-12 205q58 45 171 78t228 33q27 0 97 -9q77 -13 135.5 -46.5t101 -94t54 -147.5t-6.5 -207zM819 559l2 10v4q-11 -3 -59 -16.5t-71 -20.5
t-64 -21t-76 -28q-79 -30 -142 -84.5t-75 -123.5q-10 -62 23 -98t87 -36q76 0 153.5 53t138 149t83.5 212z" />
    <glyph glyph-name="aacute" unicode="&#xe1;" horiz-adv-x="1153" 
d="M784 1180h-116l161 356h144zM979 203q14 -17 41 -17q32 0 75 17.5t64 32.5q-3 -15 -18.5 -101t-18.5 -102q-40 -37 -109.5 -52t-121.5 -10q-41 1 -71 17t-44.5 38t-22.5 46.5t-9.5 40t-0.5 20.5l33 184q-87 -156 -209.5 -252t-244.5 -96q-47 0 -88.5 15t-74 45
t-46.5 81.5t-2 116.5q13 71 48.5 130t90.5 103t110 75t125 61q120 47 338 109q-26 147 -205 147q-92 0 -191.5 -34.5t-154.5 -80.5l-12 205q58 45 171 78t228 33q27 0 97 -9q77 -13 135.5 -46.5t101 -94t54 -147.5t-6.5 -207zM819 559l2 10v4q-11 -3 -59 -16.5t-71 -20.5
t-64 -21t-76 -28q-79 -30 -142 -84.5t-75 -123.5q-10 -62 23 -98t87 -36q76 0 153.5 53t138 149t83.5 212z" />
    <glyph glyph-name="acircumflex" unicode="&#xe2;" horiz-adv-x="1153" 
d="M487 1159l240 379h193l106 -379h-143l-76 285l-176 -285h-144zM979 203q14 -17 41 -17q32 0 75 17.5t64 32.5q-3 -15 -18.5 -101t-18.5 -102q-40 -37 -109.5 -52t-121.5 -10q-41 1 -71 17t-44.5 38t-22.5 46.5t-9.5 40t-0.5 20.5l33 184q-87 -156 -209.5 -252t-244.5 -96
q-47 0 -88.5 15t-74 45t-46.5 81.5t-2 116.5q13 71 48.5 130t90.5 103t110 75t125 61q120 47 338 109q-26 147 -205 147q-92 0 -191.5 -34.5t-154.5 -80.5l-12 205q58 45 171 78t228 33q27 0 97 -9q77 -13 135.5 -46.5t101 -94t54 -147.5t-6.5 -207zM819 559l2 10v4
q-11 -3 -59 -16.5t-71 -20.5t-64 -21t-76 -28q-79 -30 -142 -84.5t-75 -123.5q-10 -62 23 -98t87 -36q76 0 153.5 53t138 149t83.5 212z" />
    <glyph glyph-name="atilde" unicode="&#xe3;" horiz-adv-x="1153" 
d="M514 1305q33 59 77 90.5t91 31.5q38 0 110 -44t119 -44q59 0 136 64l12 -123q-26 -47 -74 -72.5t-96 -25.5q-39 0 -112.5 39t-119.5 39q-61 0 -129 -68zM979 203q14 -17 41 -17q32 0 75 17.5t64 32.5q-3 -15 -18.5 -101t-18.5 -102q-40 -37 -109.5 -52t-121.5 -10
q-41 1 -71 17t-44.5 38t-22.5 46.5t-9.5 40t-0.5 20.5l33 184q-87 -156 -209.5 -252t-244.5 -96q-47 0 -88.5 15t-74 45t-46.5 81.5t-2 116.5q13 71 48.5 130t90.5 103t110 75t125 61q120 47 338 109q-26 147 -205 147q-92 0 -191.5 -34.5t-154.5 -80.5l-12 205
q58 45 171 78t228 33q27 0 97 -9q77 -13 135.5 -46.5t101 -94t54 -147.5t-6.5 -207zM819 559l2 10v4q-11 -3 -59 -16.5t-71 -20.5t-64 -21t-76 -28q-79 -30 -142 -84.5t-75 -123.5q-10 -62 23 -98t87 -36q76 0 153.5 53t138 149t83.5 212z" />
    <glyph glyph-name="adieresis" unicode="&#xe4;" horiz-adv-x="1153" 
d="M852 1317q9 54 45 86.5t86 32.5q51 0 76 -32.5t16 -86.5t-45.5 -86.5t-87.5 -32.5q-50 0 -74.5 32.5t-15.5 86.5zM514 1317q9 54 46 86.5t87 32.5t74.5 -32.5t15.5 -86.5t-46 -86.5t-87 -32.5t-74.5 32.5t-15.5 86.5zM979 203q14 -17 41 -17q32 0 75 17.5t64 32.5
q-3 -15 -18.5 -101t-18.5 -102q-40 -37 -109.5 -52t-121.5 -10q-41 1 -71 17t-44.5 38t-22.5 46.5t-9.5 40t-0.5 20.5l33 184q-87 -156 -209.5 -252t-244.5 -96q-47 0 -88.5 15t-74 45t-46.5 81.5t-2 116.5q13 71 48.5 130t90.5 103t110 75t125 61q120 47 338 109
q-26 147 -205 147q-92 0 -191.5 -34.5t-154.5 -80.5l-12 205q58 45 171 78t228 33q27 0 97 -9q77 -13 135.5 -46.5t101 -94t54 -147.5t-6.5 -207zM819 559l2 10v4q-11 -3 -59 -16.5t-71 -20.5t-64 -21t-76 -28q-79 -30 -142 -84.5t-75 -123.5q-10 -62 23 -98t87 -36
q76 0 153.5 53t138 149t83.5 212z" />
    <glyph glyph-name="aring" unicode="&#xe5;" horiz-adv-x="1153" 
d="M805 1208q-106 0 -162.5 67.5t-36.5 174.5q19 107 98.5 174.5t186.5 67.5q109 0 165.5 -67.5t37.5 -174.5t-99.5 -174.5t-189.5 -67.5zM729 1450q-9 -57 17 -91t81 -34t94 34t50 91q9 57 -18 91t-81 34q-55 0 -93.5 -34t-49.5 -91zM979 203q14 -17 41 -17q32 0 75 17.5
t64 32.5q-3 -15 -18.5 -101t-18.5 -102q-40 -37 -109.5 -52t-121.5 -10q-41 1 -71 17t-44.5 38t-22.5 46.5t-9.5 40t-0.5 20.5l33 184q-87 -156 -209.5 -252t-244.5 -96q-47 0 -88.5 15t-74 45t-46.5 81.5t-2 116.5q13 71 48.5 130t90.5 103t110 75t125 61q120 47 338 109
q-26 147 -205 147q-92 0 -191.5 -34.5t-154.5 -80.5l-12 205q58 45 171 78t228 33q27 0 97 -9q77 -13 135.5 -46.5t101 -94t54 -147.5t-6.5 -207zM819 559l2 10v4q-11 -3 -59 -16.5t-71 -20.5t-64 -21t-76 -28q-79 -30 -142 -84.5t-75 -123.5q-10 -62 23 -98t87 -36
q76 0 153.5 53t138 149t83.5 212z" />
    <glyph glyph-name="ae" unicode="&#xe6;" horiz-adv-x="1708" 
d="M106 227q42 234 373 369q101 41 340 106q-27 148 -205 148q-91 0 -191.5 -33.5t-154.5 -79.5l-10 203q58 46 170.5 79.5t226.5 33.5q242 0 340 -158q160 160 375 160q142 0 235.5 -72t125.5 -194t2 -273q-1 -9 -23 -88h-678q-3 -125 71 -193.5t197 -68.5q75 0 169.5 29.5
t175.5 78.5l14 -178q-85 -59 -197 -93t-219 -34q-192 0 -307 90t-137 254q-88 -155 -218 -249.5t-249 -94.5q-52 0 -96 15t-78 45t-48.5 81t-3.5 117zM1049 571h462q18 128 -24.5 207.5t-151.5 79.5q-102 0 -178 -75.5t-108 -211.5zM805 514q9 43 14 59q-14 -4 -60 -16.5
t-71 -20t-65.5 -21.5t-75.5 -28q-80 -30 -143.5 -84.5t-75.5 -123.5q-10 -61 24.5 -96.5t89.5 -35.5q105 0 213.5 105.5t149.5 261.5z" />
    <glyph glyph-name="ccedilla" unicode="&#xe7;" horiz-adv-x="964" 
d="M156 512q43 241 214.5 392t401.5 151q194 0 324 -121l-78 -180q-123 104 -260 104q-140 0 -243.5 -95.5t-129.5 -250.5q-28 -155 41 -250.5t209 -95.5q139 0 297 104l16 -180q-173 -121 -368 -121q-38 0 -56 2l-73 -90q34 17 69 17q78 0 117 -52t22 -139
q-19 -103 -96 -161t-194 -58q-92 0 -168 37l39 88q70 -33 125 -33q64 0 105.5 30t51.5 89q10 52 -8.5 80t-58.5 28q-48 0 -88 -32l-43 39l114 174q-162 41 -239 182.5t-43 341.5z" />
    <glyph glyph-name="egrave" unicode="&#xe8;" horiz-adv-x="1069" 
d="M829 1176h-116l-62 360h146zM156 512q43 241 201.5 392t369.5 151q142 0 236 -72t127 -194t4 -273q-3 -22 -21 -88h-690q-3 -125 74.5 -193.5t201.5 -68.5q75 0 169.5 29.5t175.5 78.5l14 -178q-85 -59 -197 -93t-219 -34q-248 0 -368.5 146.5t-77.5 396.5zM399 571h471
q18 127 -25.5 207t-150.5 80q-103 0 -183 -76.5t-112 -210.5z" />
    <glyph glyph-name="eacute" unicode="&#xe9;" horiz-adv-x="1069" 
d="M821 1180h-116l161 356h142zM156 512q43 241 201.5 392t369.5 151q142 0 236 -72t127 -194t4 -273q-3 -22 -21 -88h-690q-3 -125 74.5 -193.5t201.5 -68.5q75 0 169.5 29.5t175.5 78.5l14 -178q-85 -59 -197 -93t-219 -34q-248 0 -368.5 146.5t-77.5 396.5zM399 571h471
q18 127 -25.5 207t-150.5 80q-103 0 -183 -76.5t-112 -210.5z" />
    <glyph glyph-name="ecircumflex" unicode="&#xea;" horiz-adv-x="1069" 
d="M477 1159l240 379h190l107 -379h-142l-77 285l-177 -285h-141zM156 512q43 241 201.5 392t369.5 151q142 0 236 -72t127 -194t4 -273q-3 -22 -21 -88h-690q-3 -125 74.5 -193.5t201.5 -68.5q75 0 169.5 29.5t175.5 78.5l14 -178q-85 -59 -197 -93t-219 -34
q-248 0 -368.5 146.5t-77.5 396.5zM399 571h471q18 127 -25.5 207t-150.5 80q-103 0 -183 -76.5t-112 -210.5z" />
    <glyph glyph-name="edieresis" unicode="&#xeb;" horiz-adv-x="1069" 
d="M813 1317q9 54 46 86.5t87 32.5t75 -32.5t15 -86.5q-9 -54 -45.5 -86.5t-87.5 -32.5q-50 0 -74.5 32.5t-15.5 86.5zM475 1317q9 54 46 86.5t87 32.5t75.5 -32.5t16.5 -86.5q-10 -54 -46.5 -86.5t-86.5 -32.5q-51 0 -76 32.5t-16 86.5zM156 512q43 241 201.5 392
t369.5 151q142 0 236 -72t127 -194t4 -273q-3 -22 -21 -88h-690q-3 -125 74.5 -193.5t201.5 -68.5q75 0 169.5 29.5t175.5 78.5l14 -178q-85 -59 -197 -93t-219 -34q-248 0 -368.5 146.5t-77.5 396.5zM399 571h471q18 127 -25.5 207t-150.5 80q-103 0 -183 -76.5
t-112 -210.5z" />
    <glyph glyph-name="igrave" unicode="&#xec;" horiz-adv-x="665" 
d="M637 1176h-117l-59 360h143zM324 1024h260q88 3 63 -133l-119 -670h136l-33 -221h-504l31 221h149l111 625h-127z" />
    <glyph glyph-name="iacute" unicode="&#xed;" horiz-adv-x="665" 
d="M649 1180h-117l162 356h142zM324 1024h260q88 3 63 -133l-119 -670h136l-33 -221h-504l31 221h149l111 625h-127z" />
    <glyph glyph-name="icircumflex" unicode="&#xee;" horiz-adv-x="665" 
d="M305 1159l240 379h190l107 -379h-142l-77 285l-177 -285h-141zM324 1024h260q88 3 63 -133l-119 -670h136l-33 -221h-504l31 221h149l111 625h-127z" />
    <glyph glyph-name="idieresis" unicode="&#xef;" horiz-adv-x="665" 
d="M674 1317q9 54 45 86.5t86 32.5q51 0 76 -32.5t16 -86.5t-46 -86.5t-87 -32.5t-75 32.5t-15 86.5zM334 1317q9 54 46 86.5t87 32.5t75.5 -32.5t16.5 -86.5t-46 -86.5t-87 -32.5t-75.5 32.5t-16.5 86.5zM324 1024h260q88 3 63 -133l-119 -670h136l-33 -221h-504l31 221
h149l111 625h-127z" />
    <glyph glyph-name="ntilde" unicode="&#xf1;" horiz-adv-x="1228" 
d="M580 1303q33 59 77 90.5t91 31.5q38 0 110.5 -44t118.5 -44q58 0 135 64l14 -123q-28 -47 -76.5 -73.5t-95.5 -26.5q-39 0 -112 39.5t-119 39.5q-59 0 -129 -67zM829 858q-128 0 -234 -100t-132 -246l-90 -512h-221l180 1024h223l-39 -217q78 112 192.5 180t235.5 68
q161 0 234 -111t39 -307l-113 -637h-223l104 590q23 132 -16.5 200t-139.5 68z" />
    <glyph glyph-name="ograve" unicode="&#xf2;" horiz-adv-x="1196" 
d="M864 1176h-116l-62 360h145zM592 -31q-238 0 -358.5 149.5t-77.5 393.5t216 393.5t410 149.5q238 0 359 -149.5t78 -393.5t-216 -393.5t-411 -149.5zM627 166q136 0 236 96.5t128 249.5q27 153 -39 249.5t-202 96.5q-137 0 -238 -97t-127 -249q-27 -152 39 -249t203 -97z
" />
    <glyph glyph-name="oacute" unicode="&#xf3;" horiz-adv-x="1196" 
d="M860 1180h-117l162 356h142zM592 -31q-238 0 -358.5 149.5t-77.5 393.5t216 393.5t410 149.5q238 0 359 -149.5t78 -393.5t-216 -393.5t-411 -149.5zM627 166q136 0 236 96.5t128 249.5q27 153 -39 249.5t-202 96.5q-137 0 -238 -97t-127 -249q-27 -152 39 -249t203 -97z
" />
    <glyph glyph-name="ocircumflex" unicode="&#xf4;" horiz-adv-x="1196" 
d="M516 1159l240 379h192l107 -379h-144l-75 285l-177 -285h-143zM592 -31q-238 0 -358.5 149.5t-77.5 393.5t216 393.5t410 149.5q238 0 359 -149.5t78 -393.5t-216 -393.5t-411 -149.5zM627 166q136 0 236 96.5t128 249.5q27 153 -39 249.5t-202 96.5q-137 0 -238 -97
t-127 -249q-27 -152 39 -249t203 -97z" />
    <glyph glyph-name="otilde" unicode="&#xf5;" horiz-adv-x="1196" 
d="M549 1303q33 59 77 90.5t91 31.5q32 0 70.5 -22t79.5 -44t79 -22q58 0 135 64l15 -123q-28 -47 -76.5 -73.5t-95.5 -26.5q-39 0 -112.5 39.5t-119.5 39.5q-59 0 -129 -67zM592 -31q-238 0 -358.5 149.5t-77.5 393.5t216 393.5t410 149.5q238 0 359 -149.5t78 -393.5
t-216 -393.5t-411 -149.5zM627 166q136 0 236 96.5t128 249.5q27 153 -39 249.5t-202 96.5q-137 0 -238 -97t-127 -249q-27 -152 39 -249t203 -97z" />
    <glyph glyph-name="odieresis" unicode="&#xf6;" horiz-adv-x="1196" 
d="M907 1317q9 54 45 86.5t86 32.5q51 0 76 -32.5t16 -86.5t-45.5 -86.5t-87.5 -32.5q-50 0 -74.5 32.5t-15.5 86.5zM569 1317q9 54 45.5 86.5t87.5 32.5q50 0 75 -32.5t16 -86.5q-9 -53 -46.5 -86t-87.5 -33t-75 32.5t-15 86.5zM592 -31q-238 0 -358.5 149.5t-77.5 393.5
t216 393.5t410 149.5q238 0 359 -149.5t78 -393.5t-216 -393.5t-411 -149.5zM627 166q136 0 236 96.5t128 249.5q27 153 -39 249.5t-202 96.5q-137 0 -238 -97t-127 -249q-27 -152 39 -249t203 -97z" />
    <glyph glyph-name="divide" unicode="&#xf7;" horiz-adv-x="901" 
d="M606 889q-59 0 -89.5 38.5t-18.5 100.5q10 64 54 102.5t103 38.5q60 0 90.5 -38.5t20.5 -102.5q-12 -63 -56 -101t-104 -38zM211 711h727l-39 -228h-727zM344 160q10 64 54.5 102.5t103.5 38.5q60 0 90 -38.5t20 -102.5q-10 -63 -54.5 -101.5t-104.5 -38.5
q-59 0 -89 38.5t-20 101.5z" />
    <glyph glyph-name="oslash" unicode="&#xf8;" horiz-adv-x="1165" 
d="M141 512q43 244 216 393.5t411 149.5q113 0 197 -37l73 98h160l-123 -160q87 -70 121 -184.5t8 -259.5q-43 -244 -217 -393.5t-412 -149.5q-125 0 -225 49l-39 -49h-159l92 119q-72 74 -99.5 183t-3.5 241zM369 512q-21 -136 37 -219l417 545q-36 20 -90 20
q-136 0 -237 -97t-127 -249zM492 197q48 -31 120 -31q137 0 236.5 97t126.5 249q30 159 -53 252z" />
    <glyph glyph-name="ugrave" unicode="&#xf9;" horiz-adv-x="1212" 
d="M842 1176h-117l-59 360h143zM528 1024l-104 -590q-23 -132 15.5 -200t135.5 -68q123 0 225 100t128 246l90 512h223l-182 -1024h-221q3 18 18 106.5t18 106.5q-77 -112 -186.5 -178t-228.5 -66q-157 0 -228.5 111t-37.5 307l112 637h223z" />
    <glyph glyph-name="uacute" unicode="&#xfa;" horiz-adv-x="1212" 
d="M854 1180h-115l162 356h141zM528 1024l-104 -590q-23 -132 15.5 -200t135.5 -68q123 0 225 100t128 246l90 512h223l-182 -1024h-221q3 18 18 106.5t18 106.5q-77 -112 -186.5 -178t-228.5 -66q-157 0 -228.5 111t-37.5 307l112 637h223z" />
    <glyph glyph-name="ucircumflex" unicode="&#xfb;" horiz-adv-x="1212" 
d="M512 1159l240 379h192l105 -379h-142l-76 285l-178 -285h-141zM528 1024l-104 -590q-23 -132 15.5 -200t135.5 -68q123 0 225 100t128 246l90 512h223l-182 -1024h-221q3 18 18 106.5t18 106.5q-77 -112 -186.5 -178t-228.5 -66q-157 0 -228.5 111t-37.5 307l112 637h223
z" />
    <glyph glyph-name="udieresis" unicode="&#xfc;" horiz-adv-x="1212" 
d="M901 1317q9 54 46 86.5t87 32.5t75 -32.5t15 -86.5q-9 -54 -45.5 -86.5t-87.5 -32.5q-50 0 -74.5 32.5t-15.5 86.5zM563 1317q9 54 46 86.5t87 32.5t75.5 -32.5t16.5 -86.5t-46 -86.5t-87 -32.5t-75.5 32.5t-16.5 86.5zM528 1024l-104 -590q-23 -132 15.5 -200t135.5 -68
q123 0 225 100t128 246l90 512h223l-182 -1024h-221q3 18 18 106.5t18 106.5q-77 -112 -186.5 -178t-228.5 -66q-157 0 -228.5 111t-37.5 307l112 637h223z" />
    <glyph glyph-name="yacute" unicode="&#xfd;" horiz-adv-x="1067" 
d="M813 1180h-115l160 356h143zM401 0l-208 1024h241l144 -836l440 836h239l-854 -1536h-245l309 512h-66z" />
    <glyph glyph-name="thorn" unicode="&#xfe;" horiz-adv-x="1282" 
d="M295 -481h-221l350 1986h221l-123 -694q78 113 193 178.5t237 65.5q192 0 294.5 -152t60.5 -391q-28 -159 -110 -283.5t-197.5 -192t-241.5 -67.5q-120 0 -210 65t-130 179zM838 858q-134 0 -238.5 -98.5t-130.5 -247.5q-25 -148 44 -247t204 -99q133 0 233.5 97
t126.5 249t-39.5 249t-199.5 97z" />
    <glyph glyph-name="ydieresis" unicode="&#xff;" horiz-adv-x="1067" 
d="M860 1317q9 54 45 86.5t86 32.5q51 0 76 -32.5t16 -86.5t-45.5 -86.5t-87.5 -32.5q-50 0 -74.5 32.5t-15.5 86.5zM522 1317q9 54 45.5 86.5t87.5 32.5q50 0 74.5 -32.5t15.5 -86.5t-46 -86.5t-87 -32.5t-75 32.5t-15 86.5zM401 0l-208 1024h241l144 -836l440 836h239
l-854 -1536h-245l309 512h-66z" />
    <glyph glyph-name="Amacron" unicode="&#x100;" horiz-adv-x="1388" 
d="M1280 1843l-35 -196h-528l35 196h528zM795 1434h305l274 -1434h-266l-53 315h-611l-163 -315h-269zM551 541h477l-117 696z" />
    <glyph glyph-name="amacron" unicode="&#x101;" horiz-adv-x="1153" 
d="M1110 1434l-35 -197h-528l35 197h528zM979 203q14 -17 41 -17q32 0 75 17.5t64 32.5q-3 -15 -18.5 -101t-18.5 -102q-40 -37 -109.5 -52t-121.5 -10q-41 1 -71 17t-44.5 38t-22.5 46.5t-9.5 40t-0.5 20.5l33 184q-87 -156 -209.5 -252t-244.5 -96q-47 0 -88.5 15t-74 45
t-46.5 81.5t-2 116.5q13 71 48.5 130t90.5 103t110 75t125 61q120 47 338 109q-26 147 -205 147q-92 0 -191.5 -34.5t-154.5 -80.5l-12 205q58 45 171 78t228 33q27 0 97 -9q77 -13 135.5 -46.5t101 -94t54 -147.5t-6.5 -207zM819 559l2 10v4q-11 -3 -59 -16.5t-71 -20.5
t-64 -21t-76 -28q-79 -30 -142 -84.5t-75 -123.5q-10 -62 23 -98t87 -36q76 0 153.5 53t138 149t83.5 212z" />
    <glyph glyph-name="Abreve" unicode="&#x102;" horiz-adv-x="1388" 
d="M965 1532q-141 0 -197.5 111t4.5 272h127q-26 -86 1.5 -137.5t96.5 -51.5q70 0 115.5 52t48.5 137h127q4 -161 -89.5 -272t-233.5 -111zM795 1434h305l274 -1434h-266l-53 315h-611l-163 -315h-269zM551 541h477l-117 696z" />
    <glyph glyph-name="abreve" unicode="&#x103;" horiz-adv-x="1153" 
d="M766 1122q-93 0 -152 51.5t-68.5 136.5t29.5 195h125q-26 -86 2 -137t99 -51q68 0 113.5 51.5t48.5 136.5h127q4 -161 -90 -272t-234 -111zM979 203q14 -17 41 -17q32 0 75 17.5t64 32.5q-3 -15 -18.5 -101t-18.5 -102q-40 -37 -109.5 -52t-121.5 -10q-41 1 -71 17
t-44.5 38t-22.5 46.5t-9.5 40t-0.5 20.5l33 184q-87 -156 -209.5 -252t-244.5 -96q-47 0 -88.5 15t-74 45t-46.5 81.5t-2 116.5q13 71 48.5 130t90.5 103t110 75t125 61q120 47 338 109q-26 147 -205 147q-92 0 -191.5 -34.5t-154.5 -80.5l-12 205q58 45 171 78t228 33
q27 0 97 -9q77 -13 135.5 -46.5t101 -94t54 -147.5t-6.5 -207zM819 559l2 10v4q-11 -3 -59 -16.5t-71 -20.5t-64 -21t-76 -28q-79 -30 -142 -84.5t-75 -123.5q-10 -62 23 -98t87 -36q76 0 153.5 53t138 149t83.5 212z" />
    <glyph glyph-name="Aogonek" unicode="&#x104;" horiz-adv-x="1392" 
d="M12 0l781 1434h305l276 -1434h-78q-27 -38 -83 -106.5t-84.5 -114t-38.5 -94.5q-10 -53 6.5 -80t52.5 -27q59 0 111 55l24 -36q-31 -46 -90 -77.5t-117 -31.5q-72 0 -107 51t-20 133q8 42 32.5 84.5t50.5 72t74 82t79 89.5h-80l-51 315h-609l-165 -315h-269zM553 541h475
l-115 696z" />
    <glyph glyph-name="aogonek" unicode="&#x105;" horiz-adv-x="1142" 
d="M979 203q14 -17 41 -17q32 0 75 17.5t64 32.5q-3 -15 -18.5 -101t-18.5 -102q-27 -24 -65 -39q-24 -33 -65 -83t-64 -79t-45 -69.5t-29 -77.5q-12 -53 5 -80t54 -27q54 0 109 55l25 -36q-33 -46 -91 -77.5t-114 -31.5q-73 0 -108.5 51t-20.5 133q7 32 19.5 60.5t37 60.5
t42 52t56 61t58.5 63q-25 0 -35 2q-41 1 -71 17t-44.5 38t-22.5 46.5t-9.5 40t-0.5 20.5l33 184q-87 -156 -209.5 -252t-244.5 -96q-47 0 -88.5 15t-74 45t-46.5 81.5t-2 116.5q13 71 48.5 130t90.5 103t110 75t125 61q120 47 338 109q-26 147 -205 147q-92 0 -191.5 -34.5
t-154.5 -80.5l-12 205q58 45 171 78t228 33q27 0 97 -9q77 -13 135.5 -46.5t101 -94t54 -147.5t-6.5 -207zM819 559l2 10v4q-11 -3 -59 -16.5t-71 -20.5t-64 -21t-76 -28q-79 -30 -142 -84.5t-75 -123.5q-10 -62 23 -98t87 -36q76 0 153.5 53t138 149t83.5 212z" />
    <glyph glyph-name="Cacute" unicode="&#x106;" horiz-adv-x="1236" 
d="M1069 1589h-115l160 357h143zM768 -31q-155 0 -276.5 54.5t-194 153t-101 236t2.5 304.5q40 220 157.5 390t293 263.5t382.5 93.5q220 0 402 -106l-103 -221q-159 94 -340 94q-203 0 -350.5 -140.5t-187.5 -373.5q-41 -233 56 -373.5t300 -140.5q180 0 373 94l24 -221
q-219 -107 -438 -107z" />
    <glyph glyph-name="cacute" unicode="&#x107;" horiz-adv-x="964" 
d="M723 1180h-117l162 356h143zM772 1055q193 0 326 -121l-80 -180q-123 104 -260 104q-140 0 -242.5 -95.5t-130.5 -250.5q-26 -156 42.5 -251t207.5 -95t297 104l16 -180q-173 -121 -366 -121q-230 0 -348.5 151.5t-77.5 391.5q43 241 214.5 392t401.5 151z" />
    <glyph glyph-name="Ccircumflex" unicode="&#x108;" horiz-adv-x="1236" 
d="M745 1569l240 379h191l106 -379h-141l-78 284l-176 -284h-142zM768 -31q-155 0 -276.5 54.5t-194 153t-101 236t2.5 304.5q40 220 157.5 390t293 263.5t382.5 93.5q220 0 402 -106l-103 -221q-159 94 -340 94q-203 0 -350.5 -140.5t-187.5 -373.5q-41 -233 56 -373.5
t300 -140.5q180 0 373 94l24 -221q-219 -107 -438 -107z" />
    <glyph glyph-name="ccircumflex" unicode="&#x109;" horiz-adv-x="964" 
d="M487 1159l240 379h193l104 -379h-141l-76 285l-178 -285h-142zM772 1055q193 0 326 -121l-80 -180q-123 104 -260 104q-140 0 -242.5 -95.5t-130.5 -250.5q-26 -156 42.5 -251t207.5 -95t297 104l16 -180q-173 -121 -366 -121q-230 0 -348.5 151.5t-77.5 391.5
q43 241 214.5 392t401.5 151z" />
    <glyph glyph-name="Cdotaccent" unicode="&#x10a;" horiz-adv-x="1236" 
d="M938 1737q12 64 56 102.5t104 38.5q59 0 89.5 -38.5t18.5 -102.5q-10 -63 -54 -101.5t-103 -38.5q-60 0 -90.5 38.5t-20.5 101.5zM768 -31q-155 0 -276.5 54.5t-194 153t-101 236t2.5 304.5q40 220 157.5 390t293 263.5t382.5 93.5q220 0 402 -106l-103 -221
q-159 94 -340 94q-203 0 -350.5 -140.5t-187.5 -373.5q-41 -233 56 -373.5t300 -140.5q180 0 373 94l24 -221q-219 -107 -438 -107z" />
    <glyph glyph-name="cdotaccent" unicode="&#x10b;" horiz-adv-x="964" 
d="M627 1315q10 64 54 102.5t105 38.5q59 0 89 -38.5t20 -102.5q-10 -63 -55 -101t-105 -38q-59 0 -88.5 38t-19.5 101zM772 1055q193 0 326 -121l-80 -180q-123 104 -260 104q-140 0 -242.5 -95.5t-130.5 -250.5q-26 -156 42.5 -251t207.5 -95t297 104l16 -180
q-173 -121 -366 -121q-230 0 -348.5 151.5t-77.5 391.5q43 241 214.5 392t401.5 151z" />
    <glyph glyph-name="Ccaron" unicode="&#x10c;" horiz-adv-x="1236" 
d="M915 1569l-145 377h137l113 -291l209 291h143l-278 -377h-179zM768 -31q-155 0 -276.5 54.5t-194 153t-101 236t2.5 304.5q40 220 157.5 390t293 263.5t382.5 93.5q220 0 402 -106l-103 -221q-159 94 -340 94q-203 0 -350.5 -140.5t-187.5 -373.5q-41 -233 56 -373.5
t300 -140.5q180 0 373 94l24 -221q-219 -107 -438 -107z" />
    <glyph glyph-name="ccaron" unicode="&#x10d;" horiz-adv-x="964" 
d="M662 1159l-146 377h137l111 -291l209 291h143l-278 -377h-176zM772 1055q193 0 326 -121l-80 -180q-123 104 -260 104q-140 0 -242.5 -95.5t-130.5 -250.5q-26 -156 42.5 -251t207.5 -95t297 104l16 -180q-173 -121 -366 -121q-230 0 -348.5 151.5t-77.5 391.5
q43 241 214.5 392t401.5 151z" />
    <glyph glyph-name="Dcaron" unicode="&#x10e;" horiz-adv-x="1425" 
d="M858 1569l-145 377h137l111 -291l208 291h144l-279 -377h-176zM399 1434h527q311 0 460 -194.5t91 -522.5q-57 -327 -275 -522t-528 -195h-527zM426 227h262q203 0 351 134t186 356q40 222 -60.5 355.5t-304.5 133.5h-260z" />
    <glyph glyph-name="dcaron" unicode="&#x10f;" horiz-adv-x="1699" 
d="M156 512q28 159 110 283.5t197.5 192t241.5 67.5q121 0 210.5 -65.5t128.5 -178.5l123 694h224l-267 -1505h-221l37 213q-78 -113 -191.5 -178.5t-234.5 -65.5q-195 0 -297.5 151.5t-60.5 391.5zM1741 1452q63 0 89 -50t11 -138q-20 -119 -98 -209t-176 -105l-11 101
q89 28 119 127q-52 4 -77.5 41t-16.5 96q12 63 56 100t104 37zM385 512q-26 -152 40 -249t200 -97t237.5 99t130.5 247q25 149 -43 247.5t-202 98.5t-234.5 -97t-128.5 -249z" />
    <glyph glyph-name="Dcroat" unicode="&#x110;" horiz-adv-x="1441" 
d="M268 586h-143l41 227h141l109 621h526q310 0 460 -194t93 -523q-59 -327 -277 -522t-528 -195h-526zM920 586h-412l-64 -359h261q204 0 351 134t185 356q40 222 -60 355.5t-304 133.5h-261l-69 -393h414z" />
    <glyph glyph-name="dcroat" unicode="&#x111;" horiz-adv-x="1304" 
d="M512 -31q-193 0 -295 151.5t-61 391.5q28 159 110 283.5t197.5 192t241.5 67.5q122 0 211 -65t128 -179l70 395h-215l39 228h215l14 71h224l-15 -71h135l-38 -228h-136l-213 -1206h-223l39 213q-79 -113 -192.5 -178.5t-235.5 -65.5zM748 858q-134 0 -235.5 -97
t-127.5 -249t40 -249t200 -97q135 0 238 99t128 247q26 149 -41.5 247.5t-201.5 98.5z" />
    <glyph glyph-name="Emacron" unicode="&#x112;" horiz-adv-x="1161" 
d="M1188 1843l-35 -196h-528l34 196h529zM399 1434h910l-39 -228h-670l-61 -348h626l-41 -225h-626l-72 -406h670l-39 -227h-910z" />
    <glyph glyph-name="emacron" unicode="&#x113;" horiz-adv-x="1069" 
d="M1071 1434l-33 -197h-530l35 197h528zM156 512q43 241 201.5 392t369.5 151q142 0 236 -72t127 -194t4 -273q-3 -22 -21 -88h-690q-3 -125 74.5 -193.5t201.5 -68.5q75 0 169.5 29.5t175.5 78.5l14 -178q-85 -59 -197 -93t-219 -34q-248 0 -368.5 146.5t-77.5 396.5z
M399 571h471q18 127 -25.5 207t-150.5 80q-103 0 -183 -76.5t-112 -210.5z" />
    <glyph glyph-name="Ebreve" unicode="&#x114;" horiz-adv-x="1161" 
d="M872 1532q-141 0 -197 111t5 272h127q-26 -86 1.5 -137.5t96.5 -51.5q70 0 115.5 52t48.5 137h127q4 -161 -90 -272t-234 -111zM399 1434h910l-39 -228h-670l-61 -348h626l-41 -225h-626l-72 -406h670l-39 -227h-910z" />
    <glyph glyph-name="ebreve" unicode="&#x115;" horiz-adv-x="1069" 
d="M756 1122q-140 0 -196 111t5 272h127q-28 -86 0 -137t99 -51q70 0 115 51.5t48 136.5h127q4 -161 -90 -272t-235 -111zM156 512q43 241 201.5 392t369.5 151q142 0 236 -72t127 -194t4 -273q-3 -16 -23 -88h-688q-3 -125 74 -193.5t200 -68.5q76 0 169 29t175 79l15 -178
q-83 -58 -195.5 -92.5t-220.5 -34.5q-247 0 -367.5 146.5t-76.5 396.5zM399 571h469q18 128 -24.5 207.5t-149.5 79.5q-103 0 -183 -76.5t-112 -210.5z" />
    <glyph glyph-name="Edotaccent" unicode="&#x116;" horiz-adv-x="1161" 
d="M770 1722q12 63 56 101.5t104 38.5t90 -38.5t18 -101.5q-10 -62 -54 -100.5t-103 -38.5q-60 0 -90.5 38t-20.5 101zM399 1434h910l-39 -228h-670l-61 -348h626l-41 -225h-626l-72 -406h670l-39 -227h-910z" />
    <glyph glyph-name="edotaccent" unicode="&#x117;" horiz-adv-x="1069" 
d="M655 1313q10 63 55 101t105 38q59 0 90 -38.5t19 -100.5q-10 -62 -54.5 -100.5t-103.5 -38.5q-60 0 -90.5 38t-20.5 101zM156 512q43 241 201.5 392t369.5 151q142 0 236 -72t127 -194t4 -273q-3 -22 -21 -88h-690q-3 -125 74.5 -193.5t201.5 -68.5q75 0 169.5 29.5
t175.5 78.5l14 -178q-85 -59 -197 -93t-219 -34q-248 0 -368.5 146.5t-77.5 396.5zM399 571h471q18 127 -25.5 207t-150.5 80q-103 0 -183 -76.5t-112 -210.5z" />
    <glyph glyph-name="Eogonek" unicode="&#x118;" horiz-adv-x="1150" 
d="M399 1434h910l-39 -228h-670l-61 -348h626l-41 -225h-626l-70 -406h670l-41 -227h-338q-27 -38 -83.5 -106.5t-84.5 -114t-37 -94.5q-11 -53 5 -80t52 -27q56 0 111 55l23 -36q-31 -46 -89 -77.5t-114 -31.5q-72 0 -108 51t-21 133q8 42 32.5 84.5t50 72t74 82t78.5 89.5
h-461z" />
    <glyph glyph-name="eogonek" unicode="&#x119;" horiz-adv-x="1101" 
d="M156 512q43 241 204.5 392t376.5 151q214 0 322 -150.5t65 -388.5q-5 -39 -22 -88h-719q-3 -125 71 -193.5t197 -68.5q161 0 336 90l14 -178q-157 -95 -350 -107q-22 -30 -60 -77t-58 -73t-40 -63.5t-26 -72.5q-11 -53 5 -80t52 -27q56 0 111 55l22 -36
q-31 -46 -88.5 -77.5t-115.5 -31.5q-72 0 -107 51t-20 133q7 39 30 80t41.5 64t70 78t71.5 77q-219 17 -321.5 161t-61.5 380zM702 858q-107 0 -189.5 -76t-115.5 -211h506q15 131 -39 209t-162 78z" />
    <glyph glyph-name="Ecaron" unicode="&#x11a;" horiz-adv-x="1161" 
d="M791 1569l-146 377h137l111 -291l209 291h143l-276 -377h-178zM399 1434h910l-39 -228h-670l-61 -348h626l-41 -225h-626l-72 -406h670l-39 -227h-910z" />
    <glyph glyph-name="ecaron" unicode="&#x11b;" horiz-adv-x="1069" 
d="M674 1159l-146 377h138l112 -291l207 291h145l-278 -377h-178zM156 512q43 241 201.5 392t369.5 151q142 0 236 -72t127 -194t4 -273q-3 -22 -21 -88h-690q-3 -125 74.5 -193.5t201.5 -68.5q75 0 169.5 29.5t175.5 78.5l14 -178q-85 -59 -197 -93t-219 -34
q-248 0 -368.5 146.5t-77.5 396.5zM399 571h471q18 127 -25.5 207t-150.5 80q-103 0 -183 -76.5t-112 -210.5z" />
    <glyph glyph-name="Gcircumflex" unicode="&#x11c;" horiz-adv-x="1366" 
d="M631 1569l239 379h191l106 -379h-141l-78 284l-176 -284h-141zM659 -31q-116 0 -213.5 53.5t-161.5 152t-89.5 236.5t4.5 306q60 336 290.5 538.5t552.5 202.5q220 0 406 -110l-102 -222q-168 99 -332 99q-219 0 -369.5 -135.5t-191.5 -372.5q-41 -229 47 -371.5
t243 -142.5q124 0 228.5 96.5t148.5 251.5h-327l41 227h573l-137 -778h-187l66 367q-33 -81 -77.5 -148.5t-104.5 -125.5t-139 -91t-169 -33z" />
    <glyph glyph-name="gcircumflex" unicode="&#x11d;" horiz-adv-x="1107" 
d="M451 1495l239 377h191l106 -377h-143l-76 283l-176 -283h-141zM582 326q-118 0 -197 18q-73 -31 -80 -84q-4 -19 0.5 -32t20.5 -22t26.5 -13t36.5 -11q66 -20 209.5 -56t216.5 -56q118 -34 176.5 -101t38.5 -186q-12 -64 -43.5 -116t-71 -83.5t-87.5 -52.5t-89.5 -29
t-79.5 -8h-522q-73 0 -117 58t-28 153q10 57 45.5 105.5t85.5 81.5t93.5 53t90.5 35q-55 13 -89 26t-65.5 35t-42 56t-1.5 81q24 147 196 195q-157 76 -117 299q32 190 165 286.5t358 96.5q57 0 110 -6q-35 76 -20 151q43 238 481 234l-39 -232q-124 8 -139 8
q-196 0 -211 -90q-9 -59 29 -92q233 -74 180 -350q-32 -184 -157.5 -268t-362.5 -84zM678 862q-115 0 -183 -48.5t-83 -139.5q-17 -92 34 -134t164 -42q240 0 271 178q32 186 -203 186zM387 -39q-55 -23 -100 -64t-56 -98q-7 -49 18 -81.5t68 -32.5h334q52 0 99 28t55 76
q7 40 -21.5 63.5t-99.5 43.5q-46 12 -88 21t-102 21.5t-107 22.5z" />
    <glyph glyph-name="Gbreve" unicode="&#x11e;" horiz-adv-x="1366" 
d="M987 1536q-141 0 -197 112t7 273h125q-26 -86 1.5 -137t98.5 -51q68 0 113.5 51.5t48.5 136.5h127q4 -161 -90 -273t-234 -112zM659 -31q-116 0 -213.5 53.5t-161.5 152t-89.5 236.5t4.5 306q60 336 290.5 538.5t552.5 202.5q220 0 406 -110l-102 -222q-168 99 -332 99
q-219 0 -369.5 -135.5t-191.5 -372.5q-41 -229 47 -371.5t243 -142.5q124 0 228.5 96.5t148.5 251.5h-327l41 227h573l-137 -778h-187l66 367q-33 -81 -77.5 -148.5t-104.5 -125.5t-139 -91t-169 -33z" />
    <glyph glyph-name="gbreve" unicode="&#x11f;" horiz-adv-x="1107" 
d="M766 1462q-141 0 -197.5 111.5t6.5 271.5h125q-26 -84 2 -136t99 -52q68 0 113.5 52t48.5 136h127q6 -159 -89 -271t-235 -112zM582 326q-118 0 -197 18q-73 -31 -80 -84q-4 -19 0.5 -32t20.5 -22t26.5 -13t36.5 -11q66 -20 209.5 -56t216.5 -56q118 -34 176.5 -101
t38.5 -186q-12 -64 -43.5 -116t-71 -83.5t-87.5 -52.5t-89.5 -29t-79.5 -8h-522q-73 0 -117 58t-28 153q10 57 45.5 105.5t85.5 81.5t93.5 53t90.5 35q-55 13 -89 26t-65.5 35t-42 56t-1.5 81q24 147 196 195q-157 76 -117 299q32 190 165 286.5t358 96.5q57 0 110 -6
q-35 76 -20 151q43 238 481 234l-39 -232q-124 8 -139 8q-196 0 -211 -90q-9 -59 29 -92q233 -74 180 -350q-32 -184 -157.5 -268t-362.5 -84zM678 862q-115 0 -183 -48.5t-83 -139.5q-17 -92 34 -134t164 -42q240 0 271 178q32 186 -203 186zM387 -39q-55 -23 -100 -64
t-56 -98q-7 -49 18 -81.5t68 -32.5h334q52 0 99 28t55 76q7 40 -21.5 63.5t-99.5 43.5q-46 12 -88 21t-102 21.5t-107 22.5z" />
    <glyph glyph-name="Gdotaccent" unicode="&#x120;" horiz-adv-x="1366" 
d="M881 1737q12 64 55.5 102.5t103.5 38.5q59 0 90 -38.5t19 -102.5q-10 -62 -54.5 -101t-103.5 -39q-60 0 -90.5 38.5t-19.5 101.5zM659 -31q-116 0 -213.5 53.5t-161.5 152t-89.5 236.5t4.5 306q60 336 290.5 538.5t552.5 202.5q220 0 406 -110l-102 -222q-168 99 -332 99
q-219 0 -369.5 -135.5t-191.5 -372.5q-41 -229 47 -371.5t243 -142.5q124 0 228.5 96.5t148.5 251.5h-327l41 227h573l-137 -778h-187l66 367q-33 -81 -77.5 -148.5t-104.5 -125.5t-139 -91t-169 -33z" />
    <glyph glyph-name="gdotaccent" unicode="&#x121;" horiz-adv-x="1060" 
d="M516 1331q12 63 56 101t104 38q59 0 89.5 -38.5t18.5 -100.5q-10 -64 -54 -102.5t-103 -38.5q-60 0 -90.5 38.5t-20.5 102.5zM582 326q-118 0 -197 18q-73 -31 -80 -84q-4 -19 0.5 -32t20.5 -22t26.5 -13t36.5 -11q66 -20 209.5 -56t216.5 -56q118 -34 176.5 -101
t38.5 -186q-12 -64 -43.5 -116t-71 -83.5t-87.5 -52.5t-89.5 -29t-79.5 -8h-522q-73 0 -117 58t-28 153q10 57 45.5 105.5t85.5 81.5t93.5 53t90.5 35q-55 13 -89 26t-65.5 35t-42 56t-1.5 81q24 147 196 195q-157 76 -117 299q32 190 165 286.5t358 96.5q57 0 110 -6
q-35 76 -20 151q43 238 481 234l-39 -232q-124 8 -139 8q-196 0 -211 -90q-9 -59 29 -92q233 -74 180 -350q-32 -184 -157.5 -268t-362.5 -84zM678 862q-115 0 -183 -48.5t-83 -139.5q-17 -92 34 -134t164 -42q240 0 271 178q32 186 -203 186zM387 -39q-55 -23 -100 -64
t-56 -98q-7 -49 18 -81.5t68 -32.5h334q52 0 99 28t55 76q7 40 -21.5 63.5t-99.5 43.5q-46 12 -88 21t-102 21.5t-107 22.5z" />
    <glyph glyph-name="uni0122" unicode="&#x122;" horiz-adv-x="1394" 
d="M727 -31q-116 0 -213.5 53.5t-162 152t-89 236.5t5.5 306q39 222 156.5 390.5t295.5 259.5t390 91q220 0 406 -110l-103 -222q-168 99 -332 99q-219 0 -369.5 -135.5t-191.5 -372.5q-21 -119 -6 -214t56.5 -162t104 -102.5t136.5 -35.5q124 0 228.5 96.5t148.5 251.5
h-328l41 227h574l-136 -778h-186l64 367q-33 -81 -77.5 -148.5t-104.5 -125.5t-139 -91t-169 -33zM606 -250q12 63 56 101t104 38q63 0 89 -50t11 -138q-22 -120 -99.5 -209t-174.5 -104l-10 100q82 26 118 125q-53 6 -78 42.5t-16 94.5z" />
    <glyph glyph-name="uni0123" unicode="&#x123;" horiz-adv-x="1232" 
d="M614 1407q20 118 98.5 207t176.5 106l10 -100q-90 -32 -119 -127q53 -5 77.5 -42t14.5 -95q-10 -62 -54 -100.5t-103 -38.5q-63 0 -89.5 51t-11.5 139zM655 326q-115 0 -198 18q-70 -30 -80 -84q-3 -19 2 -32t21 -22t26.5 -13t36.5 -11q64 -20 207.5 -56t216.5 -56
q119 -34 178 -101t37 -186q-14 -80 -57 -139.5t-99.5 -90t-110.5 -45t-104 -14.5h-520q-75 0 -119 58t-26 153q8 46 34 87.5t58.5 70t75 53t76 38.5t69.5 26q-26 7 -45.5 12.5t-42 13.5t-36.5 16t-31 19.5t-24.5 24.5t-16 30.5t-7 37t3.5 44.5q28 147 199 195
q-159 75 -119 299q34 190 166.5 286.5t357.5 96.5q60 0 109 -6q-34 73 -21 151q43 238 484 234l-41 -232q-124 8 -139 8q-194 0 -209 -90q-9 -57 26 -92q233 -73 183 -350q-32 -184 -158 -268t-363 -84zM752 862q-115 0 -183.5 -48.5t-85.5 -139.5q-15 -92 36.5 -134
t164.5 -42q239 0 270 178q15 90 -33.5 138t-168.5 48zM461 -39q-56 -24 -101.5 -64.5t-54.5 -97.5q-9 -49 16 -81.5t68 -32.5h334q54 0 101 28t55 76q7 39 -22 63t-99 44q-46 12 -89 21.5t-101 21t-107 22.5z" />
    <glyph glyph-name="Hcircumflex" unicode="&#x124;" horiz-adv-x="1470" 
d="M725 1569l240 379h192l107 -379h-144l-76 284l-176 -284h-143zM399 1434h240l-100 -576h696l102 576h238l-252 -1434h-240l113 633h-698l-111 -633h-240z" />
    <glyph glyph-name="hcircumflex" unicode="&#x125;" horiz-adv-x="1234" 
d="M158 0l266 1505h207l192 303h193l104 -378h-141l-76 284l-178 -284h-92l-111 -623q80 113 194 180.5t236 67.5q160 0 232.5 -111t38.5 -307l-113 -637h-223l104 590q23 132 -16 200t-139 68q-128 0 -234 -100t-131 -246l-90 -512h-223z" />
    <glyph glyph-name="Hbar" unicode="&#x126;" horiz-adv-x="1347" 
d="M684 1616l39 227h573l-39 -227h-573zM326 0h-240l252 1434h240l-103 -576h699l100 576h239l-251 -1434h-240l111 633h-697z" />
    <glyph glyph-name="hbar" unicode="&#x127;" horiz-adv-x="1222" 
d="M358 1206h-102l39 228h102l15 71h221l-15 -71h250l-39 -228h-249l-70 -399q80 113 194.5 180.5t235.5 67.5q160 0 231.5 -111t36.5 -307l-110 -637h-224l105 590q23 132 -17 200t-141 68q-126 0 -231 -100t-133 -246l-90 -512h-222z" />
    <glyph glyph-name="Itilde" unicode="&#x128;" horiz-adv-x="473" 
d="M266 1712q35 59 79 91t89 32q39 0 112.5 -44t119.5 -44q60 0 133 63l14 -122q-27 -47 -75.5 -74t-96.5 -27q-37 0 -110 40t-119 40q-61 0 -129 -68zM117 0l252 1434h239l-252 -1434h-239z" />
    <glyph glyph-name="itilde" unicode="&#x129;" horiz-adv-x="749" 
d="M360 1190l-16 113q35 59 79 90.5t89 31.5q39 0 112 -44t119 -44q60 0 134 64l14 -123q-26 -47 -74.5 -73.5t-97.5 -26.5q-37 0 -110 39.5t-120 39.5q-62 0 -129 -67zM324 1024h262q84 3 63 -133l-119 -670h134l-33 -221h-504l33 221h147l111 625h-125z" />
    <glyph glyph-name="Imacron" unicode="&#x12a;" horiz-adv-x="473" 
d="M821 1843l-33 -196h-530l35 196h528zM117 0l252 1434h239l-252 -1434h-239z" />
    <glyph glyph-name="imacron" unicode="&#x12b;" horiz-adv-x="749" 
d="M899 1434l-33 -197h-530l35 197h528zM324 1024h262q84 3 63 -133l-119 -670h134l-33 -221h-504l33 221h147l111 625h-125z" />
    <glyph glyph-name="Iogonek" unicode="&#x12e;" horiz-adv-x="569" 
d="M188 -512q-73 0 -108.5 51t-20.5 133q9 42 34 84.5t50 71.5t74.5 82.5t79.5 89.5h-76l252 1434h240l-252 -1434h-58q-25 -35 -81.5 -105.5t-83.5 -115.5t-37 -94q-11 -53 5 -80t52 -27q59 0 111 55l24 -36q-31 -46 -89.5 -77.5t-115.5 -31.5z" />
    <glyph glyph-name="iogonek" unicode="&#x12f;" horiz-adv-x="696" 
d="M432 1384q12 69 57.5 112.5t108.5 43.5q62 0 92.5 -44t18.5 -112q-12 -70 -57 -112.5t-109 -42.5q-63 0 -93 43t-18 112zM86 0l41 227h139l103 578h-125l39 219h260q88 3 63 -133l-117 -664h140l-39 -227h-195q-21 -29 -62.5 -83.5t-62 -84t-42 -72t-27.5 -79.5
q-10 -52 5 -77.5t48 -25.5q53 0 100 53l23 -34q-28 -46 -83.5 -77.5t-109.5 -31.5q-69 0 -102.5 49.5t-18.5 128.5q7 41 30 84t46 71.5t72.5 86t77.5 92.5h-203z" />
    <glyph glyph-name="Idotaccent" unicode="&#x130;" horiz-adv-x="475" 
d="M406 1722q10 63 54 101.5t103 38.5q60 0 90.5 -38.5t20.5 -101.5t-55 -101t-105 -38q-59 0 -88.5 38t-19.5 101zM117 0l252 1434h239l-252 -1434h-239z" />
    <glyph glyph-name="dotlessi" unicode="&#x131;" horiz-adv-x="724" 
d="M324 1024h260q88 3 63 -133l-119 -670h136l-33 -221h-504l31 221h149l111 625h-127z" />
    <glyph glyph-name="IJ" unicode="&#x132;" horiz-adv-x="1619" 
d="M141 0l252 1434h240l-252 -1434h-240zM549 59l100 224q174 -80 330 -80q152 0 248 103t131 304l145 824h240l-146 -832q-54 -300 -227 -466.5t-432 -166.5q-192 0 -389 90z" />
    <glyph glyph-name="ij" unicode="&#x133;" horiz-adv-x="1351" 
d="M602 1247q-62 0 -91 40.5t-17 107.5q11 65 54 105t105 40h695q63 0 92 -40t18 -105q-12 -67 -55.5 -107.5t-106.5 -40.5h-694zM524 -467l80 182q62 -30 131 -30q175 0 219 249l193 1090h223l-196 -1102q-37 -218 -156.5 -326t-286.5 -108q-109 0 -207 45zM141 0l41 227
h142l100 578h-125l39 219h260q47 1 61 -35t3 -98l-117 -664h141l-41 -227h-504z" />
    <glyph glyph-name="Jcircumflex" unicode="&#x134;" horiz-adv-x="1089" 
d="M815 1569l240 379h190l107 -379h-142l-77 284l-177 -284h-141zM18 59l101 224q177 -80 330 -80t249 103t131 304l146 824h239l-147 -832q-53 -299 -226.5 -466t-432.5 -167q-193 0 -390 90z" />
    <glyph glyph-name="jcircumflex" unicode="&#x135;" horiz-adv-x="782" 
d="M215 1159l299 377h260l168 -377h-223l-90 289l-191 -289h-223zM-178 -467l80 182q61 -30 131 -30q175 0 217 249l192 1090h224l-195 -1102q-38 -218 -156.5 -326t-285.5 -108q-112 0 -207 45z" />
    <glyph glyph-name="uni0136" unicode="&#x136;" horiz-adv-x="1454" 
d="M393 1434h240l-119 -678l698 678h308l-670 -643l463 -791h-301l-342 610l-217 -204l-72 -406h-240zM506 -233q10 62 54.5 100.5t103.5 38.5q63 0 89 -51.5t11 -139.5q-20 -118 -98.5 -207t-176.5 -106l-10 100q90 32 119 127q-51 5 -76.5 42.5t-15.5 95.5z" />
    <glyph glyph-name="uni0137" unicode="&#x137;" horiz-adv-x="1208" 
d="M406 1505h223l-168 -956l528 475h275l-521 -475h88l265 -549h-262l-211 432l-217 -190l-44 -242h-221zM414 -233q10 62 54 100.5t103 38.5q63 0 89.5 -51.5t11.5 -139.5q-20 -118 -98 -207t-175 -106l-12 100q90 32 119 127q-51 5 -76.5 42.5t-15.5 95.5z" />
    <glyph glyph-name="kgreenlandic" unicode="&#x138;" horiz-adv-x="1126" 
d="M373 0h-221l180 1024h221l-84 -479l516 479h287l-561 -512h69l326 -512h-264l-242 408l-184 -166z" />
    <glyph glyph-name="Lacute" unicode="&#x139;" horiz-adv-x="1062" 
d="M608 1589h-116l161 357h144zM147 0l252 1434h240l-213 -1207h647l-39 -227h-887z" />
    <glyph glyph-name="lacute" unicode="&#x13a;" horiz-adv-x="387" 
d="M602 1581h-115l160 356h144zM158 0l266 1505h221l-264 -1505h-223z" />
    <glyph glyph-name="uni013B" unicode="&#x13b;" horiz-adv-x="1169" 
d="M141 0l252 1434h240l-213 -1207h647l-39 -227h-887zM416 -231q10 62 54 100.5t103 38.5q63 0 89.5 -50.5t11.5 -138.5q-20 -119 -98 -208.5t-175 -106.5l-12 102q90 28 119 125q-52 6 -77 43t-15 95z" />
    <glyph glyph-name="uni013C" unicode="&#x13c;" horiz-adv-x="505" 
d="M141 0l265 1505h223l-267 -1505h-221zM76 -236q10 63 54 101.5t103 38.5q63 0 89.5 -50.5t11.5 -138.5q-20 -118 -98 -208t-175 -107l-12 102q90 28 119 125q-52 6 -77 42.5t-15 94.5z" />
    <glyph glyph-name="Lcaron" unicode="&#x13d;" horiz-adv-x="1062" 
d="M934 1530q63 0 89 -51.5t11 -139.5q-20 -118 -98 -207t-176 -106l-10 100q89 31 118 127q-53 4 -77.5 41.5t-14.5 96.5q10 63 54 101t104 38zM147 0l252 1434h240l-213 -1207h647l-39 -227h-887z" />
    <glyph glyph-name="lcaron" unicode="&#x13e;" horiz-adv-x="811" 
d="M913 1526q63 0 89.5 -51.5t11.5 -139.5q-20 -118 -98.5 -207t-176.5 -106l-10 102q90 28 119 125q-53 6 -77.5 42.5t-14.5 94.5q10 63 53.5 101.5t103.5 38.5zM158 0l266 1505h221l-264 -1505h-223z" />
    <glyph glyph-name="Ldot" unicode="&#x13f;" horiz-adv-x="1062" 
d="M147 0l252 1434h240l-213 -1207h647l-39 -227h-887zM721 799q12 64 56 102.5t104 38.5q59 0 89.5 -38.5t18.5 -102.5q-10 -62 -54.5 -101t-103.5 -39q-60 0 -90.5 38.5t-19.5 101.5z" />
    <glyph glyph-name="ldot" unicode="&#x140;" horiz-adv-x="845" 
d="M158 0l266 1505h221l-264 -1505h-223zM678 643q12 63 56 101t104 38q59 0 89.5 -38.5t18.5 -100.5q-10 -62 -54.5 -100.5t-103.5 -38.5q-60 0 -90 38t-20 101z" />
    <glyph glyph-name="Lslash" unicode="&#x141;" horiz-adv-x="987" 
d="M59 483l41 228l103 45l119 678h239l-102 -584l252 106l-39 -225l-252 -106l-70 -398h645l-39 -227h-886l94 528z" />
    <glyph glyph-name="lslash" unicode="&#x142;" horiz-adv-x="507" 
d="M520 877l187 79l-41 -225l-187 -80l-114 -651h-222l99 563l-187 -80l39 228l189 80l127 714h221z" />
    <glyph glyph-name="Nacute" unicode="&#x143;" horiz-adv-x="1447" 
d="M1063 1589h-115l160 357h143zM147 0l252 1434h240l494 -1024l180 1024h239l-252 -1434h-239l-494 1024l-180 -1024h-240z" />
    <glyph glyph-name="nacute" unicode="&#x144;" horiz-adv-x="1228" 
d="M858 1180h-115l160 356h144zM829 858q-128 0 -234 -100t-132 -246l-90 -512h-221l180 1024h223l-39 -217q78 112 192.5 180t235.5 68q161 0 234 -111t39 -307l-113 -637h-223l104 590q23 132 -16.5 200t-139.5 68z" />
    <glyph glyph-name="uni0145" unicode="&#x145;" horiz-adv-x="1435" 
d="M141 0l252 1434h240l493 -1024l181 1024h239l-252 -1434h-239l-494 1024l-180 -1024h-240zM535 -233q10 62 54 100.5t103 38.5q63 0 89.5 -51.5t11.5 -139.5q-20 -118 -98 -207t-175 -106l-12 100q90 32 119 127q-51 5 -76.5 42.5t-15.5 95.5z" />
    <glyph glyph-name="uni0146" unicode="&#x146;" horiz-adv-x="1234" 
d="M819 858q-128 0 -234 -100t-132 -246l-91 -512h-221l181 1024h223l-39 -217q78 112 192.5 180t235.5 68q161 0 233.5 -111t38.5 -307l-112 -637h-224l105 590q23 132 -16.5 200t-139.5 68zM451 -233q10 62 54 100.5t103 38.5q63 0 89.5 -51.5t11.5 -139.5
q-20 -118 -98.5 -207t-176.5 -106l-10 100q90 32 119 127q-51 5 -76.5 42.5t-15.5 95.5z" />
    <glyph glyph-name="Ncaron" unicode="&#x147;" horiz-adv-x="1447" 
d="M913 1569l-145 377h137l111 -291l209 291h143l-278 -377h-177zM147 0l252 1434h240l494 -1024l180 1024h239l-252 -1434h-239l-494 1024l-180 -1024h-240z" />
    <glyph glyph-name="ncaron" unicode="&#x148;" horiz-adv-x="1228" 
d="M743 1159l-145 377h137l113 -291l207 291h145l-278 -377h-179zM829 858q-128 0 -234 -100t-132 -246l-90 -512h-221l180 1024h223l-39 -217q78 112 192.5 180t235.5 68q161 0 234 -111t39 -307l-113 -637h-223l104 590q23 132 -16.5 200t-139.5 68z" />
    <glyph glyph-name="napostrophe" unicode="&#x149;" horiz-adv-x="1173" 
d="M12 1296q10 64 54.5 102t105.5 38t88 -50.5t12 -138.5q-22 -120 -99.5 -209t-174.5 -104l-10 100q86 27 116 127q-51 5 -76.5 41.5t-15.5 93.5zM772 858q-128 0 -233.5 -100t-130.5 -246l-91 -512h-223l180 1024h224l-39 -217q80 113 194 180.5t236 67.5q160 0 232 -111
t38 -307l-112 -637h-224l105 590q23 132 -16.5 200t-139.5 68z" />
    <glyph glyph-name="Omacron" unicode="&#x14c;" horiz-adv-x="1546" 
d="M1360 1843l-35 -196h-528l34 196h529zM768 -31q-311 0 -469 206t-100 542q60 335 290.5 541t542.5 206q204 0 347 -92.5t201 -263t19 -391.5q-60 -336 -290 -542t-541 -206zM809 203q206 0 352.5 142.5t186.5 371.5q26 150 -7 266.5t-123.5 182t-226.5 65.5
q-206 0 -352 -142.5t-186 -371.5t55 -371.5t301 -142.5z" />
    <glyph glyph-name="omacron" unicode="&#x14d;" horiz-adv-x="1196" 
d="M1110 1434l-35 -197h-528l35 197h528zM592 -31q-238 0 -358.5 149.5t-77.5 393.5t216 393.5t410 149.5q238 0 359 -149.5t78 -393.5t-216 -393.5t-411 -149.5zM627 166q136 0 236 96.5t128 249.5q27 153 -39 249.5t-202 96.5q-137 0 -238 -97t-127 -249q-27 -152 39 -249
t203 -97z" />
    <glyph glyph-name="Obreve" unicode="&#x14e;" horiz-adv-x="1546" 
d="M1044 1532q-141 0 -197 111t5 272h127q-26 -86 1.5 -137.5t96.5 -51.5q70 0 115.5 52t48.5 137h127q4 -161 -90 -272t-234 -111zM768 -31q-311 0 -469 206t-100 542q60 335 290.5 541t542.5 206q204 0 347 -92.5t201 -263t19 -391.5q-60 -336 -290 -542t-541 -206z
M809 203q206 0 352.5 142.5t186.5 371.5q26 150 -7 266.5t-123.5 182t-226.5 65.5q-206 0 -352 -142.5t-186 -371.5t55 -371.5t301 -142.5z" />
    <glyph glyph-name="obreve" unicode="&#x14f;" horiz-adv-x="1196" 
d="M797 1122q-93 0 -152 51.5t-68.5 136.5t29.5 195h125q-26 -86 1.5 -137t98.5 -51q68 0 113.5 51.5t48.5 136.5h127q4 -161 -89.5 -272t-233.5 -111zM592 -31q-238 0 -358.5 149.5t-77.5 393.5t215.5 393.5t410.5 149.5t359 -149.5t78 -393.5t-216 -393.5t-411 -149.5z
M627 166q135 0 235.5 97t126.5 249q27 153 -39 249.5t-202 96.5q-137 0 -236.5 -97t-126.5 -249q-28 -152 38.5 -249t203.5 -97z" />
    <glyph glyph-name="Ohungarumlaut" unicode="&#x150;" horiz-adv-x="1546" 
d="M1157 1556l168 390h223l-211 -390h-180zM958 1556h-180l168 390h223zM768 -31q-311 0 -469 206t-100 542q60 335 290.5 541t542.5 206q204 0 347 -92.5t201 -263t19 -391.5q-60 -336 -290 -542t-541 -206zM809 203q206 0 352.5 142.5t186.5 371.5q26 150 -7 266.5
t-123.5 182t-226.5 65.5q-206 0 -352 -142.5t-186 -371.5t55 -371.5t301 -142.5z" />
    <glyph glyph-name="ohungarumlaut" unicode="&#x151;" horiz-adv-x="1196" 
d="M895 1147l168 389h225l-211 -389h-182zM698 1147h-182l168 389h225zM592 -31q-238 0 -358.5 149.5t-77.5 393.5t216 393.5t410 149.5q238 0 359 -149.5t78 -393.5t-216 -393.5t-411 -149.5zM627 166q136 0 236 96.5t128 249.5q27 153 -39 249.5t-202 96.5
q-137 0 -238 -97t-127 -249q-27 -152 39 -249t203 -97z" />
    <glyph glyph-name="OE" unicode="&#x152;" horiz-adv-x="2242" 
d="M1264 197q-94 -108 -222.5 -168t-273.5 -60q-205 0 -347.5 92.5t-200.5 263t-19 392.5q38 222 156.5 392t294 262.5t380.5 92.5q145 0 252.5 -59.5t163.5 -167.5l33 197h909l-39 -228h-670l-61 -348h625l-39 -225h-627q-9 -54 -35 -202.5t-35 -203.5h670l-41 -227h-909z
M453 717q-40 -229 55 -371.5t301 -142.5t352.5 142.5t186.5 371.5q26 150 -7 266.5t-123.5 182t-226.5 65.5q-206 0 -352 -142.5t-186 -371.5z" />
    <glyph glyph-name="oe" unicode="&#x153;" horiz-adv-x="1884" 
d="M1817 88q-174 -119 -398 -119q-154 0 -256 63.5t-141 178.5q-85 -112 -209 -176t-266 -64q-238 0 -358.5 149.5t-77.5 395.5q43 244 216.5 393.5t411.5 149.5q144 0 243.5 -63t143.5 -175q75 109 184 171.5t236 62.5q141 0 234 -72t125.5 -194t3.5 -273q-3 -16 -23 -88
h-678q-4 -125 71 -193.5t198 -68.5q164 0 325 100zM340 516q-28 -152 38.5 -250t203.5 -98q136 0 235.5 97.5t126.5 250.5q27 152 -38 249t-201 97q-137 0 -238.5 -97.5t-126.5 -248.5zM1513 858q-103 0 -179.5 -75.5t-108.5 -211.5h463q18 127 -25 207t-150 80z" />
    <glyph glyph-name="Racute" unicode="&#x154;" horiz-adv-x="1286" 
d="M987 1589h-117l162 357h144zM735 0l-63 504h-197l-88 -504h-240l252 1434h533q266 0 385 -117t78 -346q-31 -180 -142 -287t-321 -156l49 -303h281l-39 -225h-488zM877 1206h-277l-84 -477h266q162 0 251 57t112 185q22 123 -43.5 179t-224.5 56z" />
    <glyph glyph-name="racute" unicode="&#x155;" horiz-adv-x="823" 
d="M692 1180h-114l161 356h142zM936 1036l-37 -211q-42 24 -111 17q-116 -8 -211 -122t-126 -286l-78 -434h-221l180 1024h223l-37 -205q68 113 154 174.5t178 61.5q38 0 86 -19z" />
    <glyph glyph-name="uni0156" unicode="&#x156;" horiz-adv-x="1378" 
d="M729 0l-63 504h-197l-88 -504h-240l252 1434h533q266 0 385 -117t78 -346q-31 -180 -142 -287t-321 -156l49 -303h280l-38 -225h-488zM870 1206h-276l-84 -477h266q162 0 251 57t112 185q21 123 -44.5 179t-224.5 56zM477 -233q10 62 54.5 100.5t103.5 38.5
q63 0 90 -51.5t12 -139.5q-22 -118 -99.5 -207t-174.5 -106l-10 100q87 30 116 127q-51 5 -76.5 42.5t-15.5 95.5z" />
    <glyph glyph-name="uni0157" unicode="&#x157;" horiz-adv-x="839" 
d="M926 1036l-37 -211q-42 24 -111 17q-116 -8 -211.5 -122t-126.5 -286l-78 -434h-221l181 1024h223l-37 -205q68 113 154 174.5t178 61.5q38 0 86 -19zM111 -233q10 62 54 100.5t103 38.5q63 0 90.5 -51.5t12.5 -139.5q-22 -118 -100 -207t-175 -106l-12 100
q90 30 119 127q-51 5 -76.5 42.5t-15.5 95.5z" />
    <glyph glyph-name="Rcaron" unicode="&#x158;" horiz-adv-x="1286" 
d="M856 1569l-145 377h137l110 -291l209 291h144l-277 -377h-178zM735 0l-63 504h-197l-88 -504h-240l252 1434h533q266 0 385 -117t78 -346q-31 -180 -142 -287t-321 -156l49 -303h281l-39 -225h-488zM877 1206h-277l-84 -477h266q162 0 251 57t112 185q22 123 -43.5 179
t-224.5 56z" />
    <glyph glyph-name="rcaron" unicode="&#x159;" horiz-adv-x="749" 
d="M524 1159l-145 377h137l111 -291l209 291h143l-277 -377h-178zM885 1036l-39 -211q-40 24 -109 17q-117 -8 -213.5 -122t-126.5 -286l-75 -434h-222l181 1024h221l-35 -205q68 113 154 174.5t178 61.5q39 0 86 -19z" />
    <glyph glyph-name="Sacute" unicode="&#x15a;" horiz-adv-x="1130" 
d="M909 1589h-114l159 357h144zM63 106l103 228q195 -131 403 -131q141 0 225.5 47.5t98.5 124.5q9 54 -25 97.5t-95 74.5t-136.5 62t-149 70.5t-132 88.5t-86.5 126t-11 175q32 181 184.5 288t380.5 107q128 0 247.5 -33.5t209.5 -89.5l-102 -223q-182 113 -392 113
q-121 0 -191.5 -42.5t-82.5 -115.5q-8 -45 11 -83.5t57.5 -68t90.5 -56t110 -53t115.5 -55.5t108 -66.5t86 -82t50.5 -106.5t2 -135q-31 -178 -194.5 -288t-416.5 -110q-260 0 -469 137z" />
    <glyph glyph-name="sacute" unicode="&#x15b;" horiz-adv-x="976" 
d="M748 1180h-117l162 356h141zM72 96l82 187q72 -49 176 -83t196 -34q83 0 136 28t61 72q6 33 -21.5 62t-75 52.5t-105.5 48t-115 57t-102 72t-67 99t-10 131.5q23 127 130.5 197t275.5 70q215 0 409 -119l-94 -186q-90 51 -165.5 79.5t-161.5 28.5q-153 0 -168 -94
q-7 -36 13 -67.5t57 -53.5t85.5 -45.5t99.5 -44.5t98.5 -50.5t83 -62.5t52 -81.5t6.5 -106.5q-21 -125 -142.5 -204t-309.5 -79q-123 0 -234 35t-190 92z" />
    <glyph glyph-name="Scircumflex" unicode="&#x15c;" horiz-adv-x="1130" 
d="M573 1569l240 379h193l106 -379h-143l-76 284l-176 -284h-144zM61 106l105 228q192 -131 403 -131q139 0 224.5 47.5t97.5 124.5q8 43 -11.5 79t-58.5 62.5t-91.5 51t-110.5 49.5t-116 53t-108 65.5t-86 82.5t-50.5 109.5t-0.5 141.5q31 181 183.5 288t381.5 107
q126 0 246 -33.5t211 -89.5l-102 -223q-186 113 -392 113q-121 0 -191.5 -42.5t-84.5 -115.5q-8 -45 11.5 -83.5t58 -68t91 -56t110.5 -53t115.5 -55.5t108 -66.5t86 -82t50.5 -106.5t2 -135q-31 -178 -194.5 -288t-416.5 -110q-262 0 -471 137z" />
    <glyph glyph-name="scircumflex" unicode="&#x15d;" horiz-adv-x="976" 
d="M412 1159l239 379h191l106 -379h-141l-78 285l-176 -285h-141zM72 96l82 187q72 -49 176 -83t196 -34q83 0 136 28t61 72q6 33 -21.5 62t-75 52.5t-105.5 48t-115 57t-102 72t-67 99t-10 131.5q23 127 130.5 197t275.5 70q215 0 409 -119l-94 -186q-90 51 -165.5 79.5
t-161.5 28.5q-153 0 -168 -94q-7 -36 13 -67.5t57 -53.5t85.5 -45.5t99.5 -44.5t98.5 -50.5t83 -62.5t52 -81.5t6.5 -106.5q-21 -125 -142.5 -204t-309.5 -79q-123 0 -234 35t-190 92z" />
    <glyph glyph-name="Scedilla" unicode="&#x15e;" horiz-adv-x="1130" 
d="M494 -29q-255 6 -433 127l105 226q181 -121 405 -121q142 0 226.5 53t101.5 154q7 42 -5.5 73.5t-30.5 49.5t-64.5 34t-75 22t-93.5 18q-39 7 -59 11q-34 7 -61.5 14t-59.5 18t-56.5 23.5t-49.5 30.5t-42.5 39t-32 49t-21 61t-6.5 74t8 89q37 213 194.5 330.5
t407.5 117.5q243 0 422 -106l-103 -221q-164 94 -360 94q-270 0 -307 -195q-6 -38 4.5 -66.5t32.5 -46t59 -31t74.5 -22t87.5 -18.5q35 -6 53 -10q32 -7 58 -13t56.5 -15t54.5 -20t50 -25.5t44.5 -32t36.5 -40t28.5 -50t17 -59.5t5.5 -72t-9 -85q-38 -211 -187 -329.5
t-386 -129.5l-70 -90q34 17 70 17q78 0 117 -52t22 -139q-19 -103 -96.5 -161t-196.5 -58q-94 0 -166 37l39 88q70 -33 125 -33q64 0 105 30t51 89q10 52 -9 80t-59 28q-26 0 -50.5 -11.5t-33.5 -20.5l-45 39z" />
    <glyph glyph-name="scedilla" unicode="&#x15f;" horiz-adv-x="987" 
d="M418 -29q-206 16 -350 111l84 184q79 -48 179 -74t191 -26q193 0 217 129q4 27 -3.5 47t-21 32t-40 21t-48 13.5t-57.5 9.5q-135 23 -182 39q-156 53 -168 187q-4 41 4 89q29 156 147.5 239t313.5 83q227 0 371 -107l-82 -184q-44 33 -134.5 63.5t-185.5 30.5
q-177 0 -198 -121q-6 -30 3 -50.5t33 -32.5t49 -18.5t66 -12.5q16 -3 50 -10q64 -12 98 -20.5t89 -32t81 -54t41 -85t2 -126.5q-28 -158 -145 -240.5t-314 -85.5l-70 -88q34 17 68 17q79 0 118.5 -52t22.5 -139q-19 -103 -96.5 -161t-196.5 -58q-92 0 -168 37l41 88
q70 -33 123 -33q65 0 106.5 30t51.5 89q10 52 -9 80t-59 28q-46 0 -86 -32l-43 39z" />
    <glyph glyph-name="Scaron" unicode="&#x160;" horiz-adv-x="1130" 
d="M762 1569l-146 377h138l110 -291l209 291h144l-279 -377h-176zM63 106l103 228q195 -131 403 -131q141 0 225.5 47.5t98.5 124.5q9 54 -25 97.5t-95 74.5t-136.5 62t-149 70.5t-132 88.5t-86.5 126t-11 175q32 181 184.5 288t380.5 107q128 0 247.5 -33.5t209.5 -89.5
l-102 -223q-182 113 -392 113q-121 0 -191.5 -42.5t-82.5 -115.5q-8 -45 11 -83.5t57.5 -68t90.5 -56t110 -53t115.5 -55.5t108 -66.5t86 -82t50.5 -106.5t2 -135q-31 -178 -194.5 -288t-416.5 -110q-260 0 -469 137z" />
    <glyph glyph-name="scaron" unicode="&#x161;" horiz-adv-x="976" 
d="M606 1159l-145 377h137l113 -291l207 291h145l-279 -377h-178zM72 96l82 187q72 -49 176 -83t196 -34q83 0 136 28t61 72q6 33 -21.5 62t-75 52.5t-105.5 48t-115 57t-102 72t-67 99t-10 131.5q23 127 130.5 197t275.5 70q215 0 409 -119l-94 -186q-90 51 -165.5 79.5
t-161.5 28.5q-153 0 -168 -94q-7 -36 13 -67.5t57 -53.5t85.5 -45.5t99.5 -44.5t98.5 -50.5t83 -62.5t52 -81.5t6.5 -106.5q-21 -125 -142.5 -204t-309.5 -79q-123 0 -234 35t-190 92z" />
    <glyph glyph-name="uni0162" unicode="&#x162;" horiz-adv-x="1271" 
d="M231 1206l41 228h1231l-41 -228h-493l-213 -1206h-76l-100 -119q31 17 67 17q74 0 109 -45t22 -123q-15 -83 -66 -139.5t-114 -79.5t-135 -23q-92 0 -164 37l49 88q67 -33 121 -33q66 0 111 34t57 99q7 45 -10.5 69.5t-53.5 24.5q-48 0 -88 -32l-41 39l146 186h-74
l211 1206h-496z" />
    <glyph glyph-name="uni0163" unicode="&#x163;" horiz-adv-x="835" 
d="M176 805l37 219h166l41 221l235 72l-53 -293h291l-37 -219h-291l-69 -389q-45 -250 131 -250q64 0 143 31l14 -183q-131 -55 -247 -43l-74 -90q34 17 69 17q72 0 107.5 -45t22.5 -123q-15 -83 -66 -139.5t-115 -79.5t-137 -23q-90 0 -162 37l47 88q70 -33 123 -33
q64 0 110 34t58 99q7 45 -10 69.5t-53 24.5q-48 0 -88 -32l-39 39l125 170q-118 34 -166.5 142t-18.5 277l72 402h-166z" />
    <glyph glyph-name="Tcaron" unicode="&#x164;" horiz-adv-x="1271" 
d="M823 1569l-145 377h137l111 -291l209 291h143l-277 -377h-178zM233 1206l39 228h1231l-39 -228h-495l-213 -1206h-240l213 1206h-496z" />
    <glyph glyph-name="tcaron" unicode="&#x165;" horiz-adv-x="962" 
d="M1079 1624q63 0 89.5 -51t11.5 -139q-20 -119 -98.5 -209t-176.5 -105l-10 101q90 32 119 127q-53 5 -77.5 42t-14.5 95q10 63 53.5 101t103.5 38zM551 805l-68 -391q-3 -16 -5.5 -32.5t-3.5 -48.5t3.5 -56.5t19 -47t38.5 -28.5q31 -7 105 4t110 26l-7 -217
q-113 -45 -194 -45q-175 0 -251.5 113.5t-39.5 320.5l72 402h-154l21 117l198 104l105 309h145l-55 -311h309l-39 -219h-309z" />
    <glyph glyph-name="Tbar" unicode="&#x166;" horiz-adv-x="1271" 
d="M1110 795l-35 -197h-213l-106 -598h-240l107 598h-215l34 197h215l72 411h-498l41 228h1231l-39 -228h-495l-74 -411h215z" />
    <glyph glyph-name="tbar" unicode="&#x167;" horiz-adv-x="798" 
d="M555 805l-33 -176h303l-28 -160h-301l-11 -55q0 -1 -2 -15.5t-3 -24.5t-3 -28.5t-1.5 -33.5t2 -33.5t5.5 -33t10.5 -28.5t17 -24t24.5 -15q30 -7 103 4.5t112 26.5l-5 -195q-113 -45 -192 -45q-177 0 -253.5 113.5t-39.5 320.5l12 66h-151l29 160h149l33 176h-154l21 117
l198 104l105 309h145l-55 -311h309l-37 -219h-309z" />
    <glyph glyph-name="Utilde" unicode="&#x168;" horiz-adv-x="1398" 
d="M721 1712q35 59 79 91t89 32q39 0 111 -44t120 -44q60 0 133 63l15 -122q-28 -48 -76 -74.5t-96 -26.5q-38 0 -111 40t-119 40q-61 0 -129 -68zM242 643l139 791h240l-140 -785q-37 -212 29.5 -329t224.5 -117q157 0 264.5 116.5t145.5 329.5l137 785h240l-140 -791
q-55 -312 -240 -493t-448 -181q-264 0 -385.5 181t-66.5 493z" />
    <glyph glyph-name="utilde" unicode="&#x169;" horiz-adv-x="1210" 
d="M543 1303q35 59 79 90.5t89 31.5q39 0 111 -44t120 -44q59 0 133 64l15 -123q-28 -47 -76 -73.5t-96 -26.5q-38 0 -111 39.5t-119 39.5q-62 0 -129 -67zM526 1024l-104 -590q-23 -132 16 -200t137 -68q123 0 224.5 100t126.5 246l92 512h221l-180 -1024h-223
q14 64 38 213q-77 -111 -187 -177.5t-228 -66.5q-159 0 -230 111t-36 307l112 637h221z" />
    <glyph glyph-name="Umacron" unicode="&#x16a;" horiz-adv-x="1398" 
d="M1284 1843l-35 -196h-528l35 196h528zM242 643l139 791h240l-140 -785q-37 -212 29.5 -329t224.5 -117q157 0 264.5 116.5t145.5 329.5l137 785h240l-140 -791q-55 -312 -240 -493t-448 -181q-264 0 -385.5 181t-66.5 493z" />
    <glyph glyph-name="umacron" unicode="&#x16b;" horiz-adv-x="1212" 
d="M1108 1434l-35 -197h-528l35 197h528zM528 1024l-104 -590q-23 -132 15.5 -200t135.5 -68q123 0 225 100t128 246l90 512h223l-182 -1024h-221q3 18 18 106.5t18 106.5q-77 -112 -186.5 -178t-228.5 -66q-157 0 -228.5 111t-37.5 307l112 637h223z" />
    <glyph glyph-name="Ubreve" unicode="&#x16c;" horiz-adv-x="1398" 
d="M969 1532q-140 0 -196.5 111t5.5 272h125q-26 -86 2 -137.5t99 -51.5q69 0 114 51.5t49 137.5h125q6 -161 -88.5 -272t-234.5 -111zM242 643l139 791h240l-140 -785q-37 -212 29.5 -329t224.5 -117q157 0 264.5 116.5t145.5 329.5l137 785h240l-140 -791
q-55 -312 -240 -493t-448 -181q-264 0 -385.5 181t-66.5 493z" />
    <glyph glyph-name="ubreve" unicode="&#x16d;" horiz-adv-x="1210" 
d="M791 1122q-140 0 -196.5 111t5.5 272h125q-26 -86 1.5 -137t98.5 -51q69 0 114.5 51t49.5 137h125q6 -161 -88.5 -272t-234.5 -111zM526 1024l-104 -590q-23 -132 16 -200t137 -68q123 0 224.5 100t126.5 246l92 512h221l-180 -1024h-223q14 64 38 213
q-77 -111 -187 -177.5t-228 -66.5q-159 0 -230 111t-36 307l112 637h221z" />
    <glyph glyph-name="Uring" unicode="&#x16e;" horiz-adv-x="1398" 
d="M981 1618q-106 0 -162 67.5t-37 174.5t98.5 174t186.5 67q109 0 165.5 -67t37.5 -174t-99.5 -174.5t-189.5 -67.5zM905 1860q-9 -57 17.5 -91t81.5 -34t93.5 34t49.5 91q9 57 -17 91t-81 34t-94 -34t-50 -91zM242 643l139 791h240l-140 -785q-37 -212 29.5 -329
t224.5 -117q157 0 264.5 116.5t145.5 329.5l137 785h240l-140 -791q-55 -312 -240 -493t-448 -181q-264 0 -385.5 181t-66.5 493z" />
    <glyph glyph-name="uring" unicode="&#x16f;" horiz-adv-x="1212" 
d="M805 1208q-107 0 -163.5 67.5t-37.5 174.5t99 174.5t186 67.5q109 0 166 -67.5t37 -174.5q-19 -107 -98.5 -174.5t-188.5 -67.5zM729 1450q-11 -57 16 -91t82 -34q54 0 93.5 34t48.5 91q10 57 -16.5 91t-82.5 34q-55 0 -93.5 -34t-47.5 -91zM528 1024l-104 -590
q-23 -132 15.5 -200t135.5 -68q123 0 225 100t128 246l90 512h223l-182 -1024h-221q3 18 18 106.5t18 106.5q-77 -112 -186.5 -178t-228.5 -66q-157 0 -228.5 111t-37.5 307l112 637h223z" />
    <glyph glyph-name="Uhungarumlaut" unicode="&#x170;" horiz-adv-x="1398" 
d="M1067 1556l168 390h225l-211 -390h-182zM870 1556h-180l166 390h225zM242 643l139 791h240l-140 -785q-37 -212 29.5 -329t224.5 -117q157 0 264.5 116.5t145.5 329.5l137 785h240l-140 -791q-55 -312 -240 -493t-448 -181q-264 0 -385.5 181t-66.5 493z" />
    <glyph glyph-name="uhungarumlaut" unicode="&#x171;" horiz-adv-x="1212" 
d="M891 1147l168 389h225l-213 -389h-180zM692 1147h-180l168 389h225zM528 1024l-104 -590q-23 -132 15.5 -200t135.5 -68q123 0 225 100t128 246l90 512h223l-182 -1024h-221q3 18 18 106.5t18 106.5q-77 -112 -186.5 -178t-228.5 -66q-157 0 -228.5 111t-37.5 307
l112 637h223z" />
    <glyph glyph-name="Uogonek" unicode="&#x172;" horiz-adv-x="1398" 
d="M242 643l139 791h237l-137 -785q-37 -212 29 -329t223 -117q158 0 266 116.5t146 329.5l137 785h238l-138 -791q-52 -296 -221.5 -474.5t-412.5 -197.5q-22 -30 -60 -77t-58 -73t-40 -63.5t-27 -72.5q-11 -53 5.5 -80t52.5 -27q55 0 110 55l25 -36q-33 -46 -91 -77.5
t-114 -31.5q-73 0 -108.5 51t-20.5 133q8 39 31.5 80t43 64.5t68.5 77t70 77.5q-235 22 -340 200.5t-53 471.5z" />
    <glyph glyph-name="uogonek" unicode="&#x173;" horiz-adv-x="1185" 
d="M193 387l112 637h221l-102 -590q-25 -132 14 -200t137 -68q124 0 225.5 99.5t127.5 246.5l90 512h223l-180 -1024h-60q-25 -37 -80.5 -106.5t-82 -114.5t-35.5 -94q-11 -53 5 -80t52 -27q59 0 111 55l24 -36q-31 -46 -89 -77.5t-115 -31.5q-73 0 -108.5 51t-20.5 133
q8 42 32.5 84.5t50 72t74 82t78.5 89.5h-59l39 213q-78 -111 -189 -177.5t-229 -66.5q-159 0 -230 111t-36 307z" />
    <glyph glyph-name="Wcircumflex" unicode="&#x174;" horiz-adv-x="2164" 
d="M1073 1569l240 379h190l107 -379h-142l-75 284l-179 -284h-141zM270 1434h275l123 -1227l557 1227h221l125 -1227l555 1227h274l-696 -1434h-322l-120 1018l-480 -1018h-321z" />
    <glyph glyph-name="wcircumflex" unicode="&#x175;" horiz-adv-x="1824" 
d="M831 1159l240 379h191l106 -379h-141l-78 285l-176 -285h-142zM659 0h-274l-188 1024h239l125 -836l422 836h219l127 -836l420 836h240l-549 -1024h-277l-119 748z" />
    <glyph glyph-name="Ycircumflex" unicode="&#x176;" horiz-adv-x="1239" 
d="M610 1569l240 379h192l107 -379h-143l-76 284l-176 -284h-144zM578 438l-320 996h268l213 -762l480 762h270l-672 -996l-78 -438h-239z" />
    <glyph glyph-name="ycircumflex" unicode="&#x177;" horiz-adv-x="1067" 
d="M471 1159l240 379h190l107 -379h-144l-76 285l-176 -285h-141zM401 0l-208 1024h241l144 -836l440 836h239l-854 -1536h-245l309 512h-66z" />
    <glyph glyph-name="Ydieresis" unicode="&#x178;" horiz-adv-x="1239" 
d="M1001 1726q9 54 45.5 86.5t86.5 32.5q51 0 76 -32.5t16 -86.5t-45.5 -86t-87.5 -32q-50 0 -75 32t-16 86zM664 1726q9 54 45.5 86.5t87.5 32.5q50 0 74.5 -32.5t15.5 -86.5q-9 -53 -46 -85.5t-87 -32.5t-75 32.5t-15 85.5zM578 438l-320 996h268l213 -762l480 762h270
l-672 -996l-78 -438h-239z" />
    <glyph glyph-name="Zacute" unicode="&#x179;" horiz-adv-x="1138" 
d="M950 1589h-114l159 357h144zM55 0l31 172l911 1034h-721l39 228h1016l-28 -172l-920 -1035h747l-38 -227h-1037z" />
    <glyph glyph-name="zacute" unicode="&#x17a;" horiz-adv-x="966" 
d="M743 1180h-114l159 356h144zM922 0h-869l19 109l641 696h-488l39 219h830l-19 -109l-639 -696h525z" />
    <glyph glyph-name="Zdotaccent" unicode="&#x17b;" horiz-adv-x="1138" 
d="M791 1722q10 63 54.5 101.5t104.5 38.5q59 0 89 -38.5t20 -101.5q-10 -62 -54.5 -100.5t-103.5 -38.5q-60 0 -90 38t-20 101zM55 0l31 172l911 1034h-721l39 228h1016l-28 -172l-920 -1035h747l-38 -227h-1037z" />
    <glyph glyph-name="zdotaccent" unicode="&#x17c;" horiz-adv-x="966" 
d="M584 1313q12 63 55.5 101t103.5 38t90.5 -38t18.5 -101q-10 -62 -54.5 -100.5t-103.5 -38.5q-60 0 -90 38t-20 101zM922 0h-869l19 109l641 696h-488l39 219h830l-19 -109l-639 -696h525z" />
    <glyph glyph-name="Zcaron" unicode="&#x17d;" horiz-adv-x="1138" 
d="M811 1569l-145 377h137l110 -291l209 291h144l-277 -377h-178zM55 0l31 172l911 1034h-721l39 228h1016l-28 -172l-920 -1035h747l-38 -227h-1037z" />
    <glyph glyph-name="zcaron" unicode="&#x17e;" horiz-adv-x="966" 
d="M604 1159l-145 377h137l111 -291l208 291h144l-279 -377h-176zM922 0h-869l19 109l641 696h-488l39 219h830l-19 -109l-639 -696h525z" />
    <glyph glyph-name="longs" unicode="&#x17f;" horiz-adv-x="864" 
d="M336 1102q37 206 152.5 320t289.5 114q111 0 209 -45l-78 -182q-67 30 -133 30q-177 0 -221 -249l-193 -1090h-221z" />
    <glyph glyph-name="florin" unicode="&#x192;" horiz-adv-x="727" 
d="M-221 -467l80 182q65 -30 131 -30q177 0 221 249l154 871h-164l37 219h165l15 78q35 206 151 320t289 114q113 0 211 -45l-80 -182q-65 30 -133 30q-175 0 -219 -249l-12 -66h303l-37 -219h-303l-156 -883q-37 -205 -154 -319.5t-290 -114.5q-111 0 -209 45z" />
    <glyph glyph-name="uni0218" unicode="&#x218;" horiz-adv-x="1318" 
d="M160 106l104 228q192 -131 404 -131q139 0 224 47.5t97 124.5q8 43 -11.5 79t-58.5 62.5t-91.5 51t-110.5 49.5t-116 53t-108 65.5t-86 82.5t-50.5 109.5t-0.5 141.5q31 181 183.5 288t382.5 107q126 0 245.5 -33.5t210.5 -89.5l-102 -223q-186 113 -391 113
q-121 0 -192 -42.5t-85 -115.5q-8 -45 11.5 -83.5t58 -68t91 -56t110.5 -53t115.5 -55.5t108 -66.5t86 -82t50.5 -106.5t2 -135q-31 -179 -194 -288.5t-416 -109.5q-262 0 -471 137zM475 -250q10 62 54.5 100.5t103.5 38.5q63 0 89 -50t11 -138q-20 -119 -98 -208.5
t-176 -104.5l-10 100q87 27 118 125q-52 6 -77 42.5t-15 94.5z" />
    <glyph glyph-name="uni0219" unicode="&#x219;" horiz-adv-x="1146" 
d="M166 96l82 187q72 -49 176.5 -83t196.5 -34q83 0 135.5 28t60.5 72q6 33 -21.5 62t-75 52.5t-105.5 48t-115 57t-101.5 72t-66.5 99t-10 131.5q23 127 130 197t275 70q216 0 410 -119l-95 -186q-90 51 -165.5 79.5t-161.5 28.5q-153 0 -168 -94q-7 -36 13 -67.5t57 -53.5
t85.5 -45.5t99.5 -44.5t98.5 -50.5t83 -62.5t52 -81.5t6.5 -106.5q-21 -125 -142.5 -204t-309.5 -79q-123 0 -234 35t-190 92zM401 -244q10 64 54.5 102t103.5 38q63 0 90.5 -50.5t12.5 -138.5q-22 -119 -100.5 -208.5t-174.5 -104.5l-10 100q87 27 117 127q-51 5 -77 42
t-16 93z" />
    <glyph glyph-name="uni021A" unicode="&#x21a;" horiz-adv-x="1271" 
d="M233 1206l39 228h1231l-39 -228h-495l-213 -1206h-240l213 1206h-496zM465 -233q10 62 54.5 100.5t103.5 38.5q63 0 89 -51.5t11 -139.5q-20 -118 -98 -207t-176 -106l-11 100q90 32 119 127q-51 5 -76.5 42.5t-15.5 95.5z" />
    <glyph glyph-name="uni021B" unicode="&#x21b;" horiz-adv-x="794" 
d="M551 805l-68 -391q-3 -16 -5.5 -32.5t-3.5 -48.5t3.5 -56.5t19 -47t38.5 -28.5q31 -7 105 4t110 26l-7 -217q-113 -45 -194 -45q-175 0 -251.5 113.5t-39.5 320.5l72 402h-154l21 117l198 104l105 309h145l-55 -311h309l-39 -219h-309zM287 -240q10 63 54 101.5t103 38.5
q63 0 89.5 -51.5t11.5 -139.5q-20 -119 -98.5 -208.5t-176.5 -104.5l-10 100q90 32 119 127q-51 5 -76.5 42t-15.5 95z" />
    <glyph glyph-name="uni0237" unicode="&#x237;" horiz-adv-x="638" 
d="M-178 -467l80 182q61 -30 131 -30q175 0 219 249l192 1090h222l-193 -1102q-40 -218 -158 -326t-286 -108q-112 0 -207 45z" />
    <glyph glyph-name="circumflex" unicode="&#x2c6;" horiz-adv-x="874" 
d="M373 1159l239 379h191l106 -379h-141l-76 285l-178 -285h-141z" />
    <glyph glyph-name="caron" unicode="&#x2c7;" horiz-adv-x="849" 
d="M541 1159l-146 377h137l113 -291l209 291h143l-278 -377h-178z" />
    <glyph glyph-name="uni02C9" unicode="&#x2c9;" horiz-adv-x="792" 
d="M934 1434l-39 -228h-573l38 228h574z" />
    <glyph glyph-name="breve" unicode="&#x2d8;" horiz-adv-x="770" 
d="M584 1122q-140 0 -196 111t5 272h127q-26 -86 1 -137t97 -51t115.5 51.5t48.5 136.5h127q4 -161 -90 -272t-235 -111z" />
    <glyph glyph-name="dotaccent" unicode="&#x2d9;" horiz-adv-x="909" 
d="M553 1313q10 62 54.5 100.5t103.5 38.5q60 0 90 -38t20 -101q-12 -63 -55.5 -101t-103.5 -38q-59 0 -90 38.5t-19 100.5z" />
    <glyph glyph-name="ring" unicode="&#x2da;" horiz-adv-x="944" 
d="M684 1208q-107 0 -163.5 67.5t-37.5 174.5t99 174.5t186 67.5q109 0 166 -67.5t37 -174.5q-19 -107 -98.5 -174.5t-188.5 -67.5zM608 1450q-10 -57 16.5 -91t82.5 -34q54 0 93 34t48 91q11 57 -16 91t-82 34q-56 0 -94.5 -34t-47.5 -91z" />
    <glyph glyph-name="ogonek" unicode="&#x2db;" horiz-adv-x="862" 
d="M283 -512q-73 0 -108.5 51t-20.5 133q9 44 35.5 88.5t53 74.5t80.5 87.5t87 95.5h106q-31 -43 -90.5 -113.5t-90.5 -119t-40 -100.5q-11 -53 5 -80t52 -27q56 0 111 55l24 -36q-33 -46 -90.5 -77.5t-113.5 -31.5z" />
    <glyph glyph-name="tilde" unicode="&#x2dc;" horiz-adv-x="921" 
d="M420 1303q33 59 77 90.5t91 31.5q38 0 110 -44t119 -44q58 0 135 64l15 -123q-28 -47 -76.5 -73.5t-95.5 -26.5q-39 0 -112.5 39.5t-119.5 39.5q-59 0 -129 -67z" />
    <glyph glyph-name="hungarumlaut" unicode="&#x2dd;" horiz-adv-x="788" 
d="M664 1147l165 389h226l-211 -389h-180zM465 1147h-180l166 389h225z" />
    <glyph glyph-name="uni0326" unicode="&#x326;" horiz-adv-x="221" 
d="M131 520q10 63 55 101t105 38q62 0 88.5 -50t11.5 -138q-22 -120 -99 -209t-175 -106l-11 102q87 28 117 125q-52 6 -77 42.5t-15 94.5z" />
    <glyph glyph-name="uni0394" unicode="&#x394;" horiz-adv-x="1222" 
d="M145 176l590 1258h256l148 -1258l-33 -176h-991zM922 227l-95 1000l-446 -1000h541z" />
    <glyph glyph-name="uni03A9" unicode="&#x3a9;" horiz-adv-x="1370" 
d="M119 0l39 227h270q-79 91 -104 240t6 321q54 299 229.5 487.5t401.5 188.5q149 0 250.5 -85.5t139 -239.5t1.5 -351q-31 -176 -108 -323t-189 -238h270l-39 -227h-481l41 227q109 70 186 200.5t107 305.5q41 228 -18.5 363t-200.5 135q-143 0 -250.5 -134.5
t-147.5 -363.5q-32 -176 -0.5 -306t117.5 -200l-41 -227h-479z" />
    <glyph glyph-name="uni03BC" unicode="&#x3bc;" horiz-adv-x="1087" 
d="M236 -481h-179l265 1505h178l-105 -590q-23 -130 9.5 -199t119.5 -69q104 0 199.5 105t120.5 245l88 508h178l-180 -1024h-178l39 223q-62 -120 -146.5 -187t-177.5 -67q-104 0 -135 103z" />
    <glyph glyph-name="pi" unicode="&#x3c0;" horiz-adv-x="1392" 
d="M176 1024h1215l-39 -225h-226l-67 -385q-45 -250 131 -250q64 0 143 31l15 -183q-115 -45 -228 -45q-184 0 -261.5 113t-39.5 321l70 398h-307l-142 -799h-237l141 799h-209z" />
    <glyph glyph-name="uni0401" unicode="&#x401;" horiz-adv-x="1161" 
d="M932 1726q9 54 45 86.5t86 32.5q51 0 76 -32.5t16 -86.5t-45.5 -86t-87.5 -32q-50 0 -74.5 32t-15.5 86zM594 1726q9 54 46 86.5t87 32.5t74.5 -32.5t15.5 -86.5q-9 -53 -46 -85.5t-87 -32.5t-74.5 32t-15.5 86zM399 1434h910l-39 -228h-670l-61 -348h626l-41 -225h-626
l-72 -406h670l-39 -227h-910z" />
    <glyph glyph-name="uni0402" unicode="&#x402;" horiz-adv-x="1552" 
d="M1210 641q-179 0 -370 -160l-84 -481h-240l213 1206h-498l41 228h1231l-39 -228h-495l-95 -522q208 154 412 154q85 0 153 -27.5t113.5 -81.5t62.5 -133t-1 -182q-18 -100 -64 -179.5t-110 -129.5t-140.5 -76.5t-158.5 -26.5q-110 0 -205 45l78 182q72 -32 133 -32
q89 0 157 58.5t85 158.5q20 113 -35 170t-144 57z" />
    <glyph glyph-name="uni0403" unicode="&#x403;" horiz-adv-x="1282" 
d="M946 1589h-117l162 357h142zM1495 1434l-39 -228h-872l-213 -1206h-224l252 1434h1096z" />
    <glyph glyph-name="uni0404" unicode="&#x404;" horiz-adv-x="1296" 
d="M1327 76q-219 -107 -440 -107q-207 0 -350 94t-200.5 264t-17.5 390q59 333 289 540t543 207q222 0 401 -106q-86 -183 -102 -221q-159 94 -340 94t-319 -114t-195 -308h702l-28 -162h-705q-19 -203 79 -323.5t284 -120.5q182 0 375 94q3 -27 12.5 -117t11.5 -104z" />
    <glyph glyph-name="uni0405" unicode="&#x405;" horiz-adv-x="1130" 
d="M63 106l103 228q195 -131 403 -131q141 0 225.5 47.5t98.5 124.5q9 54 -25 97.5t-95 74.5t-136.5 62t-149 70.5t-132 88.5t-86.5 126t-11 175q32 181 184.5 288t380.5 107q128 0 247.5 -33.5t209.5 -89.5l-102 -223q-182 113 -392 113q-121 0 -191.5 -42.5t-82.5 -115.5
q-8 -45 11 -83.5t57.5 -68t90.5 -56t110 -53t115.5 -55.5t108 -66.5t86 -82t50.5 -106.5t2 -135q-31 -178 -194.5 -288t-416.5 -110q-260 0 -469 137z" />
    <glyph glyph-name="uni0406" unicode="&#x406;" horiz-adv-x="536" 
d="M147 0l252 1434h240l-252 -1434h-240z" />
    <glyph glyph-name="uni0407" unicode="&#x407;" horiz-adv-x="536" 
d="M629 1726q9 54 46 86.5t87 32.5t74.5 -32.5t15.5 -86.5t-45.5 -86t-87.5 -32q-50 0 -74.5 32t-15.5 86zM291 1726q9 54 46 86.5t87 32.5t75 -32.5t15 -86.5q-9 -54 -45.5 -86t-87.5 -32q-50 0 -74.5 32t-15.5 86zM147 0l252 1434h240l-252 -1434h-240z" />
    <glyph glyph-name="uni0408" unicode="&#x408;" horiz-adv-x="1089" 
d="M18 59l101 224q177 -80 330 -80t249 103t131 304l146 824h239l-147 -832q-53 -299 -226.5 -466t-432.5 -167q-193 0 -390 90z" />
    <glyph glyph-name="uni0409" unicode="&#x409;" horiz-adv-x="2226" 
d="M246 231q42 0 79.5 21.5t71 67t63 102.5t57.5 143.5t51.5 172.5t50 207.5t48 230.5t48.5 258h874l-104 -590h459q196 0 287.5 -118t56.5 -323q-34 -187 -168 -295t-334 -108h-688l221 1255h-422q-57 -300 -127 -555q-94 -355 -242.5 -528.5t-345.5 -171.5zM1446 616
l-70 -389h420q97 0 161 50.5t79 144.5q17 93 -28.5 143.5t-143.5 50.5h-418z" />
    <glyph glyph-name="uni040A" unicode="&#x40a;" horiz-adv-x="2213" 
d="M2273 408q-32 -188 -167 -298t-334 -110h-689l111 633h-696l-111 -633h-240l252 1434h240l-100 -576h696l100 576h240l-100 -576h456q197 0 288 -122t54 -328zM1434 633l-70 -406h416q97 0 161.5 52t81.5 147q17 94 -29.5 150.5t-142.5 56.5h-417z" />
    <glyph glyph-name="uni040B" unicode="&#x40b;" horiz-adv-x="1595" 
d="M1196 770q-124 0 -228.5 -96.5t-133.5 -237.5l-78 -436h-240l211 1206h-496l41 228h1231l-41 -228h-495l-84 -485q80 113 194 179.5t236 66.5q161 0 232.5 -110.5t37.5 -307.5l-96 -545h-221l86 498q23 132 -16.5 200t-139.5 68z" />
    <glyph glyph-name="uni040C" unicode="&#x40c;" horiz-adv-x="1335" 
d="M938 1589h-115l160 357h143zM399 1434h240l-119 -678l699 678h307l-670 -643l463 -791h-301l-342 610l-217 -204l-72 -406h-240z" />
    <glyph glyph-name="uni040E" unicode="&#x40e;" horiz-adv-x="1323" 
d="M918 1532q-140 0 -196 111t5 272h127q-27 -86 0 -137.5t98 -51.5q70 0 115.5 52t48.5 137h127q4 -161 -90 -272t-235 -111zM362 -23q-49 -3 -120.5 3.5t-102.5 19.5l47 231q48 -45 113 -51q67 -5 148 27t118 88l97 143l-320 996h270l211 -762l482 762h268l-813 -1207
q-84 -117 -196.5 -180t-201.5 -70z" />
    <glyph glyph-name="uni040F" unicode="&#x40f;" horiz-adv-x="1445" 
d="M565 -293l51 293h-469l252 1434h240l-211 -1194l674 -2l211 1196h239l-252 -1434h-466l-50 -293h-219z" />
    <glyph glyph-name="uni0410" unicode="&#x410;" horiz-adv-x="1388" 
d="M795 1434h305l274 -1434h-266l-53 315h-611l-163 -315h-269zM551 541h477l-117 696z" />
    <glyph glyph-name="uni0411" unicode="&#x411;" horiz-adv-x="1329" 
d="M1495 1434l-39 -228h-872l-64 -362h459q196 0 287.5 -118t56.5 -323q-34 -187 -169 -295t-333 -108h-674l252 1434h1096zM899 616h-420l-67 -389h417q98 0 162.5 50.5t81.5 144.5q17 92 -30 143t-144 51z" />
    <glyph glyph-name="uni0412" unicode="&#x412;" horiz-adv-x="1327" 
d="M399 1434h629q198 0 296 -102t67 -275q-19 -105 -77 -182.5t-149 -118.5q97 -43 138 -134t18 -219q-32 -187 -166.5 -295t-333.5 -108h-674zM956 1206h-372l-64 -362h375q98 0 160.5 47t79.5 135q15 88 -32 134t-147 46zM899 616h-420l-67 -389h417q98 0 162.5 50.5
t81.5 144.5q17 92 -30 143t-144 51z" />
    <glyph glyph-name="uni0413" unicode="&#x413;" horiz-adv-x="1263" 
d="M1495 1434l-39 -228h-872l-213 -1206h-224l252 1434h1096z" />
    <glyph glyph-name="uni0414" unicode="&#x414;" horiz-adv-x="1445" 
d="M240 10q410 658 596 1424h802l-249 -1424h139l-74 -420h-201l43 248h-1040l-43 -248h-201l74 420h154zM1018 1255q-228 -756 -539 -1245h670l219 1245h-350z" />
    <glyph glyph-name="uni0415" unicode="&#x415;" horiz-adv-x="1161" 
d="M399 1434h910l-39 -228h-670l-61 -348h626l-41 -225h-626l-72 -406h670l-39 -227h-910z" />
    <glyph glyph-name="uni0416" unicode="&#x416;" horiz-adv-x="2129" 
d="M2120 0h-320l-516 545l-96 -545h-240l96 547l-712 -547h-316l912 700l-613 734h308l479 -562l100 562h238l-99 -562l678 562h305l-870 -732z" />
    <glyph glyph-name="uni0417" unicode="&#x417;" horiz-adv-x="1216" 
d="M86 100l100 219q194 -116 414 -116q298 0 336 213q17 95 -36.5 147.5t-168.5 52.5h-211l39 226h184q115 0 183.5 50.5t83.5 141.5q17 95 -38.5 146t-183.5 51q-94 0 -215 -33t-211 -86l-22 219q99 58 247 95.5t271 37.5q226 0 335 -100t77 -277q-22 -127 -100 -215.5
t-197 -123.5q122 -28 178 -127t31 -244q-35 -195 -189.5 -301.5t-404.5 -106.5q-127 0 -262 35t-240 96z" />
    <glyph glyph-name="uni0418" unicode="&#x418;" horiz-adv-x="1447" 
d="M1300 0h-239l180 1024l-854 -1024h-240l252 1434h240l-180 -1024l854 1024h239z" />
    <glyph glyph-name="uni0419" unicode="&#x419;" horiz-adv-x="1447" 
d="M993 1532q-140 0 -195.5 111t5.5 272h127q-27 -86 0 -137.5t98 -51.5q70 0 115.5 52t48.5 137h127q4 -161 -90.5 -272t-235.5 -111zM1300 0h-239l180 1024l-854 -1024h-240l252 1434h240l-180 -1024l854 1024h239z" />
    <glyph glyph-name="uni041A" unicode="&#x41a;" horiz-adv-x="1335" 
d="M399 1434h240l-119 -678l699 678h307l-670 -643l463 -791h-301l-342 610l-217 -204l-72 -406h-240z" />
    <glyph glyph-name="uni041B" unicode="&#x41b;" horiz-adv-x="1445" 
d="M147 0l62 231q42 0 80 21.5t71.5 67t62.5 102.5t57.5 143t52.5 173t50.5 207.5t48 230.5t48.5 258h872l-252 -1434h-239l221 1255h-422q-63 -331 -127 -555q-92 -354 -241 -528t-345 -172z" />
    <glyph glyph-name="uni041C" unicode="&#x41c;" horiz-adv-x="1820" 
d="M147 0l252 1434h324l248 -1084l631 1084h323l-252 -1434h-239l190 1077l-627 -1077h-174l-245 1077l-191 -1077h-240z" />
    <glyph glyph-name="uni041D" unicode="&#x41d;" horiz-adv-x="1470" 
d="M399 1434h240l-100 -576h696l102 576h238l-252 -1434h-240l113 633h-698l-111 -633h-240z" />
    <glyph glyph-name="uni041E" unicode="&#x41e;" horiz-adv-x="1546" 
d="M768 -31q-311 0 -469 206t-100 542q60 335 290.5 541t542.5 206q204 0 347 -92.5t201 -263t19 -391.5q-60 -336 -290 -542t-541 -206zM809 203q206 0 352.5 142.5t186.5 371.5q26 150 -7 266.5t-123.5 182t-226.5 65.5q-206 0 -352 -142.5t-186 -371.5t55 -371.5
t301 -142.5z" />
    <glyph glyph-name="uni041F" unicode="&#x41f;" horiz-adv-x="1458" 
d="M1272 1196h-674l-211 -1196h-240l252 1434h1153l-252 -1434h-239z" />
    <glyph glyph-name="uni0420" unicode="&#x420;" horiz-adv-x="1284" 
d="M1384 909q-44 -251 -215 -388.5t-438 -137.5h-276l-68 -383h-240l252 1434h516q267 0 390 -137.5t79 -387.5zM1133 909q52 297 -273 297h-260l-106 -596h260q326 0 379 299z" />
    <glyph glyph-name="uni0421" unicode="&#x421;" horiz-adv-x="1236" 
d="M768 -31q-155 0 -276.5 54.5t-194 153t-101 236t2.5 304.5q40 220 157.5 390t293 263.5t382.5 93.5q220 0 402 -106l-103 -221q-159 94 -340 94q-203 0 -350.5 -140.5t-187.5 -373.5q-41 -233 56 -373.5t300 -140.5q180 0 373 94l24 -221q-219 -107 -438 -107z" />
    <glyph glyph-name="uni0422" unicode="&#x422;" horiz-adv-x="1271" 
d="M233 1206l39 228h1231l-39 -228h-495l-213 -1206h-240l213 1206h-496z" />
    <glyph glyph-name="uni0423" unicode="&#x423;" horiz-adv-x="1323" 
d="M362 -23q-49 -3 -120.5 3.5t-102.5 19.5l47 231q48 -45 113 -51q67 -5 148 27t118 88l97 143l-320 996h270l211 -762l482 762h268l-813 -1207q-84 -117 -196.5 -180t-201.5 -70z" />
    <glyph glyph-name="uni0424" unicode="&#x424;" horiz-adv-x="1861" 
d="M780 -170l27 145q-216 21 -366.5 118t-215 258.5t-28.5 365.5q55 308 293 508.5t579 232.5l25 146h239l-24 -146q328 -33 495.5 -233t112.5 -508q-55 -307 -292.5 -508.5t-577.5 -233.5l-25 -145h-242zM1266 1223l-179 -1012q225 30 375.5 167.5t186.5 338.5t-66 338.5
t-317 167.5zM848 211l178 1012q-224 -30 -373.5 -167.5t-185.5 -338.5q-37 -201 65 -338t316 -168z" />
    <glyph glyph-name="uni0425" unicode="&#x425;" horiz-adv-x="1267" 
d="M16 0l582 727l-297 707h289l203 -541l393 541h287l-543 -707l323 -727h-297l-221 565l-422 -565h-297z" />
    <glyph glyph-name="uni0426" unicode="&#x426;" horiz-adv-x="1368" 
d="M1442 1434l-209 -1196h215l-86 -486h-242l43 248h-1016l252 1434h240l-211 -1194l563 -2l211 1196h240z" />
    <glyph glyph-name="uni0427" unicode="&#x427;" horiz-adv-x="1247" 
d="M1073 1436h221l-252 -1436h-223q12 75 67 383.5t56 314.5q-63 -102 -185 -166.5t-261 -64.5q-180 0 -275.5 112t-64.5 289l100 568h221l-88 -506q-11 -63 6.5 -115.5t54.5 -85t84.5 -50t98.5 -17.5q128 0 232.5 98.5t129.5 240.5q5 33 39.5 221t38.5 214z" />
    <glyph glyph-name="uni0428" unicode="&#x428;" horiz-adv-x="2140" 
d="M428 240l563 -2l211 1196h240l-209 -1194l563 -2l211 1196h240l-254 -1434h-1846l252 1434h242z" />
    <glyph glyph-name="uni0429" unicode="&#x429;" horiz-adv-x="2172" 
d="M2247 1434l-211 -1196h215l-84 -486h-244l43 248h-1819l252 1434h242l-213 -1194l563 -2l211 1196h240l-209 -1194l563 -2l211 1196h240z" />
    <glyph glyph-name="uni042A" unicode="&#x42a;" horiz-adv-x="1570" 
d="M1630 524q-44 -249 -216 -386.5t-439 -137.5h-516l223 1255h-451l31 179h690l-67 -383h274q267 0 390.5 -138t80.5 -389zM844 823l-105 -596h260q324 0 379 297q25 151 -43 225t-231 74h-260z" />
    <glyph glyph-name="uni042B" unicode="&#x42b;" horiz-adv-x="1878" 
d="M1491 0l252 1434h239l-251 -1434h-240zM1317 524q-44 -249 -215 -386.5t-438 -137.5h-517l252 1434h240l-68 -383h277q267 0 390 -138.5t79 -388.5zM1065 524q26 151 -42 225t-232 74h-259l-104 -596h258q327 0 379 297z" />
    <glyph glyph-name="uni042C" unicode="&#x42c;" horiz-adv-x="1273" 
d="M1317 524q-44 -249 -215 -386.5t-438 -137.5h-517l252 1434h240l-68 -383h277q267 0 390 -138.5t79 -388.5zM1065 524q26 151 -42 225t-232 74h-259l-104 -596h258q327 0 379 297z" />
    <glyph glyph-name="uni042D" unicode="&#x42d;" horiz-adv-x="1296" 
d="M207 76q16 38 102 221q159 -94 340 -94q186 0 326.5 120.5t191.5 323.5h-704l29 162h702q14 194 -84 308t-279 114t-374 -94q-2 14 -12 104l-13 117q217 106 438 106q207 0 350 -93.5t201 -263.5t19 -390q-40 -220 -157.5 -390t-293.5 -264t-383 -94q-218 0 -399 107z
" />
    <glyph glyph-name="uni042E" unicode="&#x42e;" horiz-adv-x="2105" 
d="M147 0l252 1434h240l-107 -603h254q85 286 303 456.5t500 170.5q153 0 274 -53.5t194.5 -151t102 -235.5t-2.5 -307q-60 -335 -291 -541.5t-541 -206.5q-285 0 -443.5 176.5t-136.5 470.5h-251l-107 -610h-240zM1366 197q204 0 351.5 143.5t187.5 370.5q39 230 -57 373
t-302 143q-204 0 -351 -143.5t-187 -372.5q-40 -228 56 -371t302 -143z" />
    <glyph glyph-name="uni042F" unicode="&#x42f;" horiz-adv-x="1304" 
d="M874 504l-239 -504h-488l41 225h281l156 303q-192 49 -266 156t-42 287q39 229 200 346t427 117h533l-254 -1434h-240l88 504h-197zM1196 1206h-276q-159 0 -244.5 -56t-108.5 -179q-23 -128 47 -185t232 -57h266z" />
    <glyph glyph-name="uni0430" unicode="&#x430;" horiz-adv-x="1157" 
d="M983 203q14 -17 41 -17q32 0 75 17.5t64 32.5q-26 -136 -35 -203q-41 -37 -111 -52t-122 -10q-41 1 -71 17t-44.5 38t-22 46.5t-9 40t-0.5 20.5l32 184q-87 -156 -209.5 -252t-244.5 -96q-47 0 -88 15t-73.5 45t-46.5 81.5t-3 116.5q13 71 48.5 130t90.5 103t110 75
t125 61q120 47 338 109q-26 147 -204 147q-91 0 -192 -34.5t-155 -80.5l-12 205q60 45 173 78t227 33q26 0 96 -9q77 -13 136 -46.5t102 -94t54 -147.5t-8 -207zM823 559l2 10v4q-11 -3 -59 -16.5t-71 -20.5t-64 -21t-76 -28q-79 -30 -142 -84.5t-75 -123.5
q-10 -61 24.5 -97.5t88.5 -36.5q116 0 227.5 120t144.5 294z" />
    <glyph glyph-name="uni0431" unicode="&#x431;" horiz-adv-x="1320" 
d="M637 -31q-253 0 -371.5 180.5t-64.5 477.5q129 721 774 880l368 90l7 -208l-414 -99q-360 -86 -471 -452q182 217 432 217q215 0 316 -145t57 -400q-43 -240 -220 -390.5t-413 -150.5zM686 178q135 0 233 93.5t123 240.5t-39.5 240.5t-197.5 93.5q-134 0 -232.5 -94
t-123.5 -240t40 -240t197 -94z" />
    <glyph glyph-name="uni0432" unicode="&#x432;" horiz-adv-x="1095" 
d="M328 1024h512q162 0 244.5 -73t60.5 -197q-13 -74 -59.5 -128.5t-118.5 -84.5q77 -31 112.5 -97t20.5 -157q-23 -132 -132.5 -209.5t-271.5 -77.5h-549zM784 860h-297l-43 -242h299q78 0 127 30.5t58 88.5q10 59 -28 91t-116 32zM745 424h-333l-47 -260h335
q78 0 127.5 32.5t59.5 96.5q12 64 -26.5 97.5t-115.5 33.5z" />
    <glyph glyph-name="uni0433" unicode="&#x433;" horiz-adv-x="1026" 
d="M1024 1026l-39 -227h-493l-142 -799h-225l182 1026h717z" />
    <glyph glyph-name="uni0434" unicode="&#x434;" horiz-adv-x="1370" 
d="M272 10q51 65 93 142.5t72 149t67 200t62 225.5t73 295h788l-178 -1012h140l-62 -352h-201l31 180h-868l-31 -180h-201l62 352h153zM821 844q-85 -332 -150 -520.5t-159 -313.5h498l145 834h-334z" />
    <glyph glyph-name="uni0435" unicode="&#x435;" horiz-adv-x="1069" 
d="M156 512q43 241 201.5 392t369.5 151q142 0 236 -72t127 -194t4 -273q-3 -22 -21 -88h-690q-3 -125 74.5 -193.5t201.5 -68.5q75 0 169.5 29.5t175.5 78.5l14 -178q-85 -59 -197 -93t-219 -34q-248 0 -368.5 146.5t-77.5 396.5zM399 571h471q18 127 -25.5 207t-150.5 80
q-103 0 -183 -76.5t-112 -210.5z" />
    <glyph glyph-name="uni0436" unicode="&#x436;" horiz-adv-x="1757" 
d="M850 391l-526 -391h-301l696 500l-477 524h290l359 -401l70 401h217l-72 -401l500 401h286l-641 -522l496 -502h-293l-389 389l-68 -389h-217z" />
    <glyph glyph-name="uni0437" unicode="&#x437;" horiz-adv-x="1009" 
d="M109 63l79 177q129 -76 308 -76q226 0 249 141q10 62 -32.5 95.5t-126.5 33.5h-180l28 170h162q84 0 137.5 35.5t65.5 97.5q10 64 -35 97.5t-141 33.5q-69 0 -159.5 -22.5t-154.5 -57.5l-16 170q74 43 190.5 71t225.5 28q180 0 264.5 -69.5t60.5 -205.5
q-15 -88 -92.5 -158.5t-175.5 -91.5q109 -24 166 -95.5t37 -170.5q-23 -137 -160 -217t-322 -80q-96 0 -198.5 25.5t-179.5 68.5z" />
    <glyph glyph-name="uni0438" unicode="&#x438;" horiz-adv-x="1292" 
d="M1112 0h-240l132 739l-631 -739h-240l180 1024h240l-129 -727q63 74 304.5 351.5t324.5 375.5h239z" />
    <glyph glyph-name="uni0439" unicode="&#x439;" horiz-adv-x="1257" 
d="M829 1122q-141 0 -197 111t7 272h125q-26 -86 1.5 -137t98.5 -51q68 0 113.5 51.5t48.5 136.5h127q4 -161 -90 -272t-234 -111zM1112 0h-240l132 739l-631 -739h-240l180 1024h240l-129 -727q63 74 304.5 351.5t324.5 375.5h239z" />
    <glyph glyph-name="uni043A" unicode="&#x43a;" horiz-adv-x="1077" 
d="M369 0h-222l181 1024h221l-84 -479l516 479h287l-561 -512h71l324 -512h-264l-244 408l-182 -166z" />
    <glyph glyph-name="uni043B" unicode="&#x43b;" horiz-adv-x="1380" 
d="M131 0l64 231q36 0 67 10.5t56 38.5t44 53.5t37.5 79t29.5 89t26 110t23 116t23 130.5q19 108 29 164h850l-182 -1022h-237l147 844h-397q-78 -414 -146 -539q-38 -150 -149 -227.5t-285 -77.5z" />
    <glyph glyph-name="uni043C" unicode="&#x43c;" horiz-adv-x="1667" 
d="M152 0l180 1024h327l201 -772l479 772h330l-180 -1024h-242l137 770l-481 -770h-176l-199 770l-137 -770h-239z" />
    <glyph glyph-name="uni043D" unicode="&#x43d;" horiz-adv-x="1216" 
d="M328 1024h239l-71 -412h514l71 412h240l-180 -1024h-240l78 449h-514l-78 -449h-240z" />
    <glyph glyph-name="uni043E" unicode="&#x43e;" horiz-adv-x="1144" 
d="M567 -31q-238 0 -358.5 149.5t-77.5 393.5t216 393.5t411 149.5t358.5 -149.5t77.5 -393.5t-216 -393.5t-411 -149.5zM602 166q136 0 236.5 96.5t128.5 249.5q26 152 -40.5 249t-201.5 97q-137 0 -238 -97t-127 -249q-27 -152 39 -249t203 -97z" />
    <glyph glyph-name="uni043F" unicode="&#x43f;" horiz-adv-x="1263" 
d="M983 784h-473l-137 -784h-242l180 1022h953l-181 -1022h-239z" />
    <glyph glyph-name="uni0440" unicode="&#x440;" horiz-adv-x="1282" 
d="M72 -481l266 1505h223l-39 -213q80 114 193 179t235 65q193 0 296 -151.5t61 -391.5q-28 -159 -110 -283.5t-197 -192t-242 -67.5q-121 0 -211.5 65.5t-128.5 178.5l-123 -694h-223zM838 858q-134 0 -238 -98.5t-129 -247.5q-26 -148 43 -247t203 -99q133 0 233.5 97
t126.5 249t-39.5 249t-199.5 97z" />
    <glyph glyph-name="uni0441" unicode="&#x441;" horiz-adv-x="999" 
d="M772 1055q193 0 326 -121l-80 -180q-123 104 -260 104q-140 0 -242.5 -95.5t-130.5 -250.5q-26 -156 42.5 -251t207.5 -95t297 104l16 -180q-173 -121 -366 -121q-230 0 -348.5 151.5t-77.5 391.5q43 241 214.5 392t401.5 151z" />
    <glyph glyph-name="uni0442" unicode="&#x442;" horiz-adv-x="929" 
d="M231 795l41 225h891l-39 -225h-325l-142 -795h-239l141 795h-328z" />
    <glyph glyph-name="uni0443" unicode="&#x443;" horiz-adv-x="1052" 
d="M369 0l-209 1024h241l146 -836l438 836h242l-856 -1536h-246l309 512h-65z" />
    <glyph glyph-name="uni0444" unicode="&#x444;" horiz-adv-x="1595" 
d="M584 -481l80 454q-127 11 -232 47.5t-186 100t-117 164t-14 227.5q18 102 68.5 188t121.5 146t162.5 104t187 68t199.5 33l74 411h221l-72 -413q99 -9 185 -33.5t160 -68.5t123 -104t69 -145t2 -186t-67.5 -186t-119.5 -145t-159.5 -104t-184.5 -68.5t-198 -33.5
l-80 -456h-223zM698 170l121 684q-178 -23 -305 -112t-152 -230q-25 -140 71 -229.5t265 -112.5zM1042 852l-120 -680q114 15 207.5 57t158.5 115.5t82 167.5q16 93 -24 166t-118.5 115.5t-185.5 58.5z" />
    <glyph glyph-name="uni0445" unicode="&#x445;" horiz-adv-x="1005" 
d="M23 0l409 526l-203 498h240l147 -387l285 387h238l-379 -498l225 -526h-256l-151 412l-302 -412h-253z" />
    <glyph glyph-name="uni0446" unicode="&#x446;" horiz-adv-x="1234" 
d="M1034 238h215l-84 -486h-241l43 248h-836l180 1024h242l-139 -784l381 -2l139 786h240z" />
    <glyph glyph-name="uni0447" unicode="&#x447;" horiz-adv-x="1232" 
d="M1010 1024h221l-180 -1024h-222l86 487q-78 -111 -187.5 -171t-233.5 -60q-81 0 -146 26.5t-109.5 76.5t-61.5 127t-1 173l66 365h221l-55 -319q-23 -124 40 -189t170 -65q130 0 227 92t122 239z" />
    <glyph glyph-name="uni0448" unicode="&#x448;" horiz-adv-x="1949" 
d="M408 240l475 -2l137 784h240l-138 -782l449 -2l139 784h240l-183 -1022h-1642l182 1022h238z" />
    <glyph glyph-name="uni0449" unicode="&#x449;" horiz-adv-x="1783" 
d="M1810 1022l-137 -784h215l-84 -486h-243l45 248h-1481l180 1022h240l-137 -782l380 -2l140 784h239l-137 -782l404 -2l137 784h239z" />
    <glyph glyph-name="uni044A" unicode="&#x44a;" horiz-adv-x="1290" 
d="M1352 367q-63 -367 -584 -367h-393l149 848h-293l33 178h498l-53 -293h180q90 0 163 -10t137.5 -36t104.5 -66.5t56.5 -105t1.5 -148.5zM674 535l-60 -334h172q167 0 242 34t92 130q9 49 -4 83t-34.5 50.5t-68.5 25.5t-78 10t-92 1h-5h-164z" />
    <glyph glyph-name="uni044B" unicode="&#x44b;" horiz-adv-x="1589" 
d="M1124 367q-63 -367 -583 -367h-394l181 1024l207 2l-54 -293h181q90 0 163 -10t137 -35.5t104 -66.5t56.5 -105.5t1.5 -148.5zM1274 0l180 1024h240l-181 -1024h-239zM446 535l-59 -334h172q167 0 242 34t92 130q9 49 -4.5 83t-34.5 50.5t-68 25.5t-78.5 10t-92.5 1h-5
h-164z" />
    <glyph glyph-name="uni044C" unicode="&#x44c;" horiz-adv-x="1040" 
d="M1104 367q-66 -367 -584 -367h-395l180 1024l207 2l-53 -293h182q90 0 163 -10t137.5 -36t104.5 -66.5t56.5 -105t1.5 -148.5zM426 535l-59 -334h170q168 0 242.5 34t92.5 130q9 49 -4.5 83t-34.5 50.5t-68.5 25.5t-79 10t-92.5 1h-5h-162z" />
    <glyph glyph-name="uni044D" unicode="&#x44d;" horiz-adv-x="1097" 
d="M479 164q151 0 261.5 77.5t150.5 211.5h-582l21 120h579q2 128 -80.5 201.5t-228.5 73.5q-158 0 -309 -62l-21 181q173 75 357 75q258 0 395.5 -148t95.5 -388q-43 -238 -233.5 -388.5t-446.5 -150.5q-174 0 -329 76l86 184q115 -63 284 -63z" />
    <glyph glyph-name="uni044E" unicode="&#x44e;" horiz-adv-x="1939" 
d="M127 0l31 178h141l119 668h-127l31 178h262q88 3 63 -133l-45 -254h307q68 191 227.5 304.5t362.5 113.5q239 0 359 -149t77 -394q-43 -244 -216 -393.5t-412 -149.5q-219 0 -338.5 133t-102.5 351h-297l-47 -275h140l-31 -178h-504zM1343 166q137 0 236.5 97t126.5 249
t-39 249t-203 97q-136 0 -237 -97t-127 -249q-27 -152 39.5 -249t203.5 -97z" />
    <glyph glyph-name="uni044F" unicode="&#x44f;" horiz-adv-x="1257" 
d="M784 358l-200 -358h-418l33 180h254l122 197q-177 38 -254.5 114t-54.5 203q57 330 553 330h438q-9 -52 -45 -255.5t-82 -459.5t-55 -309h-217l64 358h-138zM506 694q-15 -86 49.5 -129t200.5 -43h194q4 26 31.5 174.5t30.5 165.5h-205q-271 0 -301 -168z" />
    <glyph glyph-name="uni0451" unicode="&#x451;" horiz-adv-x="1069" 
d="M825 1317q9 54 45 86.5t86 32.5q51 0 76.5 -32.5t16.5 -86.5q-9 -53 -46.5 -86t-87.5 -33t-75 32.5t-15 86.5zM485 1317q9 54 46 86.5t87 32.5t76 -32.5t17 -86.5t-46 -86.5t-87 -32.5t-76 32.5t-17 86.5zM156 512q43 241 201.5 392t369.5 151q142 0 236 -72t127 -194
t4 -273q-3 -22 -21 -88h-690q-3 -125 74.5 -193.5t201.5 -68.5q75 0 169.5 29.5t175.5 78.5l14 -178q-85 -59 -197 -93t-219 -34q-248 0 -368.5 146.5t-77.5 396.5zM399 571h471q18 127 -25.5 207t-150.5 80q-103 0 -183 -76.5t-112 -210.5z" />
    <glyph glyph-name="uni0452" unicode="&#x452;" horiz-adv-x="1193" 
d="M1104 -78q-37 -216 -155 -325t-287 -109q-112 0 -207 45l77 182q66 -32 134 -32q177 0 221 270l112 637q45 268 -157 268q-126 0 -232.5 -99t-132.5 -247l-90 -512h-223l209 1178h-158l27 151h155l33 176h223l-32 -176h303l-25 -151h-305l-64 -371q82 116 196 182t232 66
q158 0 231.5 -108.5t41.5 -303.5z" />
    <glyph glyph-name="uni0453" unicode="&#x453;" horiz-adv-x="962" 
d="M688 1180h-117l162 356h144zM1024 1026l-39 -227h-493l-142 -799h-225l182 1026h717z" />
    <glyph glyph-name="uni0454" unicode="&#x454;" horiz-adv-x="1021" 
d="M633 164q172 0 309 63l21 -184q-179 -76 -355 -76q-257 0 -395.5 150.5t-97.5 388.5q42 239 233.5 387.5t448.5 148.5q182 0 329 -75l-84 -181q-131 62 -288 62q-147 0 -255 -73.5t-151 -201.5h580l-21 -120h-583q-6 -134 76.5 -211.5t232.5 -77.5z" />
    <glyph glyph-name="uni0455" unicode="&#x455;" horiz-adv-x="976" 
d="M72 96l82 187q72 -49 176 -83t196 -34q83 0 136 28t61 72q6 33 -21.5 62t-75 52.5t-105.5 48t-115 57t-102 72t-67 99t-10 131.5q23 127 130.5 197t275.5 70q215 0 409 -119l-94 -186q-90 51 -165.5 79.5t-161.5 28.5q-153 0 -168 -94q-7 -36 13 -67.5t57 -53.5
t85.5 -45.5t99.5 -44.5t98.5 -50.5t83 -62.5t52 -81.5t6.5 -106.5q-21 -125 -142.5 -204t-309.5 -79q-123 0 -234 35t-190 92z" />
    <glyph glyph-name="uni0456" unicode="&#x456;" horiz-adv-x="749" 
d="M461 1384q12 68 58 112t108 44q63 0 93 -43.5t19 -112.5q-12 -69 -57.5 -112t-108.5 -43q-64 0 -93.5 42.5t-18.5 112.5zM117 0l39 227h141l102 578h-127l39 219h262q85 3 64 -133l-119 -664h141l-38 -227h-504z" />
    <glyph glyph-name="uni0457" unicode="&#x457;" horiz-adv-x="724" 
d="M637 1317q9 54 46 86.5t87 32.5t75 -32.5t15 -86.5q-9 -54 -45.5 -86.5t-87.5 -32.5q-50 0 -74.5 32.5t-15.5 86.5zM299 1317q9 54 46 86.5t87 32.5t75.5 -32.5t16.5 -86.5q-10 -54 -46.5 -86.5t-86.5 -32.5q-51 0 -76 32.5t-16 86.5zM324 1024h260q88 3 63 -133
l-119 -670h136l-33 -221h-504l31 221h149l111 625h-127z" />
    <glyph glyph-name="uni0458" unicode="&#x458;" horiz-adv-x="557" 
d="M385 1384q12 69 57.5 112.5t108.5 43.5q62 0 92.5 -44t18.5 -112q-12 -70 -57 -112.5t-109 -42.5t-93.5 42.5t-17.5 112.5zM-272 -467l77 182q64 -30 134 -30q175 0 219 249l190 1090h223l-194 -1102q-38 -218 -157 -326t-286 -108q-111 0 -206 45z" />
    <glyph glyph-name="uni0459" unicode="&#x459;" horiz-adv-x="1998" 
d="M2060 367q-66 -367 -583 -367h-430l149 846h-422q-6 -28 -27.5 -128.5t-32.5 -147.5t-33 -123t-46 -134q-59 -150 -182 -232t-306 -81l58 219q34 0 62.5 6t54 21.5t46 33t40 51.5t34.5 65.5t31.5 86.5t29 102.5t29.5 125.5t30 144t32 169h872l-51 -291h199q63 0 117 -5
t105 -17t89 -31t70.5 -47.5t48.5 -66.5t22.5 -87.5t-6.5 -111.5zM1380 535l-59 -334h172q168 0 243 34t93 130q8 49 -5.5 83t-35 50.5t-68.5 25.5t-78.5 10t-92.5 1h-5h-164z" />
    <glyph glyph-name="uni045A" unicode="&#x45a;" horiz-adv-x="1767" 
d="M1831 313q-28 -160 -148 -236.5t-342 -76.5h-440l78 449h-514l-78 -449h-240l181 1024h239l-71 -412h514l71 412l240 2l-72 -410h211q206 0 301.5 -79t69.5 -224zM1221 449l-50 -279h197q138 0 196 31t72 110q11 66 -40 102t-166 36h-209z" />
    <glyph glyph-name="uni045B" unicode="&#x45b;" horiz-adv-x="1247" 
d="M866 1327l-24 -143h-242l-65 -377q78 112 192.5 180t235.5 68q161 0 233 -111t37 -307l-111 -637h-223l105 590q23 132 -16.5 200t-139.5 68q-129 0 -235 -100t-132 -246l-90 -512h-221l209 1184h-164l25 143h163l33 178h221l-30 -178h239z" />
    <glyph glyph-name="uni045C" unicode="&#x45c;" horiz-adv-x="1122" 
d="M778 1180h-114l159 356h144zM369 0h-222l181 1024h221l-84 -479l516 479h287l-561 -512h71l324 -512h-264l-244 408l-182 -166z" />
    <glyph glyph-name="uni045E" unicode="&#x45e;" horiz-adv-x="1052" 
d="M739 1122q-141 0 -197 111t5 272h127q-26 -86 1 -137t97 -51t115.5 51.5t48.5 136.5h127q4 -161 -90 -272t-234 -111zM369 0l-209 1024h241l146 -836l438 836h242l-856 -1536h-246l309 512h-65z" />
    <glyph glyph-name="uni045F" unicode="&#x45f;" horiz-adv-x="1335" 
d="M481 -293l51 293h-401l180 1024h242l-139 -784l544 -2l138 786h239l-180 -1024h-405l-52 -293h-217z" />
    <glyph glyph-name="uni0490" unicode="&#x490;" horiz-adv-x="1308" 
d="M147 0l252 1434h885l47 260h211l-86 -488h-872l-213 -1206h-224z" />
    <glyph glyph-name="uni0491" unicode="&#x491;" horiz-adv-x="911" 
d="M125 0l182 1026h574l26 148h162l-33 -189h-18l-33 -186h-493l-142 -799h-225z" />
    <glyph glyph-name="Wgrave" unicode="&#x1e80;" horiz-adv-x="2164" 
d="M1395 1585h-115l-61 361h143zM270 1434h275l123 -1227l557 1227h221l125 -1227l555 1227h274l-696 -1434h-322l-120 1018l-480 -1018h-321z" />
    <glyph glyph-name="wgrave" unicode="&#x1e81;" horiz-adv-x="1824" 
d="M1149 1176h-115l-61 360h143zM659 0h-274l-188 1024h239l125 -836l422 836h219l127 -836l420 836h240l-549 -1024h-277l-119 748z" />
    <glyph glyph-name="Wacute" unicode="&#x1e82;" horiz-adv-x="2164" 
d="M1421 1589h-114l161 357h142zM270 1434h275l123 -1227l557 1227h221l125 -1227l555 1227h274l-696 -1434h-322l-120 1018l-480 -1018h-321z" />
    <glyph glyph-name="wacute" unicode="&#x1e83;" horiz-adv-x="1824" 
d="M1180 1180h-115l160 356h143zM659 0h-274l-188 1024h239l125 -836l422 836h219l127 -836l420 836h240l-549 -1024h-277l-119 748z" />
    <glyph glyph-name="Wdieresis" unicode="&#x1e84;" horiz-adv-x="2164" 
d="M1464 1726q9 54 45 86.5t86 32.5q51 0 76.5 -32.5t16.5 -86.5q-9 -53 -46.5 -85.5t-87.5 -32.5t-75 32.5t-15 85.5zM1124 1726q9 54 46 86.5t87 32.5t76 -32.5t17 -86.5q-9 -53 -46 -85.5t-87 -32.5t-76 32.5t-17 85.5zM270 1434h275l123 -1227l557 1227h221l125 -1227
l555 1227h274l-696 -1434h-322l-120 1018l-480 -1018h-321z" />
    <glyph glyph-name="wdieresis" unicode="&#x1e85;" horiz-adv-x="1824" 
d="M1221 1317q9 54 46 86.5t87 32.5t75 -32.5t15 -86.5q-9 -54 -45.5 -86.5t-87.5 -32.5q-50 0 -74.5 32.5t-15.5 86.5zM883 1317q9 54 46 86.5t87 32.5t75.5 -32.5t16.5 -86.5t-46 -86.5t-87 -32.5t-75.5 32.5t-16.5 86.5zM659 0h-274l-188 1024h239l125 -836l422 836h219
l127 -836l420 836h240l-549 -1024h-277l-119 748z" />
    <glyph glyph-name="endash" unicode="&#x2013;" horiz-adv-x="1009" 
d="M1106 711l-41 -228h-952l41 228h952z" />
    <glyph glyph-name="emdash" unicode="&#x2014;" horiz-adv-x="1337" 
d="M1434 711l-41 -228h-1280l41 228h1280z" />
    <glyph glyph-name="quoteleft" unicode="&#x2018;" horiz-adv-x="442" 
d="M293 1139q22 120 99.5 209t174.5 104l11 -100q-86 -27 -117 -125q52 -6 77 -42.5t15 -94.5q-10 -63 -55 -101.5t-105 -38.5q-61 0 -88 50.5t-12 138.5z" />
    <glyph glyph-name="quoteright" unicode="&#x2019;" horiz-adv-x="442" 
d="M461 1452q62 0 88.5 -50t11.5 -138q-22 -119 -100 -209t-174 -105l-11 101q87 27 117 127q-51 5 -76.5 42t-15.5 95q10 62 54.5 99.5t105.5 37.5z" />
    <glyph glyph-name="quotesinglbase" unicode="&#x201a;" horiz-adv-x="442" 
d="M84 111q10 62 54.5 100.5t103.5 38.5q63 0 89 -50.5t11 -138.5q-20 -119 -97.5 -208.5t-174.5 -106.5l-11 102q88 29 117 125q-53 6 -77.5 43t-14.5 95z" />
    <glyph glyph-name="quotedblleft" unicode="&#x201c;" horiz-adv-x="790" 
d="M745 958q-63 0 -89 51.5t-11 139.5q20 118 98 207t175 106l12 -102q-87 -28 -117 -125q52 -6 77 -42.5t15 -94.5q-10 -63 -55 -101.5t-105 -38.5zM295 1149q20 118 98 207t176 106l11 -102q-85 -27 -119 -125q53 -6 78 -42.5t16 -94.5q-10 -63 -55 -101.5t-105 -38.5
q-61 0 -88 51.5t-12 139.5z" />
    <glyph glyph-name="quotedblright" unicode="&#x201d;" horiz-adv-x="790" 
d="M651 1315q10 62 54.5 99.5t105.5 37.5q62 0 88.5 -50t11.5 -138q-20 -119 -98 -209t-176 -105l-10 101q86 28 116 127q-51 5 -76 42t-16 95zM301 1315q10 62 54.5 99.5t103.5 37.5q63 0 90 -50t12 -138q-22 -119 -100 -209t-174 -105l-11 101q87 29 117 127
q-52 4 -76.5 41t-15.5 96z" />
    <glyph glyph-name="quotedblbase" unicode="&#x201e;" horiz-adv-x="790" 
d="M526 -27q-52 6 -76.5 42.5t-15.5 95.5q12 63 55.5 101t102.5 38q63 0 90 -50.5t12 -138.5q-22 -120 -99.5 -209t-174.5 -106l-10 102q90 29 116 125zM84 111q10 62 54.5 100.5t103.5 38.5q63 0 89 -50.5t11 -138.5q-20 -119 -97.5 -208.5t-174.5 -106.5l-11 102
q88 29 117 125q-53 6 -77.5 43t-14.5 95z" />
    <glyph glyph-name="dagger" unicode="&#x2020;" horiz-adv-x="1044" 
d="M512 621h-332l37 215h332l104 598h240l-105 -598h330l-37 -215h-331l-152 -863h-240z" />
    <glyph glyph-name="daggerdbl" unicode="&#x2021;" horiz-adv-x="1044" 
d="M221 850l29 170h332l71 414h240l-74 -414h332l-29 -170h-331l-93 -520h332l-29 -158h-331l-72 -414h-240l72 414h-330l29 158h330l92 520h-330z" />
    <glyph glyph-name="bullet" unicode="&#x2022;" horiz-adv-x="636" 
d="M207 598q19 101 89.5 162t166.5 61t145 -61.5t29 -161.5q-17 -101 -86.5 -162t-165.5 -61t-146.5 61.5t-31.5 161.5z" />
    <glyph glyph-name="ellipsis" unicode="&#x2026;" horiz-adv-x="1579" 
d="M1217 109q12 64 56 102.5t103 38.5q60 0 90.5 -38.5t18.5 -102.5q-10 -63 -54 -101.5t-104 -38.5t-90.5 38.5t-19.5 101.5zM782 -31q-60 0 -89.5 38.5t-18.5 101.5q12 64 56 102.5t104 38.5q59 0 88.5 -38.5t17.5 -102.5q-10 -63 -54 -101.5t-104 -38.5zM129 109
q12 64 56 102.5t104 38.5q59 0 89.5 -38.5t18.5 -102.5q-10 -63 -54.5 -101.5t-104.5 -38.5t-90 38.5t-19 101.5z" />
    <glyph glyph-name="perthousand" unicode="&#x2030;" horiz-adv-x="2985" 
d="M276 1055q31 183 154.5 296t292.5 113q167 0 251 -113t52 -296t-155.5 -296.5t-290.5 -113.5q-169 0 -253.5 113.5t-50.5 296.5zM913 0h-235l745 1434h234zM690 1282q-82 0 -145 -63t-80 -164q-19 -101 22 -165.5t121 -64.5q83 0 146 64t82 166q19 101 -22.5 164
t-123.5 63zM1311 379q32 183 155.5 296t290.5 113q168 0 252 -113t53 -296q-34 -183 -158 -296.5t-292 -113.5q-167 0 -250 113.5t-51 296.5zM2212 379q32 183 155 296t289 113q170 0 253.5 -113t51.5 -296t-156 -296.5t-294 -113.5q-166 0 -249.5 113.5t-49.5 296.5z
M2623 606q-80 0 -143 -63.5t-80 -163.5q-19 -100 22.5 -164.5t121.5 -64.5q83 0 146 63.5t83 165.5q17 101 -24 164t-126 63zM1724 606q-82 0 -144 -63t-79 -164q-19 -101 21.5 -165t122.5 -64q83 0 145.5 63.5t81.5 165.5q17 101 -24 164t-124 63z" />
    <glyph glyph-name="guilsinglleft" unicode="&#x2039;" horiz-adv-x="395" 
d="M213 207l-104 389l241 389h180l-200 -389l63 -389h-180z" />
    <glyph glyph-name="guilsinglright" unicode="&#x203a;" horiz-adv-x="395" 
d="M256 207h-182l198 389l-61 389h182l101 -389z" />
    <glyph glyph-name="fraction" unicode="&#x2044;" horiz-adv-x="780" 
d="M-119 -31l1166 1495h262l-1166 -1495h-262z" />
    <glyph glyph-name="franc" unicode="&#x20a3;" horiz-adv-x="1236" 
d="M287 227h-150l10 68h150l201 1139h893l-39 -228h-656l-71 -415h604l-41 -228h-604l-47 -268h436l-10 -68h-439l-39 -227h-239z" />
    <glyph glyph-name="lira" unicode="&#x20a4;" horiz-adv-x="1122" 
d="M102 0l41 227h314v342h-254l12 68h234l-5 168h-200l12 65h190l25 142q44 252 180 388t342 136q146 0 291 -84l-94 -221q-107 72 -221 72q-208 0 -260 -299l-25 -134h299l-12 -65h-299l-29 -168h299l-12 -68h-299l-60 -342h486l-41 -227h-914z" />
    <glyph glyph-name="Euro" unicode="&#x20ac;" horiz-adv-x="1347" 
d="M330 805h-109l12 65h115q92 272 307 433t486 161q222 0 401 -106l-102 -221q-159 94 -340 94q-167 0 -298.5 -98t-193.5 -263h467l-10 -65h-481q-14 -39 -23 -88q-2 -12 -5 -39t-5 -41h483l-12 -68h-469q5 -169 100.5 -267.5t264.5 -98.5q181 0 374 94l25 -221
q-222 -107 -440 -107q-275 0 -431.5 162t-150.5 438h-115l13 68h104q7 44 12 80q3 22 21 88z" />
    <glyph glyph-name="uni2113" unicode="&#x2113;" horiz-adv-x="864" 
d="M524 -31q-180 0 -265.5 106t-47.5 328l29 156h-117l29 166h116q20 128 64 350q22 129 75 231.5t140 166t194 63.5q148 0 217.5 -116t34.5 -320q-40 -226 -176 -362t-354 -167l-27 -155q-23 -130 15 -190t143 -60q70 0 149 31l15 -183q-113 -45 -234 -45zM795 1122
q17 97 -5 157t-77 60q-38 0 -68 -28t-49 -79t-28.5 -87.5t-18.5 -87.5l-49 -281q120 35 195 123.5t100 222.5z" />
    <glyph glyph-name="trademark" unicode="&#x2122;" horiz-adv-x="2207" 
d="M1235 442h-217l137 787h-309l-139 -787h-220l140 787h-351l35 205h1162l169 -738l424 738h285l-174 -992h-217l129 732l-430 -732h-125l-170 732z" />
    <glyph glyph-name="estimated" unicode="&#x212e;" horiz-adv-x="1255" 
d="M688 -31q-259 0 -379 144t-76 399q43 243 204.5 393t379.5 150q215 0 321.5 -149.5t63.5 -391.5q-4 -29 -28 -117h-721q-20 -200 43.5 -279t234.5 -79q58 0 109.5 12.5t81.5 26.5t92 47l20 -62q-175 -94 -346 -94zM461 465h497q55 283 18 409.5t-169 126.5
q-128 0 -212 -118t-128 -367q-3 -27 -6 -51z" />
    <glyph glyph-name="arrowleft" unicode="&#x2190;" horiz-adv-x="1818" 
d="M801 -6l-543 661l776 662l123 -150l-498 -426h926l70 396h221l-170 -967h-221l69 391h-917l342 -416z" />
    <glyph glyph-name="arrowup" unicode="&#x2191;" horiz-adv-x="1605" 
d="M928 221h389l-39 -221h-967l39 221h398l161 918l-489 -414l-125 149l780 660l543 -660l-176 -151l-352 426z" />
    <glyph glyph-name="arrowright" unicode="&#x2192;" horiz-adv-x="1818" 
d="M1251 1327l543 -663l-776 -660l-123 150l498 424h-930l-70 -394h-219l170 967h219l-67 -391h919l-342 416z" />
    <glyph glyph-name="arrowdown" unicode="&#x2193;" horiz-adv-x="1605" 
d="M1452 780l123 -151l-778 -660l-545 660l178 151l348 -424l164 928h-393l37 219h966l-36 -219h-392l-161 -917z" />
    <glyph glyph-name="arrowboth" unicode="&#x2194;" horiz-adv-x="2482" 
d="M1931 1427l543 -659l-776 -664l-123 150l485 416h-1403l340 -416l-178 -150l-543 664l777 659l125 -151l-500 -426h1425l-350 426z" />
    <glyph glyph-name="arrowupdn" unicode="&#x2195;" horiz-adv-x="1605" 
d="M893 -31l487 414l125 -152l-780 -659l-543 659l176 152l353 -426l211 1196l-502 -424l-123 152l776 659l547 -659l-178 -152l-342 414z" />
    <glyph glyph-name="uni2196" unicode="&#x2196;" horiz-adv-x="1738" 
d="M1581 807l129 -154l-805 -684l-127 156l326 278l-537 650l-104 -588h-213l166 934h934l-37 -211l-602 -2l542 -656z" />
    <glyph glyph-name="uni2197" unicode="&#x2197;" horiz-adv-x="1740" 
d="M1817 1393l-164 -932h-211l106 600l-774 -655l230 -281l-183 -156l-563 682l182 156l230 -275l764 650l-588 2l39 213z" />
    <glyph glyph-name="uni2198" unicode="&#x2198;" horiz-adv-x="1738" 
d="M1518 905l213 -2l-166 -934l-934 -2l37 213l600 2l-574 697l-327 -279l-129 156l802 684l129 -158l-325 -276l569 -691z" />
    <glyph glyph-name="uni2199" unicode="&#x2199;" horiz-adv-x="1740" 
d="M1210 1440l562 -684l-181 -154l-227 277l-817 -695l588 -2l-37 -213l-934 2l164 934h213l-105 -600l824 701l-230 280z" />
    <glyph glyph-name="partialdiff" unicode="&#x2202;" horiz-adv-x="1257" 
d="M555 -31q-214 0 -321.5 139t-67.5 363q41 225 196 363.5t353 138.5q124 0 208.5 -69t104.5 -199q25 82 33 161q20 178 -38 271.5t-210 93.5q-198 0 -383 -121l-22 219q246 135 460 135q267 0 379 -180t53 -512q-66 -363 -271.5 -583t-473.5 -220zM608 203q115 0 209 83
t156 228q-8 104 -68 166.5t-162 62.5q-124 0 -214.5 -81t-112.5 -205q-19 -115 33 -184.5t159 -69.5z" />
    <glyph glyph-name="product" unicode="&#x220f;" horiz-adv-x="1482" 
d="M35 -481l336 1915h1245l-336 -1915h-240l297 1687h-768l-295 -1687h-239z" />
    <glyph glyph-name="summation" unicode="&#x2211;" horiz-adv-x="950" 
d="M-2 -254l616 715l-360 745l39 228h870l-39 -228h-614l305 -606l-47 -278l-508 -576h606l-39 -227h-870z" />
    <glyph glyph-name="minus" unicode="&#x2212;" horiz-adv-x="993" 
d="M1030 711l-39 -228h-819l39 228h819z" />
    <glyph glyph-name="uni2215" unicode="&#x2215;" horiz-adv-x="970" 
d="M8 -31l1010 1495h254l-1010 -1495h-254z" />
    <glyph glyph-name="uni2219" unicode="&#x2219;" horiz-adv-x="548" 
d="M219 598q16 81 67.5 133.5t125.5 52.5t107.5 -52.5t19.5 -133.5t-65.5 -133.5t-127.5 -52.5q-74 0 -107 52.5t-20 133.5z" />
    <glyph glyph-name="radical" unicode="&#x221a;" horiz-adv-x="1259" 
d="M139 709l41 227h314l118 -748l627 1246h256l-772 -1434h-289l-139 709h-156z" />
    <glyph glyph-name="integral" unicode="&#x222b;" horiz-adv-x="958" 
d="M-82 -467l80 182q64 -30 133 -30q175 0 217 249l209 1168q35 205 152 319.5t290 114.5q107 0 209 -45l-80 -182q-65 30 -133 30q-175 0 -219 -249l-207 -1168q-37 -206 -153 -320t-289 -114q-111 0 -209 45z" />
    <glyph glyph-name="approxequal" unicode="&#x2248;" horiz-adv-x="1073" 
d="M270 895q58 62 114.5 90.5t127.5 28.5q68 0 193 -41t200 -41q105 0 199 51l6 -131q-58 -62 -114 -90.5t-126 -28.5q-68 0 -193.5 41t-203.5 41q-98 0 -194 -51zM180 223l-6 131q60 63 115.5 91t124.5 28q68 0 193.5 -41t201.5 -41q103 0 197 51l8 -131
q-57 -62 -114.5 -90t-127.5 -28q-68 0 -193.5 40.5t-201.5 40.5q-101 0 -197 -51z" />
    <glyph glyph-name="notequal" unicode="&#x2260;" horiz-adv-x="989" 
d="M621 455h360l-39 -228h-455l-151 -258h-211l151 258h-149l39 228h244l170 288h-363l41 228h453l153 258h211l-151 -258h149l-41 -228h-241z" />
    <glyph glyph-name="lessequal" unicode="&#x2264;" horiz-adv-x="808" 
d="M958 1485l-49 -287l-479 -227l397 -228l-49 -286l-518 399l41 231zM745 274l-38 -227h-584l39 227h583z" />
    <glyph glyph-name="greaterequal" unicode="&#x2265;" horiz-adv-x="808" 
d="M889 1087l-41 -231l-658 -399l50 286l481 228l-399 227l49 287zM117 47l41 227h583l-41 -227h-583z" />
    <glyph glyph-name="uni2460" unicode="&#x2460;" 
d="M207 715q39 223 161.5 393.5t309 263t409.5 92.5q337 0 507 -205.5t112 -543.5q-40 -222 -163.5 -392.5t-310.5 -264t-409 -93.5q-223 0 -377 93.5t-216.5 264t-22.5 392.5zM311 715q-35 -192 19.5 -339t188 -227.5t325.5 -80.5q292 0 501.5 178.5t260.5 468.5
q52 291 -94.5 469t-438.5 178q-293 0 -502 -177.5t-260 -469.5zM725 858l25 129q70 0 129 35t90 94h139l-145 -825h-140l119 667q-35 -42 -96 -71t-121 -29z" />
    <glyph glyph-name="uni2461" unicode="&#x2461;" 
d="M207 715q39 223 161.5 393.5t309 263t409.5 92.5q337 0 507 -205.5t112 -543.5q-40 -222 -163.5 -392.5t-310.5 -264t-409 -93.5q-223 0 -377 93.5t-216.5 264t-22.5 392.5zM311 715q-35 -192 19.5 -339t188 -227.5t325.5 -80.5q292 0 501.5 178.5t260.5 468.5
q52 291 -94.5 469t-438.5 178q-293 0 -502 -177.5t-260 -469.5zM608 293l23 129q14 82 58 132t118 95q35 21 92 46.5t92 41.5t67 48.5t40 76.5q11 59 -18.5 92t-92.5 33q-93 0 -215 -61l-14 123q141 67 258 67q127 0 185.5 -70.5t35.5 -195.5q-11 -64 -37.5 -113t-68 -81.5
t-76.5 -51t-88 -39.5q-8 -3 -40.5 -15.5t-41.5 -16.5t-33.5 -15.5t-33.5 -19.5t-23.5 -20.5t-21 -26.5t-9.5 -31h383l-23 -127h-516z" />
    <glyph glyph-name="uni2462" unicode="&#x2462;" 
d="M207 715q39 223 161.5 393.5t309 263t409.5 92.5q337 0 507 -205.5t112 -543.5q-40 -222 -163.5 -392.5t-310.5 -264t-409 -93.5q-223 0 -377 93.5t-216.5 264t-22.5 392.5zM311 715q-35 -192 19.5 -339t188 -227.5t325.5 -80.5q292 0 501.5 178.5t260.5 468.5
q52 291 -94.5 469t-438.5 178q-293 0 -502 -177.5t-260 -469.5zM610 356l56 121q101 -59 200 -59q168 0 187 119q9 53 -21 81.5t-94 28.5h-117l21 125h104q64 0 101 27.5t45 77.5q9 53 -21.5 81.5t-101.5 28.5q-97 0 -199 -57l-12 121q108 63 250 63q126 0 186 -55t43 -152
q-12 -70 -55.5 -118.5t-108.5 -69.5q66 -15 97 -70t18 -133q-19 -107 -104.5 -166t-223.5 -59q-137 0 -250 65z" />
    <glyph glyph-name="uni2463" unicode="&#x2463;" 
d="M207 715q39 223 161.5 393.5t309 263t409.5 92.5q337 0 507 -205.5t112 -543.5q-40 -222 -163.5 -392.5t-310.5 -264t-409 -93.5q-223 0 -377 93.5t-216.5 264t-22.5 392.5zM311 715q-35 -192 19.5 -339t188 -227.5t325.5 -80.5q292 0 501.5 178.5t260.5 468.5
q52 291 -94.5 469t-438.5 178q-293 0 -502 -177.5t-260 -469.5zM920 457h-369l18 100l465 559h140l-93 -528h113l-25 -131h-112l-29 -166h-139zM997 899l-266 -311h211z" />
    <glyph glyph-name="uni2464" unicode="&#x2464;" 
d="M207 715q39 223 161.5 393.5t309 263t409.5 92.5q337 0 507 -205.5t112 -543.5q-40 -222 -163.5 -392.5t-310.5 -264t-409 -93.5q-223 0 -377 93.5t-216.5 264t-22.5 392.5zM311 715q-35 -192 19.5 -339t188 -227.5t325.5 -80.5q292 0 501.5 178.5t260.5 468.5
q52 291 -94.5 469t-438.5 178q-293 0 -502 -177.5t-260 -469.5zM612 356l56 123q104 -59 190 -59q167 0 195 153q12 69 -19 108.5t-96 39.5q-86 0 -137 -51l-92 45l112 393h430l-20 -125h-338l-55 -195q75 60 170 60q106 0 157 -74.5t29 -200.5q-25 -136 -114 -209t-228 -73
q-129 0 -240 65z" />
    <glyph glyph-name="uni2465" unicode="&#x2465;" horiz-adv-x="1695" 
d="M223 715q60 338 302.5 543.5t580.5 205.5q167 0 297 -53.5t209.5 -152t110.5 -236.5t-1 -307q-59 -337 -301 -543.5t-579 -206.5q-223 0 -377 93.5t-217.5 264t-24.5 392.5zM307 715q-33 -192 25.5 -339t197.5 -227.5t338 -80.5q301 0 515.5 178.5t261.5 468.5
q49 291 -106.5 469t-455.5 178q-304 0 -516.5 -177.5t-259.5 -469.5zM879 291q-137 0 -197.5 107.5t-28.5 291.5q34 194 141 307t259 113q112 0 209 -66l-58 -120q-87 59 -182 59q-123 0 -184 -77t-64 -201q32 63 96 100t140 37q107 0 158.5 -71.5t29.5 -190.5
q-23 -130 -110 -209.5t-209 -79.5zM952 717q-65 0 -120 -34.5t-82 -88.5q5 -85 47 -130.5t118 -45.5t123.5 41t55.5 110q7 69 -31.5 108.5t-110.5 39.5z" />
    <glyph glyph-name="uni2466" unicode="&#x2466;" horiz-adv-x="1695" 
d="M223 715q60 338 302.5 543.5t580.5 205.5q167 0 297 -53.5t209.5 -152t110.5 -236.5t-1 -307q-59 -337 -301 -543.5t-579 -206.5q-223 0 -377 93.5t-217.5 264t-24.5 392.5zM307 715q-33 -192 25.5 -339t197.5 -227.5t338 -80.5q301 0 515.5 178.5t261.5 468.5
q49 291 -106.5 469t-455.5 178q-304 0 -516.5 -177.5t-259.5 -469.5zM778 981l35 129h469l-27 -98l-401 -719h-117l398 688h-357z" />
    <glyph glyph-name="uni2467" unicode="&#x2467;" 
d="M207 715q39 223 161.5 393.5t309 263t409.5 92.5q337 0 507 -205.5t112 -543.5q-40 -222 -163.5 -392.5t-310.5 -264t-409 -93.5q-223 0 -377 93.5t-216.5 264t-22.5 392.5zM311 715q-35 -192 19.5 -339t188 -227.5t325.5 -80.5q292 0 501.5 178.5t260.5 468.5
q52 291 -94.5 469t-438.5 178q-293 0 -502 -177.5t-260 -469.5zM874 293q-138 0 -203 59t-46 166q14 79 65 133.5t127 67.5q-58 20 -84 70t-14 118q15 97 95 153t206 56q127 0 187.5 -56t43.5 -153q-12 -67 -57 -117.5t-111 -70.5q71 -13 104 -67.5t19 -133.5
q-20 -108 -106.5 -166.5t-225.5 -58.5zM850 879q-9 -50 19 -79.5t89 -29.5q62 0 101 29.5t47 79.5q10 51 -18.5 79.5t-90.5 28.5q-61 0 -99.5 -28.5t-47.5 -79.5zM940 655q-72 0 -115.5 -30t-52.5 -86q-11 -56 22 -86.5t103 -30.5q72 0 116.5 30.5t53.5 86.5t-24 86t-103 30
z" />
    <glyph glyph-name="uni2468" unicode="&#x2468;" 
d="M207 715q39 223 161.5 393.5t309 263t409.5 92.5q337 0 507 -205.5t112 -543.5q-40 -222 -163.5 -392.5t-310.5 -264t-409 -93.5q-223 0 -377 93.5t-216.5 264t-22.5 392.5zM311 715q-35 -192 19.5 -339t188 -227.5t325.5 -80.5q292 0 501.5 178.5t260.5 468.5
q52 291 -94.5 469t-438.5 178q-293 0 -502 -177.5t-260 -469.5zM684 827q22 129 114.5 209t219.5 80q145 0 207.5 -106.5t27.5 -296.5q-35 -199 -144.5 -309.5t-272.5 -110.5q-125 0 -222 63l56 123q89 -57 180 -57q105 0 170.5 73.5t91.5 204.5q-38 -65 -101 -101t-137 -36
q-109 0 -160.5 71.5t-29.5 192.5zM823 836q-12 -69 17 -107.5t92 -38.5q58 0 110.5 32t81.5 85q3 88 -30 134t-99 46t-113 -41t-59 -110z" />
    <glyph glyph-name="uni24EA" unicode="&#x24ea;" 
d="M207 715q39 223 161.5 393.5t309 263t409.5 92.5q337 0 507 -205.5t112 -543.5q-40 -222 -163.5 -392.5t-310.5 -264t-409 -93.5q-223 0 -377 93.5t-216.5 264t-22.5 392.5zM311 715q-35 -192 19.5 -339t188 -227.5t325.5 -80.5q292 0 501.5 178.5t260.5 468.5
q52 291 -94.5 469t-438.5 178q-293 0 -502 -177.5t-260 -469.5zM618 702q34 191 141 302.5t257 111.5t218 -111t34 -303q-34 -190 -141.5 -301.5t-256.5 -111.5q-151 0 -218.5 111t-33.5 302zM893 420q90 0 150 73.5t83 208.5q25 136 -9 210.5t-124 74.5q-91 0 -151.5 -74
t-85.5 -211q-23 -134 12 -208t125 -74z" />
    <glyph glyph-name="uni24FF" unicode="&#x24ff;" 
d="M207 715q39 223 161.5 393.5t309 263t409.5 92.5q337 0 507 -205.5t112 -543.5q-40 -222 -163.5 -392.5t-310.5 -264t-409 -93.5q-223 0 -377 93.5t-216.5 264t-22.5 392.5zM874 289q149 0 256.5 111.5t141.5 301.5q34 192 -34 303t-218 111t-256.5 -111.5t-140.5 -302.5
t33.5 -302t217.5 -111zM760 702q25 137 85.5 211t151.5 74q90 0 124.5 -74.5t11.5 -210.5q-25 -135 -85.5 -208.5t-150.5 -73.5t-125 74t-12 208z" />
    <glyph glyph-name="lozenge" unicode="&#x25ca;" horiz-adv-x="1028" 
d="M184 676l445 788h289l165 -788l-444 -789h-289zM418 676l110 -600l322 600l-111 600z" />
    <glyph glyph-name="uni25CF" unicode="&#x25cf;" horiz-adv-x="1634" 
d="M199 717q59 335 299.5 540t574.5 205q221 0 374 -93t216.5 -262t24.5 -390q-40 -221 -162.5 -390t-308 -261.5t-406.5 -92.5t-373.5 92.5t-215.5 261.5t-23 390z" />
    <glyph glyph-name="uni273A" unicode="&#x273a;" horiz-adv-x="1560" 
d="M846 -33l31 545l-156 -547l-113 21l215 538l-331 -493l-93 57l381 465l-467 -381l-59 88l496 336l-543 -221l-23 108l555 166l-557 -35l21 117l547 -24l-502 155l57 109l473 -211l-387 325l90 93l342 -375l-227 461l113 57l168 -490l-31 539l119 21l-31 -547l156 547
l114 -21l-215 -536l332 493l92 -59l-379 -463l463 381l62 -90l-496 -334l543 221l20 -111l-553 -163l555 34l-18 -116l-547 24l502 -155l-60 -111l-471 211l387 -324l-92 -92l-340 373l225 -457l-112 -61l-166 491l31 -538z" />
    <glyph glyph-name="uni2776" unicode="&#x2776;" 
d="M207 715q39 223 161.5 393.5t309 263t409.5 92.5q337 0 507 -205.5t112 -543.5q-40 -222 -163.5 -392.5t-310.5 -264t-409 -93.5q-223 0 -377 93.5t-216.5 264t-22.5 392.5zM754 987l-25 -129q61 0 122.5 29t94.5 71l-119 -667h140l145 825h-139q-31 -59 -90 -94
t-129 -35z" />
    <glyph glyph-name="uni2777" unicode="&#x2777;" 
d="M207 715q39 223 161.5 393.5t309 263t409.5 92.5q337 0 507 -205.5t112 -543.5q-40 -222 -163.5 -392.5t-310.5 -264t-409 -93.5q-223 0 -377 93.5t-216.5 264t-22.5 392.5zM635 422l-23 -129h516l25 127h-383q3 17 9 31t20 26.5t24 20.5t34 19t34.5 15.5t41 16.5
t40.5 16q52 21 87 39.5t76 51t67.5 81.5t37.5 113q23 125 -34.5 195.5t-184.5 70.5q-119 0 -260 -67l14 -123q122 61 215 61q63 0 92.5 -33t20.5 -92q-11 -56 -53 -89.5t-122 -67.5t-116 -56q-73 -45 -117.5 -95t-60.5 -132z" />
    <glyph glyph-name="uni2778" unicode="&#x2778;" 
d="M207 715q39 223 161.5 393.5t309 263t409.5 92.5q337 0 507 -205.5t112 -543.5q-40 -222 -163.5 -392.5t-310.5 -264t-409 -93.5q-223 0 -377 93.5t-216.5 264t-22.5 392.5zM670 477l-56 -121q113 -65 248 -65q138 0 224 59t106 166q13 78 -19 133t-98 70q66 20 109 69
t55 119q17 97 -43 152t-184 55q-142 0 -250 -63l14 -121q99 57 195 57q71 0 102 -28.5t23 -81.5q-19 -105 -148 -105h-102l-21 -125h117q63 0 92.5 -28.5t20.5 -81.5q-22 -119 -187 -119q-97 0 -198 59z" />
    <glyph glyph-name="uni2779" unicode="&#x2779;" 
d="M207 715q39 223 161.5 393.5t309 263t409.5 92.5q337 0 507 -205.5t112 -543.5q-40 -222 -163.5 -392.5t-310.5 -264t-409 -93.5q-223 0 -377 93.5t-216.5 264t-22.5 392.5zM573 557l-18 -100h369l-29 -166h137l29 166h115l22 131h-113l93 528h-138zM948 588h-211
l264 311z" />
    <glyph glyph-name="uni277A" unicode="&#x277a;" 
d="M207 715q39 223 161.5 393.5t309 263t409.5 92.5q337 0 507 -205.5t112 -543.5q-40 -222 -163.5 -392.5t-310.5 -264t-409 -93.5q-223 0 -377 93.5t-216.5 264t-22.5 392.5zM674 479l-56 -123q108 -65 240 -65q139 0 228 73t112 209q22 126 -29 200.5t-157 74.5
q-95 0 -170 -60l55 195h338l22 125h-432l-112 -393l94 -45q48 51 135 51q65 0 97 -40t20 -108q-28 -153 -197 -153q-86 0 -188 59z" />
    <glyph glyph-name="uni277B" unicode="&#x277b;" 
d="M207 715q39 223 161.5 393.5t309 263t409.5 92.5q337 0 507 -205.5t112 -543.5q-40 -222 -163.5 -392.5t-310.5 -264t-409 -93.5q-223 0 -377 93.5t-216.5 264t-22.5 392.5zM868 291q126 0 215.5 79.5t112.5 209.5q22 119 -29 190.5t-159 71.5q-69 0 -130.5 -37
t-101.5 -100q19 123 82.5 200.5t169.5 77.5q86 0 178 -59l56 120q-101 66 -215 66q-158 0 -270 -113t-146 -307q-32 -183 31.5 -291t205.5 -108zM952 717q61 0 89 -39.5t16 -108.5t-56 -110t-108 -41q-133 0 -133 176q32 54 84 88.5t108 34.5z" />
    <glyph glyph-name="uni277C" unicode="&#x277c;" 
d="M207 715q39 223 161.5 393.5t309 263t409.5 92.5q337 0 507 -205.5t112 -543.5q-40 -222 -163.5 -392.5t-310.5 -264t-409 -93.5q-223 0 -377 93.5t-216.5 264t-22.5 392.5zM1274 1110h-483l-21 -129h330l-391 -688h157l391 719z" />
    <glyph glyph-name="uni277D" unicode="&#x277d;" 
d="M207 715q39 223 161.5 393.5t309 263t409.5 92.5q337 0 507 -205.5t112 -543.5q-40 -222 -163.5 -392.5t-310.5 -264t-409 -93.5q-223 0 -377 93.5t-216.5 264t-22.5 392.5zM881 293q139 0 225 58.5t106 166.5q14 79 -18 133.5t-102 67.5q66 20 109.5 70t55.5 118
q17 97 -43.5 153t-187.5 56q-126 0 -206 -55.5t-97 -153.5q-12 -68 13.5 -118t84.5 -70q-76 -13 -127 -67.5t-65 -133.5q-20 -107 46 -166t206 -59zM856 879q9 51 48 79.5t102 28.5q61 0 89 -28.5t19 -79.5q-9 -50 -47.5 -79.5t-99.5 -29.5q-62 0 -91 29.5t-20 79.5z
M946 655q70 0 103 -30t22 -86q-9 -56 -52.5 -86.5t-113.5 -30.5q-71 0 -103.5 30.5t-23.5 86.5q11 56 54 86t114 30z" />
    <glyph glyph-name="uni277E" unicode="&#x277e;" 
d="M207 715q39 223 161.5 393.5t309 263t409.5 92.5q337 0 507 -205.5t112 -543.5q-40 -222 -163.5 -392.5t-310.5 -264t-409 -93.5q-223 0 -377 93.5t-216.5 264t-22.5 392.5zM688 827q-22 -121 30 -192.5t161 -71.5q74 0 136.5 36t100.5 101q-26 -131 -91 -204.5
t-169 -73.5q-93 0 -182 57l-56 -123q97 -63 222 -63q164 0 274.5 110t145.5 310q34 190 -29.5 296.5t-208.5 106.5q-127 0 -219.5 -80t-114.5 -209zM827 836q12 68 59.5 109.5t112.5 41.5q67 0 100.5 -46t28.5 -134q-27 -53 -80 -85t-110 -32q-64 0 -93.5 38.5t-17.5 107.5z
" />
    <glyph glyph-name="f_f.1" unicode="&#xfb00;" horiz-adv-x="1757" 
d="M850 -512l39 219l182 2l191 1096h-648l-231 -1317h-403l38 219l181 2l192 1096h-164l37 219h219l-26 145q25 149 140 254t282 105q121 0 219 -45l-94 -230q-88 41 -156 41q-81 0 -137 -51t-74 -153l-12 -66h729l-27 145q26 149 141 254t281 105q123 0 221 -45l-94 -230
q-92 41 -158 41q-81 0 -136.5 -51t-72.5 -153l-12 -66h330l-39 -219h-303l-230 -1317h-405z" />
    <glyph glyph-name="fi" unicode="&#xfb01;" horiz-adv-x="1558" 
d="M1298 1384q14 69 59.5 112.5t108.5 43.5q62 0 92.5 -44t18.5 -112q-12 -69 -58 -112t-110 -43q-62 0 -92 42.5t-19 112.5zM207 805l39 219h217l-27 145q26 149 141 254t281 105q123 0 221 -45l-94 -230q-92 41 -170 41q-29 0 -58 -5.5t-60.5 -19.5t-56.5 -36t-44.5 -59
t-26.5 -84l-10 -66h850q48 1 62.5 -35t3.5 -98l-117 -664h139l-39 -227h-504l41 227h140l102 578h-643l-102 -584h296l-38 -221h-687l39 221l166 -2l105 586h-166z" />
    <glyph glyph-name="fl" unicode="&#xfb02;" horiz-adv-x="1390" 
d="M207 805l39 219h219l-29 145q26 147 133.5 241.5t270.5 94.5h708l-266 -1505h-223l227 1280h-471q-47 0 -82.5 -7t-71.5 -26t-59.5 -58.5t-32.5 -98.5l-12 -66h379l-39 -219h-303l-102 -584h296l-38 -221h-687l39 221h166l103 584h-164z" />
    <glyph glyph-name="f_f_i" unicode="&#xfb03;" horiz-adv-x="2529" 
d="M2226 1384q12 69 58 112.5t110 43.5q62 0 92.5 -44t18.5 -112q-12 -69 -57.5 -112t-108.5 -43q-64 0 -94 42.5t-19 112.5zM1098 805l37 219h219l-27 145q25 149 140 254t282 105q121 0 219 -45l-94 -230q-88 41 -168 41q-38 0 -74.5 -9.5t-73 -30.5t-63 -63.5
t-35.5 -100.5l-12 -66h889q86 3 65 -133l-116 -664h139l-39 -227h-504l39 227h139l103 578h-678l-105 -584h299l-39 -221h-1558l39 221l164 -2l104 586h-166l39 219h219l-28 145q26 149 140.5 254t280.5 105q124 0 222 -45l-95 -230q-88 41 -170 41q-29 0 -57.5 -5.5
t-60 -19.5t-56 -36t-43.5 -59t-26 -84l-13 -66h377l-39 -219h-303l-102 -584l651 -2l103 586h-164z" />
    <glyph glyph-name="f_f_l" unicode="&#xfb04;" horiz-adv-x="2338" 
d="M223 805l39 219h219l-28 145q26 149 140.5 254t280.5 105q124 0 222 -45l-95 -230q-88 41 -170 41q-29 0 -57.5 -5.5t-60 -19.5t-56 -36t-43.5 -59t-26 -84l-13 -66h377l-39 -219h-303l-102 -584h651l103 584h-166l39 219h219l-29 145q27 147 134.5 241.5t271.5 94.5h706
l-264 -1505h-223l225 1280h-469q-48 0 -83.5 -7t-71.5 -26t-59 -58.5t-32 -98.5l-12 -66h377l-37 -219h-305l-103 -584h299l-39 -221h-1558l39 221l164 -2l104 586h-166z" />
    <glyph glyph-name="s_t" unicode="&#xfb06;" horiz-adv-x="1769" 
d="M70 96l84 187q72 -49 175.5 -83t194.5 -34q84 0 136.5 27.5t60.5 70.5q6 34 -21 63t-74.5 52.5t-105.5 48.5t-115 57.5t-102 72t-67 99t-9 131.5q23 127 130.5 197t275.5 70q69 0 139 -13q-28 67 -14 136q16 98 99 177t185 79h596l-71 -410h307l-39 -219h-309l-68 -391
q-35 -195 53 -213q30 -7 103.5 4t111.5 26l-8 -217q-113 -45 -192 -45q-175 0 -251.5 113.5t-41.5 320.5l72 402h-154l20 117l201 104l74 236h-369q-59 0 -101.5 -36t-51.5 -91q-19 -109 118 -199l-96 -186q-86 51 -163 79.5t-162 28.5q-153 0 -168 -92q-7 -37 13 -68.5
t57 -53.5t85.5 -46t99.5 -45t98.5 -50.5t83 -62.5t52 -81.5t6.5 -106.5q-22 -125 -144 -204t-308 -79q-123 0 -234 35t-192 92z" />
    <glyph glyph-name="u1F310" unicode="&#x1f310;" horiz-adv-x="1695" 
d="M1110 1556q127 0 239 -39.5t194 -110.5t139 -168.5t73 -213.5t-4 -246q-37 -212 -173 -391t-333.5 -283t-408.5 -104q-127 0 -239 39.5t-194 110.5t-139 168.5t-73 213.5t4 246q27 152 110.5 293.5t204 248.5t278 171.5t322.5 64.5zM1260 1311q-38 158 -111 192
q-5 0 -16 1t-17 1l-35 -194h179zM1085 1505h-8l-18 -2h-8q-34 -15 -62 -43q-64 -58 -115 -149h177q22 137 34 194zM987 1497q-12 -4 -20 -4q-154 -52 -275 -182h148l2 4q67 118 145 182zM1292 1311h150q-78 132 -209 182q-9 0 -21 4q54 -60 78 -182q2 0 2 -4zM813 1450
q-124 -48 -242 -139h82q7 7 9 8q67 75 151 131zM1563 1311q-82 88 -193 139q61 -52 107 -131q0 -4 4 -8h82zM627 1280h-92q-110 -99 -187 -227h137q53 118 142 227zM664 1280q-92 -110 -146 -227h211q45 137 94 227h-159zM1696 1053q-30 121 -109 227h-92q49 -104 64 -227
h137zM1044 1280h-188q-45 -83 -96 -227h246zM1036 1053h246q3 120 -16 227h-191zM1298 1280q17 -116 17 -227h211q-15 127 -68 227h-160zM719 1022h-215q-54 -125 -72 -229h230q26 128 57 229zM989 793h266q21 121 27 229h-252zM999 1022h-249q-34 -110 -58 -229h266z
M1286 793h232q19 125 10 229h-215q-6 -108 -27 -229zM330 1022q-60 -121 -82 -229h153q19 106 70 229h-141zM1702 793q18 119 0 229h-141q7 -92 -13 -229h154zM657 762h-229q-20 -110 -10 -227h215q2 86 24 227zM1227 535h215q47 108 71 227h-231q-13 -70 -55 -227zM944 535
h252q42 157 55 227h-266zM954 762h-266q-22 -141 -24 -227h249zM244 762q-18 -116 0 -227h141q-9 110 12 227h-153zM1616 535q60 120 82 227h-154q-25 -122 -69 -227h141zM899 276h191q48 88 94 228h-246zM907 504h-245q0 -126 18 -228h188zM420 504q16 -131 67 -228h160
q-19 107 -16 228h-211zM358 276h93q-52 108 -64 228h-137q29 -123 108 -228zM1282 276q88 106 145 228h-210q-49 -139 -95 -228h160zM1319 276h92q111 99 186 228h-137q-66 -138 -141 -228zM651 246h-147q81 -137 209 -183q4 0 6 -2h10l4 -2q-52 58 -80 181q0 4 -2 6z
M858 51q25 0 37 2q50 22 96 76.5t80 116.5h-178q-19 -119 -35 -195zM748 94q28 -32 49 -41q8 -2 30 -2l35 195h-176q21 -96 62 -152zM958 59q3 1 10 2t11 2q147 47 274 183h-149q0 -4 -2 -6q-65 -115 -144 -181zM383 246q87 -93 192 -140q-58 49 -106 132q0 4 -4 8h-82z
M1133 106q123 48 241 140h-82l-8 -8q-69 -78 -151 -132z" />
    <glyph glyph-name="a" horiz-adv-x="1157" 
d="M983 203q14 -17 41 -17q32 0 75 17.5t64 32.5q-26 -136 -35 -203q-41 -37 -111 -52t-122 -10q-41 1 -71 17t-44.5 38t-22 46.5t-9 40t-0.5 20.5l32 184q-87 -156 -209.5 -252t-244.5 -96q-47 0 -88 15t-73.5 45t-46.5 81.5t-3 116.5q13 71 48.5 130t90.5 103t110 75
t125 61q120 47 338 109q-26 147 -204 147q-91 0 -192 -34.5t-155 -80.5l-12 205q60 45 173 78t227 33q26 0 96 -9q77 -13 136 -46.5t102 -94t54 -147.5t-8 -207zM823 559l2 10v4q-11 -3 -59 -16.5t-71 -20.5t-64 -21t-76 -28q-79 -30 -142 -84.5t-75 -123.5
q-10 -61 24.5 -97.5t88.5 -36.5q116 0 227.5 120t144.5 294z" />
    <glyph glyph-name="i" horiz-adv-x="729" 
d="M471 1384q12 68 58 112t108 44q63 0 93.5 -43.5t19.5 -112.5q-12 -69 -57.5 -112t-108.5 -43q-64 0 -94 42.5t-19 112.5zM127 0l39 227h141l103 578h-127l39 219h262q84 3 63 -133l-119 -664h142l-39 -227h-504z" />
    <glyph glyph-name="e" horiz-adv-x="1069" 
d="M156 512q43 241 201.5 392t369.5 151q142 0 236 -72t127 -194t4 -273q-3 -22 -21 -88h-690q-3 -125 74.5 -193.5t201.5 -68.5q75 0 169.5 29.5t175.5 78.5l14 -178q-85 -59 -197 -93t-219 -34q-248 0 -368.5 146.5t-77.5 396.5zM399 571h471q18 127 -25.5 207t-150.5 80
q-103 0 -183 -76.5t-112 -210.5z" />
    <glyph glyph-name="f" horiz-adv-x="856" 
d="M207 805l39 219h217l-27 145q26 149 141 254t281 105q123 0 221 -45l-94 -230q-92 41 -156 41q-80 0 -131.5 -51t-68.5 -153l-13 -66h320l-39 -219h-303l-102 -586l296 2l-38 -221h-687l39 221l166 -2l105 586h-166z" />
    <glyph glyph-name="g" horiz-adv-x="1122" 
d="M596 326q-114 0 -197 18q-70 -30 -80 -84q-3 -19 2 -32t21.5 -22t26.5 -12.5t37 -11.5q65 -20 208 -56t215 -56q119 -34 178 -101t37 -186q-11 -64 -42 -116t-70.5 -83.5t-87 -52.5t-89.5 -29t-81 -8h-520q-75 0 -119.5 58t-26.5 153q10 57 45.5 105.5t85.5 81.5t93.5 53
t89.5 35q-26 7 -45.5 12.5t-42 13.5t-36.5 16t-31 19.5t-24.5 24.5t-16 30.5t-7 37t3.5 44.5q24 146 199 195q-159 75 -119 299q34 190 166.5 286.5t357.5 96.5q59 0 109 -6q-34 73 -21 151q43 238 483 234l-41 -232q-124 8 -139 8q-194 0 -209 -90q-12 -59 27 -92
q232 -74 182 -350q-32 -184 -157.5 -268t-364.5 -84zM694 862q-115 0 -183 -48.5t-85 -139.5q-15 -92 36.5 -134t164.5 -42q239 0 270 178q15 90 -34 138t-169 48zM403 -39q-55 -23 -100.5 -64t-54.5 -98q-9 -49 16 -81.5t68 -32.5h334q54 0 100.5 28t54.5 76q7 39 -22 63
t-99 44q-46 12 -89 21.5t-101 21t-107 22.5z" />
    <glyph glyph-name="k" horiz-adv-x="1132" 
d="M424 1505h221l-168 -956l529 475h274l-520 -475h88l264 -549h-262l-211 432l-217 -190l-41 -242h-223z" />
    <glyph glyph-name="ampersand.alt" horiz-adv-x="1460" 
d="M459 756q-79 145 -51 299q32 186 177 297.5t359 111.5q222 0 312 -124t40 -343h-182q29 110 -22.5 172t-169.5 62q-108 0 -178 -54t-89 -155q-12 -67 11 -133t96 -146t116 -119.5t155 -133.5q24 -21 36 -31q57 97 82 227h-147l32 180h529l-33 -180h-166
q-37 -205 -135 -360q100 -83 151 -154l-161 -190q-44 78 -134 165q-200 -178 -481 -178q-226 0 -343 114t-83 304q22 120 96.5 218t182.5 151zM573 604q-113 -69 -133 -180q-17 -101 47 -161t187 -60q148 0 250 92q-26 21 -113.5 90.5t-142 119t-95.5 99.5z" />
    <glyph glyph-name="dollar.alt" horiz-adv-x="1060" 
d="M127 123l92 219q164 -129 348 -129q121 0 196 47t89 123q7 42 -9.5 78t-50 61.5t-78.5 51t-95 48t-100 52t-92.5 63t-73 81t-42 106t1.5 137.5q31 174 162.5 278t325.5 107l39 229h55l-39 -231q199 -15 344 -121l-90 -213q-157 111 -338 111q-105 0 -168.5 -42
t-75.5 -114q-8 -45 8 -83t49 -66t77.5 -56t94 -52t99 -54.5t92.5 -64t73.5 -80t42 -102.5t-0.5 -132q-30 -160 -152.5 -263t-312.5 -120l-41 -234h-55l41 230q-242 0 -416 135z" />
    <glyph glyph-name="r_a" horiz-adv-x="1673" 
d="M1667 33q-40 -37 -108.5 -52.5t-122.5 -11.5q-67 3 -101.5 43t-42.5 88q0 20 10.5 91.5t10.5 72.5q-85 -135 -204 -215t-228 -80q-53 0 -97 15t-78 45.5t-48 82.5t-3 119q42 227 361 361q88 35 358 115q-5 65 -42 110t-91 51q-49 6 -106 6q-194 0 -377 -75
q-124 -53 -219 -165t-113 -216l-74 -418h-223l180 1024h223l-45 -258q68 106 162 175.5t189 88.5q91 16 213.5 18.5t187.5 -1.5q207 -3 299.5 -123t52.5 -338l-71 -402q13 -16 43 -16q59 0 137 47q-3 -16 -16.5 -91t-16.5 -91zM874 283q-10 -64 25 -100t92 -36q86 0 167 63
t135 159.5t73 201.5q-19 -5 -60.5 -16.5t-68.5 -19t-66.5 -21t-74.5 -27.5q-82 -33 -146 -85.5t-76 -118.5z" />
    <glyph glyph-name="s.ss01" horiz-adv-x="874" 
d="M70 227l123 162q41 -85 137 -156.5t205 -82.5q69 -5 119.5 22t54.5 74q5 33 -25.5 61.5t-82.5 51.5t-116 47t-127 55t-113.5 69t-77.5 95.5t-17 128.5q7 52 32 102.5t66 94.5t104 72t137 32q132 7 265.5 -60t185.5 -161l-131 -150q-37 62 -123.5 122.5t-169.5 70.5
q-69 7 -117.5 -21.5t-54.5 -79.5q-6 -40 23 -74.5t80 -60.5t113 -52t123 -57t109.5 -66.5t74 -89t14.5 -118.5q-16 -111 -118 -199t-249 -94q-80 -4 -154.5 19.5t-130 63.5t-96 86t-63.5 93z" />
    <glyph glyph-name="zero.sups" horiz-adv-x="813" 
d="M504 705q-151 0 -220.5 113t-35.5 306q34 194 142.5 307t260.5 113q153 0 222.5 -112.5t35.5 -307.5q-34 -193 -143.5 -306t-261.5 -113zM395 1124q-23 -133 11 -206.5t122 -73.5q90 0 149 73t83 207t-10 208.5t-123 74.5q-88 0 -148 -74.5t-84 -208.5z" />
    <glyph glyph-name="four.sups" horiz-adv-x="667" 
d="M119 905l16 94l430 537h133l-88 -504h101l-23 -127h-100l-29 -157h-133l27 157h-334zM299 1032h178l49 285z" />
    <glyph glyph-name="five.sups" horiz-adv-x="632" 
d="M84 793l59 125q103 -60 185 -60q165 0 190 148q12 68 -17.5 104.5t-94.5 36.5q-85 0 -134 -49l-98 47l113 391h432l-23 -131h-334l-55 -184q74 55 168 55q105 0 156 -73.5t28 -196.5q-23 -134 -111 -207.5t-224 -73.5q-124 0 -240 68z" />
    <glyph glyph-name="six.sups" horiz-adv-x="731" 
d="M459 719q-140 0 -206.5 109.5t-35.5 287.5q34 193 147 306.5t271 113.5q114 0 215 -66l-59 -122q-90 55 -175 55q-100 0 -165 -71t-82 -195q36 62 97 96.5t132 34.5q107 0 157.5 -70.5t28.5 -189.5q-22 -130 -110 -209.5t-215 -79.5zM541 1137q-58 0 -109 -29.5
t-80 -81.5q-2 -84 31.5 -129t99.5 -45q64 0 105 38t53 107q24 140 -100 140z" />
    <glyph glyph-name="seven.sups" horiz-adv-x="581" 
d="M289 1536h463l-15 -94l-379 -694h-155l375 659h-314z" />
    <glyph glyph-name="eight.sups" horiz-adv-x="690" 
d="M391 723q-140 0 -206 58.5t-46 164.5q14 80 65.5 135t127.5 70q-58 19 -85 68.5t-16 117.5q17 96 98 151.5t206 55.5q126 0 186 -55.5t43 -151.5q-12 -68 -56 -117.5t-108 -68.5q71 -15 103 -70t18 -135q-20 -106 -106 -164.5t-224 -58.5zM367 1307q-8 -49 19 -77t87 -28
t98 28.5t47 76.5q9 51 -18.5 79.5t-87.5 28.5q-61 0 -98.5 -28.5t-46.5 -79.5zM453 1083q-69 0 -111 -29.5t-51 -84.5q-9 -54 23 -84.5t100 -30.5t110.5 30.5t53.5 84.5q9 55 -23.5 84.5t-101.5 29.5z" />
    <glyph glyph-name="nine.sups" horiz-adv-x="714" 
d="M195 1255q22 125 109.5 203t211.5 78q138 0 202.5 -107t33.5 -286q-34 -191 -143 -299.5t-267 -108.5q-117 0 -211 66l53 119q94 -56 174 -56q97 0 163 70.5t87 202.5q-37 -65 -97 -102.5t-130 -37.5q-107 0 -157.5 70.5t-28.5 187.5zM334 1264q-12 -67 14 -102.5
t88 -35.5q57 0 107 29t80 82q1 81 -33.5 125.5t-97.5 44.5q-64 0 -105 -37.5t-53 -105.5z" />
    <glyph glyph-name="a.ss01" horiz-adv-x="1179" 
d="M1006 203q11 -17 41 -17q32 0 73.5 16.5t65.5 30.5q-2 -15 -17.5 -99.5t-17.5 -100.5q-41 -37 -109.5 -52.5t-121.5 -11.5q-41 1 -71.5 18t-45 38t-23 48t-9.5 39t-1 21l35 195q-101 -173 -233 -265t-255 -94q-113 -2 -171 65t-37 185q12 69 48.5 128t82.5 98t105 71
t107 49t97 29q122 30 307 45q6 168 -151 168l-443 -2l39 219h467q81 0 143 -25.5t107 -82.5t57 -147.5t-8 -221.5zM836 489l6 35q-52 -7 -105 -17.5t-123 -31.5t-124.5 -47t-97.5 -66t-54 -86q-16 -57 9.5 -94.5t74.5 -42.5q67 -10 149 30.5t156 126t109 193.5z" />
    <glyph glyph-name="g.ss02" horiz-adv-x="1259" 
d="M606 326q-231 0 -327 80l-25 -146l600 -186q119 -43 169.5 -116t31.5 -181q-12 -66 -44.5 -117.5t-73.5 -82t-92 -50t-94.5 -26.5t-86.5 -7h-330q-37 19 -66 61.5t-35 98.5q-4 51 13 102.5t51 97.5t60 74t61 60l-309 92l96 530q0 16 8 62q32 190 165.5 286.5t358.5 96.5
q139 0 232 -35h327l-20 -123h-164q40 -84 16 -219q-32 -184 -158 -268t-364 -84zM705 862q-115 0 -183.5 -48.5t-85.5 -139.5q-17 -92 35 -134t166 -42q122 0 187 45t83 133q15 90 -33.5 138t-168.5 48zM729 -102l-219 63q-46 -47 -74.5 -93t-37 -81t-5.5 -60.5t15 -41.5
h247q68 0 115 24t57 76q8 40 -15.5 67t-82.5 46z" />
    <glyph glyph-name="F.ss01" horiz-adv-x="1103" 
d="M1253 1206h-643l520 -415l-38 -228h-607l-98 -563h-240l140 791h592l-519 415l39 228h893z" />
    <glyph glyph-name="N.ss01" horiz-adv-x="1445" 
d="M147 0l252 1434h242l582 -508l90 508h239l-252 -1434h-690l39 225h451l84 471l-590 482l-207 -1178h-240z" />
    <glyph glyph-name="y.ss01" horiz-adv-x="1124" 
d="M440 0l-209 1024h242l145 -836l439 836h241l-856 -1536h-413l39 225h266l172 287h-66z" />
    <glyph glyph-name="t.ss02" horiz-adv-x="794" 
d="M530 805l-51 -391q0 -1 -1 -15.5t-1.5 -24.5t-1 -29t1 -33.5t4 -33.5t8.5 -33.5t14 -28.5t20.5 -23.5t27.5 -14.5q32 -7 103 4.5t108 26.5l-10 -195q-110 -45 -195 -45q-173 0 -248.5 113.5t-40.5 320.5l54 402h-177l31 141l178 6l72 383h205l-66 -364q51 28 153.5 40.5
t182.5 12.5l-47 -219h-324z" />
    <glyph glyph-name="f_f" horiz-adv-x="1746" 
d="M223 805l39 219h219l-28 145q26 149 140.5 254t280.5 105q124 0 222 -45l-95 -230q-88 41 -170 41q-29 0 -57.5 -5.5t-60 -19.5t-56 -36t-43.5 -59t-26 -84l-13 -66h779l-27 145q25 149 140 254t282 105q121 0 219 -45l-94 -230q-88 41 -168 41q-38 0 -74.5 -9.5
t-73 -30.5t-63 -63.5t-35.5 -100.5l-12 -66h377l-37 -219h-303l-105 -584h299l-39 -221h-686l39 221l166 -2l103 586h-652l-102 -584h297l-39 -221h-684l39 221l164 -2l104 586h-166z" />
    <glyph glyph-name="t_a" horiz-adv-x="1923" 
d="M555 827l-80 -450q-3 -13 -5 -28.5t-1.5 -42t5.5 -47t20.5 -38t40.5 -20.5q30 -7 103.5 4t111.5 26l-7 -217q-113 -45 -194 -45q-175 0 -251.5 113.5t-39.5 320.5l70 402h-154l21 117l200 104l105 309h143l-53 -311h235l688 2q80 0 141.5 -26t106.5 -83t57 -148t-8 -222
l-65 -363q13 -16 43 -16q59 0 137 47l-33 -182q-40 -37 -108.5 -52.5t-122.5 -11.5q-41 1 -71 17.5t-44.5 39t-22.5 47t-9.5 40t-0.5 20.5l33 180q-110 -168 -238.5 -255t-246.5 -87q-114 -3 -172 64t-37 184q12 68 48.5 127.5t81.5 98t101.5 70t100.5 47.5t86 26
q125 34 329 51q1 91 -38 137t-109 51h-897zM1581 522q-64 -7 -134.5 -23t-151.5 -44.5t-139.5 -75t-72.5 -103.5q-17 -58 8 -95t74 -42q68 -9 149 32.5t156 134.5t111 216z" />
    <glyph glyph-name="f_t" horiz-adv-x="1691" 
d="M207 805l39 219h217l-27 145q26 149 141 254t281 105h719l-27 -125h4l-67 -379h309l-39 -219h-307l-70 -391q-4 -20 -6 -44t-1.5 -63t16 -68t45.5 -38q30 -7 103 4t110 26l-7 -217q-113 -45 -194 -45q-175 0 -251.5 113.5t-39.5 320.5l72 402h-154l21 117l198 104l84 268
h-559q-38 0 -74.5 -9.5t-74 -30.5t-64 -63.5t-35.5 -100.5l-12 -66h379l-39 -219h-303l-102 -584h296l-38 -221h-687l39 221l166 -2l105 586h-166z" />
    <glyph glyph-name="F_T" horiz-adv-x="2338" 
d="M387 0h-240l252 1434h2171l-39 -228h-497l-211 -1206h-240l213 1206h-1196l-74 -415h817l-40 -228h-818z" />
    <glyph glyph-name="F.ss011" horiz-adv-x="1480" 
d="M387 0h-240l252 1434h1270l-39 -228h-1030l-74 -415h981l-39 -228h-983z" />
    <glyph glyph-name="t_t" horiz-adv-x="1589" 
d="M551 805l-70 -391q-4 -20 -6 -44t-1.5 -63t16 -68t45.5 -38q30 -7 103.5 4t111.5 26l-7 -217q-113 -45 -194 -45q-175 0 -251.5 113.5t-39.5 320.5l70 402h-154l21 117l200 104l105 309h143l-53 -311h600l104 311h146l-56 -311h310l-39 -219h-309l-68 -391
q-3 -16 -5.5 -32t-3.5 -48.5t3.5 -56.5t19 -46.5t39.5 -29.5q31 -7 103.5 4t107.5 26l-4 -217q-113 -45 -192 -45q-177 0 -253.5 113.5t-39.5 320.5l69 402h-571z" />
    <glyph glyph-name="w_w_w" horiz-adv-x="4933" 
d="M659 0h-274l-188 1024h239l127 -836l420 836h219l127 -836l422 836h242l125 -836l422 836h219l127 -836l422 836h237l127 -836l422 836h219l125 -836l422 836h240l-551 -1024h-273l-121 748l-385 -748h-274l-129 694l-371 -694h-276l-119 748l-385 -748h-274l-130 696
l-372 -696h-277l-119 748z" />
    <glyph glyph-name="u1F310.alt" horiz-adv-x="2084" 
d="M1292 1389q123 0 250 -26.5t246.5 -83.5t207 -137.5t130 -198.5t18.5 -255q-20 -116 -82.5 -218t-151 -177t-196.5 -135t-224 -97t-228.5 -56t-214.5 -19q-87 0 -178 13.5t-181 42t-171 69.5t-148.5 100t-112.5 128.5t-62.5 159t-0.5 189.5q24 137 108 254.5t200 198
t255.5 138t276 84t259.5 26.5zM1268 1348q-129 -2 -258 -179h227zM1305 1348l-33 -179h227q-72 177 -194 179zM1145 1339q-89 -13 -188.5 -60t-176.5 -110h191q72 110 174 170zM1540 1169h189q-57 63 -139 110t-165 60q72 -55 115 -170zM942 1303q-178 -47 -317 -134h108
q99 86 209 134zM1884 1169q-111 87 -270 134q94 -49 160 -134h110zM2071 936q-49 119 -152 205h-123q67 -88 92 -205h183zM700 1141h-125q-130 -87 -217 -205h181q65 115 161 205zM745 1141q-100 -87 -170 -205h273q39 103 102 205h-205zM1546 1141q32 -91 35 -205h270
q-27 113 -100 205h-205zM1231 936h313q-6 110 -35 205h-243zM1231 1141h-244q-64 -98 -104 -205h313zM1190 907h-320q-34 -91 -57 -205h340zM1190 702h338q16 109 16 205h-319zM836 907h-277q-53 -100 -74 -205h295q18 101 56 205zM1563 702h295q17 97 -3 205h-274
q0 -103 -18 -205zM2095 702q15 108 -16 205h-185q16 -103 -2 -205h203zM336 907q-64 -99 -88 -205h201q22 108 73 205h-186zM1149 672h-340q-16 -109 -16 -205h319zM1149 467h317q38 104 56 205h-338zM774 672h-295q-15 -107 2 -205h277q0 96 16 205zM1503 467h277
q52 102 73 205h-294q-18 -101 -56 -205zM244 672q-15 -103 16 -205h184q-15 101 0 205h-200zM2003 467q66 107 86 205h-201q-17 -101 -71 -205h186zM1108 438h-313q3 -110 32 -205h244zM1106 233h244q58 89 106 205h-313zM487 438q27 -115 99 -205h205q-28 103 -31 205h-273
zM416 233h125q-67 95 -90 205h-181q44 -113 146 -205zM1591 233q104 90 172 205h-270q-43 -111 -107 -205h205zM1636 233h123q130 83 223 205h-182q-63 -112 -164 -205zM1034 27l33 178h-227q66 -173 194 -178zM1069 27q127 5 260 178h-227zM801 205h-191q56 -63 137.5 -110
t165.5 -60q-79 61 -112 170zM1194 35q89 13 187.5 60t177.5 110h-189q-82 -115 -176 -170zM455 205q111 -87 270 -133q-97 54 -162 133h-108zM1397 72q176 47 317 133h-110q-82 -74 -207 -133z" />
    <glyph glyph-name="H_E" horiz-adv-x="2095" 
d="M539 858h696l102 576h908l-39 -228h-670l-61 -348h626l-41 -225h-626l-72 -406h670l-39 -227h-910l113 633h-698l-111 -633h-240l252 1434h242z" />
    <glyph glyph-name="A_V" horiz-adv-x="2000" 
d="M1960 1434h276l-772 -1434h-358l-51 315h-609l-165 -315h-269l783 1434h305l235 -1211zM913 1237l-362 -696h477z" />
    <glyph glyph-name="T_h" horiz-adv-x="2467" 
d="M1604 1206h-635l-213 -1206h-240l213 1206h-498l41 228h1594l-111 -627q78 113 193 180.5t237 67.5q160 0 232.5 -111t38.5 -307l-113 -637h-221l102 590q25 131 -15.5 199.5t-140.5 68.5q-128 0 -234 -100t-132 -246l-90 -512h-221z" />
    <glyph glyph-name="g_i" horiz-adv-x="1882" 
d="M1866 1343l-21 -114q-14 0 -72 0.5t-108 0.5t-127 -0.5t-142 -4t-139 -9t-132 -15.5t-108 -23.5t-79 -34t-33 -45.5q-4 -29 25 -68q237 -74 188 -352q-32 -184 -158 -268t-364 -84q-114 0 -197 18q-70 -30 -80 -84q-3 -19 2 -32t21.5 -22t26.5 -12.5t37 -11.5
q65 -20 208 -56t215 -56q119 -34 178 -101t37 -186q-11 -64 -42 -116t-70.5 -83.5t-87 -52.5t-89 -29t-79.5 -8h-522q-75 0 -119.5 58t-26.5 153q10 57 45.5 105.5t85.5 81.5t93.5 53t89.5 35q-26 7 -45.5 12.5t-42 13.5t-36.5 16t-31 19.5t-24.5 24.5t-16 30.5t-7 37
t3.5 44.5q24 147 199 195q-159 75 -119 299q34 190 166.5 286.5t357.5 96.5q55 0 102 -6q-28 64 -14 149q9 53 49.5 95.5t105 70t139 46.5t165 28.5t170 13.5t166.5 4q153 0 211 -24t45 -89zM1755 0h-504l41 227h142l100 578h-125l39 219h260q87 3 66 -133l-119 -664h139z
M694 862q-115 0 -183 -48.5t-85 -139.5q-15 -93 36 -134.5t165 -41.5q239 0 270 178q15 90 -34 138t-169 48zM403 -39q-55 -23 -100.5 -64t-54.5 -98q-7 -49 17 -81.5t67 -32.5h334q52 0 99.5 28t55.5 76q7 40 -21.5 63.5t-99.5 43.5q-46 12 -89 21.5t-101 21t-107 22.5z
" />
    <glyph glyph-name="zero.alt" horiz-adv-x="1331" 
d="M659 -31q-270 0 -392.5 202t-61.5 546q62 344 255.5 545.5t463.5 201.5q271 0 394 -201t62 -546q-60 -345 -255 -546.5t-466 -201.5zM459 717q-53 -297 47 -428l487 921q-46 21 -110 21q-162 0 -272.5 -135t-151.5 -379zM1087 1135l-487 -916q46 -16 100 -16
q163 0 274 134.5t154 379.5q50 283 -41 418z" />
    <glyph glyph-name="e.ss01" horiz-adv-x="1073" 
d="M1018 96q-85 -59 -197 -93t-221 -34q-114 0 -207 40.5t-151.5 111.5t-81.5 172.5t-2 218.5q41 240 200 391.5t367 151.5q179 0 284 -125t85 -336l-705 -238q20 -91 94.5 -140.5t173.5 -49.5q79 0 172 29t175 79zM688 858q-118 0 -203 -109t-96 -268l477 160
q6 94 -41 155.5t-137 61.5z" />
    <glyph glyph-name="R.ss01" horiz-adv-x="1298" 
d="M1126 606h189q-36 -121 -62 -300t-20 -306h-272q-8 167 57 504h-543l-88 -504h-240l252 1434h533q266 0 385 -117t78 -346q-23 -131 -89 -217.5t-180 -147.5zM874 1206h-274l-84 -477h266q162 0 251 57t112 185q23 123 -44 179t-227 56z" />
    <glyph glyph-name="n.ss01" horiz-adv-x="1230" 
d="M866 829q-159 -14 -397 -178l-115 -651h-223l180 1024h150l22 -219q78 58 137 97t131 77t143.5 57t143.5 19q36 0 63.5 -5.5t52.5 -18t41 -35.5t25.5 -56t8.5 -81t-12 -109l-132 -750h-223l113 635q22 119 -6.5 160t-102.5 34z" />
    <glyph glyph-name="y.ss02" horiz-adv-x="1243" 
d="M633 -371q-3 -6 -44.5 -38t-116 -67.5t-138.5 -35.5q-63 0 -125 18.5t-86 55.5q3 16 18.5 100.5t18.5 99.5q44 -39 115 -65t149 -23l201 326h-66l-209 1024h240l145 -836l441 836h239z" />
    <glyph glyph-name="a.ss03" horiz-adv-x="1157" 
d="M1126 33q-40 -37 -108.5 -52.5t-120.5 -11.5q-41 1 -71.5 17.5t-45 39t-22.5 47t-9.5 40t-0.5 20.5l32 189q-85 -158 -207.5 -255.5t-244.5 -97.5q-47 0 -88.5 15.5t-74.5 45.5t-46.5 82t-1.5 119q39 223 352 357l-193 149l-12 203q58 46 171 79.5t229 33.5q26 0 96 -9
q163 -27 243.5 -148.5t40.5 -348.5l-61 -344q11 -17 41 -17q32 0 73.5 16.5t65.5 30.5q-3 -16 -18.5 -100t-18.5 -100zM817 698q-22 152 -190 152q-125 0 -244 -76l178 -145q91 38 256 69zM340 283q-11 -64 22 -101t89 -37q117 0 229.5 125t144.5 301q-18 -5 -60 -16.5
t-68.5 -19t-66 -21t-73.5 -27.5q-81 -32 -143.5 -85t-73.5 -119z" />
    <glyph glyph-name="n.ss02" horiz-adv-x="1228" 
d="M793 860q-128 0 -234.5 -101t-132.5 -247l-90 -512h-221l180 1024h221l-37 -217q78 113 193 180.5t237 67.5q143 0 206 -98.5t71 -303.5l16 -653h-227l-14 565q-2 58 -7 100t-16 81t-29 62.5t-47 37.5t-69 14z" />
    <glyph glyph-name="g_t" horiz-adv-x="1918" 
d="M596 326q-114 0 -197 18q-70 -30 -80 -84q-3 -19 2 -32t21.5 -22t26.5 -12.5t37 -11.5q65 -20 208 -56t215 -56q119 -34 178 -101t37 -186q-11 -64 -42 -116t-70.5 -83.5t-87 -52.5t-89 -29t-79.5 -8h-522q-75 0 -119.5 58t-26.5 153q10 57 45.5 105.5t85.5 81.5t93.5 53
t89.5 35q-26 7 -45.5 12.5t-42 13.5t-36.5 16t-31 19.5t-24.5 24.5t-16 30.5t-7 37t3.5 44.5q24 147 199 195q-159 75 -119 299q34 190 166.5 286.5t357.5 96.5q59 0 109 -6q-34 73 -21 151q7 40 29.5 72t61.5 55.5t86.5 41.5t116 29.5t136.5 19t161.5 11t178.5 4.5t199 1
l-17 -99h2l-55 -311h309l-38 -219h-308l-69 -391q-4 -22 -6.5 -45t-2.5 -62.5t15 -68.5t45 -37q32 -7 105 4t110 26l-4 -217q-117 -45 -197 -45q-174 0 -251 114t-40 320l72 402h-154l21 117l201 104l61 184q-90 5 -205 2.5t-217 -10t-175 -28.5t-79 -54q-9 -54 29 -92
q232 -74 182 -350q-32 -184 -158 -268t-364 -84zM694 862q-115 0 -183 -48.5t-85 -139.5q-15 -93 36 -134.5t165 -41.5q239 0 270 178q15 90 -34 138t-169 48zM403 -39q-55 -23 -100.5 -64t-54.5 -98q-7 -49 17 -81.5t67 -32.5h334q52 0 99.5 28t55.5 76q7 40 -21.5 63.5
t-99.5 43.5q-46 12 -89 21.5t-101 21t-107 22.5z" />
    <glyph glyph-name="F.ss02" horiz-adv-x="1153" 
d="M242 1135q9 52 40 103.5t81 96t126 72t164 27.5h688l-38 -228h-660q-98 0 -161.5 -50t-75.5 -116q-9 -50 16.5 -93.5t68.5 -70.5t95.5 -46.5t93 -28.5t65.5 -10h437l-41 -228h-604l-101 -563h-239l139 791h135q-115 55 -182 143.5t-47 200.5z" />
    <glyph glyph-name="grave.case" horiz-adv-x="851" 
d="M801 1585h-117l-61 361h145z" />
    <glyph glyph-name="dieresis.case" horiz-adv-x="778" 
d="M750 1726q9 54 46 86.5t87 32.5t74.5 -32.5t15.5 -86.5t-45.5 -86t-87.5 -32q-50 0 -74.5 32t-15.5 86zM412 1726q9 54 46 86.5t87 32.5t75 -32.5t15 -86.5q-9 -54 -45.5 -86t-87.5 -32q-50 0 -74.5 32t-15.5 86z" />
    <glyph glyph-name="macron.case" horiz-adv-x="753" 
d="M965 1843l-35 -196h-529l35 196h529z" />
    <glyph glyph-name="acute.case" horiz-adv-x="851" 
d="M727 1589h-117l162 357h141z" />
    <glyph glyph-name="circumflex.case" horiz-adv-x="737" 
d="M375 1569l239 379h193l106 -379h-143l-76 284l-176 -284h-143z" />
    <glyph glyph-name="caron.case" horiz-adv-x="737" 
d="M555 1569l-145 377h137l112 -291l209 291h144l-279 -377h-178z" />
    <glyph glyph-name="breve.case" horiz-adv-x="749" 
d="M645 1532q-140 0 -195.5 111t5.5 272h127q-27 -86 0 -137.5t98 -51.5q69 0 114.5 51.5t49.5 137.5h125q6 -161 -88.5 -272t-235.5 -111z" />
    <glyph glyph-name="dotaccent.case" horiz-adv-x="917" 
d="M629 1722q10 63 54 101.5t103 38.5q60 0 90.5 -38.5t20.5 -101.5q-12 -63 -56 -101t-104 -38t-90 38t-18 101z" />
    <glyph glyph-name="ring.case" horiz-adv-x="815" 
d="M690 1618q-106 0 -161.5 67.5t-36.5 174.5t98 174t186 67q109 0 165.5 -67t37.5 -174t-99.5 -174.5t-189.5 -67.5zM614 1860q-9 -57 17.5 -91t81.5 -34t93.5 34t49.5 91q9 57 -17 91t-81 34t-94 -34t-50 -91z" />
    <glyph glyph-name="tilde.case" horiz-adv-x="722" 
d="M387 1712q33 59 77.5 91t90.5 32q32 0 70.5 -22t80 -44t80.5 -22q61 0 134 63l14 -122q-28 -47 -76.5 -74t-95.5 -27q-38 0 -111 40t-121 40q-58 0 -129 -68z" />
    <glyph glyph-name="hungarumlaut.case" horiz-adv-x="729" 
d="M705 1556l167 390h226l-213 -390h-180zM506 1556h-180l168 390h225z" />
    <glyph glyph-name="c_t" horiz-adv-x="1779" 
d="M772 1055h25q-39 66 -25 143q16 91 97 163.5t184 72.5h594l-72 -410h309l-37 -219h-309l-70 -391l-2 -13q-1 -13 -2 -20.5t-2.5 -23.5t-1.5 -27t1 -27.5t3.5 -28.5t7 -25t11.5 -22t16.5 -16t22.5 -10q30 -7 103 4t110 26l-6 -217q-113 -45 -193 -45q-177 0 -253.5 113.5
t-39.5 320.5l72 402h-154l21 117l198 104l76 236h-371q-59 0 -100 -32t-49 -79q-13 -86 106 -174q33 -22 54 -43l-78 -180q-123 104 -260 104q-140 0 -242.5 -95.5t-130.5 -250.5q-26 -156 42.5 -251t207.5 -95t297 104l16 -180q-173 -121 -368 -121q-230 0 -347.5 151.5
t-76.5 391.5q43 241 214.5 392t401.5 151z" />
    <glyph glyph-name="at.alt" horiz-adv-x="2467" 
d="M2028 -51q-141 -103 -372 -162t-468 -59q-296 0 -522 63t-366 179.5t-196.5 283.5t-19.5 373q49 277 237 483.5t494 319t692 112.5q275 0 490 -60.5t348.5 -169.5t189.5 -263t23 -338q-31 -175 -127 -307t-227 -198.5t-275 -64.5q-170 2 -244.5 102.5t-42.5 286.5l62 340
h-258l-51 -286q-10 -57 -15 -92t-7 -71.5t3 -56t16 -36t31 -22t50 -3.5l-29 -164q-132 -9 -189 51t-65 189q-72 -123 -188 -195.5t-240 -72.5q-114 0 -197.5 60t-119.5 172t-11 253q38 213 180.5 349t317.5 136q113 0 198 -61t119 -164l31 180l477 2l94 291h125l-49 -270
h289l-35 -189h-287l-59 -340q-5 -27 -7 -55t-2 -79.5t18.5 -91.5t53.5 -56q40 -12 84 -12q101 0 202.5 55.5t183 167.5t106.5 256q38 219 -74 390t-349.5 265t-559.5 94q-256 0 -485 -62t-403 -172.5t-289 -268t-148 -343.5q-32 -180 24 -329.5t188.5 -255t343 -163.5
t478.5 -58q221 0 434.5 49.5t350.5 148.5zM629 596q-25 -136 39.5 -225.5t187.5 -89.5q125 0 224 90.5t122 224.5q23 136 -43.5 226.5t-191.5 90.5q-123 0 -218 -89.5t-120 -227.5z" />
    <glyph glyph-name="E.ss01" horiz-adv-x="1325" 
d="M743 1206h-383l39 228h1076l-39 -228h-453l-147 -348h495l-41 -225h-553l-172 -406h697l-39 -227h-1076l39 227h142l170 406h-240l41 225h299z" />
    <glyph glyph-name="T.ss01" horiz-adv-x="1302" 
d="M1409 713h-496l-127 -713h-239l127 713h-498l41 227h496l47 266h-496l39 228h1233l-39 -228h-496l-49 -266h496z" />
    <glyph glyph-name="t.ss01" horiz-adv-x="794" 
d="M551 805l-68 -391q-2 -12 -4 -25t-4.5 -38t0 -46.5t7.5 -43.5t19 -38t34 -22q31 -7 105 4t110 26l-7 -217q-113 -45 -194 -45q-175 0 -251.5 113.5t-39.5 320.5l72 402h-154l14 88q61 20 97.5 36t71.5 40.5t54 51.5t37 73t28.5 101.5t21.5 139.5h145q-3 -72 -20.5 -160
t-40.5 -151h315l-39 -219h-309z" />
    <glyph glyph-name="a.ss04" horiz-adv-x="1153" 
d="M979 203q11 -17 41 -17q32 0 73.5 16.5t65.5 30.5q-3 -16 -18.5 -100t-18.5 -100q-40 -37 -108.5 -52.5t-122.5 -11.5q-41 1 -71 17.5t-44.5 39t-22.5 47t-9.5 40t-0.5 20.5l33 184q-87 -156 -209.5 -252t-244.5 -96q-47 0 -88.5 15t-74 45t-46.5 81.5t-2 116.5
q13 70 49 129t90.5 103t110 75.5t124.5 59.5q117 47 342 111q-16 131 -133 149q-77 12 -167 -23t-160 -122l-172 8l55 307h139l-10 -145q163 182 385 165q159 -13 237.5 -139.5t38.5 -357.5zM819 559l2 8q0 4 2 6q-19 -5 -77.5 -20.5t-98.5 -27.5t-76 -27
q-216 -90 -237 -222q-10 -60 23 -95.5t87 -35.5q117 0 229 119t146 295z" />
    <glyph glyph-name="C_o" horiz-adv-x="1271" 
d="M797 -31q-159 0 -285.5 54.5t-204 153t-109 236t0.5 304.5q38 219 161 389.5t306 264t395 93.5q225 0 407 -106l-102 -221q-163 94 -348 94q-136 0 -260.5 -66t-212 -184t-113.5 -264q-24 -143 22.5 -261.5t148.5 -185.5t235 -67q182 0 381 94l24 -221
q-225 -107 -446 -107zM924 406q-148 0 -224 84.5t-51 220.5q25 138 129 221.5t252 83.5q147 0 223.5 -84t51.5 -221q-26 -137 -131 -221t-250 -84z" />
    <glyph glyph-name="C_A" horiz-adv-x="2406" 
d="M1520 504q-173 -297 -339.5 -416t-385.5 -119q-216 0 -365.5 96t-209.5 266t-21 386q38 219 159 389.5t300 264t386 93.5q222 0 404 -106l-105 -221q-159 94 -339 94q-204 0 -358 -141.5t-195 -372.5q-21 -113 0 -207.5t72 -162.5t133 -106t184 -38q147 0 266.5 88.5
t236.5 292.5l490 850h285l276 -1434h-268l-53 315h-488l86 226h375l-115 696z" />
    <glyph glyph-name="G.ss01" horiz-adv-x="1304" 
d="M1360 799l4 -811q-72 0 -349 1t-349 1q-117 0 -215 50.5t-164 144.5t-91 229t5 303q39 222 156.5 390.5t295 259.5t389.5 91q220 0 406 -110l-102 -222q-168 99 -332 99q-219 0 -369.5 -135.5t-193.5 -372.5q-21 -124 -3.5 -219.5t65.5 -160.5t118.5 -99t156.5 -35h377
l-6 403h-495l34 193h662z" />
    <glyph glyph-name="r.ss01" horiz-adv-x="903" 
d="M1036 1036l-37 -211q-40 24 -108 17q-117 -8 -213.5 -122t-126.5 -286l-37 -207h156l-39 -227h-504l39 227h125l102 580h-125l37 217h350l-37 -205q68 113 154 174.5t178 61.5q38 0 86 -19z" />
    <glyph glyph-name="L_A" horiz-adv-x="2449" 
d="M2118 315h-611l-164 -315h-1196l252 1434h242l-215 -1207h770l659 1207h308l274 -1434h-268zM1976 1237l-362 -696h477z" />
    <glyph glyph-name="g_h" horiz-adv-x="2357" 
d="M596 326q-114 0 -197 18q-70 -30 -80 -84q-3 -19 2 -32t21.5 -22t26.5 -12.5t37 -11.5q65 -20 208 -56t215 -56q119 -34 178 -101t37 -186q-11 -64 -42 -116t-70.5 -83.5t-87 -52.5t-89 -29t-79.5 -8h-522q-75 0 -119.5 58t-26.5 153q10 57 45.5 105.5t85.5 81.5t93.5 53
t89.5 35q-26 7 -45.5 12.5t-42 13.5t-36.5 16t-31 19.5t-24.5 24.5t-16 30.5t-7 37t3.5 44.5q24 147 199 195q-159 75 -119 299q34 190 166.5 286.5t357.5 96.5q61 0 113 -6q-38 78 -23 159q26 151 211 226t518 71h221l-122 -698q80 113 194 180.5t236 67.5
q160 0 232.5 -111t35.5 -307l-111 -637h-223l105 590q47 268 -156 268q-129 0 -235 -100t-132 -246l-90 -512h-221l225 1280q-87 3 -180 -3t-187 -23t-158 -54t-73 -88q-6 -43 31 -86q229 -73 180 -348q-32 -184 -158 -268t-364 -84zM694 862q-115 0 -183 -48.5t-85 -139.5
q-15 -93 36 -134.5t165 -41.5q239 0 270 178q15 90 -34 138t-169 48zM403 -39q-55 -23 -100.5 -64t-54.5 -98q-7 -49 17 -81.5t67 -32.5h334q52 0 99.5 28t55.5 76q7 40 -21.5 63.5t-99.5 43.5q-46 12 -89 21.5t-101 21t-107 22.5z" />
    <glyph glyph-name="t_h" horiz-adv-x="2029" 
d="M442 1194q104 311 480 311h520l-125 -698q79 111 193.5 179.5t236.5 68.5q72 0 126.5 -22.5t86 -61.5t50 -92t18 -114.5t-10.5 -127.5l-112 -637h-222l97 545q7 41 10 74t3 71t-9.5 66t-27 52.5t-49.5 37t-77 12.5q-78 0 -144.5 -34.5t-111.5 -92.5t-74.5 -125
t-42.5 -139l-81 -467h-224l242 1374q-36 0 -95.5 1t-104 1t-81.5 -2q-40 -2 -71.5 -7t-67.5 -17.5t-62.5 -32t-49.5 -53.5t-35 -80l-37 -158l309 -2l-39 -219h-309l-84 -471q-4 -137 100 -137q43 0 97.5 10.5t85.5 23.5l-7 -217q-113 -45 -194 -45t-139.5 22.5t-90.5 62.5
t-48.5 96t-15.5 122.5t9 141.5q10 82 66 391h-154l21 117l198 104z" />
    <glyph glyph-name="t_i" horiz-adv-x="1445" 
d="M1188 1384q12 68 58 112t108 44q63 0 93 -43.5t19 -112.5q-12 -69 -57.5 -112t-108.5 -43q-64 0 -93.5 42.5t-18.5 112.5zM502 805l-68 -391q-3 -16 -5.5 -32.5t-3.5 -48.5t3.5 -56.5t19 -47t39.5 -28.5q29 -7 103 4t112 26l-8 -217q-113 -45 -192 -45
q-175 0 -251.5 113.5t-41.5 320.5l72 402h-154l20 117l199 104l107 309h143l-53 -311h757q85 3 64 -133l-119 -664h141l-38 -227h-504l39 227h141l102 578h-624z" />
    </font>
</defs>
</svg>
