<?xml version="1.0" standalone="no"?>
<!DOCTYPE svg PUBLIC "-//W3C//DTD SVG 1.1//EN" "http://www.w3.org/Graphics/SVG/1.1/DTD/svg11.dtd" >
<svg xmlns="http://www.w3.org/2000/svg" xmlns:xlink="http://www.w3.org/1999/xlink" version="1.1">
<metadata>
Created by FontForge 20170731 at Thu Oct 20 09:49:54 2022
 By Aleksey,,,
Copyright (c) 2011-2015, Omnibus-Type (www.omnibus-type.com omnibus.type@gmail.com)
</metadata>
<defs>
<font id="Asap-Italic" horiz-adv-x="1140" >
  <font-face 
    font-family="Asap"
    font-weight="400"
    font-style="italic"
    font-stretch="normal"
    units-per-em="2048"
    panose-1="2 15 5 4 3 1 2 13 2 3"
    ascent="1638"
    descent="-410"
    x-height="1071"
    cap-height="1438"
    bbox="-676 -485 2656 2064.92"
    underline-thickness="102"
    underline-position="-307"
    slope="-6"
    unicode-range="U+000D-FB02"
  />
<missing-glyph horiz-adv-x="1054" 
d="M-41 0l152 1434h1024l-152 -1434h-1024zM557 809l401 522h-696zM190 1239l-110 -1044l405 522zM608 717l291 -522l111 1044zM133 102h696l-294 523z" />
    <glyph glyph-name="uniFB01" unicode="fi" horiz-adv-x="1153" 
d="M565 1548q146 0 146 -63q0 -21 -18.5 -60t-35.5 -39q-2 0 -12.5 4t-31.5 7.5t-48 3.5q-54 0 -84.5 -29.5t-38.5 -114.5l-18 -186h178q19 0 26 -8.5t7 -30.5q0 -11 -5.5 -32.5t-28.5 -48.5t-58 -27h-135l-93 -883q-6 -45 -86 -45h-8q-42 0 -60 10.5t-18 34.5l93 883h-82
q-20 0 -27.5 14t-7.5 41q0 92 51 92h82l20 207q26 270 293 270zM975 1540q43 0 60.5 -10t17.5 -35l-13 -121q0 -45 -77 -45h-25q-44 0 -65 9.5t-21 35.5l12 121q5 45 86 45h25zM918 1075q42 0 59.5 -10.5t17.5 -34.5q-82 -750 -82 -811q0 -30 6 -48.5t18.5 -25.5t21.5 -8.5
t26 -1.5q14 0 32.5 5t22.5 5q13 0 13 -14q0 -25 -9 -76q-7 -34 -46 -50.5t-76 -16.5q-183 0 -183 194q0 38 20 249.5t41 405t23 193.5q5 45 86 45h9z" />
    <glyph glyph-name="uniFB02" unicode="fl" horiz-adv-x="1210" 
d="M565 1548q146 0 146 -63q0 -21 -18.5 -60t-35.5 -39q-2 0 -12.5 4t-31.5 7.5t-48 3.5q-54 0 -84.5 -29.5t-38.5 -114.5l-18 -186h178q19 0 26 -8.5t7 -30.5q0 -11 -5.5 -32.5t-28.5 -48.5t-58 -27h-135l-93 -883q-6 -45 -86 -45h-8q-42 0 -60 10.5t-18 34.5l93 883h-82
q-20 0 -27.5 14t-7.5 41q0 92 51 92h82l20 207q26 270 293 270zM1004 1540q42 0 59.5 -10.5t17.5 -34.5q-131 -1215 -131 -1276q0 -30 6 -48.5t19 -25.5t22.5 -8.5t26.5 -1.5q14 0 32.5 5t22.5 5q13 0 13 -14q0 -25 -9 -76q-7 -34 -46 -50.5t-76 -16.5q-185 0 -185 200
q0 41 33 366t67 633l33 308q5 45 86 45h9z" />
    <glyph glyph-name="f_f" unicode="ff" horiz-adv-x="1331" 
d="M569 1548q146 0 146 -63q0 -21 -18 -60t-35 -39q-2 0 -13 4t-32 7.5t-48 3.5q-54 0 -84.5 -29.5t-38.5 -114.5l-18 -186h178q19 0 26 -8.5t7 -30.5q0 -11 -5.5 -32.5t-28.5 -48.5t-58 -27h-135l-93 -883q-6 -45 -86 -45h-8q-42 0 -60 10.5t-18 34.5l93 883h-82
q-20 0 -27.5 14t-7.5 41q0 92 51 92h82l20 207q26 270 293 270zM1235 1548q145 0 145 -63q0 -21 -18 -60t-35 -39q-2 0 -12.5 4t-31.5 7.5t-48 3.5q-54 0 -84.5 -29.5t-38.5 -114.5l-18 -186h178q19 0 26 -8.5t7 -30.5q0 -6 -4 -21t-13 -36t-29 -36t-47 -15h-135l-92 -883
q-6 -45 -86 -45h-8q-42 0 -60 10.5t-18 34.5l92 883h-82q-20 0 -27.5 14t-7.5 41q0 92 52 92h82l20 207q26 270 293 270z" />
    <glyph glyph-name=".notdef" horiz-adv-x="1054" 
d="M-41 0l152 1434h1024l-152 -1434h-1024zM557 809l401 522h-696zM190 1239l-110 -1044l405 522zM608 717l291 -522l111 1044zM133 102h696l-294 523z" />
    <glyph glyph-name=".null" horiz-adv-x="0" 
 />
    <glyph glyph-name="nonmarkingreturn" horiz-adv-x="682" 
 />
    <glyph glyph-name="CR" unicode="&#xd;" horiz-adv-x="491" 
 />
    <glyph glyph-name="space" unicode=" " horiz-adv-x="491" 
 />
    <glyph glyph-name="exclam" unicode="!" horiz-adv-x="602" 
d="M426 1438q42 0 59 -11t17 -34q0 -12 -26 -169.5t-68 -406t-60 -358.5q-6 -45 -67 -45h-23q-32 0 -44.5 11t-12.5 34l98 934q6 45 86 45h41zM268 221q78 0 78 -45l-14 -135q-6 -45 -86 -45h-35q-44 0 -61 11t-17 34l14 135q3 45 86 45h35z" />
    <glyph glyph-name="quotedbl" unicode="&#x22;" horiz-adv-x="653" 
d="M229 1438q76 0 76 -45q0 -4 -15 -72t-39 -175.5t-34 -154.5q-6 -24 -49 -24h-2q-43 0 -43 24v402q0 45 86 45h20zM492 1438q75 0 75 -45q0 -4 -15 -72t-39 -175.5t-34 -154.5q-6 -24 -49 -24h-2q-43 0 -43 24v402q0 45 86 45h21z" />
    <glyph glyph-name="numbersign" unicode="#" horiz-adv-x="1093" 
d="M965 1405q53 0 53 -31q0 -7 -3 -20t-11 -41.5t-18.5 -62t-29 -98.5t-38.5 -134h141q22 0 28.5 -14t6.5 -48q0 -96 -52 -96h-172l-84 -301h156q22 0 28.5 -13.5t6.5 -47.5q0 -97 -51 -97h-189l-100 -360q-8 -24 -26.5 -34.5t-67.5 -10.5h-8q-54 0 -54 35q0 6 2 15t9.5 34
t18 59t31 105t44.5 157h-242l-102 -360q-7 -24 -25.5 -34.5t-69.5 -10.5h-8q-30 0 -41.5 8.5t-11.5 26.5q0 6 2 14.5t9.5 34t17.5 59t30.5 105t44.5 157.5h-155q-22 0 -28.5 13.5t-6.5 48.5q0 54 13.5 75t37.5 21h187l86 301h-168q-22 0 -28.5 13.5t-6.5 48.5q0 54 13.5 75
t37.5 21h195l98 342q7 25 24.5 35t71.5 10h8q54 0 54 -31q-1 -11 -9.5 -39.5t-36.5 -119t-59 -197.5h244l96 342q7 25 24.5 35t71.5 10h11zM719 860h-242l-86 -301h242z" />
    <glyph glyph-name="dollar" unicode="$" horiz-adv-x="1015" 
d="M610 1546q33 0 33 -41q0 -3 -1 -12.5t-2.5 -24.5t-2.5 -22q61 -1 131 -16t124 -44t54 -63q0 -20 -31.5 -65.5t-46.5 -45.5q-10 0 -40 18.5t-84.5 38t-122.5 21.5l-52 -465q44 -17 72 -28.5t68.5 -32.5t66.5 -40t55.5 -48.5t46.5 -61.5t28.5 -75t11.5 -93
q0 -195 -120 -315.5t-317 -138.5l-8 -90q-3 -41 -45 -41h-2q-21 0 -28 9t-7 32q0 2 1.5 17t3.5 36t3 33q-46 2 -96.5 9t-106 20.5t-91 39t-35.5 58.5q0 133 32 133q4 0 30 -16t60 -35t95.5 -36t128.5 -18l55 521q-141 58 -197 95q-139 99 -141 261q0 173 114.5 287.5
t305.5 134.5l8 63q3 23 12 32t33 9h4zM537 1284q-98 -18 -159 -80t-61 -164q0 -65 44.5 -105.5t130.5 -78.5zM549 631l-51 -481q103 19 168 91t65 177q0 77 -47 124.5t-135 88.5z" />
    <glyph glyph-name="percent" unicode="%" horiz-adv-x="1566" 
d="M479 1446q48 0 89 -12t79 -39.5t60 -83.5t22 -135q0 -80 -18 -149.5t-55 -125.5t-100 -88.5t-146 -32.5q-49 0 -89.5 11.5t-78.5 38.5t-60 81.5t-22 132.5q0 95 20.5 168.5t52 116.5t75.5 70.5t85 37t86 9.5zM1282 1438q27 0 27 -19q0 -8 -9 -20l-899 -1364
q-25 -39 -63 -39h-51q-27 0 -27 16q0 12 8 23l899 1364q25 39 64 39h51zM467 1335q-172 0 -172 -293q0 -149 125 -149q51 0 87.5 26t55.5 70.5t27 90.5t8 98q0 157 -131 157zM1155 653q48 0 89 -12t79 -39.5t60 -83.5t22 -135q0 -80 -18.5 -149.5t-55.5 -125.5t-100 -88
t-146 -32q-38 0 -71 6.5t-67 24.5t-57.5 46.5t-38.5 76t-15 110.5q0 95 20.5 168.5t52 116.5t75.5 70t85 36.5t86 9.5zM1143 543q-172 0 -172 -293q0 -150 125 -150q51 0 87.5 26t55.5 70.5t27 90.5t8 98q0 158 -131 158z" />
    <glyph glyph-name="ampersand" unicode="&#x26;" horiz-adv-x="1277" 
d="M639 1446q162 0 162 -55q0 -25 -20 -65t-36 -40q-2 0 -38 6t-80 6q-67 0 -118.5 -18.5t-79.5 -45t-45.5 -61t-22.5 -61t-5 -51.5q0 -40 14 -78t42.5 -72t79 -54.5t116.5 -20.5h240l24 215q5 45 84 45h9q42 0 59.5 -10.5t17.5 -34.5l-22 -215h174q19 0 26 -8.5t7 -30.5
q0 -6 -4 -21t-12.5 -36t-28.5 -36.5t-47 -15.5h-131q-43 -395 -43 -436q0 -117 98 -117q38 0 64.5 7.5t27.5 7.5q14 0 14 -19q0 -56 -6 -74q-9 -31 -46.5 -50t-96.5 -19q-142 0 -197 86q-151 -86 -338 -86q-75 0 -145.5 20.5t-132.5 62t-99.5 116t-37.5 171.5q0 90 27.5 168
t72.5 131t96.5 87.5t104.5 48.5l2 8q-81 33 -132 101.5t-51 162.5q0 93 36 167t99 120t144 70t174 24zM831 688h-247q-338 0 -338 -311q0 -68 25 -117.5t66.5 -75.5t85.5 -37.5t91 -11.5q139 0 272 76q0 28 11 147t23 224z" />
    <glyph glyph-name="quotesingle" unicode="'" horiz-adv-x="374" 
d="M229 1438q76 0 76 -45q0 -4 -15 -72t-39 -175.5t-34 -154.5q-6 -24 -49 -24h-2q-43 0 -43 24v402q0 45 86 45h20z" />
    <glyph glyph-name="parenleft" unicode="(" horiz-adv-x="616" 
d="M639 1604q19 0 37 -14.5t18 -33.5q0 -24 -22 -49q-184 -193 -294 -489.5t-110 -624.5q0 -218 54 -406t153 -323q14 -17 14 -35q0 -17 -19 -40t-44 -23q-21 0 -43 22q-132 135 -206.5 347.5t-74.5 465.5q0 363 136 680.5t356 501.5q21 21 45 21z" />
    <glyph glyph-name="parenright" unicode=")" horiz-adv-x="616" 
d="M188 1606q20 0 43 -23q132 -135 206.5 -347.5t74.5 -465.5q0 -363 -136 -680t-356 -502q-20 -20 -43 -20q-22 0 -40.5 16t-18.5 35q0 14 19 33q198 207 303.5 514.5t105.5 609.5q0 218 -54.5 406t-152.5 325q-14 17 -14 35q0 17 19 40.5t44 23.5z" />
    <glyph glyph-name="asterisk" unicode="*" horiz-adv-x="763" 
d="M401 1452q21 0 29 -9.5t8 -31.5l-22 -215l209 66q6 2 18 2t22.5 -11.5t10.5 -31.5q0 -29 -33 -37l-209 -66l125 -203q8 -16 8 -22q0 -14 -17 -29.5t-32 -15.5q-20 0 -29 18l-127 207l-172 -207q-18 -18 -32 -18q-12 0 -26.5 12.5t-14.5 24.5q0 16 12 30l168 203l-195 66
q-24 9 -24 26q0 23 13 38.5t28 15.5q12 0 18 -2l197 -66l22 215q3 41 45 41z" />
    <glyph glyph-name="plus" unicode="+" horiz-adv-x="1146" 
d="M631 948q32 0 44.5 -9.5t12.5 -31.5l-39 -366h365q22 0 28.5 -14t6.5 -48q0 -76 -50 -76h-364l-39 -366q-6 -41 -66 -41h-14q-33 0 -45 9.5t-12 31.5l39 366h-367q-22 0 -28.5 14t-6.5 48q0 76 49 76h367l39 366q2 22 15.5 31.5t49.5 9.5h15z" />
    <glyph glyph-name="comma" unicode="," horiz-adv-x="405" 
d="M236 221q75 0 75 -57q-9 -87 -40 -165.5t-70 -128.5t-77 -79t-65 -29q-57 0 -57 29q0 11 16 37q51 77 75.5 151.5t35.5 176.5q7 65 88 65h19z" />
    <glyph glyph-name="hyphen" unicode="-" horiz-adv-x="655" 
d="M530 616q20 0 27.5 -14t7.5 -41q0 -92 -51 -92h-397q-20 0 -27.5 14t-7.5 41q0 92 51 92h397z" />
    <glyph glyph-name="period" unicode="." horiz-adv-x="405" 
d="M231 221q78 0 78 -45l-14 -135q-6 -45 -86 -45h-35q-78 0 -78 45l15 135q3 45 86 45h34z" />
    <glyph glyph-name="slash" unicode="/" horiz-adv-x="757" 
d="M811 1438q29 0 29 -21q0 -8 -6 -20l-811 -1518q-21 -41 -60 -41h-47q-29 0 -29 21q0 6 7 20l808 1518q23 41 60 41h49z" />
    <glyph glyph-name="zero" unicode="0" horiz-adv-x="1095" 
d="M621 1446q84 0 155.5 -34.5t127 -102t87 -179t31.5 -256.5q0 -180 -33 -330.5t-87.5 -251.5t-127 -171t-150 -101.5t-157.5 -31.5q-83 0 -154 33.5t-126 100.5t-86 177t-31 252q0 182 32.5 333.5t86.5 254t126 173t149 102.5t157 32zM604 1298q-49 0 -97 -23.5t-96 -80
t-84.5 -139.5t-59.5 -213t-23 -289q0 -215 67 -316.5t172 -101.5q48 0 96.5 23.5t97.5 79t86.5 137.5t61 210t23.5 285q0 218 -69.5 323t-174.5 105z" />
    <glyph glyph-name="one" unicode="1" horiz-adv-x="1095" 
d="M668 1438q25 0 42 -12t17 -31l-131 -1248h305q20 0 27.5 -14t7.5 -41q0 -92 -51 -92h-834q-20 0 -27.5 14t-7.5 41q0 92 52 92h356l117 1104l-369 -61q-33 0 -33 82q0 30 8.5 42.5t34.5 18.5z" />
    <glyph glyph-name="two" unicode="2" horiz-adv-x="1095" 
d="M596 1446q186 0 293.5 -84t107.5 -223q0 -109 -38 -195.5t-128 -185.5l-552 -611h589q20 0 27.5 -14t7.5 -41q0 -92 -51 -92h-766q-14 0 -27.5 38t-13.5 68q0 15 4 19l633 700q137 151 137 287q0 86 -62.5 136t-172.5 50q-64 0 -123 -16t-93 -36t-63 -36t-39 -16
q-15 0 -35 36.5t-20 61.5q0 41 70.5 78t159 56.5t155.5 19.5z" />
    <glyph glyph-name="three" unicode="3" horiz-adv-x="1095" 
d="M575 1446q174 0 275.5 -79t101.5 -232q0 -123 -67.5 -208.5t-173.5 -125.5l-2 -8q91 -26 156 -111.5t65 -214.5q0 -102 -33 -185.5t-85 -136.5t-119.5 -89.5t-134.5 -52t-132 -15.5q-32 0 -79 3.5t-112 13t-109 32t-44 53.5q0 121 31 121q1 0 41.5 -19t114.5 -38t157 -19
q43 0 84.5 9t86.5 32.5t78.5 59.5t55 95.5t21.5 135.5q0 121 -72.5 171t-208.5 50h-70q-20 0 -27 13.5t-7 41.5q0 91 51 91h59q65 0 118 21.5t86 53.5t56 72t32 75.5t9 65.5q0 32 -10 61t-33.5 56t-69.5 43t-110 16q-82 0 -149 -17t-104.5 -33.5t-47.5 -16.5q-17 0 -37 39
t-20 65q0 42 134.5 76.5t243.5 34.5z" />
    <glyph glyph-name="four" unicode="4" horiz-adv-x="1095" 
d="M891 1438q33 0 45 -11.5t12 -33.5l-94 -904h139q20 0 27.5 -14t7.5 -41q0 -92 -51 -92h-139l-31 -301q-6 -45 -66 -45h-47q-33 0 -45 10.5t-12 34.5l31 301h-623q-14 0 -25.5 30.5t-11.5 61.5q0 29 6 35l772 940q26 29 72 29h33zM743 1145l-528 -656h469l68 652z" />
    <glyph glyph-name="five" unicode="5" horiz-adv-x="1095" 
d="M918 1434q20 0 27 -14t7 -42q0 -92 -51 -92h-446l-72 -422h106q66 0 127 -11t121.5 -37.5t105 -67.5t72 -106.5t27.5 -147.5q0 -116 -34.5 -207t-88.5 -146t-127.5 -90.5t-144.5 -49t-146 -13.5q-47 0 -109 5.5t-134 30.5t-72 66q0 121 31 121q1 0 41 -19t110.5 -38
t147.5 -19q64 0 124.5 20.5t112 60.5t82.5 107t31 152q0 118 -87 180t-253 62h-174q-29 0 -41 10.5t-12 34.5q0 3 8 51q34 211 90 559q9 62 74 62h547z" />
    <glyph glyph-name="six" unicode="6" horiz-adv-x="1095" 
d="M846 1438q27 0 41 -36t14 -69q0 -18 -18 -26q-211 -83 -352.5 -224.5t-211.5 -320.5q123 67 283 67q153 0 251.5 -98.5t98.5 -261.5q0 -141 -67.5 -252t-178.5 -169t-243 -58q-192 0 -289.5 107t-97.5 306q0 119 27 233.5t73.5 206.5t106 176.5t125.5 148.5t132 116
t126 85t106.5 51t73.5 18zM537 682q-136 0 -265 -70q-24 -118 -24 -198q0 -65 14 -114.5t37 -79.5t55 -49.5t64.5 -26.5t70.5 -7q47 0 96 19t93 55t72 98.5t28 139.5q0 119 -68.5 176t-172.5 57z" />
    <glyph glyph-name="seven" unicode="7" horiz-adv-x="1095" 
d="M1036 1434q10 0 20.5 -31t10.5 -62q0 -19 -6 -34l-742 -1278q-20 -33 -83 -33h-25q-44 0 -64 6.5t-20 24.5q0 13 10 30l721 1229h-647q-20 0 -27.5 14t-7.5 41q0 93 51 93h809z" />
    <glyph glyph-name="eight" unicode="8" horiz-adv-x="1095" 
d="M627 1446q158 0 258 -80.5t100 -228.5q0 -136 -65.5 -224t-167.5 -133q48 -22 82 -46t65 -59.5t46.5 -86t15.5 -115.5q0 -121 -40.5 -216t-110 -152.5t-156.5 -87t-185 -29.5q-179 0 -290 92t-111 270q0 150 68 263t202 165q-139 89 -139 266q0 96 35 173.5t94.5 127
t136 75.5t162.5 26zM610 1298q-104 0 -171.5 -60t-67.5 -179q0 -40 13.5 -72t32.5 -53t54 -40.5t63 -30.5t74 -27q205 113 205 284q0 89 -56.5 133.5t-146.5 44.5zM469 717q-111 -61 -167 -143.5t-56 -202.5q0 -114 67 -175t172 -61q56 0 108.5 20t95.5 57.5t69 99t26 137.5
q0 37 -9 67t-29 53.5t-39 40t-53.5 33t-57 26t-64.5 25t-63 23.5z" />
    <glyph glyph-name="nine" unicode="9" horiz-adv-x="1095" 
d="M631 1446q192 0 289.5 -107t97.5 -307q0 -135 -35 -264t-93 -229.5t-131 -189.5t-149 -152t-147.5 -109t-127 -68t-87.5 -22q-27 0 -41 35.5t-14 68.5q0 19 18 27q211 83 351.5 224.5t211.5 320.5q-125 -68 -282 -68q-153 0 -252 99t-99 262q0 106 39.5 197t106.5 152
t156 95.5t188 34.5zM604 1298q-47 0 -96 -19t-93 -54.5t-72 -98t-28 -139.5q0 -119 69 -176t173 -57q136 0 264 69q25 123 25 199q0 80 -20.5 136.5t-57 85.5t-76.5 41.5t-88 12.5z" />
    <glyph glyph-name="colon" unicode=":" horiz-adv-x="405" 
d="M276 1075q78 0 78 -45l-14 -135q-6 -45 -86 -45h-35q-78 0 -78 45l15 135q3 45 86 45h34zM186 221q78 0 78 -45l-14 -135q-6 -45 -86 -45h-35q-78 0 -78 45l15 135q3 45 86 45h34z" />
    <glyph glyph-name="semicolon" unicode=";" horiz-adv-x="405" 
d="M289 1075q78 0 78 -45l-15 -135q-6 -45 -86 -45h-35q-43 0 -60 11t-17 34l14 135q3 45 86 45h35zM203 221q76 0 76 -57q-9 -87 -40 -165.5t-70 -128.5t-77 -79t-65 -29q-58 0 -58 29q0 10 17 37q50 77 74.5 151t35.5 177q7 65 88 65h19z" />
    <glyph glyph-name="less" unicode="&#x3c;" horiz-adv-x="1146" 
d="M1055 918q37 0 37 -54q0 -47 -15 -68.5t-45 -31.5l-760 -297l697 -299q41 -18 41 -72q0 -39 -14 -60.5t-38 -21.5q-16 0 -28 6l-805 357q-43 19 -43 63q0 53 16 78t45 37l879 356q21 7 33 7z" />
    <glyph glyph-name="equal" unicode="=" horiz-adv-x="1146" 
d="M1038 692q21 0 28 -11.5t7 -37.5q0 -88 -51 -88h-877q-34 0 -34 59q0 78 51 78h876zM1004 358q21 0 27.5 -11t6.5 -38q0 -88 -51 -88h-876q-35 0 -35 60q0 77 51 77h877z" />
    <glyph glyph-name="greater" unicode="&#x3e;" horiz-adv-x="1146" 
d="M184 915q17 0 29 -6l805 -356q43 -19 43 -64q0 -53 -16 -77t-46 -37l-878 -357q-18 -6 -33 -6q-37 0 -37 54q0 47 15 68.5t45 31.5l759 297l-696 299q-41 18 -41 72q0 39 13.5 60t37.5 21z" />
    <glyph glyph-name="question" unicode="?" horiz-adv-x="911" 
d="M526 1446q183 0 284 -87.5t101 -219.5q0 -62 -23 -120t-61 -105.5t-84.5 -92.5t-95 -88.5t-91 -86t-75.5 -92t-45 -99.5q-9 -41 -71 -41h-31q-58 0 -58 43q0 65 58.5 154.5t152.5 174.5q53 48 75.5 69t59.5 60.5t52 65t28 61t13 70.5q0 182 -238 182q-56 0 -114.5 -17
t-98 -34.5t-49.5 -17.5q-15 0 -34 37.5t-19 62.5q0 34 59 62.5t142 43.5t163 15zM348 221q78 0 78 -45l-14 -135q-6 -45 -88 -45h-35q-42 0 -59 11t-17 34l14 135q3 45 86 45h35z" />
    <glyph glyph-name="at" unicode="@" horiz-adv-x="1994" 
d="M1094 1444q309 0 495.5 -182.5t186.5 -483.5q0 -185 -54 -337t-153 -241t-223 -89q-92 0 -146 49t-57 121v14q-101 -184 -277 -184q-38 0 -76 9.5t-79 35.5t-71.5 66t-50.5 107.5t-20 153.5q0 244 118.5 397.5t313.5 153.5q132 0 228 -96q5 12 11 31t9.5 26.5t10 17
t16 12.5t24.5 3h13q45 0 45 -43q-68 -631 -68 -680q0 -24 7 -41.5t15.5 -26t22 -13t20.5 -5t17 -0.5q75 0 142.5 77t109 207t41.5 275q0 259 -157 417.5t-414 158.5q-168 0 -318.5 -68t-258.5 -183.5t-171 -276.5t-63 -341q0 -292 154 -472.5t403 -180.5q81 0 152.5 17
t112.5 34t48 17q8 0 8 -13q-2 -31 -6 -47q-11 -47 -105.5 -72.5t-209.5 -25.5q-196 0 -348 93t-236 262t-84 388q0 159 45.5 306t130 264.5t197.5 205.5t254.5 135.5t294.5 47.5zM1163 524q26 270 39 314q-83 69 -188 69q-85 0 -145 -34.5t-91.5 -95.5t-45 -130t-13.5 -153
q0 -258 180 -258q70 0 141.5 67t122.5 221z" />
    <glyph glyph-name="A" unicode="A" horiz-adv-x="1255" 
d="M731 1438q72 0 80 -33l344 -1348q2 -8 2 -20q0 -41 -90 -41h-16q-72 0 -80 33l-86 336h-602l-152 -336q-13 -33 -84 -33h-10q-84 0 -84 33q0 10 10 30l625 1346q13 33 84 33h59zM684 1249h-4q-21 -68 -43 -119l-281 -610h490l-150 610q-12 47 -12 119z" />
    <glyph glyph-name="B" unicode="B" horiz-adv-x="1214" 
d="M686 1434q208 0 319 -86.5t111 -233.5q0 -114 -80.5 -220t-185.5 -134l-2 -8q11 -3 28.5 -8.5t62 -29.5t79 -54.5t62.5 -87t28 -123.5q0 -114 -42.5 -201t-121 -140.5t-184.5 -80.5t-238 -27h-362q-29 0 -42.5 11.5t-13.5 37.5q0 2 10 102q48 457 128 1221q3 32 19 47
t48 15h377zM651 1278h-239l-47 -463h247q136 0 226 80.5t90 194.5q0 95 -68 141.5t-209 46.5zM623 659h-275l-53 -503h309q143 0 230.5 80.5t87.5 214.5q0 99 -76.5 153.5t-222.5 54.5z" />
    <glyph glyph-name="C" unicode="C" horiz-adv-x="1267" 
d="M834 1446q144 0 259 -41t115 -84q0 -26 -31 -73.5t-51 -47.5q-5 0 -46 22.5t-115.5 45t-161.5 22.5q-115 0 -207 -35t-153.5 -97.5t-102.5 -151.5t-59.5 -193t-18.5 -227q0 -227 104 -335t318 -108q62 0 122.5 10t103 24.5t76 29.5t53.5 25t24 10q14 0 14 -23
q0 -48 -14 -113q-11 -54 -133.5 -86t-261.5 -32q-300 0 -445 140t-145 433q0 146 22.5 271.5t77.5 240.5t139.5 196t216.5 129t300 48z" />
    <glyph glyph-name="D" unicode="D" horiz-adv-x="1423" 
d="M748 1434q125 0 225.5 -32t179 -99t121.5 -182t43 -271q0 -185 -40 -332t-107 -242.5t-160.5 -158.5t-195.5 -90t-216 -27h-440q-29 0 -42.5 11.5t-13.5 37.5q0 12 24 239.5t60 568.5t54 515q3 32 19 47t48 15h441zM717 1278h-307l-117 -1122h307q83 0 157.5 22
t143.5 72.5t119 125.5t80 189t30 256q0 100 -21 178t-57.5 130t-89 86t-113 48.5t-132.5 14.5z" />
    <glyph glyph-name="E" unicode="E" horiz-adv-x="1118" 
d="M1020 1434q35 0 35 -45q0 -25 -1 -38.5t-5 -33.5t-15.5 -29.5t-29.5 -9.5h-605l-49 -467h541q35 0 35 -45q0 -24 -1 -38.5t-5.5 -34t-16 -29t-29.5 -9.5h-540l-51 -499h606q35 0 35 -45q0 -24 -1 -38.5t-5.5 -34t-16 -29t-29.5 -9.5h-725q-29 0 -42 11.5t-13 37.5
q0 8 137 1323q6 62 68 62h723z" />
    <glyph glyph-name="F" unicode="F" horiz-adv-x="1030" 
d="M956 1434q35 0 35 -45q0 -25 -1 -38.5t-5 -33.5t-15.5 -29.5t-29.5 -9.5h-530l-50 -467h514q35 0 35 -45q0 -25 -1 -38.5t-5 -33.5t-15.5 -29.5t-29.5 -9.5h-514l-63 -614q-6 -45 -86 -45h-17q-44 0 -61 11t-17 34l140 1331q3 32 19 47t48 15h649z" />
    <glyph glyph-name="G" unicode="G" horiz-adv-x="1376" 
d="M856 1446q144 0 260.5 -41t116.5 -84q0 -26 -31 -73.5t-51 -47.5q-6 0 -31.5 14t-60 31t-97.5 31t-135 14q-265 0 -398.5 -183t-133.5 -517q0 -447 405 -447q161 0 267 27l45 414h-242q-35 0 -35 45q0 25 1 38.5t5 33t15.5 29t29.5 9.5h361q55 0 55 -49q0 -13 -10 -109
t-25 -235t-22 -211q-4 -41 -45 -71t-109.5 -46t-146.5 -23t-172 -7q-566 0 -566 575q0 224 53 393.5t152 276.5t235.5 160t309.5 53z" />
    <glyph glyph-name="H" unicode="H" horiz-adv-x="1501" 
d="M1292 1438q78 0 78 -45l-141 -1352q-6 -45 -86 -45h-17q-44 0 -60.5 11t-16.5 34l63 616h-741l-64 -616q-6 -45 -86 -45h-16q-44 0 -61 11t-17 34l141 1352q3 45 86 45h17q78 0 78 -45l-62 -580h741l62 580q3 45 86 45h16z" />
    <glyph glyph-name="I" unicode="I" horiz-adv-x="577" 
d="M371 1438q78 0 78 -45l-142 -1352q-6 -45 -86 -45h-16q-44 0 -61 11t-17 34l141 1352q3 45 86 45h17z" />
    <glyph glyph-name="J" unicode="J" horiz-adv-x="823" 
d="M647 1438q78 0 78 -45l-102 -973q-21 -204 -134.5 -318t-330.5 -114q-181 0 -181 65q0 121 31 121q1 0 43.5 -9t91.5 -9q142 0 212.5 61.5t84.5 194.5l105 981q3 45 86 45h16z" />
    <glyph glyph-name="K" unicode="K" horiz-adv-x="1179" 
d="M1055 1438q33 0 51 -7.5t18 -17.5q0 -19 -24 -43l-570 -633l535 -680q14 -19 14 -32q-1 -17 -22 -23t-70 -6h-14q-48 0 -73 5.5t-38 21.5l-516 659h-8l-68 -641q-6 -45 -86 -45h-16q-44 0 -61 11t-17 34l141 1352q3 45 86 45h17q78 0 78 -45l-66 -627h8l568 643
q25 29 112 29h21z" />
    <glyph glyph-name="L" unicode="L" horiz-adv-x="991" 
d="M344 1438q78 0 78 -45l-129 -1237h596q35 0 35 -45q0 -24 -1 -38.5t-5.5 -34t-16 -29t-29.5 -9.5h-714q-33 0 -44.5 13.5t-11.5 47.5l140 1332q3 45 86 45h16z" />
    <glyph glyph-name="M" unicode="M" horiz-adv-x="1726" 
d="M1532 1438q78 0 78 -45l-142 -1352q-6 -45 -86 -45h-14q-44 0 -61 11t-17 34l115 1102l-6 -8l-479 -709q-18 -27 -50 -27h-82q-28 0 -40 27l-336 717l-6 12l-117 -1114q-6 -45 -86 -45h-15q-44 0 -60.5 11t-16.5 34l141 1352q3 45 86 45h74q68 0 84 -37l315 -672l41 -129
l66 117l458 684q23 37 88 37h68z" />
    <glyph glyph-name="N" unicode="N" horiz-adv-x="1472" 
d="M1286 1438q78 0 78 -45l-141 -1352q-6 -45 -86 -45h-41q-54 0 -70 29l-582 1019l-43 105l-116 -1108q-6 -45 -86 -45h-15q-44 0 -61 11t-17 34l142 1352q3 45 86 45h43q34 0 52 -8.5t30 -30.5l563 -987l49 -115l115 1096q3 45 86 45h14z" />
    <glyph glyph-name="O" unicode="O" horiz-adv-x="1497" 
d="M823 1446q278 0 422 -148.5t144 -437.5q0 -420 -192.5 -646t-526.5 -226q-275 0 -418 150t-143 440q0 95 11 183.5t36.5 176.5t63.5 162.5t95.5 139t130 110t168.5 71t209 25.5zM807 1290q-238 0 -375 -178t-137 -516q0 -223 99.5 -338t291.5 -115q235 0 374.5 182
t139.5 515q0 223 -100 336.5t-293 113.5z" />
    <glyph glyph-name="P" unicode="P" horiz-adv-x="1167" 
d="M725 1434q57 0 108.5 -7t110.5 -29.5t101.5 -58.5t71 -99.5t28.5 -147.5q0 -78 -16.5 -144t-45 -113t-64 -84.5t-78 -61t-82 -40t-80 -24.5t-69 -11.5t-51.5 -3.5h-317l-59 -569q-6 -45 -86 -45h-17q-44 0 -61 11t-17 34l140 1331q3 32 19 47t48 15h416zM702 1278h-290
l-54 -512h320q28 0 60 6.5t72 26.5t71.5 51.5t53 88t21.5 128.5q0 50 -16 88t-40.5 61t-59.5 37.5t-68 19.5t-70 5z" />
    <glyph glyph-name="Q" unicode="Q" horiz-adv-x="1497" 
d="M840 1446q277 0 420 -151t143 -441q0 -346 -132.5 -565t-361.5 -279v-8l398 -129q15 -6 19.5 -14.5t4.5 -26.5q0 -63 -6.5 -98.5t-15 -45.5t-21.5 -10q-10 0 -93.5 31.5t-202 79.5t-232.5 94t-209 85t-107 44q-321 125 -321 557q0 422 191.5 649.5t525.5 227.5zM823 1290
q-232 0 -372 -183t-140 -513q0 -222 101 -339.5t290 -117.5q233 0 372.5 181.5t139.5 508.5q0 225 -100.5 344t-290.5 119z" />
    <glyph glyph-name="R" unicode="R" horiz-adv-x="1249" 
d="M653 1434q228 0 343.5 -75t115.5 -237q0 -148 -73.5 -248.5t-200.5 -148.5v-8q54 -20 87 -80t68 -176l119 -404q4 -16 4 -22q0 -39 -90 -39h-20q-72 0 -80 33l-113 401q-33 116 -96.5 158.5t-188.5 42.5h-184l-61 -590q-6 -45 -86 -45h-17q-44 0 -61 11t-17 34l140 1331
q3 32 19 47t48 15h344zM668 1278h-256l-52 -492h271q121 0 206 86.5t85 202.5q0 101 -67.5 152t-186.5 51z" />
    <glyph glyph-name="S" unicode="S" horiz-adv-x="1024" 
d="M614 1446q124 0 230 -37.5t106 -83.5q0 -26 -29 -69.5t-51 -43.5q-7 0 -34 15q-107 63 -222 63q-124 0 -208 -62.5t-84 -176.5q0 -43 14 -78.5t33 -60t54 -49t62 -38.5t72 -34q147 -67 203 -105q149 -100 161 -259q1 -15 1 -30q0 -83 -31.5 -155t-93 -129.5t-163 -91
t-231.5 -33.5q-62 0 -116.5 8t-104.5 25.5t-79 51t-29 79.5q0 32 9.5 64t29.5 32q5 0 12 -3t12 -6t14.5 -9t14.5 -9q125 -78 272 -78q133 0 215 67t82 171q0 31 -9 58.5t-20 47.5t-35 41t-39.5 33t-49 29t-48.5 24t-51 23q-41 18 -67 30.5t-66.5 35t-66.5 43t-56.5 52
t-48 65t-29.5 78.5t-12 95q0 185 136.5 297.5t340.5 112.5z" />
    <glyph glyph-name="T" unicode="T" horiz-adv-x="1124" 
d="M1116 1434q35 0 35 -45q0 -25 -1 -38.5t-5 -33.5t-15.5 -29.5t-29.5 -9.5h-389l-129 -1237q-6 -45 -86 -45h-17q-44 0 -61 11t-17 34l129 1237h-397q-35 0 -35 45q0 24 1 38.5t5.5 34t16 29t29.5 9.5h966z" />
    <glyph glyph-name="U" unicode="U" horiz-adv-x="1458" 
d="M1276 1438q42 0 59 -11t17 -34l-99 -934q-23 -223 -181.5 -347t-426.5 -124q-250 0 -382 106.5t-132 300.5q0 23 102 998q3 45 89 45h16q42 0 59 -11t17 -34q-101 -959 -101 -971q0 -128 90.5 -203.5t258.5 -75.5q165 0 281.5 87.5t129.5 222.5l98 940q3 45 89 45h16z
" />
    <glyph glyph-name="V" unicode="V" horiz-adv-x="1263" 
d="M1206 1438q86 0 86 -33q0 -11 -10 -31l-610 -1345q-13 -33 -84 -33h-64q-72 0 -80 33q-331 1358 -331 1366q0 43 92 43h18q72 0 80 -33l264 -1094l11 -106h6l32 108l494 1092q13 33 84 33h12z" />
    <glyph glyph-name="W" unicode="W" horiz-adv-x="1806" 
d="M1761 1438q86 0 86 -33q0 -7 -506 -1376q-11 -33 -84 -33h-83q-75 0 -80 33l-136 833l-14 266l-72 -266l-309 -833q-13 -33 -84 -33h-84q-75 0 -80 33l-215 1368q0 25 24.5 33t68.5 8h18q75 0 80 -33l155 -1008q4 -25 8 -71t6.5 -80.5t2.5 -38.5l72 201l352 995
q6 20 24.5 27.5t57.5 7.5h32q73 0 78 -35l148 -1008q4 -32 7.5 -79t5.5 -78l1 -31l72 205l352 993q11 33 84 33h12z" />
    <glyph glyph-name="X" unicode="X" horiz-adv-x="1251" 
d="M1137 1438q92 0 92 -33q0 -10 -21 -39l-473 -608l387 -690q13 -26 13 -33q0 -39 -97 -39h-32q-69 0 -86 31l-318 563l-440 -565q-20 -29 -90 -29h-17q-90 0 -90 33q0 15 21 39l528 680l-344 618q-12 18 -12 33q0 20 21.5 29.5t74.5 9.5h29q69 0 86 -31l276 -494l389 496
q20 29 90 29h13z" />
    <glyph glyph-name="Y" unicode="Y" horiz-adv-x="1144" 
d="M1087 1438h19q74 -3 74 -33q0 -10 -21 -39l-497 -637l-72 -688q-6 -45 -86 -45h-17q-44 0 -60.5 11t-16.5 34l71 694l-360 631q-12 18 -12 33q0 20 21.5 29.5t74.5 9.5h22q69 0 86 -31l283 -504l397 506q20 29 94 29z" />
    <glyph glyph-name="Z" unicode="Z" horiz-adv-x="1261" 
d="M1198 1434q10 0 22.5 -34t12.5 -65q0 -25 -10 -35l-959 -1144h803q35 0 35 -45q0 -25 -1 -38.5t-5 -33.5t-15.5 -29.5t-29.5 -9.5h-1000q-13 0 -26 33.5t-13 64.5q0 24 11 35l958 1145h-739q-35 0 -35 45q0 25 1 38.5t5 33.5t15.5 29.5t29.5 9.5h940z" />
    <glyph glyph-name="bracketleft" unicode="[" horiz-adv-x="595" 
d="M590 1573q37 0 37 -41q0 -86 -49 -86h-160l-168 -1602h158q36 0 36 -41q0 -86 -49 -86h-248q-32 0 -43.5 14t-11.5 48q0 20 30 304t82 768.5t70 659.5q6 62 68 62h248z" />
    <glyph glyph-name="backslash" unicode="\" horiz-adv-x="739" 
d="M156 1440q40 0 53 -43l457 -1399q2 -6 2 -16q0 -27 -31 -27h-51q-41 0 -54 43l-456 1399q-4 12 -4 16q0 27 32 27h52z" />
    <glyph glyph-name="bracketright" unicode="]" horiz-adv-x="595" 
d="M444 1573q33 0 44.5 -14t11.5 -48q0 -9 -30.5 -299.5t-81 -761.5t-71.5 -671q-3 -32 -19 -47t-48 -15h-248q-37 0 -37 41q0 86 49 86h160l168 1602h-158q-37 0 -37 41q0 86 50 86h247z" />
    <glyph glyph-name="asciicircum" unicode="^" horiz-adv-x="921" 
d="M520 1401q28 0 42.5 -8.5t23.5 -32.5l188 -633q4 -10 4 -29q-6 -43 -61 -43h-8q-52 0 -66 47l-162 535l-274 -535q-26 -47 -76 -47h-8q-49 0 -49 35q0 18 8 37l324 633q21 41 73 41h41z" />
    <glyph glyph-name="underscore" unicode="_" horiz-adv-x="1093" 
d="M1100 -184q21 0 29 -9.5t8 -31.5q0 -58 -47 -58h-1096q-21 0 -29 9.5t-8 31.5q0 58 47 58h1096z" />
    <glyph glyph-name="grave" unicode="`" horiz-adv-x="655" 
d="M242 1499q96 0 127 -53q118 -203 118 -229q0 -19 -47 -19q-74 0 -104 37q-167 191 -177 205q-16 21 -16 35q3 24 99 24z" />
    <glyph glyph-name="a" unicode="a" horiz-adv-x="1116" 
d="M1047 145q12 0 12 -14q0 -31 -8 -76q-7 -34 -46.5 -50.5t-76.5 -16.5q-185 0 -185 200v21q-116 -221 -319 -221q-44 0 -87 11.5t-90.5 42.5t-83 78.5t-58.5 127.5t-23 182q0 190 61.5 338t176 231.5t264.5 83.5q145 0 260 -110q10 28 15.5 42t16 30.5t25 23t35.5 6.5h12
q29 0 40 -10.5t11 -32.5q-81 -758 -81 -813q0 -30 6 -48.5t19 -25.5t22 -8.5t26 -1.5q14 0 33 5t23 5zM797 752q4 35 16 102q-101 80 -213 80q-79 0 -139.5 -28t-98 -74t-61 -111t-32.5 -132.5t-9 -146.5q0 -305 203 -305q37 0 75 17t80 54t82 108t70 167z" />
    <glyph glyph-name="b" unicode="b" horiz-adv-x="1165" 
d="M326 1540q42 0 59.5 -10.5t17.5 -34.5l-65 -625q121 213 326 213q50 0 98 -10.5t101 -41t92.5 -77t65.5 -126t26 -181.5q0 -190 -66.5 -339.5t-190.5 -234.5t-286 -85q-88 0 -157.5 33t-115.5 77q-28 -102 -86 -102h-16q-29 0 -40 11t-11 34l153 1454q5 45 86 45h9z
M625 934q-83 0 -170 -79.5t-146 -260.5l-28 -275q-3 -32 -17 -102q95 -80 223 -80q88 0 156 28.5t110 75.5t68.5 113t36.5 134t10 147q0 299 -243 299z" />
    <glyph glyph-name="c" unicode="c" horiz-adv-x="993" 
d="M637 1083q129 0 208 -34.5t79 -71.5q0 -23 -28 -63t-52 -40q-3 0 -8 3t-16.5 10t-20.5 12q-76 37 -183 37q-74 0 -134 -27.5t-107.5 -85.5t-74 -158t-26.5 -235q0 -154 67 -224.5t212 -70.5q113 0 225 45q48 19 49 19q7 0 10 -4.5t3 -20.5q0 -36 -11 -92q-6 -29 -42 -49
t-87 -29t-90 -12.5t-71 -3.5q-222 0 -332.5 103t-110.5 327q0 109 18 204.5t59.5 181t103 147t153.5 97t207 35.5z" />
    <glyph glyph-name="d" unicode="d" horiz-adv-x="1157" 
d="M1102 145q12 0 12 -14q0 -31 -8 -76q-7 -34 -46.5 -50.5t-76.5 -16.5q-184 0 -184 200v21q-119 -221 -330 -221q-49 0 -98 11.5t-102 42.5t-93 78.5t-66 127.5t-26 182q0 288 141.5 470.5t372.5 182.5q170 0 279 -92l55 504q5 45 86 45h8q42 0 60 -10.5t18 -34.5
q-131 -1215 -131 -1276q0 -30 6 -48.5t19 -25.5t22.5 -8.5t26.5 -1.5q14 0 32.5 5t22.5 5zM823 479l39 377q-97 78 -239 78q-82 0 -145.5 -28t-103 -74t-65 -111t-35.5 -133t-10 -146q0 -167 61 -236t183 -69q38 0 77 16.5t82 53t84 106.5t72 166z" />
    <glyph glyph-name="e" unicode="e" horiz-adv-x="1103" 
d="M449 436q-96 0 -177 15v-21q0 -161 77 -228t222 -67q81 0 153.5 25.5t114.5 50.5t50 25q5 0 7.5 -1t4.5 -6.5t2 -17.5q0 -38 -10 -92q-6 -34 -47 -60.5t-95.5 -41t-105.5 -22t-88 -7.5q-463 0 -463 424q0 113 19.5 211t63.5 183.5t108.5 146.5t159.5 95.5t212 34.5
q74 0 134.5 -18.5t98.5 -47t64 -66t36.5 -72.5t10.5 -68q0 -83 -31 -148.5t-82.5 -107t-124 -69t-149.5 -39t-165 -11.5zM639 936q-306 0 -356 -352h145q19 0 34.5 0.5t51.5 2.5t65.5 8t67.5 15t67 25.5t55 37.5t40 52.5t14 69.5q0 60 -49.5 100.5t-134.5 40.5z" />
    <glyph glyph-name="f" unicode="f" horiz-adv-x="665" 
d="M569 1548q146 0 146 -63q0 -21 -18 -60t-35 -39q-2 0 -13 4t-32 7.5t-48 3.5q-54 0 -84.5 -29.5t-38.5 -114.5l-18 -186h178q19 0 26 -8.5t7 -30.5q0 -11 -5.5 -32.5t-28.5 -48.5t-58 -27h-135l-93 -883q-6 -45 -86 -45h-8q-42 0 -60 10.5t-18 34.5l93 883h-82
q-20 0 -27.5 14t-7.5 41q0 92 51 92h82l20 207q26 270 293 270z" />
    <glyph glyph-name="g" unicode="g" horiz-adv-x="1118" 
d="M973 1075q29 0 40 -10.5t11 -32.5l-88 -829q-19 -182 -58 -305.5t-102 -196.5t-144.5 -104t-195.5 -31q-147 0 -249.5 47.5t-102.5 97.5q0 113 29 113q6 0 31.5 -17.5t59 -38t96.5 -38t136 -17.5q152 0 231.5 118.5t100.5 389.5q-119 -221 -330 -221q-45 0 -89.5 11
t-93 41t-85 76.5t-60.5 124.5t-24 177q0 190 62.5 338t179.5 231.5t270 83.5q150 0 270 -110q18 54 36 78t57 24h12zM821 752q2 21 17 102q-106 80 -224 80q-81 0 -144 -28t-101 -74t-62.5 -111.5t-33.5 -132.5t-9 -146q0 -292 213 -292q38 0 77.5 17t83 54.5t85 109
t72.5 169.5z" />
    <glyph glyph-name="h" unicode="h" horiz-adv-x="1157" 
d="M358 1540q42 0 60 -10.5t18 -34.5l-65 -610q149 198 358 198q141 0 205.5 -71.5t64.5 -194.5q0 -16 -29.5 -295.5t-29.5 -302.5q0 -30 6 -48.5t19 -25.5t22.5 -8.5t26.5 -1.5q14 0 32.5 5t22.5 5q12 0 12 -14q0 -31 -8 -76q-7 -34 -46.5 -50.5t-76.5 -16.5
q-184 0 -184 200q0 38 28.5 305t28.5 283q0 158 -155 158q-38 0 -77.5 -15t-84.5 -49t-88.5 -101.5t-75.5 -160.5l-59 -567q-6 -45 -86 -45h-9q-77 0 -77 43l153 1456q5 45 86 45h8z" />
    <glyph glyph-name="i" unicode="i" horiz-adv-x="542" 
d="M365 1540q43 0 60 -10t17 -35l-12 -121q0 -45 -78 -45h-24q-44 0 -65 9.5t-21 35.5l12 121q5 45 86 45h25zM307 1075q42 0 60 -10.5t18 -34.5q-82 -750 -82 -811q0 -30 6 -48.5t18.5 -25.5t21.5 -8.5t26 -1.5q14 0 32.5 5t22.5 5q12 0 12 -14q0 -31 -8 -76
q-7 -34 -46.5 -50.5t-76.5 -16.5q-182 0 -182 194q0 38 20 249.5t41 405t23 193.5q5 45 86 45h8z" />
    <glyph glyph-name="j" unicode="j" horiz-adv-x="565" 
d="M397 1540q43 0 60.5 -10t17.5 -35l-12 -121q0 -45 -78 -45h-25q-44 0 -65 9.5t-21 35.5l13 121q5 45 86 45h24zM340 1075q42 0 60 -10.5t18 -34.5l-125 -1182q-7 -68 -28 -120t-47.5 -82t-62 -49t-66.5 -25t-66 -6q-70 0 -115 23.5t-45 60.5q0 98 22 98q5 0 19 -9
t39 -17.5t57 -8.5q52 0 83.5 33t39.5 119l123 1165q6 45 86 45h8z" />
    <glyph glyph-name="k" unicode="k" horiz-adv-x="1067" 
d="M358 1540q78 0 78 -45l-96 -915h8l459 467q24 28 111 28h8q33 0 51 -7t18 -17q0 -19 -24 -43l-447 -451l412 -500q14 -20 14 -28q0 -20 -19.5 -26.5t-72.5 -6.5h-8q-90 0 -109 27l-401 485h-8l-49 -467q-6 -45 -86 -45h-9q-43 0 -60 11t-17 34l153 1454q3 45 86 45h8z
" />
    <glyph glyph-name="l" unicode="l" horiz-adv-x="608" 
d="M383 1540q42 0 60 -10.5t18 -34.5q-131 -1215 -131 -1276q0 -30 6 -48.5t19 -25.5t22 -8.5t26 -1.5q14 0 33 5t23 5q12 0 12 -14q0 -31 -8 -76q-7 -34 -46.5 -50.5t-76.5 -16.5q-184 0 -184 200q0 41 33 366t67 633l33 308q5 45 86 45h8z" />
    <glyph glyph-name="m" unicode="m" horiz-adv-x="1736" 
d="M1632 145q13 0 13 -14q0 -25 -9 -76q-7 -34 -46.5 -50.5t-76.5 -16.5q-184 0 -184 200q0 38 28.5 305t28.5 283q0 158 -155 158q-35 0 -71.5 -14.5t-78 -47t-82.5 -96t-73 -151.5l-62 -584q-3 -45 -86 -45h-8q-78 0 -78 43q76 704 76 737q0 158 -156 158q-35 0 -71 -14
t-77.5 -46t-82 -95t-72.5 -150l-61 -588q-6 -45 -86 -45h-8q-78 0 -78 43q90 801 90 897q0 29 -1 49t-1 21q0 16 15 26.5t38 14.5t37 5t25 1q28 0 40.5 -42.5t12.5 -95.5v-38q65 104 154.5 155t187.5 51q244 0 268 -221q66 111 158 166t192 55q142 0 206.5 -71.5
t64.5 -194.5q0 -16 -30 -296t-30 -302q0 -30 6 -48.5t19 -25.5t22.5 -8.5t26.5 -1.5q14 0 32.5 5t22.5 5z" />
    <glyph glyph-name="n" unicode="n" 
d="M1034 145q13 0 13 -14q0 -25 -9 -76q-7 -34 -46.5 -50.5t-76.5 -16.5q-184 0 -184 200q0 38 28.5 305t28.5 283q0 158 -155 158q-29 0 -60 -8.5t-68 -32t-71 -59t-68 -95t-59 -135.5l-59 -563q-6 -45 -86 -45h-8q-78 0 -78 43q90 801 90 897q0 29 -1 49t-1 21
q0 16 15 26.5t38 14.5t37 5t25 1q53 0 53 -138v-38q150 206 362 206q142 0 206.5 -71.5t64.5 -194.5q0 -16 -30 -296t-30 -302q0 -30 6 -48.5t19 -25.5t22.5 -8.5t26.5 -1.5q14 0 32.5 5t22.5 5z" />
    <glyph glyph-name="o" unicode="o" horiz-adv-x="1165" 
d="M633 1083q201 0 306 -113.5t105 -330.5q0 -314 -139.5 -482.5t-388.5 -168.5q-209 0 -316.5 112t-107.5 328q0 105 19 199t61 178t104 145.5t153.5 97t203.5 35.5zM610 936q-166 0 -254 -133.5t-88 -368.5q0 -152 63.5 -225.5t194.5 -73.5q165 0 252.5 128t87.5 372
q0 154 -62.5 227.5t-193.5 73.5z" />
    <glyph glyph-name="p" unicode="p" horiz-adv-x="1173" 
d="M674 1083q49 0 97.5 -11t101.5 -41.5t92.5 -77t65.5 -124.5t26 -178q0 -293 -141 -478t-373 -185q-158 0 -277 108l-49 -477q-6 -45 -86 -45h-8q-78 0 -78 43l121 1167q12 117 12 152q0 29 -1 49t-1 21q0 16 15 26.5t38 14.5t37 5t25 1q53 0 53 -154v-25q120 209 330 209
zM518 135q104 0 177.5 42.5t112 117.5t55 158.5t16.5 185.5q0 295 -244 295q-37 0 -77 -17t-83.5 -53.5t-85 -106t-72.5 -163.5q-13 -123 -36 -367q105 -92 237 -92z" />
    <glyph glyph-name="q" unicode="q" horiz-adv-x="1159" 
d="M1010 1075q29 0 40 -11t11 -34l-148 -1411q-5 -45 -86 -45h-8q-42 0 -60 10.5t-18 34.5l60 582q-121 -213 -326 -213q-49 0 -97.5 11.5t-101.5 42.5t-92.5 78.5t-65.5 127.5t-26 182q0 190 66.5 338t190.5 231.5t286 83.5q157 0 272 -110q28 102 86 102h17zM829 477
l29 275q5 44 16 102q-95 80 -223 80q-88 0 -156 -28t-110 -74t-68.5 -111t-36.5 -132.5t-10 -146.5q0 -305 244 -305q83 0 169.5 79.5t145.5 260.5z" />
    <glyph glyph-name="r" unicode="r" horiz-adv-x="749" 
d="M653 1083q40 0 71.5 -17.5t31.5 -59.5q0 -38 -20.5 -76.5t-39.5 -38.5q-3 0 -26 11t-54 11q-80 0 -149.5 -86t-110.5 -237l-57 -549q-6 -45 -86 -45h-8q-78 0 -78 43l78 725q12 99 12 172q0 21 -1 42t-1 28q0 16 15 26.5t38 14.5t37 5t25 1q55 0 55 -103q0 -23 -4 -73
q47 96 119.5 151t152.5 55z" />
    <glyph glyph-name="s" unicode="s" horiz-adv-x="845" 
d="M477 1083q55 0 111.5 -9t101.5 -31.5t45 -53.5q0 -27 -25.5 -64.5t-43.5 -37.5q-12 0 -29 10q-80 39 -158 39q-89 0 -139.5 -37t-50.5 -100q0 -58 41 -94t145 -91q137 -74 195.5 -144t58.5 -163q0 -137 -107.5 -228t-299.5 -91q-69 0 -126.5 12.5t-91 32t-51.5 39.5
t-18 37q0 26 20.5 66t32.5 40q6 0 31 -14q103 -66 211 -66q100 0 161.5 48t61.5 118q0 19 -5.5 36.5t-12.5 30.5t-23 28.5t-27 25t-34.5 24t-35 21t-40 22t-39.5 21.5q-121 68 -174 132t-53 149q0 129 106 210.5t262 81.5z" />
    <glyph glyph-name="t" unicode="t" horiz-adv-x="700" 
d="M379 1331q42 0 60 -10.5t18 -34.5l-23 -215h174q19 0 26 -8.5t7 -30.5q0 -11 -5.5 -32.5t-28.5 -48.5t-58 -27h-131q-70 -631 -70 -672q0 -117 98 -117q38 0 65 7.5t28 7.5q14 0 14 -19q0 -32 -10 -76q-8 -35 -48.5 -51t-91.5 -16q-229 0 -229 225q0 27 18 205t36 342
l18 164h-103q-20 0 -27 13.5t-7 41.5q0 92 51 92h102l25 215q5 45 84 45h8z" />
    <glyph glyph-name="u" unicode="u" 
d="M1055 145q12 0 12 -14q0 -31 -8 -76q-7 -34 -46.5 -50.5t-76.5 -16.5q-184 0 -184 200v21q-149 -221 -365 -221q-141 0 -205.5 71.5t-64.5 194.5l78 776q5 45 86 45h8q42 0 60 -10.5t18 -34.5q-74 -706 -74 -735q0 -158 156 -158q38 0 78 16t85.5 52t89 108t74.5 172
l58 545q5 45 86 45h8q42 0 60 -10.5t18 -34.5q-80 -750 -80 -811q0 -30 6 -48.5t19 -25.5t22 -8.5t26 -1.5q14 0 33 5t23 5z" />
    <glyph glyph-name="v" unicode="v" horiz-adv-x="993" 
d="M905 1075q84 0 84 -31q0 -13 -8 -32l-434 -983q-13 -33 -84 -33h-72q-72 0 -80 33l-225 989q-4 18 -4 22q4 35 92 35h16q72 0 80 -33l121 -540q11 -48 33 -144.5t33 -144.5h10q109 271 117 289l235 540q13 33 84 33h2z" />
    <glyph glyph-name="w" unicode="w" horiz-adv-x="1529" 
d="M1421 1075q86 0 86 -31q0 -13 -8 -32l-379 -983q-13 -33 -84 -33h-67q-73 0 -78 33l-109 745l-272 -745q-11 -33 -84 -33h-68q-74 0 -79 33q-175 1008 -175 1011q4 35 93 35h18q75 0 80 -33l129 -817l297 815q13 35 84 35h22q71 0 76 -35l131 -815l299 817q11 33 88 33z
" />
    <glyph glyph-name="x" unicode="x" horiz-adv-x="993" 
d="M889 1075q90 0 90 -31q0 -16 -18 -40l-359 -451l281 -485q14 -20 14 -37q-6 -35 -98 -35h-23q-69 0 -86 31l-215 374l-301 -376q-23 -29 -90 -29h-8q-48 0 -69 7t-21 24q0 14 18 41l383 481l-258 455q-14 20 -14 36q6 35 98 35h23q69 0 86 -31l196 -339l273 342
q19 28 90 28h8z" />
    <glyph glyph-name="y" unicode="y" horiz-adv-x="985" 
d="M915 1075q78 0 78 -33q0 -11 -8 -30l-674 -1395q-19 -43 -100 -43h-31q-63 0 -63 31q0 12 14 37l215 415q-262 970 -262 983q0 16 24 25.5t68 9.5h17q69 0 77 -33l158 -577l43 -162h4q30 76 72 162l274 577q16 33 88 33h6z" />
    <glyph glyph-name="z" unicode="z" horiz-adv-x="1001" 
d="M932 1071q13 0 22 -33t9 -65q0 -20 -9 -29l-680 -797h564q20 0 27 -13.5t7 -41.5q0 -92 -51 -92h-758q-11 0 -22.5 32t-11.5 62q0 23 10 33l682 797h-524q-20 0 -27.5 14t-7.5 41q0 92 51 92h719z" />
    <glyph glyph-name="braceleft" unicode="{" horiz-adv-x="561" 
d="M555 1573q37 0 37 -41q0 -86 -49 -86h-45q-41 0 -59.5 -30.5t-24.5 -94.5l-37 -360q-20 -200 -195 -318q14 -7 33 -24t42 -47.5t38.5 -81t15.5 -109.5q0 -41 -21.5 -223t-21.5 -236q0 -78 60 -78h45q37 0 37 -41q0 -86 -50 -86h-102q-21 0 -42.5 8t-44 27.5t-36.5 59
t-14 94.5q0 50 22.5 254t22.5 231q0 66 -18.5 107.5t-65.5 62.5q-43 17 -43 60q0 53 10 72t51 36q65 26 92 88t39 176l37 342q7 69 27 118.5t48 74t54.5 35t55.5 10.5h102z" />
    <glyph glyph-name="bar" unicode="|" horiz-adv-x="512" 
d="M266 1577q49 0 49 -45v-1774q0 -45 -49 -45h-20q-49 0 -49 45v1774q0 45 49 45h20z" />
    <glyph glyph-name="braceright" unicode="}" horiz-adv-x="561" 
d="M299 1573q21 0 42.5 -8t44 -27.5t36.5 -59t14 -94.5q0 -50 -22.5 -254t-22.5 -231q0 -66 18.5 -107.5t65.5 -62.5q43 -17 43 -59q0 -51 -11.5 -72.5t-49.5 -36.5q-67 -26 -93 -87t-38 -177l-37 -342q-7 -69 -27 -118.5t-48 -74t-54.5 -35t-55.5 -10.5h-102q-37 0 -37 41
q0 86 49 86h45q41 0 59.5 30.5t24.5 94.5l37 361q20 199 195 317q-14 7 -33 24t-42 47.5t-38.5 81t-15.5 109.5q0 41 21.5 223t21.5 236q0 78 -60 78h-45q-37 0 -37 41q0 86 50 86h102z" />
    <glyph glyph-name="asciitilde" unicode="~" horiz-adv-x="1120" 
d="M475 666q74 0 221 -44t201 -44q61 0 107 59q17 23 32.5 28t38.5 -3l19 -7q23 -7 26.5 -18.5t-8.5 -34.5q-39 -74 -92.5 -106.5t-128.5 -32.5q-79 0 -227 44t-201 44q-31 0 -54 -14t-49 -48q-17 -23 -31 -27.5t-38 3.5l-23 8q-22 7 -25 19t9 32q39 76 93 109t130 33z" />
    <glyph glyph-name="uni00A0" unicode="&#xa0;" horiz-adv-x="491" 
 />
    <glyph glyph-name="exclamdown" unicode="&#xa1;" horiz-adv-x="602" 
d="M387 1075q78 0 78 -45l-14 -135q-6 -45 -86 -45h-35q-78 0 -78 45l14 135q3 45 86 45h35zM340 657q57 0 57 -45l-98 -934q-6 -45 -86 -45h-41q-42 0 -59 11t-17 34q0 18 26 175t68 404t60 355q6 45 67 45h23z" />
    <glyph glyph-name="cent" unicode="&#xa2;" horiz-adv-x="995" 
d="M662 1184q21 0 28.5 -9t7.5 -32l-6 -62q108 -6 174 -38.5t66 -65.5q0 -23 -28 -63t-52 -40q-3 0 -22 12.5t-59.5 27t-94.5 18.5l-86 -797q65 3 121.5 19t88 30.5t36.5 14.5q7 0 9.5 -4.5t2.5 -20.5q0 -41 -10 -92q-15 -82 -263 -94l-10 -92q-6 -41 -41 -41h-4
q-22 0 -29.5 9t-7.5 32q0 9 11 94q-195 11 -292.5 114t-97.5 314q0 105 17 198.5t55.5 177t96.5 145t144 99.5t193 43l6 62q3 41 41 41h5zM594 934q-142 -11 -226.5 -133t-84.5 -371q0 -140 54 -211.5t171 -81.5z" />
    <glyph glyph-name="sterling" unicode="&#xa3;" horiz-adv-x="1005" 
d="M739 1446q199 0 199 -66q0 -15 -17 -57.5t-38 -42.5q-2 0 -45 9t-82 9q-147 0 -222 -64.5t-88 -203.5l-18 -188h299q19 0 26 -8.5t7 -30.5q0 -6 -4 -21t-12.5 -36t-28.5 -36.5t-47 -15.5h-256l-19 -184q-8 -81 -23.5 -144t-30.5 -98t-37 -63t-33.5 -37t-30.5 -21h573
q22 0 28.5 -13.5t6.5 -47.5q0 -19 -2 -39q-2 -19 -16 -33t-33 -14h-766q-33 0 -33 37q0 16 4 57q2 24 22 40.5t47.5 29t55 29.5t49.5 50.5t27 82.5l39 368h-115q-35 0 -35 56q0 92 51 92h115l18 178q45 426 465 426z" />
    <glyph glyph-name="currency" unicode="&#xa4;" horiz-adv-x="1093" 
d="M879 1024q20 0 34 -14l7 -6q14 -14 14 -33q0 -25 -27 -49l-55 -50q53 -82 53 -178q0 -140 -98 -250l45 -49q18 -21 18 -43q0 -17 -16 -33l-8 -8q-18 -18 -41 -18q-19 0 -41 22l-45 50q-104 -68 -219 -68q-120 0 -207 68l-55 -52q-23 -20 -45 -20q-13 0 -33 20l-6 6
q-13 13 -13 29q0 20 27 47l53 49q-47 74 -47 170q0 150 94 260l-45 48q-18 22 -18 41q0 20 18 38l4 5q16 16 39 16q27 0 43 -21l45 -49q106 72 221 72q117 0 207 -70l54 50q23 20 43 20zM563 899q-106 0 -185 -79.5t-79 -186.5q0 -90 60.5 -150.5t152.5 -60.5
q104 0 185 77.5t81 182.5q0 91 -61.5 154t-153.5 63z" />
    <glyph glyph-name="yen" unicode="&#xa5;" horiz-adv-x="1144" 
d="M1180 1405q0 -10 -21 -39l-391 -502h258q33 0 33 -51q0 -86 -47 -86h-350l-21 -197h350q33 0 33 -51q0 -86 -47 -86h-350l-37 -352q-6 -45 -86 -45h-17q-44 0 -60.5 11t-16.5 34l36 352h-346q-19 0 -25.5 12.5t-6.5 38.5q0 86 47 86h346l20 197h-346q-33 0 -33 51
q0 86 48 86h258l-287 502q-12 18 -12 33q0 20 21.5 29.5t74.5 9.5h22q69 0 86 -31l283 -504l397 506q20 29 94 29h19q74 -3 74 -33z" />
    <glyph glyph-name="brokenbar" unicode="&#xa6;" horiz-adv-x="512" 
d="M362 1577q25 0 35.5 -11t10.5 -34q0 -9 -12 -121.5t-30.5 -284.5t-27.5 -256q-6 -45 -53 -45h-21q-26 0 -35.5 11t-9.5 34q0 12 12 124.5t30.5 284t27.5 253.5q3 45 53 45h20zM246 463q25 0 35 -11t10 -34q0 -10 -12 -122t-31 -285.5t-27 -252.5q-6 -45 -53 -45h-21
q-26 0 -35.5 11t-9.5 34q0 13 12 124.5t31 284.5t27 251q3 45 53 45h21z" />
    <glyph glyph-name="section" unicode="&#xa7;" horiz-adv-x="878" 
d="M537 1446q37 0 77.5 -5t81 -16t66.5 -31t26 -46q0 -21 -25.5 -60t-47.5 -39q-2 0 -26 12.5t-65.5 24.5t-86.5 12q-87 0 -134 -37.5t-47 -97.5q0 -37 23 -63t60 -41t82 -29t90 -33.5t82 -48t60 -79t23 -119.5q0 -182 -139 -285q63 -60 63 -150q0 -85 -32.5 -150.5
t-86 -102.5t-114.5 -55.5t-125 -18.5q-85 0 -162.5 24.5t-77.5 71.5q0 49 9.5 80t23.5 31q5 0 34 -15t76 -30t95 -15q87 0 134.5 38t47.5 95q0 38 -23.5 64.5t-60.5 42.5t-82 30.5t-90 35t-82 49t-60.5 80.5t-23.5 122q0 171 138 279q-62 59 -62 153q0 83 33 147t86.5 101
t115 55.5t126.5 18.5zM408 891q-54 -15 -94 -58t-40 -118q0 -32 11.5 -57t26.5 -41t45 -30.5t51.5 -22t60.5 -19.5q54 12 92.5 55.5t38.5 122.5q0 37 -14.5 65t-45.5 47t-58.5 30.5t-73.5 25.5z" />
    <glyph glyph-name="dieresis" unicode="&#xa8;" horiz-adv-x="655" 
d="M195 1438q43 0 60 -11t17 -34l-10 -105q-7 -45 -94 -45q-44 0 -61 11t-17 34l10 105q7 45 95 45zM489 1438q78 0 78 -45l-10 -105q-7 -45 -94 -45q-44 0 -61 11t-17 34l10 105q3 45 94 45z" />
    <glyph glyph-name="copyright" unicode="&#xa9;" horiz-adv-x="1513" 
d="M756 1450q151 0 287 -57t235 -154t157 -232.5t58 -285.5t-58 -286.5t-157 -234.5t-235.5 -156t-286.5 -58t-286.5 58t-235 156t-156.5 234.5t-58 286.5q0 201 98.5 368.5t267.5 264t370 96.5zM756 1352q-129 0 -247 -49.5t-203.5 -133.5t-136 -201t-50.5 -247
q0 -129 50.5 -247t136 -203.5t203.5 -136t247 -50.5q130 0 248 50.5t204 136t136.5 203.5t50.5 247q0 173 -86 318.5t-233 229t-320 83.5zM793 1147q88 0 160.5 -25t72.5 -51q0 -16 -16 -44t-27 -28q-2 0 -25.5 14t-67 28t-95.5 14q-149 0 -219 -82.5t-70 -261.5
q0 -176 69.5 -259t212.5 -83q56 0 104.5 15.5t75.5 30.5t31 15q11 0 27 -26.5t16 -38.5q0 -28 -77 -58.5t-177 -30.5q-200 0 -296.5 106.5t-96.5 328.5q0 436 398 436z" />
    <glyph glyph-name="ordfeminine" unicode="&#xaa;" horiz-adv-x="653" 
d="M563 983q6 0 6 -6q0 -16 -4 -39q-3 -17 -22 -25t-37 -8q-92 0 -92 99v10q-57 -109 -162 -109q-29 0 -56.5 10t-55.5 33t-45 68.5t-17 107.5q0 141 69 231.5t183 90.5q75 0 135 -55q7 27 16 39t29 12h8q23 0 23 -21q-41 -374 -41 -401q0 -19 6.5 -28.5t13 -11t17.5 -1.5
q7 0 15.5 2t10.5 2zM426 1149q15 153 23 184q-56 39 -111 39q-172 0 -172 -242q0 -151 104 -151q42 0 86 40t70 130z" />
    <glyph glyph-name="guillemotleft" unicode="&#xab;" horiz-adv-x="964" 
d="M469 930q19 0 42.5 -19.5t23.5 -42.5q0 -11 -21 -45l-258 -295l195 -297q12 -18 12 -32q0 -20 -25.5 -47t-52.5 -27q-23 0 -43 27l-231 319q-21 30 -21 51q0 31 31 64l301 319q25 25 47 25zM821 930q19 0 42.5 -19.5t23.5 -42.5q0 -11 -21 -45l-258 -295l195 -297
q12 -18 12 -32q0 -20 -25.5 -47t-52.5 -27q-23 0 -43 27l-231 319q-21 30 -21 51q0 31 31 64l301 319q25 25 47 25z" />
    <glyph glyph-name="logicalnot" unicode="&#xac;" horiz-adv-x="1146" 
d="M1034 692q32 0 44 -14.5t12 -46.5l-46 -428q-6 -45 -65 -45h-27q-32 0 -44.5 11t-12.5 34l37 340h-801q-37 0 -37 41q0 33 2.5 53.5t14.5 37.5t34 17h889z" />
    <glyph glyph-name="uni00AD" unicode="&#xad;" horiz-adv-x="655" 
d="M530 616q20 0 27.5 -14t7.5 -41q0 -92 -51 -92h-397q-20 0 -27.5 14t-7.5 41q0 92 51 92h397z" />
    <glyph glyph-name="registered" unicode="&#xae;" horiz-adv-x="1513" 
d="M756 1452q151 0 287 -57t235 -154t157 -232.5t58 -285.5t-58 -286.5t-157 -234.5t-235.5 -156t-286.5 -58t-286.5 58t-235 156t-156.5 234.5t-58 286.5q0 201 98.5 368.5t267.5 264t370 96.5zM756 1354q-129 0 -247 -49.5t-203.5 -133.5t-136 -201t-50.5 -247
q0 -129 50.5 -247t136 -203.5t203.5 -136t247 -50.5q130 0 248 50.5t204 136t136.5 203.5t50.5 247q0 173 -86 318.5t-233 229t-320 83.5zM750 1143q145 0 217.5 -51t72.5 -162q0 -148 -139 -203v-8q35 -12 57.5 -46.5t51.5 -103.5l94 -237q4 -16 4 -19q0 -18 -51 -18h-13
q-40 0 -47 18l-92 238q-27 69 -67 94t-113 25h-109v-348q0 -27 -49 -27h-8q-49 0 -49 27v784q0 20 8.5 28.5t28.5 8.5h203zM768 1051h-152v-289h160q64 0 109 43.5t45 103.5q0 71 -43.5 106.5t-118.5 35.5z" />
    <glyph glyph-name="macron" unicode="&#xaf;" horiz-adv-x="655" 
d="M561 1399q20 0 27.5 -13t7.5 -40q0 -93 -51 -93h-463q-35 0 -35 56q0 90 51 90h463z" />
    <glyph glyph-name="degree" unicode="&#xb0;" horiz-adv-x="706" 
d="M375 1446q104 0 175 -70.5t71 -173.5q0 -128 -88 -213.5t-214 -85.5q-109 0 -177 70t-68 174q0 127 85.5 213t215.5 86zM367 1354q-80 0 -136.5 -60.5t-56.5 -140.5q0 -66 44 -112t110 -46q77 0 133.5 56.5t56.5 140.5q0 68 -43 115t-108 47z" />
    <glyph glyph-name="plusminus" unicode="&#xb1;" horiz-adv-x="1146" 
d="M645 1214q31 0 43 -14.5t12 -46.5l-36 -346h344q31 0 43 -13.5t12 -39.5q0 -31 -19.5 -57.5t-50.5 -26.5h-344l-37 -344q-6 -62 -67 -62h-15q-31 0 -43 15.5t-12 46.5l37 344h-346q-55 0 -55 53q0 32 19.5 58t49.5 26h346l37 346q6 61 68 61h14zM958 150q56 0 56 -54
q0 -36 -20.5 -66t-51.5 -30h-868q-31 0 -43.5 13t-12.5 40q0 34 20.5 65.5t51.5 31.5h868z" />
    <glyph glyph-name="uni00B2" unicode="&#xb2;" horiz-adv-x="655" 
d="M356 1446q106 0 169 -48.5t63 -127.5q0 -64 -21.5 -114t-74.5 -107l-318 -351h340q21 0 21 -32q0 -54 -31 -54h-441q-8 0 -16 22.5t-8 39.5q0 8 2 10l365 403q79 88 79 166q0 50 -36 78.5t-99 28.5q-48 0 -89 -15t-65 -30t-30 -15q-9 0 -20 22t-11 36q0 35 78 61.5
t143 26.5z" />
    <glyph glyph-name="uni00B3" unicode="&#xb3;" horiz-adv-x="655" 
d="M369 1446q100 0 158.5 -45.5t58.5 -132.5q0 -71 -39.5 -121t-100.5 -72l-2 -6q54 -13 91.5 -62t37.5 -124q0 -73 -28 -129t-73 -87t-93 -46t-96 -15q-29 0 -68 3.5t-85 18t-46 38.5q0 69 18 69q1 0 24 -11.5t66 -22.5t91 -11q25 0 49 5t50 18.5t45 34.5t31.5 56t12.5 79
q0 69 -42 98t-120 29h-41q-20 0 -20 30q0 54 31 54h32q46 0 82 18t54.5 45.5t28 54t9.5 48.5q0 42 -29.5 72t-99.5 30q-47 0 -85.5 -10t-60.5 -19.5t-28 -9.5q-9 0 -20.5 22.5t-11.5 36.5q0 24 78 44t141 20z" />
    <glyph glyph-name="acute" unicode="&#xb4;" horiz-adv-x="655" 
d="M412 1499q96 0 96 -24q0 -14 -22.5 -40t-113.5 -118q-50 -50 -81 -82q-37 -37 -109 -37q-45 0 -45 19q0 14 27.5 58.5t114.5 170.5q37 53 133 53z" />
    <glyph glyph-name="uni00B5" unicode="&#xb5;" horiz-adv-x="1159" 
d="M1106 145q12 0 12 -14q0 -31 -8 -76q-7 -34 -46.5 -50.5t-76.5 -16.5q-184 0 -184 200v21q-149 -221 -365 -221q-62 0 -125 18l-41 -387q-6 -45 -86 -45h-8q-78 0 -78 43l146 1413q5 45 86 45h8q42 0 60 -10.5t18 -34.5q-74 -706 -74 -735q0 -158 156 -158q38 0 78 16
t85.5 52t89 108t74.5 172l58 545q5 45 86 45h8q42 0 60 -10.5t18 -34.5q-80 -750 -80 -811q0 -30 6 -48.5t19 -25.5t22.5 -8.5t26.5 -1.5q14 0 32.5 5t22.5 5z" />
    <glyph glyph-name="paragraph" unicode="&#xb6;" horiz-adv-x="1054" 
d="M1077 1434q23 0 30 -9t7 -32l-4 -45q-3 -41 -45 -41h-74l-170 -1616q-6 -45 -45 -45h-45q-22 0 -29.5 10.5t-7.5 34.5l170 1616h-159l-170 -1616q-6 -45 -46 -45h-45q-22 0 -29 10.5t-7 34.5l86 815q-162 19 -265.5 135.5t-103.5 280.5q0 119 42.5 217t114.5 161.5
t164.5 98.5t194.5 35h436z" />
    <glyph glyph-name="periodcentered" unicode="&#xb7;" horiz-adv-x="546" 
d="M299 844q41 0 67.5 -27t26.5 -67q0 -52 -34 -84.5t-83 -32.5q-41 0 -67.5 26t-26.5 66q0 51 33 85t84 34z" />
    <glyph glyph-name="cedilla" unicode="&#xb8;" horiz-adv-x="655" 
d="M399 -100q16 0 33.5 -2t41.5 -10t41.5 -20.5t30.5 -37t13 -57.5q0 -51 -17.5 -89t-43.5 -59.5t-62.5 -34t-67 -16.5t-65.5 -4q-25 0 -53 3t-64 11t-59 26t-23 44q0 31 5 47t9 18t11 2q1 0 21.5 -12.5t58.5 -25.5t80 -13q123 0 123 82q0 26 -19 42t-42.5 21.5t-42.5 16
t-19 27.5q12 37 55 141h88l-41 -100h8z" />
    <glyph glyph-name="uni00B9" unicode="&#xb9;" horiz-adv-x="444" 
d="M358 1438q15 0 25 -7t10 -18l-82 -780q-3 -25 -47 -25h-8q-43 0 -43 25l74 698l-158 -35q-18 0 -18 47q0 18 4.5 25t19.5 10z" />
    <glyph glyph-name="ordmasculine" unicode="&#xba;" horiz-adv-x="690" 
d="M375 1446q39 0 72 -9t64 -31.5t49 -67.5t18 -109q0 -80 -17 -140.5t-42.5 -95t-61.5 -55.5t-68.5 -28t-69.5 -7q-210 0 -210 217q0 79 17.5 139t44.5 94.5t64 56.5t70.5 29t69.5 7zM365 1372q-77 0 -122.5 -59t-45.5 -189q0 -80 31 -113.5t94 -33.5q167 0 167 248
q0 79 -31.5 113t-92.5 34z" />
    <glyph glyph-name="guillemotright" unicode="&#xbb;" horiz-adv-x="964" 
d="M223 930q24 0 43 -25l232 -319q22 -32 22 -58q-2 -22 -33 -57l-301 -319q-27 -27 -47 -27q-24 0 -44.5 22.5t-20.5 42.5q0 13 20 41l260 297l-196 295q-13 19 -13 35q0 26 28 49t50 23zM575 930q24 0 43 -25l232 -319q22 -32 22 -58q-3 -23 -32 -57l-301 -319
q-27 -27 -47 -27q-24 0 -45 22.5t-21 42.5q0 13 20 41l261 297l-197 295q-12 18 -12 35q0 26 27.5 49t49.5 23z" />
    <glyph glyph-name="onequarter" unicode="&#xbc;" horiz-adv-x="1374" 
d="M1188 1440q26 0 26 -13q0 -7 -10 -20l-977 -1378q-21 -33 -65 -33h-27q-26 0 -26 12q0 11 10 21l977 1378q23 33 65 33h27zM395 1438q15 0 25 -7t10 -18l-82 -780q-3 -25 -47 -25h-8q-43 0 -43 25l74 698l-158 -35q-19 0 -19 47q0 17 5 24.5t20 10.5zM1159 827
q33 0 33 -26l-57 -539h79q21 0 21 -33q0 -51 -31 -51h-78l-16 -155q-2 -12 -12 -19.5t-25 -7.5h-26q-35 0 -35 27l16 155h-358q-9 0 -16 16.5t-7 34.5q0 13 4 21l449 561q13 16 41 16h18zM1079 655l-6 2l-307 -395h270l35 326z" />
    <glyph glyph-name="onehalf" unicode="&#xbd;" horiz-adv-x="1527" 
d="M1188 1440q26 0 26 -13q0 -7 -10 -20l-977 -1378q-21 -33 -65 -33h-27q-26 0 -26 12q0 11 10 21l977 1378q23 33 65 33h27zM395 1438q15 0 25 -7t10 -18l-82 -780q-3 -25 -47 -25h-8q-43 0 -43 25l74 698l-158 -35q-19 0 -19 47q0 17 5 24.5t20 10.5zM1163 834
q106 0 169 -49t63 -128q0 -64 -22 -114t-75 -107l-317 -350h340q20 0 20 -33q0 -53 -30 -53h-441q-8 0 -16 22t-8 39q0 9 2 11l364 403q80 89 80 166q0 50 -36 78.5t-99 28.5q-48 0 -89 -15t-65 -30t-30 -15q-9 0 -20 21.5t-11 35.5q0 35 78 62t143 27z" />
    <glyph glyph-name="threequarters" unicode="&#xbe;" horiz-adv-x="1511" 
d="M393 1446q100 0 158.5 -45.5t58.5 -132.5q0 -71 -39 -121t-100 -72l-2 -6q54 -13 91.5 -62t37.5 -124q0 -73 -28 -129t-73.5 -87t-93.5 -46t-96 -15q-29 0 -67.5 3.5t-84.5 18t-46 38.5q0 69 18 69q1 0 24 -11.5t65.5 -22.5t90.5 -11q32 0 62.5 9t60 29t48 60t18.5 95
q0 69 -42 98t-120 29h-41q-21 0 -21 30q0 54 31 54h33q46 0 82 18t54.5 45.5t28 54t9.5 48.5q0 42 -29.5 72t-99.5 30q-47 0 -85.5 -10t-60.5 -19.5t-28 -9.5q-9 0 -21 22.5t-12 36.5q0 24 78 44t141 20zM1323 1440q27 0 27 -13q0 -5 -11 -20l-977 -1378q-21 -33 -65 -33
h-27q-26 0 -26 12q0 11 10 21l977 1378q23 33 65 33h27zM1298 827q33 0 33 -26l-57 -539h80q20 0 20 -33q0 -51 -31 -51h-77l-17 -155q-2 -12 -12 -19.5t-25 -7.5h-26q-35 0 -35 27l16 155h-358q-9 0 -16 16.5t-7 34.5q0 11 5 21l448 561q13 16 41 16h18zM1219 655l-7 2
l-307 -395h271l34 318z" />
    <glyph glyph-name="questiondown" unicode="&#xbf;" horiz-adv-x="870" 
d="M696 1075q42 0 59 -11t17 -34l-14 -135q-3 -45 -86 -45h-35q-78 0 -78 45l14 135q3 45 89 45h34zM641 657q57 0 57 -43q0 -65 -58.5 -154.5t-152.5 -174.5q-52 -47 -75.5 -69t-59.5 -61t-51.5 -65t-28 -61.5t-12.5 -71.5q0 -180 238 -180q62 0 122 17t95 34.5t37 17.5
q9 0 11.5 -3.5t2.5 -20.5q0 -46 -10 -101q-6 -29 -43.5 -49.5t-90.5 -29.5t-95.5 -13t-77.5 -4q-183 0 -283 87t-100 220q0 62 23 120t60.5 105t84 92t95 88.5t91 86t75 92.5t44.5 100q9 41 71 41h31z" />
    <glyph glyph-name="Agrave" unicode="&#xc0;" horiz-adv-x="1255" 
d="M555 1862q95 0 127 -54q119 -205 119 -229q0 -18 -47 -18q-76 0 -105 36q-166 189 -178 207q-14 19 -14 33q3 25 98 25zM731 1438q72 0 80 -33l344 -1348q2 -8 2 -20q0 -41 -90 -41h-16q-72 0 -80 33l-86 336h-602l-152 -336q-13 -33 -84 -33h-10q-84 0 -84 33
q0 10 10 30l625 1346q13 33 84 33h59zM684 1249h-4q-21 -68 -43 -119l-281 -610h490l-150 610q-12 47 -12 119z" />
    <glyph glyph-name="Aacute" unicode="&#xc1;" horiz-adv-x="1255" 
d="M897 1862q96 0 96 -25q0 -14 -22.5 -40t-113.5 -118q-50 -50 -81 -82q-36 -36 -108 -36q-45 0 -45 18q0 14 28 59.5t113 169.5q37 54 133 54zM731 1438q72 0 80 -33l344 -1348q2 -8 2 -20q0 -41 -90 -41h-16q-72 0 -80 33l-86 336h-602l-152 -336q-13 -33 -84 -33h-10
q-84 0 -84 33q0 10 10 30l625 1346q13 33 84 33h59zM684 1249h-4q-21 -68 -43 -119l-281 -610h490l-150 610q-12 47 -12 119z" />
    <glyph glyph-name="Acircumflex" unicode="&#xc2;" horiz-adv-x="1255" 
d="M752 1833q67 0 90 -45l96 -180q10 -15 10 -35q-3 -31 -53 -31h-4q-39 0 -66 27l-112 151l-142 -151q-35 -27 -71 -27h-4q-43 0 -43 25q0 19 14 41l135 180q33 45 98 45h52zM731 1438q72 0 80 -33l344 -1348q2 -8 2 -20q0 -41 -90 -41h-16q-72 0 -80 33l-86 336h-602
l-152 -336q-13 -33 -84 -33h-10q-84 0 -84 33q0 10 10 30l625 1346q13 33 84 33h59zM684 1249h-4q-21 -68 -43 -119l-281 -610h490l-150 610q-12 47 -12 119z" />
    <glyph glyph-name="Atilde" unicode="&#xc3;" horiz-adv-x="1255" 
d="M549 1776q64 0 187.5 -44t168.5 -44q28 0 48.5 13t41.5 46q26 40 62 25l16 -7q20 -7 22.5 -18.5t-8.5 -34.5q-33 -75 -78 -107t-108 -32q-67 0 -192.5 44t-169.5 44q-26 0 -45 -14t-41 -48q-15 -23 -26.5 -27.5t-31.5 3.5l-20 8q-18 7 -20.5 19t5.5 32q61 142 189 142z
M731 1438q72 0 80 -33l344 -1348q2 -8 2 -20q0 -41 -90 -41h-16q-72 0 -80 33l-86 336h-602l-152 -336q-13 -33 -84 -33h-10q-84 0 -84 33q0 10 10 30l625 1346q13 33 84 33h59zM684 1249h-4q-21 -68 -43 -119l-281 -610h490l-150 610q-12 47 -12 119z" />
    <glyph glyph-name="Adieresis" unicode="&#xc4;" horiz-adv-x="1255" 
d="M588 1800q78 0 78 -45l-11 -104q-7 -45 -94 -45q-44 0 -61 11t-17 34l11 104q7 45 94 45zM883 1800q78 0 78 -45l-11 -104q-7 -45 -94 -45q-44 0 -61 11t-17 34l10 104q3 45 95 45zM731 1438q72 0 80 -33l344 -1348q2 -8 2 -20q0 -41 -90 -41h-16q-72 0 -80 33l-86 336
h-602l-152 -336q-13 -33 -84 -33h-10q-84 0 -84 33q0 10 10 30l625 1346q13 33 84 33h59zM684 1249h-4q-21 -68 -43 -119l-281 -610h490l-150 610q-12 47 -12 119z" />
    <glyph glyph-name="Aring" unicode="&#xc5;" horiz-adv-x="1255" 
d="M719 1864q67 0 111 -45t44 -111q0 -78 -56.5 -134t-133.5 -56q-68 0 -112 44t-44 111q0 77 57.5 134t133.5 57zM713 1792q-45 0 -79 -33t-34 -78q0 -40 24.5 -66t65.5 -26q47 0 80 33t33 80q0 39 -25.5 64.5t-64.5 25.5zM731 1438q72 0 80 -33l344 -1348q2 -8 2 -20
q0 -41 -90 -41h-16q-72 0 -80 33l-86 336h-602l-152 -336q-13 -33 -84 -33h-10q-84 0 -84 33q0 10 10 30l625 1346q13 33 84 33h59zM684 1249h-4q-21 -68 -43 -119l-281 -610h490l-150 610q-12 47 -12 119z" />
    <glyph glyph-name="AE" unicode="&#xc6;" horiz-adv-x="1873" 
d="M1724 1434q35 0 35 -45q0 -25 -1 -38.5t-5 -33.5t-15.5 -29.5t-29.5 -9.5h-750l54 -467h583q35 0 35 -45q0 -25 -1 -38.5t-5 -33.5t-15.5 -29.5t-29.5 -9.5h-551l57 -499h508q35 0 35 -45q0 -25 -1 -38.5t-5 -33.5t-15.5 -29.5t-29.5 -9.5h-598q-62 0 -68 59l-32 306
h-605l-198 -336q-20 -33 -84 -33h-10q-78 0 -78 31q0 15 12 36l795 1315q33 56 92 56h921zM797 1249h-4l-56 -119l-368 -612h489l-61 612v119z" />
    <glyph glyph-name="Ccedilla" unicode="&#xc7;" horiz-adv-x="1267" 
d="M834 1446q144 0 259 -41t115 -84q0 -26 -31 -73.5t-51 -47.5q-5 0 -46 22.5t-115.5 45t-161.5 22.5q-115 0 -207 -35t-153.5 -97.5t-102.5 -151.5t-59.5 -193t-18.5 -227q0 -227 104 -335t318 -108q62 0 122.5 10t103 24.5t76 29.5t53.5 25t24 10q14 0 14 -23
q0 -48 -14 -113q-11 -53 -130 -84.5t-257 -33.5l-37 -88h8q16 0 33.5 -2t41.5 -10t41.5 -20.5t30.5 -37t13 -57.5q0 -51 -17.5 -89t-43.5 -59.5t-62.5 -34t-67 -16.5t-65.5 -4q-25 0 -53 3t-64 11t-59 26t-23 44q0 31 5 47t9 18t11 2q1 0 21.5 -12.5t58.5 -25.5t80 -13
q122 0 122 82q0 26 -19 42t-42 21.5t-42 16t-19 27.5q12 35 51 131q-259 19 -384.5 158.5t-125.5 412.5q0 146 22.5 271.5t77.5 240.5t139.5 196t216.5 129t300 48z" />
    <glyph glyph-name="Egrave" unicode="&#xc8;" horiz-adv-x="1118" 
d="M516 1862q95 0 127 -54q119 -205 119 -229q0 -18 -47 -18q-76 0 -105 36q-166 189 -178 207q-14 19 -14 33q3 25 98 25zM1020 1434q35 0 35 -45q0 -25 -1 -38.5t-5 -33.5t-15.5 -29.5t-29.5 -9.5h-605l-49 -467h541q35 0 35 -45q0 -24 -1 -38.5t-5.5 -34t-16 -29
t-29.5 -9.5h-540l-51 -499h606q35 0 35 -45q0 -24 -1 -38.5t-5.5 -34t-16 -29t-29.5 -9.5h-725q-29 0 -42 11.5t-13 37.5q0 8 137 1323q6 62 68 62h723z" />
    <glyph glyph-name="Eacute" unicode="&#xc9;" horiz-adv-x="1118" 
d="M858 1862q96 0 96 -25q0 -14 -22.5 -40t-113.5 -118q-50 -50 -81 -82q-36 -36 -108 -36q-45 0 -45 18q0 14 28 59.5t113 169.5q37 54 133 54zM1020 1434q35 0 35 -45q0 -25 -1 -38.5t-5 -33.5t-15.5 -29.5t-29.5 -9.5h-605l-49 -467h541q35 0 35 -45q0 -24 -1 -38.5
t-5.5 -34t-16 -29t-29.5 -9.5h-540l-51 -499h606q35 0 35 -45q0 -24 -1 -38.5t-5.5 -34t-16 -29t-29.5 -9.5h-725q-29 0 -42 11.5t-13 37.5q0 8 137 1323q6 62 68 62h723z" />
    <glyph glyph-name="Ecircumflex" unicode="&#xca;" horiz-adv-x="1118" 
d="M713 1833q67 0 90 -45l96 -180q10 -15 10 -35q-3 -31 -53 -31h-4q-39 0 -66 27l-112 151l-142 -151q-35 -27 -71 -27h-4q-43 0 -43 25q0 19 14 41l135 180q33 45 99 45h51zM1020 1434q35 0 35 -45q0 -25 -1 -38.5t-5 -33.5t-15.5 -29.5t-29.5 -9.5h-605l-49 -467h541
q35 0 35 -45q0 -24 -1 -38.5t-5.5 -34t-16 -29t-29.5 -9.5h-540l-51 -499h606q35 0 35 -45q0 -24 -1 -38.5t-5.5 -34t-16 -29t-29.5 -9.5h-725q-29 0 -42 11.5t-13 37.5q0 8 137 1323q6 62 68 62h723z" />
    <glyph glyph-name="Edieresis" unicode="&#xcb;" horiz-adv-x="1118" 
d="M549 1800q78 0 78 -45l-11 -104q-7 -45 -94 -45q-44 0 -61 11t-17 34l11 104q7 45 94 45zM844 1800q78 0 78 -45l-11 -104q-7 -45 -94 -45q-44 0 -61 11t-17 34l11 104q3 45 94 45zM1020 1434q35 0 35 -45q0 -25 -1 -38.5t-5 -33.5t-15.5 -29.5t-29.5 -9.5h-605l-49 -467
h541q35 0 35 -45q0 -24 -1 -38.5t-5.5 -34t-16 -29t-29.5 -9.5h-540l-51 -499h606q35 0 35 -45q0 -24 -1 -38.5t-5.5 -34t-16 -29t-29.5 -9.5h-725q-29 0 -42 11.5t-13 37.5q0 8 137 1323q6 62 68 62h723z" />
    <glyph glyph-name="Igrave" unicode="&#xcc;" horiz-adv-x="577" 
d="M223 1862q95 0 127 -54q119 -205 119 -229q0 -18 -47 -18q-76 0 -105 36q-166 189 -178 207q-14 19 -14 33q3 25 98 25zM371 1438q78 0 78 -45l-142 -1352q-6 -45 -86 -45h-16q-44 0 -61 11t-17 34l141 1352q3 45 86 45h17z" />
    <glyph glyph-name="Iacute" unicode="&#xcd;" horiz-adv-x="577" 
d="M565 1862q97 0 97 -25q0 -14 -21.5 -38.5t-103.5 -107.5q-56 -57 -93 -94q-36 -36 -108 -36q-45 0 -45 18q0 14 28 59.5t113 169.5q37 54 133 54zM371 1438q78 0 78 -45l-142 -1352q-6 -45 -86 -45h-16q-44 0 -61 11t-17 34l141 1352q3 45 86 45h17z" />
    <glyph glyph-name="Icircumflex" unicode="&#xce;" horiz-adv-x="577" 
d="M420 1833q67 0 90 -45l96 -180q10 -15 10 -35q-3 -31 -53 -31h-4q-38 0 -65 27l-113 151l-141 -151q-34 -27 -72 -27h-4q-43 0 -43 25q0 19 14 41l135 180q33 45 99 45h51zM371 1438q78 0 78 -45l-142 -1352q-6 -45 -86 -45h-16q-44 0 -61 11t-17 34l141 1352q3 45 86 45
h17z" />
    <glyph glyph-name="Idieresis" unicode="&#xcf;" horiz-adv-x="577" 
d="M256 1800q78 0 78 -45l-10 -104q-7 -45 -95 -45q-44 0 -60.5 11t-16.5 34l10 104q7 45 94 45zM551 1800q78 0 78 -45l-11 -104q-7 -45 -94 -45q-44 0 -61 11t-17 34l11 104q3 45 94 45zM371 1438q78 0 78 -45l-142 -1352q-6 -45 -86 -45h-16q-44 0 -61 11t-17 34
l141 1352q3 45 86 45h17z" />
    <glyph glyph-name="Eth" unicode="&#xd0;" horiz-adv-x="1425" 
d="M748 1434q125 0 225.5 -32t179 -99t121.5 -182t43 -271q0 -185 -40 -332t-107 -242.5t-160.5 -158.5t-195.5 -90t-216 -27h-440q-29 0 -42.5 11.5t-13.5 37.5q0 14 62 606h-131q-35 0 -35 45q0 25 1 38.5t5 33.5t15.5 29.5t29.5 9.5h131q21 182 60 561q3 32 19 47t48 15
h441zM600 156q83 0 157.5 22t143.5 72.5t119 125.5t80 189t30 256q0 100 -21 178t-57.5 130t-89 86t-113 48.5t-132.5 14.5h-307l-50 -467h230q35 0 35 -45q0 -24 -1 -38.5t-5.5 -34t-16 -29t-29.5 -9.5h-229l-51 -499h307z" />
    <glyph glyph-name="Ntilde" unicode="&#xd1;" horiz-adv-x="1472" 
d="M649 1776q64 0 188 -44t169 -44q28 0 48.5 13t41.5 46q15 23 29 28t32 -3l17 -7q20 -7 22.5 -18.5t-8.5 -34.5q-33 -74 -78 -106.5t-109 -32.5q-67 0 -192.5 44t-169.5 44q-26 0 -45 -14t-41 -48q-15 -23 -26 -27.5t-31 3.5l-21 8q-12 5 -16.5 12t-3.5 15.5t6 23.5
q33 76 78.5 109t109.5 33zM1286 1438q78 0 78 -45l-141 -1352q-6 -45 -86 -45h-41q-54 0 -70 29l-582 1019l-43 105l-116 -1108q-6 -45 -86 -45h-15q-44 0 -61 11t-17 34l142 1352q3 45 86 45h43q34 0 52 -8.5t30 -30.5l563 -987l49 -115l115 1096q3 45 86 45h14z" />
    <glyph glyph-name="Ograve" unicode="&#xd2;" horiz-adv-x="1497" 
d="M678 1862q95 0 127 -54q119 -205 119 -229q0 -18 -47 -18q-76 0 -105 36q-166 189 -178 207q-14 20 -14 33q3 25 98 25zM823 1446q278 0 422 -148.5t144 -437.5q0 -420 -192.5 -646t-526.5 -226q-275 0 -418 150t-143 440q0 95 11 183.5t36.5 176.5t63.5 162.5t95.5 139
t130 110t168.5 71t209 25.5zM807 1290q-238 0 -375 -178t-137 -516q0 -223 99.5 -338t291.5 -115q235 0 374.5 182t139.5 515q0 223 -100 336.5t-293 113.5z" />
    <glyph glyph-name="Oacute" unicode="&#xd3;" horiz-adv-x="1497" 
d="M1020 1862q96 0 96 -25q0 -14 -22.5 -40t-113.5 -118q-50 -50 -81 -82q-36 -36 -108 -36q-46 0 -46 18q0 14 27.5 58.5t114.5 170.5q37 54 133 54zM823 1446q278 0 422 -148.5t144 -437.5q0 -420 -192.5 -646t-526.5 -226q-275 0 -418 150t-143 440q0 95 11 183.5
t36.5 176.5t63.5 162.5t95.5 139t130 110t168.5 71t209 25.5zM807 1290q-238 0 -375 -178t-137 -516q0 -223 99.5 -338t291.5 -115q235 0 374.5 182t139.5 515q0 223 -100 336.5t-293 113.5z" />
    <glyph glyph-name="Ocircumflex" unicode="&#xd4;" horiz-adv-x="1497" 
d="M874 1833q68 0 91 -45l96 -180q10 -15 10 -35q-3 -31 -53 -31h-4q-39 0 -66 27l-112 151l-142 -151q-34 -27 -71 -27h-5q-43 0 -43 25q0 17 15 41l135 180q33 45 98 45h51zM823 1446q278 0 422 -148.5t144 -437.5q0 -420 -192.5 -646t-526.5 -226q-275 0 -418 150
t-143 440q0 95 11 183.5t36.5 176.5t63.5 162.5t95.5 139t130 110t168.5 71t209 25.5zM807 1290q-238 0 -375 -178t-137 -516q0 -223 99.5 -338t291.5 -115q235 0 374.5 182t139.5 515q0 223 -100 336.5t-293 113.5z" />
    <glyph glyph-name="Otilde" unicode="&#xd5;" horiz-adv-x="1497" 
d="M672 1776q64 0 187.5 -44t168.5 -44q28 0 48.5 13t41.5 46q26 40 62 25l16 -7q20 -7 22.5 -18.5t-8.5 -34.5q-33 -75 -78 -107t-108 -32q-67 0 -192.5 44t-169.5 44q-26 0 -45.5 -14t-41.5 -48q-15 -23 -26 -27.5t-31 3.5l-20 8q-18 7 -20.5 19t5.5 32q61 142 189 142z
M823 1446q278 0 422 -148.5t144 -437.5q0 -420 -192.5 -646t-526.5 -226q-275 0 -418 150t-143 440q0 95 11 183.5t36.5 176.5t63.5 162.5t95.5 139t130 110t168.5 71t209 25.5zM807 1290q-238 0 -375 -178t-137 -516q0 -223 99.5 -338t291.5 -115q235 0 374.5 182
t139.5 515q0 223 -100 336.5t-293 113.5z" />
    <glyph glyph-name="Odieresis" unicode="&#xd6;" horiz-adv-x="1497" 
d="M711 1800q43 0 60 -11t17 -34l-10 -104q-7 -45 -94 -45q-44 0 -61 11t-17 34l10 104q7 45 95 45zM1006 1800q43 0 60 -11t17 -34l-10 -104q-7 -45 -94 -45q-44 0 -61 11t-17 34l10 104q3 45 95 45zM823 1446q278 0 422 -148.5t144 -437.5q0 -420 -192.5 -646t-526.5 -226
q-275 0 -418 150t-143 440q0 95 11 183.5t36.5 176.5t63.5 162.5t95.5 139t130 110t168.5 71t209 25.5zM807 1290q-238 0 -375 -178t-137 -516q0 -223 99.5 -338t291.5 -115q235 0 374.5 182t139.5 515q0 223 -100 336.5t-293 113.5z" />
    <glyph glyph-name="multiply" unicode="&#xd7;" horiz-adv-x="1146" 
d="M999 930q14 0 29 -15l35 -41q10 -12 10 -28q0 -13 -16 -29l-387 -350l313 -352q10 -13 10 -29q0 -13 -16 -29l-45 -41q-16 -16 -29 -16t-29 16l-311 355l-389 -355q-16 -16 -29 -16q-12 0 -28 16l-33 41q-14 14 -14 29q0 12 20 29l387 352l-313 350q-14 14 -14 29
q0 11 20 28l43 41q15 15 29 15q13 0 28 -15l314 -352l387 352q15 15 28 15z" />
    <glyph glyph-name="Oslash" unicode="&#xd8;" horiz-adv-x="1497" 
d="M823 1446q278 0 420 -148l127 125q15 15 29 15q13 0 26 -13l5 -4q10 -10 10 -22q0 -14 -15 -29l-133 -133q97 -145 97 -377q0 -420 -192.5 -646t-526.5 -226q-308 0 -449 184l-153 -154q-16 -16 -29 -16t-25 12l-4 4q-12 12 -12 25t16 29l166 166q-71 136 -71 340
q0 95 11 183.5t36.5 176.5t63.5 162.5t95.5 139t130 110t168.5 71t209 25.5zM807 1290q-238 0 -375 -178t-137 -516q0 -122 31 -213l784 780q-103 127 -303 127zM1151 1098l-793 -791q95 -164 328 -164q235 0 374.5 182t139.5 515q0 157 -49 258z" />
    <glyph glyph-name="Ugrave" unicode="&#xd9;" horiz-adv-x="1458" 
d="M645 1862q95 0 127 -54q119 -205 119 -229q0 -18 -47 -18q-76 0 -105 36q-166 189 -178 207q-14 20 -14 33q3 25 98 25zM1276 1438q42 0 59 -11t17 -34l-99 -934q-23 -223 -181.5 -347t-426.5 -124q-250 0 -382 106.5t-132 300.5q0 23 102 998q3 45 89 45h16q42 0 59 -11
t17 -34q-101 -959 -101 -971q0 -128 90.5 -203.5t258.5 -75.5q165 0 281.5 87.5t129.5 222.5l98 940q3 45 89 45h16z" />
    <glyph glyph-name="Uacute" unicode="&#xda;" horiz-adv-x="1458" 
d="M987 1862q96 0 96 -25q0 -14 -22.5 -40t-113.5 -118q-50 -50 -81 -82q-36 -36 -108 -36q-45 0 -45 18q0 14 28 59.5t113 169.5q37 54 133 54zM1276 1438q42 0 59 -11t17 -34l-99 -934q-23 -223 -181.5 -347t-426.5 -124q-250 0 -382 106.5t-132 300.5q0 23 102 998
q3 45 89 45h16q42 0 59 -11t17 -34q-101 -959 -101 -971q0 -128 90.5 -203.5t258.5 -75.5q165 0 281.5 87.5t129.5 222.5l98 940q3 45 89 45h16z" />
    <glyph glyph-name="Ucircumflex" unicode="&#xdb;" horiz-adv-x="1458" 
d="M842 1833q67 0 90 -45l96 -180q10 -15 10 -35q-3 -31 -53 -31h-4q-39 0 -66 27l-112 151l-141 -151q-35 -27 -72 -27h-4q-43 0 -43 25q0 19 14 41l135 180q33 45 99 45h51zM1276 1438q42 0 59 -11t17 -34l-99 -934q-23 -223 -181.5 -347t-426.5 -124q-250 0 -382 106.5
t-132 300.5q0 23 102 998q3 45 89 45h16q42 0 59 -11t17 -34q-101 -959 -101 -971q0 -128 90.5 -203.5t258.5 -75.5q165 0 281.5 87.5t129.5 222.5l98 940q3 45 89 45h16z" />
    <glyph glyph-name="Udieresis" unicode="&#xdc;" horiz-adv-x="1458" 
d="M678 1800q78 0 78 -45l-11 -104q-7 -45 -94 -45q-44 0 -61 11t-17 34l11 104q7 45 94 45zM973 1800q78 0 78 -45l-11 -104q-7 -45 -94 -45q-44 0 -61 11t-17 34l11 104q3 45 94 45zM1276 1438q42 0 59 -11t17 -34l-99 -934q-23 -223 -181.5 -347t-426.5 -124
q-250 0 -382 106.5t-132 300.5q0 23 102 998q3 45 89 45h16q42 0 59 -11t17 -34q-101 -959 -101 -971q0 -128 90.5 -203.5t258.5 -75.5q165 0 281.5 87.5t129.5 222.5l98 940q3 45 89 45h16z" />
    <glyph glyph-name="Yacute" unicode="&#xdd;" horiz-adv-x="1144" 
d="M852 1862q96 0 96 -25q0 -14 -22.5 -40t-113.5 -118q-50 -50 -81 -82q-36 -36 -108 -36q-45 0 -45 18q0 14 28 59.5t113 169.5q37 54 133 54zM1087 1438h19q74 -3 74 -33q0 -10 -21 -39l-497 -637l-72 -688q-6 -45 -86 -45h-17q-44 0 -60.5 11t-16.5 34l71 694l-360 631
q-12 18 -12 33q0 20 21.5 29.5t74.5 9.5h22q69 0 86 -31l283 -504l397 506q20 29 94 29z" />
    <glyph glyph-name="Thorn" unicode="&#xde;" horiz-adv-x="1161" 
d="M346 1438q78 0 78 -45l-23 -209h297q57 0 108.5 -7t110.5 -29.5t101.5 -58.5t71 -99.5t28.5 -147.5q0 -89 -20 -162t-52 -122t-76.5 -86t-88 -58t-93 -33.5t-85.5 -16.5t-70 -4h-318l-32 -319q-6 -45 -86 -45h-17q-44 0 -61 11t-17 34l142 1352q6 45 86 45h16zM676 1028
h-291l-53 -512h319q23 0 49 5t59 16.5t62 34t54 54t40 81t15 110.5q0 50 -16 88t-40.5 61t-59.5 37.5t-68 19.5t-70 5z" />
    <glyph glyph-name="germandbls" unicode="&#xdf;" horiz-adv-x="1134" 
d="M664 1446q81 0 146 -15.5t116.5 -49.5t79.5 -93t28 -139q0 -106 -65 -208.5t-178 -147.5v-7q112 -27 171.5 -111.5t59.5 -203.5q0 -147 -69.5 -256t-178.5 -162t-239 -53h-70q-20 0 -27.5 14t-7.5 41q0 92 51 92h72q120 0 204.5 85t84.5 229q0 108 -65.5 171.5
t-166.5 63.5h-71q-35 0 -35 56q0 92 51 92h25q107 0 188.5 80.5t81.5 191.5q0 53 -17.5 90t-49 56.5t-65.5 27.5t-75 8q-105 0 -173.5 -62t-78.5 -169l-108 -1026q-6 -45 -86 -45h-9q-43 0 -60 11t-17 34l108 1026q17 168 140 273.5t305 105.5z" />
    <glyph glyph-name="agrave" unicode="&#xe0;" horiz-adv-x="1116" 
d="M633 1198q-75 0 -105 37q-166 189 -178 207q-14 19 -14 33q3 24 98 24q96 0 127 -53q119 -205 119 -229q0 -19 -47 -19zM1047 145q12 0 12 -14q0 -31 -8 -76q-7 -34 -46.5 -50.5t-76.5 -16.5q-185 0 -185 200v21q-116 -221 -319 -221q-44 0 -87 11.5t-90.5 42.5t-83 78.5
t-58.5 127.5t-23 182q0 190 61.5 338t176 231.5t264.5 83.5q145 0 260 -110q10 28 15.5 42t16 30.5t25 23t35.5 6.5h12q29 0 40 -10.5t11 -32.5q-81 -758 -81 -813q0 -30 6 -48.5t19 -25.5t22 -8.5t26 -1.5q14 0 33 5t23 5zM797 752q4 35 16 102q-101 80 -213 80
q-79 0 -139.5 -28t-98 -74t-61 -111t-32.5 -132.5t-9 -146.5q0 -305 203 -305q37 0 75 17t80 54t82 108t70 167z" />
    <glyph glyph-name="aacute" unicode="&#xe1;" horiz-adv-x="1116" 
d="M547 1198q-45 0 -45 19q0 14 28 59.5t113 169.5q37 53 133 53t96 -24q0 -14 -22.5 -40t-113.5 -118q-50 -50 -81 -82q-37 -37 -108 -37zM1047 145q12 0 12 -14q0 -31 -8 -76q-7 -34 -46.5 -50.5t-76.5 -16.5q-185 0 -185 200v21q-116 -221 -319 -221q-44 0 -87 11.5
t-90.5 42.5t-83 78.5t-58.5 127.5t-23 182q0 190 61.5 338t176 231.5t264.5 83.5q145 0 260 -110q10 28 15.5 42t16 30.5t25 23t35.5 6.5h12q29 0 40 -10.5t11 -32.5q-81 -758 -81 -813q0 -30 6 -48.5t19 -25.5t22 -8.5t26 -1.5q14 0 33 5t23 5zM797 752q4 35 16 102
q-101 80 -213 80q-79 0 -139.5 -28t-98 -74t-61 -111t-32.5 -132.5t-9 -146.5q0 -305 203 -305q37 0 75 17t80 54t82 108t70 167z" />
    <glyph glyph-name="acircumflex" unicode="&#xe2;" horiz-adv-x="1116" 
d="M375 1180q-43 0 -43 24q0 19 14 41l135 180q33 45 99 45h51q67 0 90 -45l96 -180q10 -15 10 -35q-3 -30 -53 -30h-4q-39 0 -65 26l-113 152l-141 -152q-33 -26 -72 -26h-4zM1047 145q12 0 12 -14q0 -31 -8 -76q-7 -34 -46.5 -50.5t-76.5 -16.5q-185 0 -185 200v21
q-116 -221 -319 -221q-44 0 -87 11.5t-90.5 42.5t-83 78.5t-58.5 127.5t-23 182q0 190 61.5 338t176 231.5t264.5 83.5q145 0 260 -110q10 28 15.5 42t16 30.5t25 23t35.5 6.5h12q29 0 40 -10.5t11 -32.5q-81 -758 -81 -813q0 -30 6 -48.5t19 -25.5t22 -8.5t26 -1.5
q14 0 33 5t23 5zM797 752q4 35 16 102q-101 80 -213 80q-79 0 -139.5 -28t-98 -74t-61 -111t-32.5 -132.5t-9 -146.5q0 -305 203 -305q37 0 75 17t80 54t82 108t70 167z" />
    <glyph glyph-name="atilde" unicode="&#xe3;" horiz-adv-x="1116" 
d="M254 1221q-12 5 -16.5 12t-3.5 15.5t6 23.5q33 76 78.5 108.5t109.5 32.5t187.5 -44t168.5 -44q28 0 48.5 13t41.5 46q26 40 62 25l16 -6q20 -7 23 -18.5t-8 -34.5q-33 -75 -78.5 -107.5t-108.5 -32.5q-67 0 -192.5 44t-169.5 44q-26 0 -45 -13.5t-41 -47.5
q-15 -23 -26.5 -28t-31.5 3zM1047 145q12 0 12 -14q0 -31 -8 -76q-7 -34 -46.5 -50.5t-76.5 -16.5q-185 0 -185 200v21q-116 -221 -319 -221q-44 0 -87 11.5t-90.5 42.5t-83 78.5t-58.5 127.5t-23 182q0 190 61.5 338t176 231.5t264.5 83.5q145 0 260 -110q10 28 15.5 42
t16 30.5t25 23t35.5 6.5h12q29 0 40 -10.5t11 -32.5q-81 -758 -81 -813q0 -30 6 -48.5t19 -25.5t22 -8.5t26 -1.5q14 0 33 5t23 5zM797 752q4 35 16 102q-101 80 -213 80q-79 0 -139.5 -28t-98 -74t-61 -111t-32.5 -132.5t-9 -146.5q0 -305 203 -305q37 0 75 17t80 54
t82 108t70 167z" />
    <glyph glyph-name="adieresis" unicode="&#xe4;" horiz-adv-x="1116" 
d="M440 1243q-44 0 -61 11t-17 34l11 105q7 45 94 45q78 0 78 -45l-10 -105q-7 -45 -95 -45zM735 1243q-44 0 -61 11t-17 34l11 105q3 45 94 45q78 0 78 -45l-11 -105q-7 -45 -94 -45zM1047 145q12 0 12 -14q0 -31 -8 -76q-7 -34 -46.5 -50.5t-76.5 -16.5q-185 0 -185 200
v21q-116 -221 -319 -221q-44 0 -87 11.5t-90.5 42.5t-83 78.5t-58.5 127.5t-23 182q0 190 61.5 338t176 231.5t264.5 83.5q145 0 260 -110q10 28 15.5 42t16 30.5t25 23t35.5 6.5h12q29 0 40 -10.5t11 -32.5q-81 -758 -81 -813q0 -30 6 -48.5t19 -25.5t22 -8.5t26 -1.5
q14 0 33 5t23 5zM797 752q4 35 16 102q-101 80 -213 80q-79 0 -139.5 -28t-98 -74t-61 -111t-32.5 -132.5t-9 -146.5q0 -305 203 -305q37 0 75 17t80 54t82 108t70 167z" />
    <glyph glyph-name="aring" unicode="&#xe5;" horiz-adv-x="1116" 
d="M563 1155q-68 0 -111.5 44.5t-43.5 111.5q0 77 57 133.5t133 56.5q67 0 111.5 -44.5t44.5 -110.5q0 -78 -57 -134.5t-134 -56.5zM592 1430q-45 0 -79 -33t-34 -78q0 -40 24.5 -66t65.5 -26q47 0 80 32.5t33 79.5q0 39 -25.5 65t-64.5 26zM1047 145q12 0 12 -14
q0 -31 -8 -76q-7 -34 -46.5 -50.5t-76.5 -16.5q-185 0 -185 200v21q-116 -221 -319 -221q-44 0 -87 11.5t-90.5 42.5t-83 78.5t-58.5 127.5t-23 182q0 190 61.5 338t176 231.5t264.5 83.5q145 0 260 -110q10 28 15.5 42t16 30.5t25 23t35.5 6.5h12q29 0 40 -10.5t11 -32.5
q-81 -758 -81 -813q0 -30 6 -48.5t19 -25.5t22 -8.5t26 -1.5q14 0 33 5t23 5zM797 752q4 35 16 102q-101 80 -213 80q-79 0 -139.5 -28t-98 -74t-61 -111t-32.5 -132.5t-9 -146.5q0 -305 203 -305q37 0 75 17t80 54t82 108t70 167z" />
    <glyph glyph-name="ae" unicode="&#xe6;" horiz-adv-x="1697" 
d="M1032 463h-176v-33q0 -161 77 -228t222 -67q81 0 153.5 25.5t114.5 50.5t50 25q5 0 7.5 -1t4.5 -6.5t2 -17.5q0 -38 -10 -92q-6 -34 -47 -60.5t-95.5 -41t-105.5 -22t-88 -7.5q-260 0 -373 131q-70 -57 -178.5 -94t-210.5 -37q-145 0 -232.5 66.5t-87.5 197.5
q0 63 20 114.5t53 87t83.5 62.5t102.5 43t120 26.5t126 14.5t130 6q24 134 90 242q-43 88 -200 88q-82 0 -158.5 -21.5t-121 -43t-48.5 -21.5q-20 0 -40.5 39t-20.5 61q0 42 125.5 87.5t273.5 45.5q214 0 307 -104q136 104 340 104q74 0 134.5 -17.5t98.5 -45.5t64 -64.5
t36.5 -72.5t10.5 -72q0 -78 -31 -139t-83 -99.5t-124.5 -64t-149.5 -35.5t-165 -10zM1223 936q-293 0 -353 -326h142q23 0 50.5 1.5t77 7t93 18.5t84.5 32t65.5 51.5t24.5 74.5q0 65 -48.5 103t-135.5 38zM403 137q147 0 299 103q-24 74 -24 172v51q-432 0 -432 -193
q0 -133 157 -133z" />
    <glyph glyph-name="ccedilla" unicode="&#xe7;" horiz-adv-x="993" 
d="M637 1083q129 0 208 -34.5t79 -71.5q0 -23 -28 -63t-52 -40q-3 0 -8 3t-16.5 10t-20.5 12q-76 37 -183 37q-74 0 -134 -27.5t-107.5 -85.5t-74 -158t-26.5 -235q0 -154 67 -224.5t212 -70.5q113 0 225 45q48 19 49 19q7 0 10 -4.5t3 -20.5q0 -36 -11 -92
q-5 -25 -31.5 -43t-67 -28t-76.5 -14.5t-74 -6.5l-37 -90h8q16 0 33.5 -2t41.5 -10t41.5 -20.5t30.5 -37t13 -57.5q0 -51 -17.5 -89t-43.5 -59.5t-62.5 -34t-67 -16.5t-65.5 -4q-25 0 -53 3t-64 11t-59 26t-23 44q0 31 5 47t9 18t11 2q1 0 21.5 -12.5t58 -25.5t79.5 -13
q123 0 123 82q0 26 -19 42t-42.5 21.5t-42.5 16t-19 27.5q13 35 52 131q-198 9 -297 112t-99 316q0 109 18 204.5t59.5 181t103 147t153.5 97t207 35.5z" />
    <glyph glyph-name="egrave" unicode="&#xe8;" horiz-adv-x="1103" 
d="M688 1198q-74 0 -104 37q-167 191 -177 205q-16 21 -16 35q3 24 98 24q96 0 127 -53q119 -205 119 -229q0 -19 -47 -19zM449 436q-96 0 -177 15v-21q0 -161 77 -228t222 -67q81 0 153.5 25.5t114.5 50.5t50 25q5 0 7.5 -1t4.5 -6.5t2 -17.5q0 -38 -10 -92
q-6 -34 -47 -60.5t-95.5 -41t-105.5 -22t-88 -7.5q-463 0 -463 424q0 113 19.5 211t63.5 183.5t108.5 146.5t159.5 95.5t212 34.5q74 0 134.5 -18.5t98.5 -47t64 -66t36.5 -72.5t10.5 -68q0 -83 -31 -148.5t-82.5 -107t-124 -69t-149.5 -39t-165 -11.5zM639 936
q-306 0 -356 -352h145q19 0 34.5 0.5t51.5 2.5t65.5 8t67.5 15t67 25.5t55 37.5t40 52.5t14 69.5q0 60 -49.5 100.5t-134.5 40.5z" />
    <glyph glyph-name="eacute" unicode="&#xe9;" horiz-adv-x="1103" 
d="M602 1198q-45 0 -45 19q0 14 28 59.5t113 169.5q37 53 133 53q97 0 97 -24q0 -14 -22.5 -40t-113.5 -118q-50 -50 -81 -82q-37 -37 -109 -37zM449 436q-96 0 -177 15v-21q0 -161 77 -228t222 -67q81 0 153.5 25.5t114.5 50.5t50 25q5 0 7.5 -1t4.5 -6.5t2 -17.5
q0 -38 -10 -92q-6 -34 -47 -60.5t-95.5 -41t-105.5 -22t-88 -7.5q-463 0 -463 424q0 113 19.5 211t63.5 183.5t108.5 146.5t159.5 95.5t212 34.5q74 0 134.5 -18.5t98.5 -47t64 -66t36.5 -72.5t10.5 -68q0 -83 -31 -148.5t-82.5 -107t-124 -69t-149.5 -39t-165 -11.5z
M639 936q-306 0 -356 -352h145q19 0 34.5 0.5t51.5 2.5t65.5 8t67.5 15t67 25.5t55 37.5t40 52.5t14 69.5q0 60 -49.5 100.5t-134.5 40.5z" />
    <glyph glyph-name="ecircumflex" unicode="&#xea;" horiz-adv-x="1103" 
d="M430 1180q-43 0 -43 24q0 19 14 41l136 180q33 45 98 45h51q67 0 90 -45l96 -180q11 -17 11 -35q-3 -30 -54 -30h-4q-39 0 -65 26l-113 152l-141 -152q-33 -26 -72 -26h-4zM449 436q-96 0 -177 15v-21q0 -161 77 -228t222 -67q81 0 153.5 25.5t114.5 50.5t50 25
q5 0 7.5 -1t4.5 -6.5t2 -17.5q0 -38 -10 -92q-6 -34 -47 -60.5t-95.5 -41t-105.5 -22t-88 -7.5q-463 0 -463 424q0 113 19.5 211t63.5 183.5t108.5 146.5t159.5 95.5t212 34.5q74 0 134.5 -18.5t98.5 -47t64 -66t36.5 -72.5t10.5 -68q0 -83 -31 -148.5t-82.5 -107t-124 -69
t-149.5 -39t-165 -11.5zM639 936q-306 0 -356 -352h145q19 0 34.5 0.5t51.5 2.5t65.5 8t67.5 15t67 25.5t55 37.5t40 52.5t14 69.5q0 60 -49.5 100.5t-134.5 40.5z" />
    <glyph glyph-name="edieresis" unicode="&#xeb;" horiz-adv-x="1103" 
d="M496 1243q-44 0 -61 11t-17 34l10 105q7 45 94 45q78 0 78 -45l-10 -105q-7 -45 -94 -45zM791 1243q-44 0 -61 11t-17 34l10 105q3 45 94 45q78 0 78 -45l-10 -105q-7 -45 -94 -45zM449 436q-96 0 -177 15v-21q0 -161 77 -228t222 -67q81 0 153.5 25.5t114.5 50.5t50 25
q5 0 7.5 -1t4.5 -6.5t2 -17.5q0 -38 -10 -92q-6 -34 -47 -60.5t-95.5 -41t-105.5 -22t-88 -7.5q-463 0 -463 424q0 113 19.5 211t63.5 183.5t108.5 146.5t159.5 95.5t212 34.5q74 0 134.5 -18.5t98.5 -47t64 -66t36.5 -72.5t10.5 -68q0 -83 -31 -148.5t-82.5 -107t-124 -69
t-149.5 -39t-165 -11.5zM639 936q-306 0 -356 -352h145q19 0 34.5 0.5t51.5 2.5t65.5 8t67.5 15t67 25.5t55 37.5t40 52.5t14 69.5q0 60 -49.5 100.5t-134.5 40.5z" />
    <glyph glyph-name="igrave" unicode="&#xec;" horiz-adv-x="542" 
d="M154 1499q96 0 127 -53q118 -203 118 -229q0 -19 -47 -19q-74 0 -104 37q-167 191 -177 205q-16 21 -16 35q3 24 99 24zM307 1075q42 0 60 -10.5t18 -34.5q-82 -750 -82 -811q0 -30 6 -48.5t18.5 -25.5t21.5 -8.5t26 -1.5q14 0 32.5 5t22.5 5q12 0 12 -14q0 -31 -8 -76
q-7 -34 -46.5 -50.5t-76.5 -16.5q-182 0 -182 194q0 38 20 249.5t41 405t23 193.5q5 45 86 45h8z" />
    <glyph glyph-name="iacute" unicode="&#xed;" horiz-adv-x="542" 
d="M496 1499q96 0 96 -24q0 -14 -22.5 -40t-113.5 -118q-50 -50 -81 -82q-37 -37 -109 -37q-45 0 -45 19q0 14 28 59.5t113 169.5q37 53 134 53zM307 1075q42 0 60 -10.5t18 -34.5q-82 -750 -82 -811q0 -30 6 -48.5t18.5 -25.5t21.5 -8.5t26 -1.5q14 0 32.5 5t22.5 5
q12 0 12 -14q0 -31 -8 -76q-7 -34 -46.5 -50.5t-76.5 -16.5q-182 0 -182 194q0 38 20 249.5t41 405t23 193.5q5 45 86 45h8z" />
    <glyph glyph-name="icircumflex" unicode="&#xee;" horiz-adv-x="542" 
d="M350 1470q67 0 90 -45l97 -180q10 -15 10 -35q-3 -30 -53 -30h-5q-39 0 -65 26l-113 152l-141 -152q-33 -26 -72 -26h-4q-43 0 -43 24q0 17 15 41l135 180q33 45 98 45h51zM307 1075q42 0 60 -10.5t18 -34.5q-82 -750 -82 -811q0 -30 6 -48.5t18.5 -25.5t21.5 -8.5
t26 -1.5q14 0 32.5 5t22.5 5q12 0 12 -14q0 -31 -8 -76q-7 -34 -46.5 -50.5t-76.5 -16.5q-182 0 -182 194q0 38 20 249.5t41 405t23 193.5q5 45 86 45h8z" />
    <glyph glyph-name="idieresis" unicode="&#xef;" horiz-adv-x="542" 
d="M186 1438q78 0 78 -45l-10 -105q-7 -45 -94 -45q-44 0 -61 11t-17 34l10 105q7 45 94 45zM481 1438q78 0 78 -45l-10 -105q-7 -45 -94 -45q-44 0 -61 11t-17 34l10 105q3 45 94 45zM307 1075q42 0 60 -10.5t18 -34.5q-82 -750 -82 -811q0 -30 6 -48.5t18.5 -25.5
t21.5 -8.5t26 -1.5q14 0 32.5 5t22.5 5q12 0 12 -14q0 -31 -8 -76q-7 -34 -46.5 -50.5t-76.5 -16.5q-182 0 -182 194q0 38 20 249.5t41 405t23 193.5q5 45 86 45h8z" />
    <glyph glyph-name="eth" unicode="&#xf0;" horiz-adv-x="1165" 
d="M715 1460q36 0 59 -30l53 -78l162 22q23 0 33 -21t10 -40q0 -28 -33 -31l-125 -16q164 -308 164 -621q0 -318 -139 -487.5t-389 -169.5q-207 0 -315.5 111t-108.5 325q0 312 145 485.5t394 173.5q87 0 161 -24q-42 113 -75 184q-177 -24 -179 -24q-19 0 -33 19t-14 42
q0 25 35 31l150 20q-10 17 -47 80q-9 12 -9 21q0 17 25 20q48 8 76 8zM602 936q-163 0 -251.5 -125.5t-88.5 -378.5q0 -152 62.5 -224.5t193.5 -72.5q165 0 253.5 124.5t88.5 375.5q0 152 -64 226.5t-194 74.5z" />
    <glyph glyph-name="ntilde" unicode="&#xf1;" 
d="M266 1221q-12 5 -16.5 12t-3.5 15.5t6 23.5q33 76 78.5 108.5t109.5 32.5t188 -44t169 -44q28 0 48.5 13t41.5 46q15 23 29 28t32 -3l17 -6q20 -7 22.5 -18.5t-8.5 -34.5q-33 -75 -78 -107.5t-108 -32.5q-67 0 -193 44t-170 44q-26 0 -45 -13.5t-41 -47.5
q-15 -23 -26 -28t-31 3zM1034 145q13 0 13 -14q0 -25 -9 -76q-7 -34 -46.5 -50.5t-76.5 -16.5q-184 0 -184 200q0 38 28.5 305t28.5 283q0 158 -155 158q-29 0 -60 -8.5t-68 -32t-71 -59t-68 -95t-59 -135.5l-59 -563q-6 -45 -86 -45h-8q-78 0 -78 43q90 801 90 897
q0 29 -1 49t-1 21q0 16 15 26.5t38 14.5t37 5t25 1q53 0 53 -138v-38q150 206 362 206q142 0 206.5 -71.5t64.5 -194.5q0 -16 -30 -296t-30 -302q0 -30 6 -48.5t19 -25.5t22.5 -8.5t26.5 -1.5q14 0 32.5 5t22.5 5z" />
    <glyph glyph-name="ograve" unicode="&#xf2;" horiz-adv-x="1165" 
d="M479 1499q96 0 127 -53q119 -205 119 -229q0 -19 -47 -19q-75 0 -105 37q-166 189 -178 207q-14 19 -14 33q3 24 98 24zM633 1083q201 0 306 -113.5t105 -330.5q0 -314 -139.5 -482.5t-388.5 -168.5q-209 0 -316.5 112t-107.5 328q0 105 19 199t61 178t104 145.5
t153.5 97t203.5 35.5zM610 936q-166 0 -254 -133.5t-88 -368.5q0 -152 63.5 -225.5t194.5 -73.5q165 0 252.5 128t87.5 372q0 154 -62.5 227.5t-193.5 73.5z" />
    <glyph glyph-name="oacute" unicode="&#xf3;" horiz-adv-x="1165" 
d="M821 1499q97 0 97 -24q0 -14 -21.5 -38.5t-103.5 -107.5q-56 -57 -93 -94t-108 -37q-45 0 -45 19q0 14 28 59.5t113 169.5q37 53 133 53zM633 1083q201 0 306 -113.5t105 -330.5q0 -314 -139.5 -482.5t-388.5 -168.5q-209 0 -316.5 112t-107.5 328q0 105 19 199t61 178
t104 145.5t153.5 97t203.5 35.5zM610 936q-166 0 -254 -133.5t-88 -368.5q0 -152 63.5 -225.5t194.5 -73.5q165 0 252.5 128t87.5 372q0 154 -62.5 227.5t-193.5 73.5z" />
    <glyph glyph-name="ocircumflex" unicode="&#xf4;" horiz-adv-x="1165" 
d="M676 1470q67 0 90 -45l96 -180q10 -15 10 -35q-3 -30 -53 -30h-4q-39 0 -65 26l-113 152l-141 -152q-33 -26 -72 -26h-4q-43 0 -43 24q0 19 14 41l135 180q33 45 99 45h51zM633 1083q201 0 306 -113.5t105 -330.5q0 -314 -139.5 -482.5t-388.5 -168.5q-209 0 -316.5 112
t-107.5 328q0 105 19 199t61 178t104 145.5t153.5 97t203.5 35.5zM610 936q-166 0 -254 -133.5t-88 -368.5q0 -152 63.5 -225.5t194.5 -73.5q165 0 252.5 128t87.5 372q0 154 -62.5 227.5t-193.5 73.5z" />
    <glyph glyph-name="otilde" unicode="&#xf5;" horiz-adv-x="1165" 
d="M473 1413q64 0 187.5 -44t168.5 -44q28 0 49 13t42 46q15 23 29 28t32 -3l16 -6q20 -7 23 -18.5t-8 -34.5q-33 -75 -78.5 -107.5t-108.5 -32.5q-67 0 -192.5 44t-169.5 44q-26 0 -45 -13.5t-41 -47.5q-15 -23 -26.5 -28t-31.5 3l-20 9q-12 5 -16.5 12t-3.5 15.5t6 23.5
q33 76 78.5 108.5t109.5 32.5zM633 1083q201 0 306 -113.5t105 -330.5q0 -314 -139.5 -482.5t-388.5 -168.5q-209 0 -316.5 112t-107.5 328q0 105 19 199t61 178t104 145.5t153.5 97t203.5 35.5zM610 936q-166 0 -254 -133.5t-88 -368.5q0 -152 63.5 -225.5t194.5 -73.5
q165 0 252.5 128t87.5 372q0 154 -62.5 227.5t-193.5 73.5z" />
    <glyph glyph-name="odieresis" unicode="&#xf6;" horiz-adv-x="1165" 
d="M512 1438q78 0 78 -45l-10 -105q-7 -45 -95 -45q-44 0 -60.5 11t-16.5 34l10 105q7 45 94 45zM807 1438q78 0 78 -45l-11 -105q-7 -45 -94 -45q-44 0 -61 11t-17 34l11 105q3 45 94 45zM633 1083q201 0 306 -113.5t105 -330.5q0 -314 -139.5 -482.5t-388.5 -168.5
q-209 0 -316.5 112t-107.5 328q0 105 19 199t61 178t104 145.5t153.5 97t203.5 35.5zM610 936q-166 0 -254 -133.5t-88 -368.5q0 -152 63.5 -225.5t194.5 -73.5q165 0 252.5 128t87.5 372q0 154 -62.5 227.5t-193.5 73.5z" />
    <glyph glyph-name="divide" unicode="&#xf7;" horiz-adv-x="1146" 
d="M627 948q78 0 78 -45l-13 -104q-6 -45 -86 -45h-8q-78 0 -78 45l12 104q3 45 86 45h9zM993 541q31 0 43.5 -15t12.5 -47q0 -38 -19 -57t-51 -19h-827q-31 0 -43.5 15.5t-12.5 46.5q0 39 19 57.5t51 18.5h827zM547 190q78 0 78 -45l-13 -104q-6 -45 -86 -45h-8
q-78 0 -78 45l13 104q3 45 86 45h8z" />
    <glyph glyph-name="oslash" unicode="&#xf8;" horiz-adv-x="1165" 
d="M1110 1026q0 -9 -10 -22l-101 -103q58 -104 58 -262q0 -314 -140 -482.5t-389 -168.5q-202 0 -309 104l-78 -80q-12 -12 -20 -12q-11 0 -23 12l-10 11q-12 12 -12 22q0 13 10 23l84 86q-66 103 -66 274q0 105 19 199t61 178t104 145.5t153.5 97t203.5 35.5
q202 0 309 -116l90 92q9 12 21 12q10 0 22 -12l11 -10q12 -12 12 -23zM623 936q-166 0 -254 -133.5t-88 -368.5q0 -86 18 -145l532 551q-62 96 -208 96zM539 135q165 0 252.5 128t87.5 372q0 73 -15 125l-526 -545q65 -80 201 -80z" />
    <glyph glyph-name="ugrave" unicode="&#xf9;" 
d="M666 1198q-75 0 -105 37q-166 189 -178 207q-14 19 -14 33q3 24 98 24q96 0 127 -53q119 -205 119 -229q0 -19 -47 -19zM1055 145q12 0 12 -14q0 -31 -8 -76q-7 -34 -46.5 -50.5t-76.5 -16.5q-184 0 -184 200v21q-149 -221 -365 -221q-141 0 -205.5 71.5t-64.5 194.5
l78 776q5 45 86 45h8q42 0 60 -10.5t18 -34.5q-74 -706 -74 -735q0 -158 156 -158q38 0 78 16t85.5 52t89 108t74.5 172l58 545q5 45 86 45h8q42 0 60 -10.5t18 -34.5q-80 -750 -80 -811q0 -30 6 -48.5t19 -25.5t22 -8.5t26 -1.5q14 0 33 5t23 5z" />
    <glyph glyph-name="uacute" unicode="&#xfa;" 
d="M580 1198q-45 0 -45 19q0 14 28 59.5t113 169.5q37 53 133 53t96 -24q0 -14 -22.5 -40t-113.5 -118q-50 -50 -81 -82q-37 -37 -108 -37zM1055 145q12 0 12 -14q0 -31 -8 -76q-7 -34 -46.5 -50.5t-76.5 -16.5q-184 0 -184 200v21q-149 -221 -365 -221q-141 0 -205.5 71.5
t-64.5 194.5l78 776q5 45 86 45h8q42 0 60 -10.5t18 -34.5q-74 -706 -74 -735q0 -158 156 -158q38 0 78 16t85.5 52t89 108t74.5 172l58 545q5 45 86 45h8q42 0 60 -10.5t18 -34.5q-80 -750 -80 -811q0 -30 6 -48.5t19 -25.5t22 -8.5t26 -1.5q14 0 33 5t23 5z" />
    <glyph glyph-name="ucircumflex" unicode="&#xfb;" 
d="M408 1180q-43 0 -43 24q0 19 14 41l135 180q33 45 98 45h52q67 0 90 -45l96 -180q10 -15 10 -35q-3 -30 -53 -30h-4q-40 0 -66 26l-112 152l-142 -152q-33 -26 -71 -26h-4zM1055 145q12 0 12 -14q0 -31 -8 -76q-7 -34 -46.5 -50.5t-76.5 -16.5q-184 0 -184 200v21
q-149 -221 -365 -221q-141 0 -205.5 71.5t-64.5 194.5l78 776q5 45 86 45h8q42 0 60 -10.5t18 -34.5q-74 -706 -74 -735q0 -158 156 -158q38 0 78 16t85.5 52t89 108t74.5 172l58 545q5 45 86 45h8q42 0 60 -10.5t18 -34.5q-80 -750 -80 -811q0 -30 6 -48.5t19 -25.5
t22 -8.5t26 -1.5q14 0 33 5t23 5z" />
    <glyph glyph-name="udieresis" unicode="&#xfc;" 
d="M473 1243q-44 0 -61 11t-17 34l11 105q7 45 94 45q78 0 78 -45l-11 -105q-7 -45 -94 -45zM768 1243q-44 0 -61 11t-17 34l10 105q3 45 95 45q43 0 60 -11t17 -34l-10 -105q-7 -45 -94 -45zM1055 145q12 0 12 -14q0 -31 -8 -76q-7 -34 -46.5 -50.5t-76.5 -16.5
q-184 0 -184 200v21q-149 -221 -365 -221q-141 0 -205.5 71.5t-64.5 194.5l78 776q5 45 86 45h8q42 0 60 -10.5t18 -34.5q-74 -706 -74 -735q0 -158 156 -158q38 0 78 16t85.5 52t89 108t74.5 172l58 545q5 45 86 45h8q42 0 60 -10.5t18 -34.5q-80 -750 -80 -811
q0 -30 6 -48.5t19 -25.5t22 -8.5t26 -1.5q14 0 33 5t23 5z" />
    <glyph glyph-name="yacute" unicode="&#xfd;" horiz-adv-x="985" 
d="M752 1499q96 0 96 -24q0 -14 -22.5 -40t-113.5 -118q-50 -50 -81 -82q-37 -37 -109 -37q-45 0 -45 19q0 14 28 59.5t113 169.5q37 53 134 53zM915 1075q78 0 78 -33q0 -11 -8 -30l-674 -1395q-19 -43 -100 -43h-31q-63 0 -63 31q0 12 14 37l215 415q-262 970 -262 983
q0 16 24 25.5t68 9.5h17q69 0 77 -33l158 -577l43 -162h4q30 76 72 162l274 577q16 33 88 33h6z" />
    <glyph glyph-name="thorn" unicode="&#xfe;" horiz-adv-x="1167" 
d="M367 1540q77 0 77 -43l-63 -604q118 190 317 190q45 0 89.5 -11.5t93.5 -42.5t85.5 -78.5t60.5 -127.5t24 -182q0 -190 -59 -338t-169.5 -231.5t-255.5 -83.5q-153 0 -272 104l-49 -473q-3 -21 -26.5 -33t-59.5 -12h-8q-78 0 -78 43l198 1878q3 45 86 45h9zM659 934
q-81 0 -164.5 -72t-142.5 -237l-43 -400q101 -90 234 -90q95 0 162 41.5t102 115t50 155.5t15 182q0 305 -213 305z" />
    <glyph glyph-name="ydieresis" unicode="&#xff;" horiz-adv-x="985" 
d="M442 1438q78 0 78 -45l-10 -105q-7 -45 -94 -45q-44 0 -61 11t-17 34l10 105q7 45 94 45zM737 1438q78 0 78 -45l-10 -105q-7 -45 -94 -45q-44 0 -61 11t-17 34l10 105q3 45 94 45zM915 1075q78 0 78 -33q0 -11 -8 -30l-674 -1395q-19 -43 -100 -43h-31q-63 0 -63 31
q0 12 14 37l215 415q-262 970 -262 983q0 16 24 25.5t68 9.5h17q69 0 77 -33l158 -577l43 -162h4q30 76 72 162l274 577q16 33 88 33h6z" />
    <glyph glyph-name="Amacron" unicode="&#x100;" horiz-adv-x="1255" 
d="M940 1761q20 0 27.5 -13t7.5 -40q0 -92 -51 -92h-463q-20 0 -27.5 14t-7.5 41q0 90 51 90h463zM731 1438q72 0 80 -33l344 -1348q2 -8 2 -20q0 -41 -90 -41h-16q-72 0 -80 33l-86 336h-602l-152 -336q-13 -33 -84 -33h-10q-84 0 -84 33q0 10 10 30l625 1346q13 33 84 33
h59zM684 1249h-4q-21 -68 -43 -119l-281 -610h490l-150 610q-12 47 -12 119z" />
    <glyph glyph-name="amacron" unicode="&#x101;" horiz-adv-x="1116" 
d="M340 1253q-35 0 -35 56q0 90 51 90h463q20 0 27.5 -13t7.5 -40q0 -93 -51 -93h-463zM1047 145q12 0 12 -14q0 -31 -8 -76q-7 -34 -46.5 -50.5t-76.5 -16.5q-185 0 -185 200v21q-116 -221 -319 -221q-44 0 -87 11.5t-90.5 42.5t-83 78.5t-58.5 127.5t-23 182
q0 190 61.5 338t176 231.5t264.5 83.5q145 0 260 -110q10 28 15.5 42t16 30.5t25 23t35.5 6.5h12q29 0 40 -10.5t11 -32.5q-81 -758 -81 -813q0 -30 6 -48.5t19 -25.5t22 -8.5t26 -1.5q14 0 33 5t23 5zM797 752q4 35 16 102q-101 80 -213 80q-79 0 -139.5 -28t-98 -74
t-61 -111t-32.5 -132.5t-9 -146.5q0 -305 203 -305q37 0 75 17t80 54t82 108t70 167z" />
    <glyph glyph-name="Abreve" unicode="&#x102;" horiz-adv-x="1255" 
d="M1001 1827q29 0 29 -25q0 -58 -30.5 -105.5t-78 -76t-102.5 -44t-108 -15.5q-113 0 -194 55.5t-81 155.5q0 29 6.5 42t28.5 13q13 0 19.5 -4t8.5 -8.5t5.5 -17t7.5 -21.5q35 -80 213 -80q175 0 227 80q6 9 11 21t7.5 17t10 9t20.5 4zM731 1438q72 0 80 -33l344 -1348
q2 -8 2 -20q0 -41 -90 -41h-16q-72 0 -80 33l-86 336h-602l-152 -336q-13 -33 -84 -33h-10q-84 0 -84 33q0 10 10 30l625 1346q13 33 84 33h59zM684 1249h-4q-21 -68 -43 -119l-281 -610h490l-150 610q-12 47 -12 119z" />
    <glyph glyph-name="abreve" unicode="&#x103;" horiz-adv-x="1116" 
d="M590 1198q-113 0 -194 55.5t-81 155.5q0 29 6.5 42t28.5 13q13 0 19.5 -4t8.5 -8.5t5.5 -17t7.5 -21.5q35 -80 213 -80q175 0 227 80q6 9 11 21.5t8 17t10.5 8.5t20.5 4q28 0 28 -24q0 -58 -30.5 -105.5t-78 -76.5t-102.5 -44.5t-108 -15.5zM1047 145q12 0 12 -14
q0 -31 -8 -76q-7 -34 -46.5 -50.5t-76.5 -16.5q-185 0 -185 200v21q-116 -221 -319 -221q-44 0 -87 11.5t-90.5 42.5t-83 78.5t-58.5 127.5t-23 182q0 190 61.5 338t176 231.5t264.5 83.5q145 0 260 -110q10 28 15.5 42t16 30.5t25 23t35.5 6.5h12q29 0 40 -10.5t11 -32.5
q-81 -758 -81 -813q0 -30 6 -48.5t19 -25.5t22 -8.5t26 -1.5q14 0 33 5t23 5zM797 752q4 35 16 102q-101 80 -213 80q-79 0 -139.5 -28t-98 -74t-61 -111t-32.5 -132.5t-9 -146.5q0 -305 203 -305q37 0 75 17t80 54t82 108t70 167z" />
    <glyph glyph-name="Aogonek" unicode="&#x104;" horiz-adv-x="1255" 
d="M1315 -195q12 0 12 -26q0 -48 -15.5 -80t-43.5 -47.5t-56.5 -21t-66.5 -5.5q-68 0 -115 18t-68.5 48.5t-29.5 57.5t-8 58q0 42 18 102.5t57 92.5q-22 9 -28 27l-86 336h-602l-152 -336q-13 -33 -84 -33h-10q-84 0 -84 33q0 10 10 30l625 1346q13 33 84 33h59q72 0 80 -33
l344 -1348q2 -8 2 -20q0 -31 -53 -39q-1 -11 -20 -61t-19 -80q0 -88 119 -88q37 0 82.5 18t48.5 18zM356 520h490l-150 610q-12 47 -12 119h-4q-21 -68 -43 -119z" />
    <glyph glyph-name="aogonek" unicode="&#x105;" horiz-adv-x="1116" 
d="M1196 -195q12 0 12 -26q0 -48 -15.5 -80t-43.5 -47.5t-56.5 -21t-66.5 -5.5q-68 0 -115 18t-68.5 48.5t-29.5 57.5t-8 58q0 38 15.5 95t49.5 92q-127 28 -127 194v21q-116 -221 -319 -221q-44 0 -87 11.5t-90.5 42.5t-83 78.5t-58.5 127.5t-23 182q0 190 61.5 338
t176 231.5t264.5 83.5q145 0 260 -110q10 28 15.5 42t16 30.5t25 23t35.5 6.5h12q29 0 40 -10.5t11 -32.5q-81 -758 -81 -813q0 -30 6 -48.5t19 -25.5t22 -8.5t26 -1.5q14 0 33 5t23 5q12 0 12 -14q0 -31 -8 -76q-8 -42 -66 -57q-2 -10 -20.5 -60t-18.5 -81q0 -88 119 -88
q37 0 82.5 18t48.5 18zM797 752q4 35 16 102q-101 80 -213 80q-79 0 -139.5 -28t-98 -74t-61 -111t-32.5 -132.5t-9 -146.5q0 -305 203 -305q37 0 75 17t80 54t82 108t70 167z" />
    <glyph glyph-name="Cacute" unicode="&#x106;" horiz-adv-x="1267" 
d="M993 1862q97 0 97 -25q0 -14 -21.5 -38.5t-103.5 -107.5q-56 -57 -93 -94q-36 -36 -108 -36q-45 0 -45 18q0 14 28 59.5t113 169.5q37 54 133 54zM834 1446q144 0 259 -41t115 -84q0 -26 -31 -73.5t-51 -47.5q-5 0 -46 22.5t-115.5 45t-161.5 22.5q-115 0 -207 -35
t-153.5 -97.5t-102.5 -151.5t-59.5 -193t-18.5 -227q0 -227 104 -335t318 -108q62 0 122.5 10t103 24.5t76 29.5t53.5 25t24 10q14 0 14 -23q0 -48 -14 -113q-11 -54 -133.5 -86t-261.5 -32q-300 0 -445 140t-145 433q0 146 22.5 271.5t77.5 240.5t139.5 196t216.5 129
t300 48z" />
    <glyph glyph-name="cacute" unicode="&#x107;" horiz-adv-x="993" 
d="M797 1499q96 0 96 -24q0 -14 -22.5 -40t-113.5 -118q-50 -50 -81 -82q-37 -37 -109 -37q-45 0 -45 19q0 14 27.5 58.5t114.5 170.5q37 53 133 53zM637 1083q129 0 208 -34.5t79 -71.5q0 -23 -28 -63t-52 -40q-3 0 -8 3t-16.5 10t-20.5 12q-76 37 -183 37
q-74 0 -134 -27.5t-107.5 -85.5t-74 -158t-26.5 -235q0 -154 67 -224.5t212 -70.5q113 0 225 45q48 19 49 19q7 0 10 -4.5t3 -20.5q0 -36 -11 -92q-6 -29 -42 -49t-87 -29t-90 -12.5t-71 -3.5q-222 0 -332.5 103t-110.5 327q0 109 18 204.5t59.5 181t103 147t153.5 97
t207 35.5z" />
    <glyph glyph-name="Ccircumflex" unicode="&#x108;" horiz-adv-x="1267" 
d="M848 1833q67 0 90 -45l96 -180q10 -15 10 -35q-3 -31 -53 -31h-4q-38 0 -65 27l-113 151l-141 -151q-34 -27 -72 -27h-4q-43 0 -43 25q0 19 14 41l135 180q33 45 99 45h51zM834 1446q144 0 259 -41t115 -84q0 -26 -31 -73.5t-51 -47.5q-5 0 -46 22.5t-115.5 45
t-161.5 22.5q-115 0 -207 -35t-153.5 -97.5t-102.5 -151.5t-59.5 -193t-18.5 -227q0 -227 104 -335t318 -108q62 0 122.5 10t103 24.5t76 29.5t53.5 25t24 10q14 0 14 -23q0 -48 -14 -113q-11 -54 -133.5 -86t-261.5 -32q-300 0 -445 140t-145 433q0 146 22.5 271.5
t77.5 240.5t139.5 196t216.5 129t300 48z" />
    <glyph glyph-name="ccircumflex" unicode="&#x109;" horiz-adv-x="993" 
d="M651 1470q67 0 90 -45l97 -180q10 -15 10 -35q-3 -30 -53 -30h-4q-40 0 -66 26l-113 152l-141 -152q-33 -26 -72 -26h-4q-43 0 -43 24q0 17 15 41l135 180q33 45 98 45h51zM637 1083q129 0 208 -34.5t79 -71.5q0 -23 -28 -63t-52 -40q-3 0 -8 3t-16.5 10t-20.5 12
q-76 37 -183 37q-74 0 -134 -27.5t-107.5 -85.5t-74 -158t-26.5 -235q0 -154 67 -224.5t212 -70.5q113 0 225 45q48 19 49 19q7 0 10 -4.5t3 -20.5q0 -36 -11 -92q-6 -29 -42 -49t-87 -29t-90 -12.5t-71 -3.5q-222 0 -332.5 103t-110.5 327q0 109 18 204.5t59.5 181t103 147
t153.5 97t207 35.5z" />
    <glyph glyph-name="Cdotaccent" unicode="&#x10a;" horiz-adv-x="1267" 
d="M831 1800q78 0 78 -45l-10 -104q-7 -45 -94 -45q-44 0 -61 11t-17 34l10 104q7 45 94 45zM834 1446q144 0 259 -41t115 -84q0 -26 -31 -73.5t-51 -47.5q-5 0 -46 22.5t-115.5 45t-161.5 22.5q-115 0 -207 -35t-153.5 -97.5t-102.5 -151.5t-59.5 -193t-18.5 -227
q0 -227 104 -335t318 -108q62 0 122.5 10t103 24.5t76 29.5t53.5 25t24 10q14 0 14 -23q0 -48 -14 -113q-11 -54 -133.5 -86t-261.5 -32q-300 0 -445 140t-145 433q0 146 22.5 271.5t77.5 240.5t139.5 196t216.5 129t300 48z" />
    <glyph glyph-name="cdotaccent" unicode="&#x10b;" horiz-adv-x="993" 
d="M635 1438q78 0 78 -45l-11 -105q-7 -45 -94 -45q-44 0 -61 11t-17 34l11 105q7 45 94 45zM637 1083q129 0 208 -34.5t79 -71.5q0 -23 -28 -63t-52 -40q-3 0 -8 3t-16.5 10t-20.5 12q-76 37 -183 37q-74 0 -134 -27.5t-107.5 -85.5t-74 -158t-26.5 -235q0 -154 67 -224.5
t212 -70.5q113 0 225 45q48 19 49 19q7 0 10 -4.5t3 -20.5q0 -36 -11 -92q-6 -29 -42 -49t-87 -29t-90 -12.5t-71 -3.5q-222 0 -332.5 103t-110.5 327q0 109 18 204.5t59.5 181t103 147t153.5 97t207 35.5z" />
    <glyph glyph-name="Ccaron" unicode="&#x10c;" horiz-adv-x="1267" 
d="M1038 1845q45 0 45 -28q0 -17 -14 -37l-137 -181q-33 -45 -98 -45h-52q-67 0 -90 45l-94 181q-10 18 -10 37q3 28 51 28h4q42 0 68 -26l108 -152l146 152q33 26 69 26h4zM834 1446q144 0 259 -41t115 -84q0 -26 -31 -73.5t-51 -47.5q-5 0 -46 22.5t-115.5 45t-161.5 22.5
q-115 0 -207 -35t-153.5 -97.5t-102.5 -151.5t-59.5 -193t-18.5 -227q0 -227 104 -335t318 -108q62 0 122.5 10t103 24.5t76 29.5t53.5 25t24 10q14 0 14 -23q0 -48 -14 -113q-11 -54 -133.5 -86t-261.5 -32q-300 0 -445 140t-145 433q0 146 22.5 271.5t77.5 240.5
t139.5 196t216.5 129t300 48z" />
    <glyph glyph-name="ccaron" unicode="&#x10d;" horiz-adv-x="993" 
d="M842 1483q45 0 45 -29q0 -16 -15 -37l-137 -180q-33 -45 -98 -45h-51q-67 0 -90 45l-95 180q-10 18 -10 37q3 29 51 29h4q41 0 68 -27l109 -151l145 151q34 27 70 27h4zM637 1083q129 0 208 -34.5t79 -71.5q0 -23 -28 -63t-52 -40q-3 0 -8 3t-16.5 10t-20.5 12
q-76 37 -183 37q-74 0 -134 -27.5t-107.5 -85.5t-74 -158t-26.5 -235q0 -154 67 -224.5t212 -70.5q113 0 225 45q48 19 49 19q7 0 10 -4.5t3 -20.5q0 -36 -11 -92q-6 -29 -42 -49t-87 -29t-90 -12.5t-71 -3.5q-222 0 -332.5 103t-110.5 327q0 109 18 204.5t59.5 181t103 147
t153.5 97t207 35.5z" />
    <glyph glyph-name="Dcaron" unicode="&#x10e;" horiz-adv-x="1423" 
d="M954 1845q45 0 45 -28q0 -17 -14 -37l-137 -181q-33 -45 -98 -45h-52q-67 0 -90 45l-94 181q-10 18 -10 37q3 28 51 28h4q42 0 68 -26l108 -152l146 152q33 26 69 26h4zM748 1434q125 0 225.5 -32t179 -99t121.5 -182t43 -271q0 -185 -40 -332t-107 -242.5t-160.5 -158.5
t-195.5 -90t-216 -27h-440q-29 0 -42.5 11.5t-13.5 37.5q0 12 24 239.5t60 568.5t54 515q3 32 19 47t48 15h441zM717 1278h-307l-117 -1122h307q83 0 157.5 22t143.5 72.5t119 125.5t80 189t30 256q0 100 -21 178t-57.5 130t-89 86t-113 48.5t-132.5 14.5z" />
    <glyph glyph-name="dcaron" unicode="&#x10f;" horiz-adv-x="1157" 
d="M1102 145q12 0 12 -14q0 -31 -8 -76q-7 -34 -46.5 -50.5t-76.5 -16.5q-184 0 -184 200v21q-119 -221 -330 -221q-49 0 -98 11.5t-102 42.5t-93 78.5t-66 127.5t-26 182q0 288 141.5 470.5t372.5 182.5q170 0 279 -92l55 504q5 45 86 45h8q42 0 60 -10.5t18 -34.5
q-131 -1215 -131 -1276q0 -30 6 -48.5t19 -25.5t22.5 -8.5t26.5 -1.5q14 0 32.5 5t22.5 5zM1294 1540q76 0 76 -57q0 -48 -36 -116t-80 -115.5t-68 -47.5q-56 0 -56 31q0 21 28 99t28 141q0 29 24.5 47t65.5 18h18zM823 479l39 377q-97 78 -239 78q-82 0 -145.5 -28
t-103 -74t-65 -111t-35.5 -133t-10 -146q0 -167 61 -236t183 -69q38 0 77 16.5t82 53t84 106.5t72 166z" />
    <glyph glyph-name="Dcroat" unicode="&#x110;" horiz-adv-x="1425" 
d="M748 1434q125 0 225.5 -32t179 -99t121.5 -182t43 -271q0 -185 -40 -332t-107 -242.5t-160.5 -158.5t-195.5 -90t-216 -27h-440q-29 0 -42.5 11.5t-13.5 37.5q0 14 62 606h-131q-35 0 -35 45q0 25 1 38.5t5 33.5t15.5 29.5t29.5 9.5h131q21 182 60 561q3 32 19 47t48 15
h441zM600 156q83 0 157.5 22t143.5 72.5t119 125.5t80 189t30 256q0 100 -21 178t-57.5 130t-89 86t-113 48.5t-132.5 14.5h-307l-50 -467h230q35 0 35 -45q0 -24 -1 -38.5t-5.5 -34t-16 -29t-29.5 -9.5h-229l-51 -499h307z" />
    <glyph glyph-name="dcroat" unicode="&#x111;" horiz-adv-x="1157" 
d="M1176 1370q20 0 27 -13t7 -40q0 -92 -51 -92h-84q-102 -947 -102 -1006q0 -30 6 -48.5t19 -25.5t22.5 -8.5t26.5 -1.5q14 0 32.5 5t22.5 5q12 0 12 -14q0 -31 -8 -76q-7 -34 -46.5 -50.5t-76.5 -16.5q-184 0 -184 200v21q-119 -221 -330 -221q-49 0 -98 11.5t-102 42.5
t-93 78.5t-66 127.5t-26 182q0 288 141.5 470.5t372.5 182.5q170 0 279 -92q4 41 12.5 119.5t11.5 114.5h-205q-20 0 -27 13.5t-7 41.5q0 90 51 90h205l14 125q5 45 86 45h8q42 0 60 -10.5t18 -34.5q-6 -47 -14 -125h86zM823 479l39 377q-97 78 -239 78q-82 0 -145.5 -28
t-103 -74t-65 -111t-35.5 -133t-10 -146q0 -167 61 -236t183 -69q38 0 77 16.5t82 53t84 106.5t72 166z" />
    <glyph glyph-name="Emacron" unicode="&#x112;" horiz-adv-x="1118" 
d="M901 1761q20 0 27.5 -13t7.5 -40q0 -92 -51 -92h-463q-20 0 -27.5 14t-7.5 41q0 90 51 90h463zM1020 1434q35 0 35 -45q0 -25 -1 -38.5t-5 -33.5t-15.5 -29.5t-29.5 -9.5h-605l-49 -467h541q35 0 35 -45q0 -24 -1 -38.5t-5.5 -34t-16 -29t-29.5 -9.5h-540l-51 -499h606
q35 0 35 -45q0 -24 -1 -38.5t-5.5 -34t-16 -29t-29.5 -9.5h-725q-29 0 -42 11.5t-13 37.5q0 8 137 1323q6 62 68 62h723z" />
    <glyph glyph-name="emacron" unicode="&#x113;" horiz-adv-x="1103" 
d="M395 1253q-35 0 -35 56q0 90 52 90h462q20 0 27.5 -13t7.5 -40q0 -93 -51 -93h-463zM449 436q-96 0 -177 15v-21q0 -161 77 -228t222 -67q81 0 153.5 25.5t114.5 50.5t50 25q5 0 7.5 -1t4.5 -6.5t2 -17.5q0 -38 -10 -92q-6 -34 -47 -60.5t-95.5 -41t-105.5 -22t-88 -7.5
q-463 0 -463 424q0 113 19.5 211t63.5 183.5t108.5 146.5t159.5 95.5t212 34.5q74 0 134.5 -18.5t98.5 -47t64 -66t36.5 -72.5t10.5 -68q0 -83 -31 -148.5t-82.5 -107t-124 -69t-149.5 -39t-165 -11.5zM639 936q-306 0 -356 -352h145q19 0 34.5 0.5t51.5 2.5t65.5 8t67.5 15
t67 25.5t55 37.5t40 52.5t14 69.5q0 60 -49.5 100.5t-134.5 40.5z" />
    <glyph glyph-name="Ebreve" unicode="&#x114;" horiz-adv-x="1118" 
d="M963 1827q28 0 28 -25q0 -58 -30.5 -105.5t-78 -76t-102.5 -44t-108 -15.5q-113 0 -194 55.5t-81 155.5q0 29 6.5 42t28.5 13q13 0 19.5 -4t8.5 -8.5t5.5 -17t7.5 -21.5q35 -80 213 -80q175 0 227 80q6 9 11 21.5t8 17t10.5 8.5t20.5 4zM1020 1434q35 0 35 -45
q0 -25 -1 -38.5t-5 -33.5t-15.5 -29.5t-29.5 -9.5h-605l-49 -467h541q35 0 35 -45q0 -24 -1 -38.5t-5.5 -34t-16 -29t-29.5 -9.5h-540l-51 -499h606q35 0 35 -45q0 -24 -1 -38.5t-5.5 -34t-16 -29t-29.5 -9.5h-725q-29 0 -42 11.5t-13 37.5q0 8 137 1323q6 62 68 62h723z
" />
    <glyph glyph-name="ebreve" unicode="&#x115;" horiz-adv-x="1103" 
d="M645 1198q-113 0 -193.5 55.5t-80.5 155.5q0 29 6.5 42t28.5 13q16 0 22 -4t10 -21.5t8 -25.5q35 -80 213 -80q176 0 228 80q6 9 11 21t7.5 17t10 9t20.5 4q29 0 29 -24q0 -76 -52.5 -133.5t-123.5 -83t-144 -25.5zM449 436q-96 0 -177 15v-21q0 -161 77 -228t222 -67
q81 0 153.5 25.5t114.5 50.5t50 25q5 0 7.5 -1t4.5 -6.5t2 -17.5q0 -38 -10 -92q-6 -34 -47 -60.5t-95.5 -41t-105.5 -22t-88 -7.5q-463 0 -463 424q0 113 19.5 211t63.5 183.5t108.5 146.5t159.5 95.5t212 34.5q74 0 134.5 -18.5t98.5 -47t64 -66t36.5 -72.5t10.5 -68
q0 -83 -31 -148.5t-82.5 -107t-124 -69t-149.5 -39t-165 -11.5zM639 936q-306 0 -356 -352h145q19 0 34.5 0.5t51.5 2.5t65.5 8t67.5 15t67 25.5t55 37.5t40 52.5t14 69.5q0 60 -49.5 100.5t-134.5 40.5z" />
    <glyph glyph-name="Edotaccent" unicode="&#x116;" horiz-adv-x="1118" 
d="M696 1800q78 0 78 -45l-10 -104q-7 -45 -94 -45q-44 0 -61 11t-17 34l10 104q7 45 94 45zM1020 1434q35 0 35 -45q0 -25 -1 -38.5t-5 -33.5t-15.5 -29.5t-29.5 -9.5h-605l-49 -467h541q35 0 35 -45q0 -24 -1 -38.5t-5.5 -34t-16 -29t-29.5 -9.5h-540l-51 -499h606
q35 0 35 -45q0 -24 -1 -38.5t-5.5 -34t-16 -29t-29.5 -9.5h-725q-29 0 -42 11.5t-13 37.5q0 8 137 1323q6 62 68 62h723z" />
    <glyph glyph-name="edotaccent" unicode="&#x117;" horiz-adv-x="1103" 
d="M643 1243q-44 0 -61 11t-17 34l10 105q7 45 95 45q78 0 78 -45l-11 -105q-7 -45 -94 -45zM449 436q-96 0 -177 15v-21q0 -161 77 -228t222 -67q81 0 153.5 25.5t114.5 50.5t50 25q5 0 7.5 -1t4.5 -6.5t2 -17.5q0 -38 -10 -92q-6 -34 -47 -60.5t-95.5 -41t-105.5 -22
t-88 -7.5q-463 0 -463 424q0 113 19.5 211t63.5 183.5t108.5 146.5t159.5 95.5t212 34.5q74 0 134.5 -18.5t98.5 -47t64 -66t36.5 -72.5t10.5 -68q0 -83 -31 -148.5t-82.5 -107t-124 -69t-149.5 -39t-165 -11.5zM639 936q-306 0 -356 -352h145q19 0 34.5 0.5t51.5 2.5
t65.5 8t67.5 15t67 25.5t55 37.5t40 52.5t14 69.5q0 60 -49.5 100.5t-134.5 40.5z" />
    <glyph glyph-name="Eogonek" unicode="&#x118;" horiz-adv-x="1118" 
d="M1083 -195q13 0 13 -26q0 -48 -15.5 -80t-44 -47.5t-57 -21t-66.5 -5.5q-68 0 -115 18t-68.5 48.5t-29.5 57.5t-8 58q0 40 18 99.5t56 93.5h-619q-29 0 -42 11.5t-13 37.5q0 8 137 1323q6 62 68 62h723q35 0 35 -45q0 -25 -1 -38.5t-5 -33.5t-15.5 -29.5t-29.5 -9.5h-605
l-49 -467h541q35 0 35 -45q0 -24 -1 -38.5t-5.5 -34t-16 -29t-29.5 -9.5h-540l-51 -499h606q35 0 35 -45q0 -24 -1 -38.5t-5.5 -34t-16 -29t-29.5 -9.5q-1 -10 -19.5 -60.5t-18.5 -82.5q0 -88 118 -88q37 0 82.5 18t48.5 18z" />
    <glyph glyph-name="eogonek" unicode="&#x119;" horiz-adv-x="1103" 
d="M930 -195q12 0 12 -26q0 -48 -15.5 -80t-43.5 -47.5t-56.5 -21t-66.5 -5.5q-68 0 -115 18t-68.5 48.5t-29.5 57.5t-8 58q0 37 15.5 92.5t47.5 90.5q-18 -2 -45 -2q-463 0 -463 424q0 113 19.5 211t63.5 183.5t108.5 146.5t159.5 95.5t212 34.5q74 0 134.5 -18.5t98.5 -47
t64 -66t36.5 -72.5t10.5 -68q0 -83 -31 -148.5t-82.5 -107t-124 -69t-149.5 -39t-165 -11.5q-96 0 -177 15v-21q0 -161 77 -228t222 -67q81 0 153.5 25.5t114.5 50.5t50 25q5 0 7.5 -1t4.5 -6.5t2 -17.5q0 -38 -10 -92q-13 -73 -174 -111v-4q0 -13 -19.5 -64t-19.5 -83
q0 -88 119 -88q37 0 82.5 18t48.5 18zM639 936q-306 0 -356 -352h145q19 0 34.5 0.5t51.5 2.5t65.5 8t67.5 15t67 25.5t55 37.5t40 52.5t14 69.5q0 60 -49.5 100.5t-134.5 40.5z" />
    <glyph glyph-name="Ecaron" unicode="&#x11a;" horiz-adv-x="1118" 
d="M903 1845q45 0 45 -28q0 -17 -14 -37l-137 -181q-33 -45 -99 -45h-51q-67 0 -90 45l-94 181q-10 18 -10 37q3 28 51 28h4q41 0 67 -26l109 -152l145 152q33 26 70 26h4zM1020 1434q35 0 35 -45q0 -25 -1 -38.5t-5 -33.5t-15.5 -29.5t-29.5 -9.5h-605l-49 -467h541
q35 0 35 -45q0 -24 -1 -38.5t-5.5 -34t-16 -29t-29.5 -9.5h-540l-51 -499h606q35 0 35 -45q0 -24 -1 -38.5t-5.5 -34t-16 -29t-29.5 -9.5h-725q-29 0 -42 11.5t-13 37.5q0 8 137 1323q6 62 68 62h723z" />
    <glyph glyph-name="ecaron" unicode="&#x11b;" horiz-adv-x="1103" 
d="M530 1237l-94 180q-10 18 -10 37q3 29 51 29h4q41 0 68 -27l108 -151l146 151q34 27 69 27h5q45 0 45 -29q0 -16 -15 -37l-137 -180q-33 -45 -98 -45h-51q-68 0 -91 45zM449 436q-96 0 -177 15v-21q0 -161 77 -228t222 -67q81 0 153.5 25.5t114.5 50.5t50 25q5 0 7.5 -1
t4.5 -6.5t2 -17.5q0 -38 -10 -92q-6 -34 -47 -60.5t-95.5 -41t-105.5 -22t-88 -7.5q-463 0 -463 424q0 113 19.5 211t63.5 183.5t108.5 146.5t159.5 95.5t212 34.5q74 0 134.5 -18.5t98.5 -47t64 -66t36.5 -72.5t10.5 -68q0 -83 -31 -148.5t-82.5 -107t-124 -69t-149.5 -39
t-165 -11.5zM639 936q-306 0 -356 -352h145q19 0 34.5 0.5t51.5 2.5t65.5 8t67.5 15t67 25.5t55 37.5t40 52.5t14 69.5q0 60 -49.5 100.5t-134.5 40.5z" />
    <glyph glyph-name="Gcircumflex" unicode="&#x11c;" horiz-adv-x="1376" 
d="M862 1833q67 0 90 -45l97 -180q10 -15 10 -35q-3 -31 -53 -31h-5q-38 0 -65 27l-113 151l-141 -151q-35 -27 -72 -27h-4q-43 0 -43 25q0 17 15 41l135 180q33 45 98 45h51zM856 1446q144 0 260.5 -41t116.5 -84q0 -26 -31 -73.5t-51 -47.5q-6 0 -31.5 14t-60 31t-97.5 31
t-135 14q-265 0 -398.5 -183t-133.5 -517q0 -447 405 -447q161 0 267 27l45 414h-242q-35 0 -35 45q0 25 1 38.5t5 33t15.5 29t29.5 9.5h361q55 0 55 -49q0 -13 -10 -109t-25 -235t-22 -211q-4 -41 -45 -71t-109.5 -46t-146.5 -23t-172 -7q-566 0 -566 575q0 224 53 393.5
t152 276.5t235.5 160t309.5 53z" />
    <glyph glyph-name="gcircumflex" unicode="&#x11d;" horiz-adv-x="1118" 
d="M393 1180q-43 0 -43 24q0 17 15 41l135 180q33 45 98 45h51q67 0 90 -45l97 -180q10 -15 10 -35q-3 -30 -53 -30h-5q-39 0 -65 26l-113 152l-141 -152q-33 -26 -72 -26h-4zM973 1075q29 0 40 -10.5t11 -32.5l-88 -829q-19 -182 -58 -305.5t-102 -196.5t-144.5 -104
t-195.5 -31q-147 0 -249.5 47.5t-102.5 97.5q0 113 29 113q6 0 31.5 -17.5t59 -38t96.5 -38t136 -17.5q152 0 231.5 118.5t100.5 389.5q-119 -221 -330 -221q-45 0 -89.5 11t-93 41t-85 76.5t-60.5 124.5t-24 177q0 190 62.5 338t179.5 231.5t270 83.5q150 0 270 -110
q18 54 36 78t57 24h12zM821 752q2 21 17 102q-106 80 -224 80q-81 0 -144 -28t-101 -74t-62.5 -111.5t-33.5 -132.5t-9 -146q0 -292 213 -292q38 0 77.5 17t83 54.5t85 109t72.5 169.5z" />
    <glyph glyph-name="Gbreve" unicode="&#x11e;" horiz-adv-x="1376" 
d="M1112 1827q29 0 29 -25q0 -58 -30.5 -105.5t-78.5 -76t-103 -44t-108 -15.5q-113 0 -193.5 55.5t-80.5 155.5q0 29 6.5 42t28.5 13q13 0 19.5 -4t8.5 -8.5t5.5 -17t7.5 -21.5q35 -80 213 -80q175 0 227 80q6 9 11 21t7.5 17t10 9t20.5 4zM856 1446q144 0 260.5 -41
t116.5 -84q0 -26 -31 -73.5t-51 -47.5q-6 0 -31.5 14t-60 31t-97.5 31t-135 14q-265 0 -398.5 -183t-133.5 -517q0 -447 405 -447q161 0 267 27l45 414h-242q-35 0 -35 45q0 25 1 38.5t5 33t15.5 29t29.5 9.5h361q55 0 55 -49q0 -13 -10 -109t-25 -235t-22 -211
q-4 -41 -45 -71t-109.5 -46t-146.5 -23t-172 -7q-566 0 -566 575q0 224 53 393.5t152 276.5t235.5 160t309.5 53z" />
    <glyph glyph-name="gbreve" unicode="&#x11f;" horiz-adv-x="1118" 
d="M608 1198q-113 0 -193.5 55.5t-80.5 155.5q0 29 6.5 42t28.5 13q13 0 19.5 -4t8.5 -8.5t5.5 -17t7.5 -21.5q35 -80 213 -80q175 0 227 80q6 9 11 21t7.5 17t10 9t20.5 4q29 0 29 -24q0 -76 -52.5 -133.5t-123.5 -83t-144 -25.5zM973 1075q29 0 40 -10.5t11 -32.5
l-88 -829q-19 -182 -58 -305.5t-102 -196.5t-144.5 -104t-195.5 -31q-147 0 -249.5 47.5t-102.5 97.5q0 113 29 113q6 0 31.5 -17.5t59 -38t96.5 -38t136 -17.5q152 0 231.5 118.5t100.5 389.5q-119 -221 -330 -221q-45 0 -89.5 11t-93 41t-85 76.5t-60.5 124.5t-24 177
q0 190 62.5 338t179.5 231.5t270 83.5q150 0 270 -110q18 54 36 78t57 24h12zM821 752q2 21 17 102q-106 80 -224 80q-81 0 -144 -28t-101 -74t-62.5 -111.5t-33.5 -132.5t-9 -146q0 -292 213 -292q38 0 77.5 17t83 54.5t85 109t72.5 169.5z" />
    <glyph glyph-name="Gdotaccent" unicode="&#x120;" horiz-adv-x="1376" 
d="M846 1800q78 0 78 -45l-11 -104q-7 -45 -94 -45q-44 0 -61 11t-17 34l11 104q7 45 94 45zM856 1446q144 0 260.5 -41t116.5 -84q0 -26 -31 -73.5t-51 -47.5q-6 0 -31.5 14t-60 31t-97.5 31t-135 14q-265 0 -398.5 -183t-133.5 -517q0 -447 405 -447q161 0 267 27l45 414
h-242q-35 0 -35 45q0 25 1 38.5t5 33t15.5 29t29.5 9.5h361q55 0 55 -49q0 -13 -10 -109t-25 -235t-22 -211q-4 -41 -45 -71t-109.5 -46t-146.5 -23t-172 -7q-566 0 -566 575q0 224 53 393.5t152 276.5t235.5 160t309.5 53z" />
    <glyph glyph-name="gdotaccent" unicode="&#x121;" horiz-adv-x="1118" 
d="M606 1243q-44 0 -61 11t-17 34l11 105q7 45 94 45q78 0 78 -45l-11 -105q-7 -45 -94 -45zM973 1075q29 0 40 -10.5t11 -32.5l-88 -829q-19 -182 -58 -305.5t-102 -196.5t-144.5 -104t-195.5 -31q-147 0 -249.5 47.5t-102.5 97.5q0 113 29 113q6 0 31.5 -17.5t59 -38
t96.5 -38t136 -17.5q152 0 231.5 118.5t100.5 389.5q-119 -221 -330 -221q-45 0 -89.5 11t-93 41t-85 76.5t-60.5 124.5t-24 177q0 190 62.5 338t179.5 231.5t270 83.5q150 0 270 -110q18 54 36 78t57 24h12zM821 752q2 21 17 102q-106 80 -224 80q-81 0 -144 -28t-101 -74
t-62.5 -111.5t-33.5 -132.5t-9 -146q0 -292 213 -292q38 0 77.5 17t83 54.5t85 109t72.5 169.5z" />
    <glyph glyph-name="Gcommaaccent" unicode="&#x122;" horiz-adv-x="1376" 
d="M856 1446q144 0 260.5 -41t116.5 -84q0 -26 -31 -73.5t-51 -47.5q-6 0 -31.5 14t-60 31t-97.5 31t-135 14q-265 0 -398.5 -183t-133.5 -517q0 -447 405 -447q161 0 267 27l45 414h-242q-35 0 -35 45q0 25 1 38.5t5 33t15.5 29t29.5 9.5h361q55 0 55 -49q0 -13 -10 -109
t-25 -235t-22 -211q-4 -41 -45 -71t-109.5 -46t-146.5 -23t-172 -7q-566 0 -566 575q0 224 53 393.5t152 276.5t235.5 160t309.5 53zM694 -104q37 0 56.5 -15.5t19.5 -42.5q0 -56 -47.5 -133.5t-106 -131.5t-92.5 -54q-55 0 -55 30q0 20 18.5 52t40 62.5t40 76.5t18.5 90
q0 29 24.5 47.5t65.5 18.5h18z" />
    <glyph glyph-name="gcommaaccent" unicode="&#x123;" horiz-adv-x="1118" 
d="M594 1198q-76 0 -76 57q0 56 47.5 133.5t106 132t92.5 54.5q55 0 55 -31q0 -20 -18.5 -52t-40 -62.5t-40 -76t-18.5 -89.5q0 -29 -24.5 -47.5t-65.5 -18.5h-18zM973 1075q29 0 40 -10.5t11 -32.5l-88 -829q-19 -182 -58 -305.5t-102 -196.5t-144.5 -104t-195.5 -31
q-147 0 -249.5 47.5t-102.5 97.5q0 113 29 113q6 0 31.5 -17.5t59 -38t96.5 -38t136 -17.5q152 0 231.5 118.5t100.5 389.5q-119 -221 -330 -221q-45 0 -89.5 11t-93 41t-85 76.5t-60.5 124.5t-24 177q0 190 62.5 338t179.5 231.5t270 83.5q150 0 270 -110q18 54 36 78
t57 24h12zM821 752q2 21 17 102q-106 80 -224 80q-81 0 -144 -28t-101 -74t-62.5 -111.5t-33.5 -132.5t-9 -146q0 -292 213 -292q38 0 77.5 17t83 54.5t85 109t72.5 169.5z" />
    <glyph glyph-name="Hcircumflex" unicode="&#x124;" horiz-adv-x="1501" 
d="M881 1833q67 0 90 -45l96 -180q10 -15 10 -35q-3 -31 -53 -31h-4q-39 0 -66 27l-112 151l-142 -151q-34 -27 -71 -27h-4q-43 0 -43 25q0 19 14 41l135 180q33 45 98 45h52zM1292 1438q78 0 78 -45l-141 -1352q-6 -45 -86 -45h-17q-44 0 -60.5 11t-16.5 34l63 616h-741
l-64 -616q-6 -45 -86 -45h-16q-44 0 -61 11t-17 34l141 1352q3 45 86 45h17q78 0 78 -45l-62 -580h741l62 580q3 45 86 45h16z" />
    <glyph glyph-name="hcircumflex" unicode="&#x125;" horiz-adv-x="1157" 
d="M418 1894q67 0 90 -45l96 -180q10 -15 10 -35q-3 -30 -53 -30h-4q-39 0 -65 26l-113 152l-141 -152q-33 -26 -72 -26h-4q-43 0 -43 24q0 19 14 41l135 180q33 45 99 45h51zM358 1540q42 0 60 -10.5t18 -34.5l-65 -610q149 198 358 198q141 0 205.5 -71.5t64.5 -194.5
q0 -16 -29.5 -295.5t-29.5 -302.5q0 -30 6 -48.5t19 -25.5t22.5 -8.5t26.5 -1.5q14 0 32.5 5t22.5 5q12 0 12 -14q0 -31 -8 -76q-7 -34 -46.5 -50.5t-76.5 -16.5q-184 0 -184 200q0 38 28.5 305t28.5 283q0 158 -155 158q-38 0 -77.5 -15t-84.5 -49t-88.5 -101.5
t-75.5 -160.5l-59 -567q-6 -45 -86 -45h-9q-77 0 -77 43l153 1456q5 45 86 45h8z" />
    <glyph glyph-name="Hbar" unicode="&#x126;" horiz-adv-x="1501" 
d="M1393 1149q20 0 27 -13t7 -40q0 -92 -51 -92h-47l-100 -963q-6 -45 -86 -45h-17q-44 0 -60.5 11t-16.5 34l63 616h-741l-64 -616q-6 -45 -86 -45h-16q-44 0 -61 11t-17 34l100 963h-71q-20 0 -27.5 14t-7.5 41q0 90 51 90h72l24 244q3 45 86 45h17q78 0 78 -45l-27 -244
h741l27 244q3 45 86 45h16q78 0 78 -45l-24 -244h47zM1128 813l21 191h-741l-21 -191h741z" />
    <glyph glyph-name="hbar" unicode="&#x127;" horiz-adv-x="1157" 
d="M1069 145q12 0 12 -14q0 -31 -8 -76q-7 -34 -46.5 -50.5t-76.5 -16.5q-184 0 -184 200q0 38 28.5 305t28.5 283q0 158 -155 158q-38 0 -77.5 -15t-84.5 -49t-88.5 -101.5t-75.5 -160.5l-59 -567q-6 -45 -86 -45h-9q-77 0 -77 43l125 1186h-84q-20 0 -27.5 14t-7.5 41
q0 90 51 90h84l12 125q5 45 86 45h8q42 0 60 -10.5t18 -34.5l-14 -125h209q20 0 27.5 -13t7.5 -40q0 -92 -52 -92h-206l-37 -340q149 198 358 198q141 0 205.5 -71.5t64.5 -194.5q0 -16 -29.5 -295.5t-29.5 -302.5q0 -30 6 -48.5t19 -25.5t22.5 -8.5t26.5 -1.5q14 0 32.5 5
t22.5 5z" />
    <glyph glyph-name="Itilde" unicode="&#x128;" horiz-adv-x="577" 
d="M231 1776q57 0 169.5 -44t152.5 -44q25 0 43.5 13t38.5 46q13 23 25.5 28t29.5 -3l15 -7q17 -7 19 -18.5t-7 -34.5q-30 -75 -70.5 -107t-97.5 -32q-61 0 -174 44t-152 44q-23 0 -40 -14t-38 -48q-13 -23 -22.5 -27.5t-28.5 3.5l-18 8q-16 7 -18.5 19t5.5 32
q28 76 69.5 109t98.5 33zM371 1438q78 0 78 -45l-142 -1352q-6 -45 -86 -45h-16q-44 0 -61 11t-17 34l141 1352q3 45 86 45h17z" />
    <glyph glyph-name="itilde" unicode="&#x129;" horiz-adv-x="542" 
d="M162 1413q57 0 169 -44t152 -44q25 0 43.5 13t38.5 46q13 23 26 28t30 -3l14 -6q17 -7 19 -18.5t-7 -34.5q-30 -75 -70.5 -107.5t-97.5 -32.5q-61 0 -173.5 44t-151.5 44q-23 0 -40.5 -13.5t-37.5 -47.5q-14 -23 -23 -27.5t-28 2.5l-19 9q-16 7 -18 19t6 32
q28 76 69 108.5t99 32.5zM307 1075q42 0 60 -10.5t18 -34.5q-82 -750 -82 -811q0 -30 6 -48.5t18.5 -25.5t21.5 -8.5t26 -1.5q14 0 32.5 5t22.5 5q12 0 12 -14q0 -31 -8 -76q-7 -34 -46.5 -50.5t-76.5 -16.5q-182 0 -182 194q0 38 20 249.5t41 405t23 193.5q5 45 86 45h8z
" />
    <glyph glyph-name="Imacron" unicode="&#x12a;" horiz-adv-x="577" 
d="M608 1761q20 0 27.5 -13t7.5 -40q0 -92 -51 -92h-463q-20 0 -27.5 14t-7.5 41q0 90 51 90h463zM371 1438q78 0 78 -45l-142 -1352q-6 -45 -86 -45h-16q-44 0 -61 11t-17 34l141 1352q3 45 86 45h17z" />
    <glyph glyph-name="imacron" unicode="&#x12b;" horiz-adv-x="542" 
d="M539 1399q20 0 27 -13t7 -40q0 -93 -51 -93h-463q-20 0 -27 14t-7 42q0 90 51 90h463zM307 1075q42 0 60 -10.5t18 -34.5q-82 -750 -82 -811q0 -30 6 -48.5t18.5 -25.5t21.5 -8.5t26 -1.5q14 0 32.5 5t22.5 5q12 0 12 -14q0 -31 -8 -76q-7 -34 -46.5 -50.5t-76.5 -16.5
q-182 0 -182 194q0 38 20 249.5t41 405t23 193.5q5 45 86 45h8z" />
    <glyph glyph-name="Ibreve" unicode="&#x12c;" horiz-adv-x="577" 
d="M670 1827q28 0 28 -25q0 -58 -30.5 -105.5t-78 -76t-102.5 -44t-108 -15.5q-113 0 -194 55.5t-81 155.5q0 29 6.5 42t28.5 13q13 0 19.5 -4t8.5 -8.5t5.5 -17t7.5 -21.5q35 -80 213 -80q176 0 228 80q6 9 11 21t7.5 17t10 9t20.5 4zM371 1438q78 0 78 -45l-142 -1352
q-6 -45 -86 -45h-16q-44 0 -61 11t-17 34l141 1352q3 45 86 45h17z" />
    <glyph glyph-name="ibreve" unicode="&#x12d;" horiz-adv-x="542" 
d="M600 1464q29 0 29 -24q0 -76 -52.5 -133.5t-123.5 -83t-144 -25.5q-113 0 -193.5 55.5t-80.5 155.5q0 29 6.5 42t28.5 13q13 0 19.5 -4t8.5 -8.5t5.5 -17t7.5 -21.5q35 -80 213 -80q175 0 227 80q6 9 11 21t7.5 17t10 9t20.5 4zM307 1075q42 0 60 -10.5t18 -34.5
q-82 -750 -82 -811q0 -30 6 -48.5t18.5 -25.5t21.5 -8.5t26 -1.5q14 0 32.5 5t22.5 5q12 0 12 -14q0 -31 -8 -76q-7 -34 -46.5 -50.5t-76.5 -16.5q-182 0 -182 194q0 38 20 249.5t41 405t23 193.5q5 45 86 45h8z" />
    <glyph glyph-name="Iogonek" unicode="&#x12e;" horiz-adv-x="577" 
d="M473 -195q12 0 12 -26q0 -48 -15.5 -80t-43.5 -47.5t-56.5 -21t-66.5 -5.5q-68 0 -115 18t-68.5 48.5t-29.5 57.5t-8 58q0 41 18.5 101t57.5 94q-31 7 -31 39l141 1352q3 45 86 45h17q78 0 78 -45l-142 -1352q-3 -32 -45 -41q-1 -12 -20 -62t-19 -81q0 -88 119 -88
q37 0 82.5 18t48.5 18z" />
    <glyph glyph-name="iogonek" unicode="&#x12f;" horiz-adv-x="542" 
d="M328 1329q-44 0 -65 9.5t-21 35.5l12 121q5 45 86 45h25q43 0 60 -10t17 -35l-12 -121q0 -45 -78 -45h-24zM551 -195q12 0 12 -26q0 -48 -15.5 -80t-43.5 -47.5t-56.5 -21t-66.5 -5.5q-68 0 -115 18t-68.5 48.5t-29.5 57.5t-8 58q0 41 17.5 100t55.5 93q-104 35 -104 182
q0 38 20 249.5t41 405t23 193.5q5 45 86 45h8q42 0 60 -10.5t18 -34.5q-82 -750 -82 -811q0 -30 6 -48.5t18.5 -25.5t21.5 -8.5t26 -1.5q14 0 32.5 5t22.5 5q12 0 12 -14q0 -31 -8 -76q-10 -52 -96 -65q0 -2 -18.5 -53t-18.5 -80q0 -88 119 -88q37 0 82.5 18t48.5 18z" />
    <glyph glyph-name="Idotaccent" unicode="&#x130;" horiz-adv-x="577" 
d="M403 1800q78 0 78 -45l-10 -104q-7 -45 -94 -45q-44 0 -61 11t-17 34l10 104q7 45 94 45zM371 1438q78 0 78 -45l-142 -1352q-6 -45 -86 -45h-16q-44 0 -61 11t-17 34l141 1352q3 45 86 45h17z" />
    <glyph glyph-name="dotlessi" unicode="&#x131;" horiz-adv-x="542" 
d="M307 1075q42 0 60 -10.5t18 -34.5q-82 -750 -82 -811q0 -30 6 -48.5t18.5 -25.5t21.5 -8.5t26 -1.5q14 0 32.5 5t22.5 5q12 0 12 -14q0 -31 -8 -76q-7 -34 -46.5 -50.5t-76.5 -16.5q-182 0 -182 194q0 38 20 249.5t41 405t23 193.5q5 45 86 45h8z" />
    <glyph glyph-name="IJ" unicode="&#x132;" horiz-adv-x="1400" 
d="M371 1438q78 0 78 -45l-142 -1352q-6 -45 -86 -45h-16q-44 0 -61 11t-17 34l141 1352q3 45 86 45h17zM1225 1438q78 0 78 -45l-103 -973q-21 -204 -134.5 -318t-330.5 -114q-180 0 -180 65q0 121 31 121q1 0 43.5 -9t91.5 -9q142 0 212.5 61.5t84.5 194.5l104 981
q3 45 86 45h17z" />
    <glyph glyph-name="ij" unicode="&#x133;" horiz-adv-x="1107" 
d="M365 1540q43 0 60 -10t17 -35l-12 -121q0 -45 -78 -45h-24q-44 0 -65 9.5t-21 35.5l12 121q5 45 86 45h25zM940 1540q43 0 60.5 -10t17.5 -35l-12 -121q0 -45 -78 -45h-25q-44 0 -65 9.5t-21 35.5l12 121q5 45 86 45h25zM307 1075q42 0 60 -10.5t18 -34.5
q-82 -750 -82 -811q0 -30 6 -48.5t18.5 -25.5t21.5 -8.5t26 -1.5q14 0 32.5 5t22.5 5q12 0 12 -14q0 -31 -8 -76q-7 -34 -46.5 -50.5t-76.5 -16.5q-182 0 -182 194q0 38 20 249.5t41 405t23 193.5q5 45 86 45h8zM883 1075q42 0 60 -10.5t18 -34.5l-125 -1182
q-9 -85 -37.5 -144t-69.5 -87t-80.5 -39.5t-83.5 -11.5q-70 0 -114.5 23.5t-44.5 60.5q0 98 22 98q5 0 19 -9t39 -17.5t57 -8.5q52 0 83.5 33t39.5 119l122 1165q6 45 86 45h9z" />
    <glyph glyph-name="Jcircumflex" unicode="&#x134;" horiz-adv-x="823" 
d="M682 1837q67 0 90 -45l96 -180q11 -17 11 -35q-3 -31 -54 -31h-4q-38 0 -65 27l-113 151l-141 -151q-35 -27 -72 -27h-4q-43 0 -43 25q0 19 14 41l135 180q33 45 99 45h51zM647 1438q78 0 78 -45l-102 -973q-21 -204 -134.5 -318t-330.5 -114q-181 0 -181 65
q0 121 31 121q1 0 43.5 -9t91.5 -9q142 0 212.5 61.5t84.5 194.5l105 981q3 45 86 45h16z" />
    <glyph glyph-name="jcircumflex" unicode="&#x135;" horiz-adv-x="565" 
d="M389 1470q67 0 90 -45l96 -180q11 -17 11 -35q-3 -30 -54 -30h-4q-39 0 -65 26l-113 152l-141 -152q-33 -26 -72 -26h-4q-43 0 -43 24q0 19 14 41l136 180q33 45 98 45h51zM340 1075q42 0 60 -10.5t18 -34.5l-125 -1182q-7 -68 -28 -120t-47.5 -82t-62 -49t-66.5 -25
t-66 -6q-70 0 -115 23.5t-45 60.5q0 98 22 98q5 0 19 -9t39 -17.5t57 -8.5q52 0 83.5 33t39.5 119l123 1165q6 45 86 45h8z" />
    <glyph glyph-name="Kcommaaccent" unicode="&#x136;" horiz-adv-x="1179" 
d="M1055 1438q33 0 51 -7.5t18 -17.5q0 -19 -24 -43l-570 -633l535 -680q14 -19 14 -32q-1 -17 -22 -23t-70 -6h-14q-48 0 -73 5.5t-38 21.5l-516 659h-8l-68 -641q-6 -45 -86 -45h-16q-44 0 -61 11t-17 34l141 1352q3 45 86 45h17q78 0 78 -45l-66 -627h8l568 643
q25 29 112 29h21zM539 -104q75 0 75 -58q0 -56 -47 -133.5t-105.5 -131.5t-92.5 -54q-56 0 -56 30q0 20 18.5 52t40 62.5t40 76.5t18.5 90q0 29 24.5 47.5t65.5 18.5h19z" />
    <glyph glyph-name="kcommaaccent" unicode="&#x137;" horiz-adv-x="1067" 
d="M358 1540q78 0 78 -45l-96 -915h8l459 467q24 28 111 28h8q33 0 51 -7t18 -17q0 -19 -24 -43l-447 -451l412 -500q14 -20 14 -28q0 -20 -19.5 -26.5t-72.5 -6.5h-8q-90 0 -109 27l-401 485h-8l-49 -467q-6 -45 -86 -45h-9q-43 0 -60 11t-17 34l153 1454q3 45 86 45h8z
M500 -104q75 0 75 -58q0 -56 -47 -133.5t-105.5 -131.5t-92.5 -54q-56 0 -56 30q0 20 18.5 52t40 62.5t40 76.5t18.5 90q0 29 24.5 47.5t65.5 18.5h19z" />
    <glyph glyph-name="kgreenlandic" unicode="&#x138;" horiz-adv-x="1067" 
d="M309 1077q78 0 78 -45l-47 -452h8l459 467q24 28 111 28h8q33 0 51 -7t18 -17q0 -19 -24 -43l-447 -451l412 -500q14 -20 14 -28q0 -20 -19.5 -26.5t-72.5 -6.5h-8q-90 0 -109 27l-401 485h-8l-49 -467q-6 -45 -86 -45h-9q-43 0 -60 11t-17 34l104 991q3 45 86 45h8z" />
    <glyph glyph-name="Lacute" unicode="&#x139;" horiz-adv-x="991" 
d="M541 1866q96 0 96 -25q0 -14 -17.5 -34t-107.5 -111q-55 -57 -92 -94t-109 -37q-45 0 -45 18q0 14 27.5 58.5t114.5 170.5q37 54 133 54zM344 1438q78 0 78 -45l-129 -1237h596q35 0 35 -45q0 -24 -1 -38.5t-5.5 -34t-16 -29t-29.5 -9.5h-714q-33 0 -44.5 13.5
t-11.5 47.5l140 1332q3 45 86 45h16z" />
    <glyph glyph-name="lacute" unicode="&#x13a;" horiz-adv-x="608" 
d="M573 1903q97 0 97 -25q0 -14 -22.5 -40t-113.5 -118q-50 -50 -81 -82q-36 -36 -109 -36q-45 0 -45 18q0 14 28 59.5t113 169.5q37 54 133 54zM383 1540q42 0 60 -10.5t18 -34.5q-131 -1215 -131 -1276q0 -30 6 -48.5t19 -25.5t22 -8.5t26 -1.5q14 0 33 5t23 5
q12 0 12 -14q0 -31 -8 -76q-7 -34 -46.5 -50.5t-76.5 -16.5q-184 0 -184 200q0 41 33 366t67 633l33 308q5 45 86 45h8z" />
    <glyph glyph-name="Lcommaaccent" unicode="&#x13b;" horiz-adv-x="991" 
d="M344 1438q78 0 78 -45l-129 -1237h596q35 0 35 -45q0 -24 -1 -38.5t-5.5 -34t-16 -29t-29.5 -9.5h-714q-33 0 -44.5 13.5t-11.5 47.5l140 1332q3 45 86 45h16zM502 -104q37 0 56.5 -15.5t19.5 -42.5q0 -56 -47.5 -133.5t-106 -131.5t-92.5 -54q-56 0 -56 30q0 20 18.5 52
t40 62.5t40 76.5t18.5 90q0 29 24.5 47.5t65.5 18.5h19z" />
    <glyph glyph-name="lcommaaccent" unicode="&#x13c;" horiz-adv-x="608" 
d="M383 1540q42 0 60 -10.5t18 -34.5q-131 -1215 -131 -1276q0 -30 6 -48.5t19 -25.5t22 -8.5t26 -1.5q14 0 33 5t23 5q12 0 12 -14q0 -31 -8 -76q-7 -34 -46.5 -50.5t-76.5 -16.5q-184 0 -184 200q0 41 33 366t67 633l33 308q5 45 86 45h8zM311 -104q37 0 56.5 -15.5
t19.5 -42.5q0 -56 -47.5 -133.5t-106 -131.5t-92.5 -54q-55 0 -55 30q0 20 18.5 52t40 62.5t40 76.5t18.5 90q0 29 24.5 47.5t65.5 18.5h18z" />
    <glyph glyph-name="Lcaron" unicode="&#x13d;" horiz-adv-x="991" 
d="M344 1438q78 0 78 -45l-129 -1237h596q35 0 35 -45q0 -24 -1 -38.5t-5.5 -34t-16 -29t-29.5 -9.5h-714q-33 0 -44.5 13.5t-11.5 47.5l140 1332q3 45 86 45h16zM829 1434q37 0 56.5 -15.5t19.5 -42.5q0 -48 -36 -115.5t-80 -115t-68 -47.5q-55 0 -55 30q0 20 27.5 99
t27.5 141q0 29 24.5 47.5t65.5 18.5h18z" />
    <glyph glyph-name="lcaron" unicode="&#x13e;" horiz-adv-x="608" 
d="M383 1540q42 0 60 -10.5t18 -34.5q-131 -1215 -131 -1276q0 -30 6 -48.5t19 -25.5t22 -8.5t26 -1.5q14 0 33 5t23 5q12 0 12 -14q0 -31 -8 -76q-7 -34 -46.5 -50.5t-76.5 -16.5q-184 0 -184 200q0 41 33 366t67 633l33 308q5 45 86 45h8zM657 1540q76 0 76 -57
q0 -48 -36 -116t-80 -115.5t-68 -47.5q-55 0 -55 31q0 21 27.5 99t27.5 141q0 29 24.5 47t65.5 18h18z" />
    <glyph glyph-name="Ldot" unicode="&#x13f;" horiz-adv-x="991" 
d="M344 1438q78 0 78 -45l-129 -1237h596q35 0 35 -45q0 -24 -1 -38.5t-5.5 -34t-16 -29t-29.5 -9.5h-714q-33 0 -44.5 13.5t-11.5 47.5l140 1332q3 45 86 45h16zM627 844q41 0 67.5 -27t26.5 -67q0 -52 -34 -84.5t-83 -32.5q-41 0 -67.5 26t-26.5 66q0 51 33 85t84 34z" />
    <glyph glyph-name="ldot" unicode="&#x140;" horiz-adv-x="608" 
d="M383 1540q42 0 60 -10.5t18 -34.5q-131 -1215 -131 -1276q0 -30 6 -48.5t19 -25.5t22 -8.5t26 -1.5q14 0 33 5t23 5q12 0 12 -14q0 -31 -8 -76q-7 -34 -46.5 -50.5t-76.5 -16.5q-184 0 -184 200q0 41 33 366t67 633l33 308q5 45 86 45h8zM584 844q41 0 67.5 -27t26.5 -67
q0 -52 -34 -84.5t-83 -32.5q-41 0 -67.5 26t-26.5 66q0 51 33 85t84 34z" />
    <glyph glyph-name="Lslash" unicode="&#x141;" horiz-adv-x="995" 
d="M346 1438q78 0 78 -45l-49 -478l233 132q16 8 23 8q14 0 14 -29q0 -50 -47 -74l-233 -131l-70 -665h596q35 0 35 -45q0 -24 -1 -38.5t-5.5 -34t-16 -29t-29.5 -9.5h-714q-33 0 -44.5 13.5t-11.5 47.5l68 652l-147 -82q-16 -8 -21 -8q-14 0 -14 28q0 49 45 74l147 82
l62 586q3 45 86 45h16z" />
    <glyph glyph-name="lslash" unicode="&#x142;" horiz-adv-x="600" 
d="M403 1540q42 0 60 -10.5t18 -34.5q-30 -282 -61 -580l90 52q16 8 22 8q15 0 15 -29q0 -50 -47 -74l-90 -51q-60 -563 -60 -602q0 -30 6 -48.5t19 -25.5t22.5 -8.5t26.5 -1.5q14 0 32.5 5t22.5 5q13 0 13 -14q0 -25 -9 -76q-7 -34 -46.5 -50.5t-76.5 -16.5
q-184 0 -184 200q0 63 49 531l-90 -49q-16 -8 -22 -8q-15 0 -15 28q0 50 47 74l91 49q15 146 33.5 318t29 267.5t10.5 96.5q5 45 86 45h8z" />
    <glyph glyph-name="Nacute" unicode="&#x143;" horiz-adv-x="1472" 
d="M997 1862q97 0 97 -25q0 -14 -22.5 -40t-113.5 -118q-50 -50 -81 -82q-36 -36 -109 -36q-45 0 -45 18q0 14 28 59.5t113 169.5q37 54 133 54zM1286 1438q78 0 78 -45l-141 -1352q-6 -45 -86 -45h-41q-54 0 -70 29l-582 1019l-43 105l-116 -1108q-6 -45 -86 -45h-15
q-44 0 -61 11t-17 34l142 1352q3 45 86 45h43q34 0 52 -8.5t30 -30.5l563 -987l49 -115l115 1096q3 45 86 45h14z" />
    <glyph glyph-name="nacute" unicode="&#x144;" 
d="M559 1198q-45 0 -45 19q0 14 28 59.5t113 169.5q37 53 133 53q97 0 97 -24q0 -14 -22.5 -40t-113.5 -118q-50 -50 -81 -82q-37 -37 -109 -37zM1034 145q13 0 13 -14q0 -25 -9 -76q-7 -34 -46.5 -50.5t-76.5 -16.5q-184 0 -184 200q0 38 28.5 305t28.5 283q0 158 -155 158
q-29 0 -60 -8.5t-68 -32t-71 -59t-68 -95t-59 -135.5l-59 -563q-6 -45 -86 -45h-8q-78 0 -78 43q90 801 90 897q0 29 -1 49t-1 21q0 16 15 26.5t38 14.5t37 5t25 1q53 0 53 -138v-38q150 206 362 206q142 0 206.5 -71.5t64.5 -194.5q0 -16 -30 -296t-30 -302q0 -30 6 -48.5
t19 -25.5t22.5 -8.5t26.5 -1.5q14 0 32.5 5t22.5 5z" />
    <glyph glyph-name="Ncommaaccent" unicode="&#x145;" horiz-adv-x="1472" 
d="M1286 1438q78 0 78 -45l-141 -1352q-6 -45 -86 -45h-41q-54 0 -70 29l-582 1019l-43 105l-116 -1108q-6 -45 -86 -45h-15q-44 0 -61 11t-17 34l142 1352q3 45 86 45h43q34 0 52 -8.5t30 -30.5l563 -987l49 -115l115 1096q3 45 86 45h14zM694 -104q37 0 56.5 -15.5
t19.5 -42.5q0 -56 -47.5 -133.5t-106 -131.5t-92.5 -54q-55 0 -55 30q0 20 18.5 52t40 62.5t40 76.5t18.5 90q0 29 24.5 47.5t65.5 18.5h18z" />
    <glyph glyph-name="ncommaaccent" unicode="&#x146;" 
d="M1034 145q13 0 13 -14q0 -25 -9 -76q-7 -34 -46.5 -50.5t-76.5 -16.5q-184 0 -184 200q0 38 28.5 305t28.5 283q0 158 -155 158q-29 0 -60 -8.5t-68 -32t-71 -59t-68 -95t-59 -135.5l-59 -563q-6 -45 -86 -45h-8q-78 0 -78 43q90 801 90 897q0 29 -1 49t-1 21
q0 16 15 26.5t38 14.5t37 5t25 1q53 0 53 -138v-38q150 206 362 206q142 0 206.5 -71.5t64.5 -194.5q0 -16 -30 -296t-30 -302q0 -30 6 -48.5t19 -25.5t22.5 -8.5t26.5 -1.5q14 0 32.5 5t22.5 5zM496 -104q75 0 75 -58q0 -56 -47 -133.5t-105.5 -131.5t-92.5 -54
q-56 0 -56 30q0 20 18.5 52t40 62.5t40 76.5t18.5 90q0 29 24.5 47.5t65.5 18.5h19z" />
    <glyph glyph-name="Ncaron" unicode="&#x147;" horiz-adv-x="1472" 
d="M1042 1845q45 0 45 -28q0 -17 -14 -37l-137 -181q-33 -45 -98 -45h-52q-67 0 -90 45l-94 181q-10 18 -10 37q3 28 51 28h4q42 0 68 -26l108 -152l146 152q33 26 69 26h4zM1286 1438q78 0 78 -45l-141 -1352q-6 -45 -86 -45h-41q-54 0 -70 29l-582 1019l-43 105
l-116 -1108q-6 -45 -86 -45h-15q-44 0 -61 11t-17 34l142 1352q3 45 86 45h43q34 0 52 -8.5t30 -30.5l563 -987l49 -115l115 1096q3 45 86 45h14z" />
    <glyph glyph-name="ncaron" unicode="&#x148;" 
d="M487 1237l-94 180q-10 18 -10 37q3 29 51 29h4q41 0 68 -27l108 -151l146 151q34 27 69 27h5q45 0 45 -29q0 -16 -15 -37l-137 -180q-33 -45 -98 -45h-51q-68 0 -91 45zM1034 145q13 0 13 -14q0 -25 -9 -76q-7 -34 -46.5 -50.5t-76.5 -16.5q-184 0 -184 200
q0 38 28.5 305t28.5 283q0 158 -155 158q-29 0 -60 -8.5t-68 -32t-71 -59t-68 -95t-59 -135.5l-59 -563q-6 -45 -86 -45h-8q-78 0 -78 43q90 801 90 897q0 29 -1 49t-1 21q0 16 15 26.5t38 14.5t37 5t25 1q53 0 53 -138v-38q150 206 362 206q142 0 206.5 -71.5t64.5 -194.5
q0 -16 -30 -296t-30 -302q0 -30 6 -48.5t19 -25.5t22.5 -8.5t26.5 -1.5q14 0 32.5 5t22.5 5z" />
    <glyph glyph-name="napostrophe" unicode="&#x149;" 
d="M270 1419q0 -56 -47 -133.5t-105.5 -131.5t-92.5 -54q-56 0 -56 30q0 20 18.5 52t40 62.5t40 76.5t18.5 90q0 29 24.5 47.5t65.5 18.5h19q75 0 75 -58zM1034 145q13 0 13 -14q0 -25 -9 -76q-7 -34 -46.5 -50.5t-76.5 -16.5q-184 0 -184 200q0 38 28.5 305t28.5 283
q0 158 -155 158q-29 0 -60 -8.5t-68 -32t-71 -59t-68 -95t-59 -135.5l-59 -563q-6 -45 -86 -45h-8q-78 0 -78 43q90 801 90 897q0 29 -1 49t-1 21q0 16 15 26.5t38 14.5t37 5t25 1q53 0 53 -138v-38q150 206 362 206q142 0 206.5 -71.5t64.5 -194.5q0 -16 -30 -296t-30 -302
q0 -30 6 -48.5t19 -25.5t22.5 -8.5t26.5 -1.5q14 0 32.5 5t22.5 5z" />
    <glyph glyph-name="Eng" unicode="&#x14a;" horiz-adv-x="1472" 
d="M1327 1036v-6l-92 -880l-12 -109l-21 -193q-7 -68 -28 -120t-47.5 -82t-62 -49t-66.5 -25t-66 -6q-70 0 -115 23.5t-45 60.5q0 98 23 98q5 0 19 -9t38.5 -17.5t56.5 -8.5q52 0 83.5 33t39.5 119l15 127l-603 1052l-43 105l-116 -1108q-6 -45 -86 -45h-15q-44 0 -61 11
t-17 34l142 1352q3 45 86 45h43q34 0 52 -8.5t30 -30.5l563 -987l49 -115l115 1096q3 45 86 45h14q78 0 78 -45z" />
    <glyph glyph-name="eng" unicode="&#x14b;" 
d="M694 1083q142 0 206.5 -71.5t64.5 -194.5l-101 -969q-7 -68 -28 -120t-47.5 -82t-62 -49t-66.5 -25t-66 -6q-70 0 -115 23.5t-45 60.5q0 98 23 98q5 0 19 -9t38.5 -17.5t56.5 -8.5q52 0 83.5 33t39.5 119l94 913q0 156 -155 156q-29 0 -60 -8.5t-68 -32t-71 -59t-68 -95
t-59 -135.5l-59 -563q-6 -45 -86 -45h-8q-78 0 -78 43q90 801 90 897q0 29 -1 49t-1 21q0 16 15 26.5t38 14.5t37 5t25 1q53 0 53 -138v-38q150 206 362 206z" />
    <glyph glyph-name="Omacron" unicode="&#x14c;" horiz-adv-x="1497" 
d="M1063 1761q20 0 27.5 -13t7.5 -40q0 -92 -51 -92h-463q-20 0 -27.5 14t-7.5 41q0 90 51 90h463zM823 1446q278 0 422 -148.5t144 -437.5q0 -420 -192.5 -646t-526.5 -226q-275 0 -418 150t-143 440q0 95 11 183.5t36.5 176.5t63.5 162.5t95.5 139t130 110t168.5 71
t209 25.5zM807 1290q-238 0 -375 -178t-137 -516q0 -223 99.5 -338t291.5 -115q235 0 374.5 182t139.5 515q0 223 -100 336.5t-293 113.5z" />
    <glyph glyph-name="omacron" unicode="&#x14d;" horiz-adv-x="1165" 
d="M864 1399q20 0 27.5 -13t7.5 -40q0 -93 -51 -93h-463q-35 0 -35 56q0 90 51 90h463zM633 1083q201 0 306 -113.5t105 -330.5q0 -314 -139.5 -482.5t-388.5 -168.5q-209 0 -316.5 112t-107.5 328q0 105 19 199t61 178t104 145.5t153.5 97t203.5 35.5zM610 936
q-166 0 -254 -133.5t-88 -368.5q0 -152 63.5 -225.5t194.5 -73.5q165 0 252.5 128t87.5 372q0 154 -62.5 227.5t-193.5 73.5z" />
    <glyph glyph-name="Obreve" unicode="&#x14e;" horiz-adv-x="1497" 
d="M1124 1827q29 0 29 -25q0 -58 -30.5 -105.5t-78 -76t-102.5 -44t-108 -15.5q-113 0 -194 55.5t-81 155.5q0 29 6.5 42t28.5 13q13 0 19.5 -4t8.5 -8.5t5.5 -17t7.5 -21.5q35 -80 213 -80q175 0 227 80q6 9 11 21t7.5 17t10 9t20.5 4zM823 1446q278 0 422 -148.5
t144 -437.5q0 -420 -192.5 -646t-526.5 -226q-275 0 -418 150t-143 440q0 95 11 183.5t36.5 176.5t63.5 162.5t95.5 139t130 110t168.5 71t209 25.5zM807 1290q-238 0 -375 -178t-137 -516q0 -223 99.5 -338t291.5 -115q235 0 374.5 182t139.5 515q0 223 -100 336.5
t-293 113.5z" />
    <glyph glyph-name="obreve" unicode="&#x14f;" horiz-adv-x="1165" 
d="M926 1464q28 0 28 -24q0 -58 -30.5 -105.5t-78 -76.5t-102.5 -44.5t-108 -15.5q-113 0 -194 55.5t-81 155.5q0 29 6.5 42t28.5 13q13 0 19.5 -4t8.5 -8.5t5.5 -17t7.5 -21.5q35 -80 213 -80q176 0 228 80q6 9 11 21t7.5 17t10 9t20.5 4zM633 1083q201 0 306 -113.5
t105 -330.5q0 -314 -139.5 -482.5t-388.5 -168.5q-209 0 -316.5 112t-107.5 328q0 105 19 199t61 178t104 145.5t153.5 97t203.5 35.5zM610 936q-166 0 -254 -133.5t-88 -368.5q0 -152 63.5 -225.5t194.5 -73.5q165 0 252.5 128t87.5 372q0 154 -62.5 227.5t-193.5 73.5z
" />
    <glyph glyph-name="Ohungarumlaut" unicode="&#x150;" horiz-adv-x="1497" 
d="M893 1862q96 0 96 -25q0 -14 -22.5 -40t-113.5 -118q-50 -50 -81 -82q-36 -36 -108 -36q-46 0 -46 18q0 14 27.5 58.5t114.5 170.5q37 54 133 54zM1192 1862q96 0 96 -25q0 -14 -22.5 -40t-113.5 -118q-50 -50 -81 -82q-36 -36 -108 -36q-45 0 -45 18q0 14 28 59.5
t113 169.5q37 54 133 54zM823 1446q278 0 422 -148.5t144 -437.5q0 -420 -192.5 -646t-526.5 -226q-275 0 -418 150t-143 440q0 95 11 183.5t36.5 176.5t63.5 162.5t95.5 139t130 110t168.5 71t209 25.5zM807 1290q-238 0 -375 -178t-137 -516q0 -223 99.5 -338t291.5 -115
q235 0 374.5 182t139.5 515q0 223 -100 336.5t-293 113.5z" />
    <glyph glyph-name="ohungarumlaut" unicode="&#x151;" horiz-adv-x="1165" 
d="M694 1499q97 0 97 -24q0 -14 -21.5 -38.5t-103.5 -107.5q-56 -57 -93 -94t-108 -37q-45 0 -45 19q0 14 28 59.5t113 169.5q37 53 133 53zM993 1499q97 0 97 -24q0 -14 -21.5 -38.5t-103.5 -107.5q-56 -57 -93 -94t-108 -37q-45 0 -45 19q0 14 28 59.5t113 169.5
q37 53 133 53zM633 1083q201 0 306 -113.5t105 -330.5q0 -314 -139.5 -482.5t-388.5 -168.5q-209 0 -316.5 112t-107.5 328q0 105 19 199t61 178t104 145.5t153.5 97t203.5 35.5zM610 936q-166 0 -254 -133.5t-88 -368.5q0 -152 63.5 -225.5t194.5 -73.5q165 0 252.5 128
t87.5 372q0 154 -62.5 227.5t-193.5 73.5z" />
    <glyph glyph-name="OE" unicode="&#x152;" horiz-adv-x="2091" 
d="M2056 1434q35 0 35 -45q0 -25 -1 -38.5t-5 -33.5t-15.5 -29.5t-29.5 -9.5h-604l-50 -467h541q35 0 35 -45q0 -25 -1 -38.5t-5 -33.5t-15.5 -29.5t-29.5 -9.5h-541l-51 -499h606q35 0 35 -45q0 -25 -1 -38.5t-5 -33.5t-15.5 -29.5t-29.5 -9.5h-725q-29 0 -42.5 11.5
t-13.5 37.5q0 4 11 101q-182 -162 -469 -162q-275 0 -418 150t-143 440q0 423 189 645.5t525 222.5q280 0 432 -158l11 84q3 32 19 47t48 15h723zM686 143q235 0 374.5 182t139.5 515q0 223 -100 336.5t-293 113.5q-238 0 -375 -178t-137 -516q0 -223 99.5 -338t291.5 -115z
" />
    <glyph glyph-name="oe" unicode="&#x153;" horiz-adv-x="1783" 
d="M1118 436q-95 0 -176 15v-21q0 -161 77 -228t222 -67q81 0 153.5 25.5t114.5 50.5t50 25q5 0 7.5 -1t4.5 -6.5t2 -17.5q0 -38 -10 -92q-6 -34 -47 -60.5t-95.5 -41t-105.5 -22t-88 -7.5q-245 0 -359 114q-125 -114 -340 -114q-209 0 -316.5 112t-107.5 328q0 105 19 199
t61 178t104 145.5t153.5 97t203.5 35.5q199 0 318 -125q141 125 364 125q74 0 134.5 -18.5t98.5 -47t64 -66t36.5 -72.5t10.5 -68q0 -83 -31 -148.5t-83 -107t-124.5 -69t-149.5 -39t-165 -11.5zM539 135q158 0 245 119q-20 75 -20 158q0 233 84 397q-55 127 -225 127
q-166 0 -254 -133.5t-88 -368.5q0 -152 63.5 -225.5t194.5 -73.5zM1309 936q-307 0 -357 -352h146q19 0 34.5 0.5t51.5 2.5t65.5 8t67.5 15t67 25.5t55 37.5t40 52.5t14 69.5q0 60 -49.5 100.5t-134.5 40.5z" />
    <glyph glyph-name="Racute" unicode="&#x154;" horiz-adv-x="1249" 
d="M821 1862q97 0 97 -25q0 -14 -21.5 -38.5t-103.5 -107.5q-56 -57 -93 -94q-36 -36 -108 -36q-45 0 -45 18q0 14 28 59.5t113 169.5q37 54 133 54zM653 1434q228 0 343.5 -75t115.5 -237q0 -148 -73.5 -248.5t-200.5 -148.5v-8q54 -20 87 -80t68 -176l119 -404
q4 -16 4 -22q0 -39 -90 -39h-20q-72 0 -80 33l-113 401q-33 116 -96.5 158.5t-188.5 42.5h-184l-61 -590q-6 -45 -86 -45h-17q-44 0 -61 11t-17 34l140 1331q3 32 19 47t48 15h344zM668 1278h-256l-52 -492h271q121 0 206 86.5t85 202.5q0 101 -67.5 152t-186.5 51z" />
    <glyph glyph-name="racute" unicode="&#x155;" horiz-adv-x="749" 
d="M301 1198q-45 0 -45 19q0 14 28 59.5t113 169.5q37 53 133 53q97 0 97 -24q0 -14 -22.5 -40t-113.5 -118q-50 -50 -81 -82q-37 -37 -109 -37zM653 1083q40 0 71.5 -17.5t31.5 -59.5q0 -38 -20.5 -76.5t-39.5 -38.5q-3 0 -26 11t-54 11q-80 0 -149.5 -86t-110.5 -237
l-57 -549q-6 -45 -86 -45h-8q-78 0 -78 43l78 725q12 99 12 172q0 21 -1 42t-1 28q0 16 15 26.5t38 14.5t37 5t25 1q55 0 55 -103q0 -23 -4 -73q47 96 119.5 151t152.5 55z" />
    <glyph glyph-name="Rcommaaccent" unicode="&#x156;" horiz-adv-x="1249" 
d="M653 1434q228 0 343.5 -75t115.5 -237q0 -148 -73.5 -248.5t-200.5 -148.5v-8q54 -20 87 -80t68 -176l119 -404q4 -16 4 -22q0 -39 -90 -39h-20q-72 0 -80 33l-113 401q-33 116 -96.5 158.5t-188.5 42.5h-184l-61 -590q-6 -45 -86 -45h-17q-44 0 -61 11t-17 34l140 1331
q3 32 19 47t48 15h344zM668 1278h-256l-52 -492h271q121 0 206 86.5t85 202.5q0 101 -67.5 152t-186.5 51zM569 -104q37 0 56.5 -15.5t19.5 -42.5q0 -56 -47.5 -133.5t-106 -131.5t-92.5 -54q-55 0 -55 30q0 20 18.5 52t40 62.5t40 76.5t18.5 90q0 29 24.5 47.5t65.5 18.5
h18z" />
    <glyph glyph-name="rcommaaccent" unicode="&#x157;" horiz-adv-x="749" 
d="M653 1083q40 0 71.5 -17.5t31.5 -59.5q0 -38 -20.5 -76.5t-39.5 -38.5q-3 0 -26 11t-54 11q-80 0 -149.5 -86t-110.5 -237l-57 -549q-6 -45 -86 -45h-8q-78 0 -78 43l78 725q12 99 12 172q0 21 -1 42t-1 28q0 16 15 26.5t38 14.5t37 5t25 1q55 0 55 -103q0 -23 -4 -73
q47 96 119.5 151t152.5 55zM217 -104q37 0 56.5 -15.5t19.5 -42.5q0 -56 -47.5 -133.5t-106 -131.5t-92.5 -54q-55 0 -55 30q0 20 18.5 52t40 62.5t40 76.5t18.5 90q0 29 24.5 47.5t65.5 18.5h18z" />
    <glyph glyph-name="Rcaron" unicode="&#x158;" horiz-adv-x="1249" 
d="M866 1845q45 0 45 -28q0 -17 -14 -37l-137 -181q-33 -45 -98 -45h-52q-67 0 -90 45l-94 181q-10 18 -10 37q3 28 51 28h4q42 0 68 -26l108 -152l146 152q33 26 69 26h4zM653 1434q228 0 343.5 -75t115.5 -237q0 -148 -73.5 -248.5t-200.5 -148.5v-8q54 -20 87 -80
t68 -176l119 -404q4 -16 4 -22q0 -39 -90 -39h-20q-72 0 -80 33l-113 401q-33 116 -96.5 158.5t-188.5 42.5h-184l-61 -590q-6 -45 -86 -45h-17q-44 0 -61 11t-17 34l140 1331q3 32 19 47t48 15h344zM668 1278h-256l-52 -492h271q121 0 206 86.5t85 202.5q0 101 -67.5 152
t-186.5 51z" />
    <glyph glyph-name="rcaron" unicode="&#x159;" horiz-adv-x="749" 
d="M229 1237l-94 180q-10 17 -10 37q3 29 51 29h4q41 0 68 -27l108 -151l146 151q34 27 69 27h4q46 0 46 -29q0 -16 -15 -37l-137 -180q-33 -45 -98 -45h-52q-67 0 -90 45zM653 1083q40 0 71.5 -17.5t31.5 -59.5q0 -38 -20.5 -76.5t-39.5 -38.5q-3 0 -26 11t-54 11
q-80 0 -149.5 -86t-110.5 -237l-57 -549q-6 -45 -86 -45h-8q-78 0 -78 43l78 725q12 99 12 172q0 21 -1 42t-1 28q0 16 15 26.5t38 14.5t37 5t25 1q55 0 55 -103q0 -23 -4 -73q47 96 119.5 151t152.5 55z" />
    <glyph glyph-name="Sacute" unicode="&#x15a;" horiz-adv-x="1024" 
d="M811 1862q96 0 96 -25q0 -14 -22.5 -40t-113.5 -118q-50 -50 -81 -82q-36 -36 -108 -36q-45 0 -45 18q0 14 28 59.5t113 169.5q37 54 133 54zM614 1446q124 0 230 -37.5t106 -83.5q0 -26 -29 -69.5t-51 -43.5q-7 0 -34 15q-107 63 -222 63q-124 0 -208 -62.5t-84 -176.5
q0 -43 14 -78.5t33 -60t54 -49t62 -38.5t72 -34q147 -67 203 -105q149 -100 161 -259q1 -15 1 -30q0 -83 -31.5 -155t-93 -129.5t-163 -91t-231.5 -33.5q-62 0 -116.5 8t-104.5 25.5t-79 51t-29 79.5q0 32 9.5 64t29.5 32q5 0 12 -3t12 -6t14.5 -9t14.5 -9q125 -78 272 -78
q133 0 215 67t82 171q0 31 -9 58.5t-20 47.5t-35 41t-39.5 33t-49 29t-48.5 24t-51 23q-41 18 -67 30.5t-66.5 35t-66.5 43t-56.5 52t-48 65t-29.5 78.5t-12 95q0 185 136.5 297.5t340.5 112.5z" />
    <glyph glyph-name="sacute" unicode="&#x15b;" horiz-adv-x="845" 
d="M662 1499q96 0 96 -24q0 -14 -22.5 -40t-113.5 -118q-50 -50 -81 -82q-37 -37 -109 -37q-45 0 -45 19q0 14 28 59.5t113 169.5q37 53 134 53zM477 1083q55 0 111.5 -9t101.5 -31.5t45 -53.5q0 -27 -25.5 -64.5t-43.5 -37.5q-12 0 -29 10q-80 39 -158 39q-89 0 -139.5 -37
t-50.5 -100q0 -58 41 -94t145 -91q137 -74 195.5 -144t58.5 -163q0 -137 -107.5 -228t-299.5 -91q-69 0 -126.5 12.5t-91 32t-51.5 39.5t-18 37q0 26 20.5 66t32.5 40q6 0 31 -14q103 -66 211 -66q100 0 161.5 48t61.5 118q0 19 -5.5 36.5t-12.5 30.5t-23 28.5t-27 25
t-34.5 24t-35 21t-40 22t-39.5 21.5q-121 68 -174 132t-53 149q0 129 106 210.5t262 81.5z" />
    <glyph glyph-name="Scircumflex" unicode="&#x15c;" horiz-adv-x="1024" 
d="M666 1833q67 0 90 -45l96 -180q10 -15 10 -35q-3 -31 -53 -31h-4q-39 0 -66 27l-112 151l-142 -151q-34 -27 -71 -27h-4q-43 0 -43 25q0 19 14 41l135 180q33 45 98 45h52zM614 1446q124 0 230 -37.5t106 -83.5q0 -26 -29 -69.5t-51 -43.5q-7 0 -34 15q-107 63 -222 63
q-124 0 -208 -62.5t-84 -176.5q0 -43 14 -78.5t33 -60t54 -49t62 -38.5t72 -34q147 -67 203 -105q149 -100 161 -259q1 -15 1 -30q0 -83 -31.5 -155t-93 -129.5t-163 -91t-231.5 -33.5q-62 0 -116.5 8t-104.5 25.5t-79 51t-29 79.5q0 32 9.5 64t29.5 32q5 0 12 -3t12 -6
t14.5 -9t14.5 -9q125 -78 272 -78q133 0 215 67t82 171q0 31 -9 58.5t-20 47.5t-35 41t-39.5 33t-49 29t-48.5 24t-51 23q-41 18 -67 30.5t-66.5 35t-66.5 43t-56.5 52t-48 65t-29.5 78.5t-12 95q0 185 136.5 297.5t340.5 112.5z" />
    <glyph glyph-name="scircumflex" unicode="&#x15d;" horiz-adv-x="845" 
d="M516 1470q67 0 90 -45l96 -180q11 -17 11 -35q-3 -30 -54 -30h-4q-39 0 -65 26l-113 152l-141 -152q-33 -26 -72 -26h-4q-43 0 -43 24q0 19 14 41l136 180q33 45 98 45h51zM477 1083q55 0 111.5 -9t101.5 -31.5t45 -53.5q0 -27 -25.5 -64.5t-43.5 -37.5q-12 0 -29 10
q-80 39 -158 39q-89 0 -139.5 -37t-50.5 -100q0 -58 41 -94t145 -91q137 -74 195.5 -144t58.5 -163q0 -137 -107.5 -228t-299.5 -91q-69 0 -126.5 12.5t-91 32t-51.5 39.5t-18 37q0 26 20.5 66t32.5 40q6 0 31 -14q103 -66 211 -66q100 0 161.5 48t61.5 118q0 19 -5.5 36.5
t-12.5 30.5t-23 28.5t-27 25t-34.5 24t-35 21t-40 22t-39.5 21.5q-121 68 -174 132t-53 149q0 129 106 210.5t262 81.5z" />
    <glyph glyph-name="Scedilla" unicode="&#x15e;" horiz-adv-x="1024" 
d="M557 791q147 -67 203 -105q149 -100 161 -259q1 -15 1 -30q0 -75 -26 -142t-77 -122.5t-135 -92.5t-192 -48l-37 -92h8q16 0 33.5 -2t41.5 -10t41.5 -20.5t30.5 -37t13 -57.5q0 -51 -17.5 -89t-43.5 -59.5t-62.5 -34t-67 -16.5t-65.5 -4q-25 0 -53 3t-64 11t-59 26
t-23 44q0 31 5 47t9 18t11 2q1 0 21.5 -12.5t58 -25.5t79.5 -13q123 0 123 82q0 26 -19 42t-42.5 21.5t-42.5 16t-19 27.5q12 35 51 129q-62 0 -116.5 8t-104.5 25.5t-79 51t-29 79.5q0 32 9.5 64t29.5 32q5 0 12 -3t12 -6t14.5 -9t14.5 -9q125 -78 272 -78q133 0 215 67
t82 171q0 31 -9 58.5t-20 47.5t-35 41t-39.5 33t-49 29t-48.5 24t-51 23q-41 18 -67 30.5t-66.5 35t-66.5 43t-56.5 52t-48 65t-29.5 78.5t-12 95q0 185 136.5 297.5t340.5 112.5q124 0 230 -37.5t106 -83.5q0 -26 -29 -69.5t-51 -43.5q-7 0 -34 15q-107 63 -222 63
q-124 0 -208 -62.5t-84 -176.5q0 -43 14 -78.5t33 -60t54 -49t62 -38.5t72 -34z" />
    <glyph glyph-name="scedilla" unicode="&#x15f;" horiz-adv-x="845" 
d="M475 614q137 -74 195.5 -144t58.5 -163q0 -116 -79 -201.5t-224 -109.5l-39 -96h8q16 0 33.5 -2t41.5 -10t41.5 -20.5t30.5 -37t13 -57.5q0 -51 -17.5 -89t-43.5 -59.5t-62.5 -34t-67 -16.5t-65.5 -4q-25 0 -53 3t-64 11t-59 26t-23 44q0 31 5 47t9 18t11 2
q1 0 21.5 -12.5t58.5 -25.5t80 -13q123 0 123 82q0 26 -19 42t-42.5 21.5t-42.5 16t-19 27.5q12 35 51 129h-14q-69 0 -126.5 12.5t-91 32t-51.5 39.5t-18 37q0 26 20.5 66t32.5 40q6 0 31 -14q103 -66 211 -66q100 0 161.5 48t61.5 118q0 19 -5.5 36.5t-12.5 30.5t-23 28.5
t-27 25t-34.5 24t-35 21t-40 22t-39.5 21.5q-121 68 -174 132t-53 149q0 129 106 210.5t262 81.5q55 0 111.5 -9t101.5 -31.5t45 -53.5q0 -27 -25.5 -64.5t-43.5 -37.5q-12 0 -29 10q-80 39 -158 39q-89 0 -139.5 -37t-50.5 -100q0 -58 41 -94t145 -91z" />
    <glyph glyph-name="Scaron" unicode="&#x160;" horiz-adv-x="1024" 
d="M856 1845q45 0 45 -28q0 -17 -14 -37l-137 -181q-33 -45 -99 -45h-51q-67 0 -90 45l-94 181q-10 18 -10 37q3 28 51 28h4q41 0 67 -26l109 -152l145 152q33 26 70 26h4zM614 1446q124 0 230 -37.5t106 -83.5q0 -26 -29 -69.5t-51 -43.5q-7 0 -34 15q-107 63 -222 63
q-124 0 -208 -62.5t-84 -176.5q0 -43 14 -78.5t33 -60t54 -49t62 -38.5t72 -34q147 -67 203 -105q149 -100 161 -259q1 -15 1 -30q0 -83 -31.5 -155t-93 -129.5t-163 -91t-231.5 -33.5q-62 0 -116.5 8t-104.5 25.5t-79 51t-29 79.5q0 32 9.5 64t29.5 32q5 0 12 -3t12 -6
t14.5 -9t14.5 -9q125 -78 272 -78q133 0 215 67t82 171q0 31 -9 58.5t-20 47.5t-35 41t-39.5 33t-49 29t-48.5 24t-51 23q-41 18 -67 30.5t-66.5 35t-66.5 43t-56.5 52t-48 65t-29.5 78.5t-12 95q0 185 136.5 297.5t340.5 112.5z" />
    <glyph glyph-name="scaron" unicode="&#x161;" horiz-adv-x="845" 
d="M707 1483q45 0 45 -29q0 -16 -15 -37l-137 -180q-33 -45 -98 -45h-51q-68 0 -91 45l-94 180q-10 18 -10 37q3 29 51 29h4q41 0 68 -27l108 -151l146 151q35 27 69 27h5zM477 1083q55 0 111.5 -9t101.5 -31.5t45 -53.5q0 -27 -25.5 -64.5t-43.5 -37.5q-12 0 -29 10
q-80 39 -158 39q-89 0 -139.5 -37t-50.5 -100q0 -58 41 -94t145 -91q137 -74 195.5 -144t58.5 -163q0 -137 -107.5 -228t-299.5 -91q-69 0 -126.5 12.5t-91 32t-51.5 39.5t-18 37q0 26 20.5 66t32.5 40q6 0 31 -14q103 -66 211 -66q100 0 161.5 48t61.5 118q0 19 -5.5 36.5
t-12.5 30.5t-23 28.5t-27 25t-34.5 24t-35 21t-40 22t-39.5 21.5q-121 68 -174 132t-53 149q0 129 106 210.5t262 81.5z" />
    <glyph glyph-name="uni0162" unicode="&#x162;" horiz-adv-x="1124" 
d="M1116 1434q35 0 35 -45q0 -25 -1 -38.5t-5 -33.5t-15.5 -29.5t-29.5 -9.5h-389l-129 -1237q-6 -45 -86 -45h14l-41 -100h8q16 0 33.5 -2t41.5 -10t41.5 -20.5t30.5 -37t13 -57.5q0 -51 -17.5 -89t-43.5 -59.5t-62.5 -34t-67 -16.5t-65.5 -4q-25 0 -53 3t-64 11t-59 26
t-23 44q0 31 5 47t9 18t11 2q1 0 21.5 -12.5t58.5 -25.5t80 -13q122 0 122 82q0 26 -19 42t-42 21.5t-42 16t-19 27.5q12 37 55 141h57q-44 0 -61 11t-17 34l129 1237h-397q-35 0 -35 45q0 24 1 38.5t5.5 34t16 29t29.5 9.5h966z" />
    <glyph glyph-name="uni0163" unicode="&#x163;" horiz-adv-x="700" 
d="M549 924h-131q-70 -631 -70 -672q0 -117 98 -117q38 0 65 7.5t28 7.5q14 0 14 -19q0 -32 -10 -76q-8 -35 -48.5 -51t-91.5 -16q-22 0 -32 2l-37 -90h8q16 0 33.5 -2t41.5 -10t41.5 -20.5t30.5 -37t13 -57.5q0 -51 -17.5 -89t-43.5 -59.5t-62.5 -34t-67 -16.5t-65.5 -4
q-25 0 -53 3t-64 11t-59 26t-23 44q0 31 5 47t9 18t11 2q1 0 21.5 -12.5t58 -25.5t79.5 -13q123 0 123 82q0 26 -19 42t-42.5 21.5t-42.5 16t-19 27.5q13 37 56 141h24q-137 38 -137 213q0 27 18 205t36 342l18 164h-103q-20 0 -27 13.5t-7 41.5q0 92 51 92h102l25 215
q5 45 84 45h8q42 0 60 -10.5t18 -34.5l-23 -215h174q19 0 26 -8.5t7 -30.5q0 -11 -5.5 -32.5t-28.5 -48.5t-58 -27z" />
    <glyph glyph-name="Tcaron" unicode="&#x164;" horiz-adv-x="1124" 
d="M866 1845q45 0 45 -28q0 -17 -14 -37l-137 -181q-33 -45 -98 -45h-52q-67 0 -90 45l-94 181q-10 18 -10 37q3 28 51 28h4q42 0 68 -26l108 -152l146 152q33 26 69 26h4zM1116 1434q35 0 35 -45q0 -25 -1 -38.5t-5 -33.5t-15.5 -29.5t-29.5 -9.5h-389l-129 -1237
q-6 -45 -86 -45h-17q-44 0 -61 11t-17 34l129 1237h-397q-35 0 -35 45q0 24 1 38.5t5.5 34t16 29t29.5 9.5h966z" />
    <glyph glyph-name="tcaron" unicode="&#x165;" horiz-adv-x="700" 
d="M707 1540q75 0 75 -57q0 -48 -36 -116t-80 -115.5t-68 -47.5q-55 0 -55 31q0 21 27.5 99t27.5 141q0 29 24.5 47t65.5 18h19zM379 1331q42 0 60 -10.5t18 -34.5l-23 -215h174q19 0 26 -8.5t7 -30.5q0 -11 -5.5 -32.5t-28.5 -48.5t-58 -27h-131q-70 -631 -70 -672
q0 -117 98 -117q38 0 65 7.5t28 7.5q14 0 14 -19q0 -32 -10 -76q-8 -35 -48.5 -51t-91.5 -16q-229 0 -229 225q0 27 18 205t36 342l18 164h-103q-20 0 -27 13.5t-7 41.5q0 92 51 92h102l25 215q5 45 84 45h8z" />
    <glyph glyph-name="Tbar" unicode="&#x166;" horiz-adv-x="1124" 
d="M1116 1434q35 0 35 -45q0 -25 -1 -38.5t-5 -33.5t-15.5 -29.5t-29.5 -9.5h-389l-52 -481h277q20 0 27.5 -13.5t7.5 -40.5q0 -92 -51 -92h-275l-63 -610q-6 -45 -86 -45h-17q-44 0 -61 11t-17 34l64 610h-295q-35 0 -35 56q0 90 51 90h293l51 481h-397q-35 0 -35 45
q0 24 1 38.5t5.5 34t16 29t29.5 9.5h966z" />
    <glyph glyph-name="tbar" unicode="&#x167;" horiz-adv-x="700" 
d="M580 678q20 0 27 -13t7 -40q0 -93 -51 -93h-188q-27 -264 -27 -280q0 -117 98 -117q38 0 65 7.5t28 7.5q14 0 14 -19q0 -32 -10 -76q-8 -35 -48.5 -51t-91.5 -16q-229 0 -229 225q0 8 29 319h-103q-20 0 -27 14t-7 42q0 90 51 90h102l27 246h-103q-20 0 -27 13.5t-7 41.5
q0 92 51 92h102l25 215q5 45 84 45h8q42 0 60 -10.5t18 -34.5l-23 -215h174q19 0 26 -8.5t7 -30.5q0 -11 -5.5 -32.5t-28.5 -48.5t-58 -27h-131l-27 -246h189z" />
    <glyph glyph-name="Utilde" unicode="&#x168;" horiz-adv-x="1458" 
d="M639 1776q64 0 187.5 -44t168.5 -44q28 0 48.5 13t41.5 46q26 40 62 25l16 -7q20 -7 23 -18.5t-8 -34.5q-33 -74 -78 -106.5t-109 -32.5q-67 0 -192.5 44t-169.5 44q-26 0 -45 -14t-41 -48q-15 -23 -26.5 -27.5t-31.5 3.5l-20 8q-12 5 -16.5 12t-3.5 15.5t6 23.5
q33 76 78.5 109t109.5 33zM1276 1438q42 0 59 -11t17 -34l-99 -934q-23 -223 -181.5 -347t-426.5 -124q-250 0 -382 106.5t-132 300.5q0 23 102 998q3 45 89 45h16q42 0 59 -11t17 -34q-101 -959 -101 -971q0 -128 90.5 -203.5t258.5 -75.5q165 0 281.5 87.5t129.5 222.5
l98 940q3 45 89 45h16z" />
    <glyph glyph-name="utilde" unicode="&#x169;" 
d="M287 1221q-18 7 -20.5 19t5.5 32q33 75 79 108t110 33t187.5 -44t168.5 -44q28 0 48.5 13t41.5 46q26 40 62 25l16 -6q20 -7 22.5 -18.5t-8.5 -34.5q-33 -75 -78 -107.5t-108 -32.5q-67 0 -192.5 44t-169.5 44q-26 0 -45 -13.5t-41 -47.5q-15 -23 -26.5 -28t-31.5 3z
M1055 145q12 0 12 -14q0 -31 -8 -76q-7 -34 -46.5 -50.5t-76.5 -16.5q-184 0 -184 200v21q-149 -221 -365 -221q-141 0 -205.5 71.5t-64.5 194.5l78 776q5 45 86 45h8q42 0 60 -10.5t18 -34.5q-74 -706 -74 -735q0 -158 156 -158q38 0 78 16t85.5 52t89 108t74.5 172l58 545
q5 45 86 45h8q42 0 60 -10.5t18 -34.5q-80 -750 -80 -811q0 -30 6 -48.5t19 -25.5t22 -8.5t26 -1.5q14 0 33 5t23 5z" />
    <glyph glyph-name="Umacron" unicode="&#x16a;" horiz-adv-x="1458" 
d="M1030 1761q20 0 27.5 -13t7.5 -40q0 -92 -51 -92h-463q-20 0 -27.5 14t-7.5 41q0 90 51 90h463zM1276 1438q42 0 59 -11t17 -34l-99 -934q-23 -223 -181.5 -347t-426.5 -124q-250 0 -382 106.5t-132 300.5q0 23 102 998q3 45 89 45h16q42 0 59 -11t17 -34
q-101 -959 -101 -971q0 -128 90.5 -203.5t258.5 -75.5q165 0 281.5 87.5t129.5 222.5l98 940q3 45 89 45h16z" />
    <glyph glyph-name="umacron" unicode="&#x16b;" 
d="M373 1253q-35 0 -35 56q0 90 51 90h463q20 0 27.5 -13t7.5 -40q0 -93 -51 -93h-463zM1055 145q12 0 12 -14q0 -31 -8 -76q-7 -34 -46.5 -50.5t-76.5 -16.5q-184 0 -184 200v21q-149 -221 -365 -221q-141 0 -205.5 71.5t-64.5 194.5l78 776q5 45 86 45h8q42 0 60 -10.5
t18 -34.5q-74 -706 -74 -735q0 -158 156 -158q38 0 78 16t85.5 52t89 108t74.5 172l58 545q5 45 86 45h8q42 0 60 -10.5t18 -34.5q-80 -750 -80 -811q0 -30 6 -48.5t19 -25.5t22 -8.5t26 -1.5q14 0 33 5t23 5z" />
    <glyph glyph-name="Ubreve" unicode="&#x16c;" horiz-adv-x="1458" 
d="M1092 1827q28 0 28 -25q0 -58 -30.5 -105.5t-78 -76t-102.5 -44t-108 -15.5q-113 0 -194 55.5t-81 155.5q0 29 6.5 42t28.5 13q13 0 19.5 -4t8.5 -8.5t5.5 -17t7.5 -21.5q35 -80 213 -80q175 0 227 80q6 9 11 21.5t8 17t10.5 8.5t20.5 4zM1276 1438q42 0 59 -11t17 -34
l-99 -934q-23 -223 -181.5 -347t-426.5 -124q-250 0 -382 106.5t-132 300.5q0 23 102 998q3 45 89 45h16q42 0 59 -11t17 -34q-101 -959 -101 -971q0 -128 90.5 -203.5t258.5 -75.5q165 0 281.5 87.5t129.5 222.5l98 940q3 45 89 45h16z" />
    <glyph glyph-name="ubreve" unicode="&#x16d;" 
d="M623 1198q-113 0 -194 55.5t-81 155.5q0 29 6.5 42t28.5 13q13 0 19.5 -4t8.5 -8.5t5.5 -17t7.5 -21.5q35 -80 213 -80q175 0 227 80q6 9 11 21t7.5 17t10 9t20.5 4q29 0 29 -24q0 -58 -30.5 -105.5t-78 -76.5t-102.5 -44.5t-108 -15.5zM1055 145q12 0 12 -14
q0 -31 -8 -76q-7 -34 -46.5 -50.5t-76.5 -16.5q-184 0 -184 200v21q-149 -221 -365 -221q-141 0 -205.5 71.5t-64.5 194.5l78 776q5 45 86 45h8q42 0 60 -10.5t18 -34.5q-74 -706 -74 -735q0 -158 156 -158q38 0 78 16t85.5 52t89 108t74.5 172l58 545q5 45 86 45h8
q42 0 60 -10.5t18 -34.5q-80 -750 -80 -811q0 -30 6 -48.5t19 -25.5t22 -8.5t26 -1.5q14 0 33 5t23 5z" />
    <glyph glyph-name="Uring" unicode="&#x16e;" horiz-adv-x="1458" 
d="M809 1864q67 0 111.5 -45t44.5 -111q0 -78 -57 -134t-134 -56q-68 0 -112 44t-44 111q0 77 57.5 134t133.5 57zM803 1792q-45 0 -79 -33t-34 -78q0 -40 24.5 -66t65.5 -26q47 0 80 33t33 80q0 39 -25.5 64.5t-64.5 25.5zM1276 1438q42 0 59 -11t17 -34l-99 -934
q-23 -223 -181.5 -347t-426.5 -124q-250 0 -382 106.5t-132 300.5q0 23 102 998q3 45 89 45h16q42 0 59 -11t17 -34q-101 -959 -101 -971q0 -128 90.5 -203.5t258.5 -75.5q165 0 281.5 87.5t129.5 222.5l98 940q3 45 89 45h16z" />
    <glyph glyph-name="uring" unicode="&#x16f;" 
d="M596 1155q-68 0 -112 44.5t-44 111.5q0 77 57.5 133.5t133.5 56.5q67 0 111 -44.5t44 -110.5q0 -78 -56.5 -134.5t-133.5 -56.5zM625 1430q-45 0 -79 -33t-34 -78q0 -40 24.5 -66t65.5 -26q47 0 80 32.5t33 79.5q0 39 -25.5 65t-64.5 26zM1055 145q12 0 12 -14
q0 -31 -8 -76q-7 -34 -46.5 -50.5t-76.5 -16.5q-184 0 -184 200v21q-149 -221 -365 -221q-141 0 -205.5 71.5t-64.5 194.5l78 776q5 45 86 45h8q42 0 60 -10.5t18 -34.5q-74 -706 -74 -735q0 -158 156 -158q38 0 78 16t85.5 52t89 108t74.5 172l58 545q5 45 86 45h8
q42 0 60 -10.5t18 -34.5q-80 -750 -80 -811q0 -30 6 -48.5t19 -25.5t22 -8.5t26 -1.5q14 0 33 5t23 5z" />
    <glyph glyph-name="Uhungarumlaut" unicode="&#x170;" horiz-adv-x="1458" 
d="M860 1862q96 0 96 -25q0 -14 -22.5 -40t-113.5 -118q-50 -50 -81 -82q-36 -36 -108 -36q-45 0 -45 18q0 14 28 59.5t113 169.5q37 54 133 54zM1159 1862q96 0 96 -25q0 -14 -22.5 -40t-113.5 -118q-50 -50 -81 -82q-36 -36 -108 -36q-45 0 -45 18q0 14 28 59.5t113 169.5
q37 54 133 54zM1276 1438q42 0 59 -11t17 -34l-99 -934q-23 -223 -181.5 -347t-426.5 -124q-250 0 -382 106.5t-132 300.5q0 23 102 998q3 45 89 45h16q42 0 59 -11t17 -34q-101 -959 -101 -971q0 -128 90.5 -203.5t258.5 -75.5q165 0 281.5 87.5t129.5 222.5l98 940
q3 45 89 45h16z" />
    <glyph glyph-name="uhungarumlaut" unicode="&#x171;" 
d="M453 1198q-45 0 -45 19q0 14 28 59.5t113 169.5q37 53 133 53t96 -24q0 -14 -22.5 -40t-113.5 -118q-50 -50 -81 -82q-37 -37 -108 -37zM752 1198q-45 0 -45 19q0 14 28 59.5t113 169.5q37 53 133 53t96 -24q0 -14 -22.5 -40t-113.5 -118q-50 -50 -81 -82
q-37 -37 -108 -37zM1055 145q12 0 12 -14q0 -31 -8 -76q-7 -34 -46.5 -50.5t-76.5 -16.5q-184 0 -184 200v21q-149 -221 -365 -221q-141 0 -205.5 71.5t-64.5 194.5l78 776q5 45 86 45h8q42 0 60 -10.5t18 -34.5q-74 -706 -74 -735q0 -158 156 -158q38 0 78 16t85.5 52
t89 108t74.5 172l58 545q5 45 86 45h8q42 0 60 -10.5t18 -34.5q-80 -750 -80 -811q0 -30 6 -48.5t19 -25.5t22 -8.5t26 -1.5q14 0 33 5t23 5z" />
    <glyph glyph-name="Uogonek" unicode="&#x172;" horiz-adv-x="1458" 
d="M1276 1438q42 0 59 -11t17 -34l-99 -934q-19 -183 -130.5 -300.5t-303.5 -154.5q0 -13 -19.5 -64t-19.5 -83q0 -88 119 -88q37 0 82.5 18t48.5 18q12 0 12 -26q0 -48 -15.5 -80t-43.5 -47.5t-56.5 -21t-66.5 -5.5q-68 0 -115 18t-68.5 48.5t-29.5 57.5t-8 58q0 37 15 92
t46 91q-18 -2 -55 -2q-250 0 -382 106.5t-132 300.5q0 23 102 998q3 45 89 45h16q42 0 59 -11t17 -34q-101 -959 -101 -971q0 -128 90.5 -203.5t258.5 -75.5q165 0 281.5 87.5t129.5 222.5l98 940q3 45 89 45h16z" />
    <glyph glyph-name="uogonek" unicode="&#x173;" 
d="M1208 -195q13 0 13 -26q0 -48 -15.5 -80t-44 -47.5t-57 -21t-66.5 -5.5q-68 0 -115 18t-68.5 48.5t-29.5 57.5t-8 58q0 37 16 93.5t50 91.5q-131 28 -131 196v21q-149 -221 -365 -221q-141 0 -205.5 71.5t-64.5 194.5l78 776q5 45 86 45h8q42 0 60 -10.5t18 -34.5
q-74 -706 -74 -735q0 -158 156 -158q38 0 78 16t85.5 52t89 108t74.5 172l58 545q5 45 86 45h8q42 0 60 -10.5t18 -34.5q-80 -750 -80 -811q0 -30 6 -48.5t19 -25.5t22 -8.5t26 -1.5q14 0 33 5t23 5q12 0 12 -14q0 -31 -8 -76q-8 -38 -62 -57q-1 -11 -20 -61t-19 -80
q0 -88 119 -88q37 0 82.5 18t48.5 18z" />
    <glyph glyph-name="Wcircumflex" unicode="&#x174;" horiz-adv-x="1806" 
d="M1036 1833q67 0 90 -45l97 -180q10 -15 10 -35q-3 -31 -53 -31h-4q-39 0 -66 27l-113 151l-141 -151q-34 -27 -72 -27h-4q-43 0 -43 25q0 17 15 41l135 180q33 45 98 45h51zM1761 1438q86 0 86 -33q0 -7 -506 -1376q-11 -33 -84 -33h-83q-75 0 -80 33l-136 833l-14 266
l-72 -266l-309 -833q-13 -33 -84 -33h-84q-75 0 -80 33l-215 1368q0 25 24.5 33t68.5 8h18q75 0 80 -33l155 -1008q4 -25 8 -71t6.5 -80.5t2.5 -38.5l72 201l352 995q6 20 24.5 27.5t57.5 7.5h32q73 0 78 -35l148 -1008q4 -32 7.5 -79t5.5 -78l1 -31l72 205l352 993
q11 33 84 33h12z" />
    <glyph glyph-name="wcircumflex" unicode="&#x175;" horiz-adv-x="1529" 
d="M858 1470q67 0 90 -45l96 -180q11 -17 11 -35q-3 -30 -54 -30h-4q-39 0 -65 26l-113 152l-141 -152q-33 -26 -72 -26h-4q-43 0 -43 24q0 19 14 41l136 180q33 45 98 45h51zM1421 1075q86 0 86 -31q0 -13 -8 -32l-379 -983q-13 -33 -84 -33h-67q-73 0 -78 33l-109 745
l-272 -745q-11 -33 -84 -33h-68q-74 0 -79 33q-175 1008 -175 1011q4 35 93 35h18q75 0 80 -33l129 -817l297 815q13 35 84 35h22q71 0 76 -35l131 -815l299 817q11 33 88 33z" />
    <glyph glyph-name="Ycircumflex" unicode="&#x176;" horiz-adv-x="1144" 
d="M707 1833q67 0 90 -45l96 -180q10 -15 10 -35q-3 -31 -53 -31h-4q-39 0 -66 27l-112 151l-142 -151q-34 -27 -71 -27h-4q-43 0 -43 25q0 19 14 41l135 180q33 45 98 45h52zM1087 1438h19q74 -3 74 -33q0 -10 -21 -39l-497 -637l-72 -688q-6 -45 -86 -45h-17
q-44 0 -60.5 11t-16.5 34l71 694l-360 631q-12 18 -12 33q0 20 21.5 29.5t74.5 9.5h22q69 0 86 -31l283 -504l397 506q20 29 94 29z" />
    <glyph glyph-name="ycircumflex" unicode="&#x177;" horiz-adv-x="985" 
d="M606 1470q67 0 90 -45l97 -180q10 -15 10 -35q-3 -30 -53 -30h-5q-39 0 -65 26l-113 152l-141 -152q-33 -26 -72 -26h-4q-43 0 -43 24q0 17 15 41l135 180q33 45 98 45h51zM915 1075q78 0 78 -33q0 -11 -8 -30l-674 -1395q-19 -43 -100 -43h-31q-63 0 -63 31q0 12 14 37
l215 415q-262 970 -262 983q0 16 24 25.5t68 9.5h17q69 0 77 -33l158 -577l43 -162h4q30 76 72 162l274 577q16 33 88 33h6z" />
    <glyph glyph-name="Ydieresis" unicode="&#x178;" horiz-adv-x="1144" 
d="M543 1800q78 0 78 -45l-11 -104q-7 -45 -94 -45q-44 0 -61 11t-17 34l11 104q7 45 94 45zM838 1800q43 0 60 -11t17 -34l-10 -104q-7 -45 -94 -45q-44 0 -61 11t-17 34l10 104q3 45 95 45zM1087 1438h19q74 -3 74 -33q0 -10 -21 -39l-497 -637l-72 -688q-6 -45 -86 -45
h-17q-44 0 -60.5 11t-16.5 34l71 694l-360 631q-12 18 -12 33q0 20 21.5 29.5t74.5 9.5h22q69 0 86 -31l283 -504l397 506q20 29 94 29z" />
    <glyph glyph-name="Zacute" unicode="&#x179;" horiz-adv-x="1261" 
d="M889 1862q96 0 96 -25q0 -14 -22.5 -40t-113.5 -118q-50 -50 -81 -82q-36 -36 -109 -36q-45 0 -45 18q0 14 27.5 58.5t114.5 170.5q37 54 133 54zM1198 1434q10 0 22.5 -34t12.5 -65q0 -25 -10 -35l-959 -1144h803q35 0 35 -45q0 -25 -1 -38.5t-5 -33.5t-15.5 -29.5
t-29.5 -9.5h-1000q-13 0 -26 33.5t-13 64.5q0 24 11 35l958 1145h-739q-35 0 -35 45q0 25 1 38.5t5 33.5t15.5 29.5t29.5 9.5h940z" />
    <glyph glyph-name="zacute" unicode="&#x17a;" horiz-adv-x="1001" 
d="M760 1499q96 0 96 -24q0 -14 -22.5 -40t-113.5 -118q-50 -50 -81 -82q-37 -37 -109 -37q-45 0 -45 19q0 14 27.5 58.5t114.5 170.5q37 53 133 53zM932 1071q13 0 22 -33t9 -65q0 -20 -9 -29l-680 -797h564q20 0 27 -13.5t7 -41.5q0 -92 -51 -92h-758q-11 0 -22.5 32
t-11.5 62q0 23 10 33l682 797h-524q-20 0 -27.5 14t-7.5 41q0 92 51 92h719z" />
    <glyph glyph-name="Zdotaccent" unicode="&#x17b;" horiz-adv-x="1261" 
d="M727 1800q78 0 78 -45l-10 -104q-7 -45 -95 -45q-44 0 -60.5 11t-16.5 34l10 104q7 45 94 45zM1198 1434q10 0 22.5 -34t12.5 -65q0 -25 -10 -35l-959 -1144h803q35 0 35 -45q0 -25 -1 -38.5t-5 -33.5t-15.5 -29.5t-29.5 -9.5h-1000q-13 0 -26 33.5t-13 64.5q0 24 11 35
l958 1145h-739q-35 0 -35 45q0 25 1 38.5t5 33.5t15.5 29.5t29.5 9.5h940z" />
    <glyph glyph-name="zdotaccent" unicode="&#x17c;" horiz-adv-x="1001" 
d="M598 1438q78 0 78 -45l-10 -105q-7 -45 -95 -45q-44 0 -60.5 11t-16.5 34l10 105q7 45 94 45zM932 1071q13 0 22 -33t9 -65q0 -20 -9 -29l-680 -797h564q20 0 27 -13.5t7 -41.5q0 -92 -51 -92h-758q-11 0 -22.5 32t-11.5 62q0 23 10 33l682 797h-524q-20 0 -27.5 14
t-7.5 41q0 92 51 92h719z" />
    <glyph glyph-name="Zcaron" unicode="&#x17d;" horiz-adv-x="1261" 
d="M934 1845q45 0 45 -28q0 -17 -14 -37l-138 -181q-33 -45 -98 -45h-51q-67 0 -90 45l-94 181q-11 19 -11 37q3 28 52 28h4q41 0 67 -26l109 -152l145 152q33 26 70 26h4zM1198 1434q10 0 22.5 -34t12.5 -65q0 -25 -10 -35l-959 -1144h803q35 0 35 -45q0 -25 -1 -38.5
t-5 -33.5t-15.5 -29.5t-29.5 -9.5h-1000q-13 0 -26 33.5t-13 64.5q0 24 11 35l958 1145h-739q-35 0 -35 45q0 25 1 38.5t5 33.5t15.5 29.5t29.5 9.5h940z" />
    <glyph glyph-name="zcaron" unicode="&#x17e;" horiz-adv-x="1001" 
d="M805 1483q45 0 45 -29q0 -17 -14 -37l-138 -180q-33 -45 -98 -45h-51q-67 0 -90 45l-94 180q-11 19 -11 37q3 29 52 29h4q40 0 67 -27l109 -151l145 151q35 27 70 27h4zM932 1071q13 0 22 -33t9 -65q0 -20 -9 -29l-680 -797h564q20 0 27 -13.5t7 -41.5q0 -92 -51 -92
h-758q-11 0 -22.5 32t-11.5 62q0 23 10 33l682 797h-524q-20 0 -27.5 14t-7.5 41q0 92 51 92h719z" />
    <glyph glyph-name="longs" unicode="&#x17f;" horiz-adv-x="665" 
d="M569 1548q146 0 146 -63q0 -21 -18 -60t-35 -39q-2 0 -13 4t-32 7.5t-48 3.5q-54 0 -84.5 -29.5t-38.5 -114.5l-127 -1216q-6 -45 -86 -45h-8q-42 0 -60 10.5t-18 34.5l93 883h-82q-20 0 -27.5 14t-7.5 41q0 92 51 92h82l20 207q26 270 293 270z" />
    <glyph glyph-name="uni018F" unicode="&#x18f;" horiz-adv-x="1376" 
d="M709 1446q56 0 105 -5t105.5 -19.5t103 -39t90.5 -65.5t74 -96t48 -134.5t18 -177.5q0 -150 -23.5 -283.5t-75 -250.5t-127.5 -201.5t-188.5 -133t-250.5 -48.5q-95 0 -173 26.5t-127.5 68t-83.5 95t-48.5 105t-14.5 100.5q0 111 37 198.5t98.5 143t147.5 91.5
t177.5 50.5t195.5 14.5q160 0 278 -15q0 126 -26 211.5t-78 132t-118 65.5t-159 19q-88 0 -171 -22t-131 -48.5t-87.5 -48.5t-50.5 -22q-5 0 -7.5 1t-4.5 6.5t-2 17.5q0 38 10 92q11 44 66.5 79t129 54t142.5 29t121 10zM1065 737h-248q-22 0 -38.5 -0.5t-56 -3.5
t-70.5 -8.5t-75 -17t-77.5 -27.5t-69 -42t-58.5 -58t-38 -77.5t-15 -99.5q0 -108 79 -186t208 -78q388 0 459 598z" />
    <glyph glyph-name="florin" unicode="&#x192;" horiz-adv-x="679" 
d="M565 1548q144 0 144 -61q0 -19 -20.5 -60t-37.5 -41q-2 0 -12.5 4t-31.5 7.5t-48 3.5q-54 0 -85 -29.5t-42 -114.5l-24 -186h178q18 0 24 -8.5t6 -30.5q0 -10 -6.5 -32t-30.5 -49t-59 -27h-135l-182 -1305q-6 -45 -88 -45h-9q-42 0 -58.5 10.5t-16.5 34.5l182 1305h-82
q-15 0 -22.5 7.5t-9 17.5t-1.5 30q0 17 3 35t17 37.5t36 19.5h82l26 207q35 270 303 270z" />
    <glyph glyph-name="Ohorn" unicode="&#x1a0;" horiz-adv-x="1497" 
d="M1196 1341q193 -146 193 -481q0 -420 -192.5 -646t-526.5 -226q-275 0 -418 150t-143 440q0 95 11 183.5t36.5 176.5t63.5 162.5t95.5 139t130 110t168.5 71t209 25.5q162 0 275 -49h4q121 0 121 82q0 26 -21.5 64t-21.5 48q0 20 22 33l53 33q11 8 25 8q33 0 52.5 -44
t19.5 -93q0 -63 -41.5 -114.5t-114.5 -72.5zM686 143q235 0 374.5 182t139.5 515q0 223 -100 336.5t-293 113.5q-238 0 -375 -178t-137 -516q0 -223 99.5 -338t291.5 -115z" />
    <glyph glyph-name="ohorn" unicode="&#x1a1;" horiz-adv-x="1165" 
d="M1126 1165q0 -70 -50 -124.5t-138 -69.5q106 -112 106 -332q0 -314 -139.5 -482.5t-388.5 -168.5q-209 0 -316.5 112t-107.5 328q0 105 19 199t61 178t104 145.5t153.5 97t203.5 35.5q132 0 223 -49h21q120 0 120 82q0 26 -21.5 64.5t-21.5 48.5q0 20 23 33l53 32
q12 9 25 9q32 0 51.5 -44.5t19.5 -93.5zM526 135q165 0 252.5 128t87.5 372q0 154 -62.5 227.5t-193.5 73.5q-166 0 -254 -133.5t-88 -368.5q0 -152 63.5 -225.5t194.5 -73.5z" />
    <glyph glyph-name="Uhorn" unicode="&#x1af;" horiz-adv-x="1458" 
d="M1581 1569q0 -78 -62.5 -135.5t-168.5 -63.5l-97 -911q-23 -223 -181.5 -347t-426.5 -124q-250 0 -382 106.5t-132 300.5q0 23 102 998q3 45 89 45h16q42 0 59 -11t17 -34q-101 -959 -101 -971q0 -128 90.5 -203.5t258.5 -75.5q165 0 281.5 87.5t129.5 222.5l98 940
q3 45 89 45h71q121 0 121 82q0 26 -21.5 64t-21.5 48q0 20 23 33l53 33q11 8 24 8q33 0 52.5 -44t19.5 -93z" />
    <glyph glyph-name="uhorn" unicode="&#x1b0;" 
d="M1231 1206q0 -78 -61 -135t-166 -63q-15 -133 -46.5 -443t-31.5 -346q0 -30 6 -48.5t19 -25.5t22 -8.5t26 -1.5q14 0 33 5t23 5q12 0 12 -14q0 -31 -8 -76q-7 -34 -46.5 -50.5t-76.5 -16.5q-184 0 -184 200v21q-149 -221 -365 -221q-141 0 -205.5 71.5t-64.5 194.5
l78 776q5 45 86 45h8q42 0 60 -10.5t18 -34.5q-74 -706 -74 -735q0 -158 156 -158q38 0 78 16t85.5 52t89 108t74.5 172l58 545q5 42 75 45h72q121 0 121 82q0 26 -21.5 64.5t-21.5 48.5q0 20 22 33l54 32q11 8 24 8q33 0 52.5 -44t19.5 -93z" />
    <glyph glyph-name="uni01C4" unicode="&#x1c4;" horiz-adv-x="2684" 
d="M2357 1845q45 0 45 -28q0 -17 -14 -37l-137 -181q-33 -45 -99 -45h-51q-67 0 -90 45l-94 181q-10 17 -10 37q3 28 51 28h4q42 0 68 -26l108 -152l146 152q33 26 69 26h4zM748 1434q125 0 225.5 -32t179 -99t121.5 -182t43 -271q0 -185 -40 -332t-107 -242.5
t-160.5 -158.5t-195.5 -90t-216 -27h-440q-29 0 -42.5 11.5t-13.5 37.5q0 12 24 239.5t60 568.5t54 515q3 32 19 47t48 15h441zM2621 1434q10 0 22.5 -34t12.5 -65q0 -25 -10 -35l-958 -1144h802q35 0 35 -45q0 -25 -1 -38.5t-5 -33.5t-15.5 -29.5t-29.5 -9.5h-999
q-13 0 -26 33.5t-13 64.5q0 25 10 35l958 1145h-739q-35 0 -35 45q0 25 1 38.5t5 33.5t15.5 29.5t29.5 9.5h940zM717 1278h-307l-117 -1122h307q83 0 157.5 22t143.5 72.5t119 125.5t80 189t30 256q0 100 -21 178t-57.5 130t-89 86t-113 48.5t-132.5 14.5z" />
    <glyph glyph-name="uni01C5" unicode="&#x1c5;" horiz-adv-x="2424" 
d="M2228 1483q45 0 45 -29q0 -17 -14 -37l-137 -180q-33 -45 -99 -45h-51q-67 0 -90 45l-94 180q-10 18 -10 37q3 29 51 29h4q41 0 68 -27l108 -151l145 151q34 27 70 27h4zM748 1434q125 0 225.5 -32t179 -99t121.5 -182t43 -271q0 -185 -40 -332t-107 -242.5
t-160.5 -158.5t-195.5 -90t-216 -27h-440q-29 0 -42.5 11.5t-13.5 37.5q0 12 24 239.5t60 568.5t54 515q3 32 19 47t48 15h441zM717 1278h-307l-117 -1122h307q83 0 157.5 22t143.5 72.5t119 125.5t80 189t30 256q0 100 -21 178t-57.5 130t-89 86t-113 48.5t-132.5 14.5z
M2355 1071q13 0 22 -33t9 -65q0 -21 -8 -29l-680 -797h563q20 0 27.5 -14t7.5 -41q0 -92 -51 -92h-758q-11 0 -23 32t-12 62q0 23 10 33l682 797h-524q-20 0 -27.5 14t-7.5 41q0 92 51 92h719z" />
    <glyph glyph-name="uni01C6" unicode="&#x1c6;" horiz-adv-x="2158" 
d="M1102 145q12 0 12 -14q0 -31 -8 -76q-7 -34 -46.5 -50.5t-76.5 -16.5q-184 0 -184 200v21q-119 -221 -330 -221q-49 0 -98 11.5t-102 42.5t-93 78.5t-66 127.5t-26 182q0 288 141.5 470.5t372.5 182.5q170 0 279 -92l55 504q5 45 86 45h8q42 0 60 -10.5t18 -34.5
q-131 -1215 -131 -1276q0 -30 6 -48.5t19 -25.5t22.5 -8.5t26.5 -1.5q14 0 32.5 5t22.5 5zM1616 1237l-94 180q-11 19 -11 37q3 29 52 29h4q40 0 67 -27l109 -151l145 151q34 27 70 27h4q45 0 45 -29q0 -17 -14 -37l-138 -180q-33 -45 -98 -45h-51q-67 0 -90 45zM2120 973
q0 -20 -9 -29l-679 -797h563q20 0 27.5 -14t7.5 -41q0 -92 -52 -92h-757q-11 0 -23 32t-12 62q0 23 10 33l682 797h-524q-20 0 -27.5 14t-7.5 41q0 92 51 92h719q13 0 22 -33t9 -65zM823 479l39 377q-97 78 -239 78q-82 0 -145.5 -28t-103 -74t-65 -111t-35.5 -133t-10 -146
q0 -167 61 -236t183 -69q38 0 77 16.5t82 53t84 106.5t72 166z" />
    <glyph glyph-name="uni01C7" unicode="&#x1c7;" horiz-adv-x="1470" 
d="M344 1438q78 0 78 -45l-129 -1237h424q35 0 35 -45q0 -24 -1 -38.5t-5.5 -34t-16 -29t-29.5 -9.5h-542q-33 0 -44.5 13.5t-11.5 47.5l140 1332q3 45 86 45h16zM1268 1438q78 0 78 -45l-136 -1287q-21 -204 -134.5 -318t-330.5 -114q-76 0 -128 15.5t-52 50.5
q0 121 31 121q1 0 43.5 -9.5t91.5 -9.5q142 0 212.5 61.5t84.5 194.5l137 1295q3 45 86 45h17z" />
    <glyph glyph-name="uni01C8" unicode="&#x1c8;" horiz-adv-x="1556" 
d="M1389 1540q43 0 60 -10t17 -35l-12 -121q0 -45 -78 -45h-24q-44 0 -65 9.5t-21 35.5l12 121q5 45 86 45h25zM344 1438q78 0 78 -45l-129 -1237h596q35 0 35 -45q0 -24 -1 -38.5t-5.5 -34t-16 -29t-29.5 -9.5h-714q-33 0 -44.5 13.5t-11.5 47.5l140 1332q3 45 86 45h16z
M1331 1075q42 0 60 -10.5t18 -34.5l-125 -1182q-7 -68 -28 -120t-47.5 -82t-62 -49t-66.5 -25t-66 -6q-70 0 -115 23.5t-45 60.5q0 98 23 98q5 0 19 -9t38.5 -17.5t56.5 -8.5q52 0 83.5 33t39.5 119l123 1165q6 45 86 45h8z" />
    <glyph glyph-name="uni01C9" unicode="&#x1c9;" horiz-adv-x="1173" 
d="M383 1540q42 0 60 -10.5t18 -34.5q-131 -1215 -131 -1276q0 -30 6 -48.5t19 -25.5t22 -8.5t26 -1.5q14 0 33 5t23 5q12 0 12 -14q0 -31 -8 -76q-7 -34 -46.5 -50.5t-76.5 -16.5q-184 0 -184 200q0 41 33 366t67 633l33 308q5 45 86 45h8zM1006 1540q43 0 60 -10t17 -35
l-12 -121q0 -45 -78 -45h-24q-44 0 -65 9.5t-21 35.5l12 121q5 45 86 45h25zM948 1075q42 0 60 -10.5t18 -34.5l-125 -1182q-7 -68 -28 -120t-47.5 -82t-62 -49t-66.5 -25t-66 -6q-70 0 -115 23.5t-45 60.5q0 98 23 98q5 0 19 -9t38.5 -17.5t56.5 -8.5q52 0 83.5 33
t39.5 119l123 1165q6 45 86 45h8z" />
    <glyph glyph-name="uni01CA" unicode="&#x1ca;" horiz-adv-x="2295" 
d="M1286 1438q78 0 78 -45l-141 -1352q-6 -45 -86 -45h-41q-54 0 -70 29l-582 1019l-43 105l-116 -1108q-6 -45 -86 -45h-15q-44 0 -61 11t-17 34l142 1352q3 45 86 45h43q34 0 52 -8.5t30 -30.5l563 -987l49 -115l115 1096q3 45 86 45h14zM2120 1438q78 0 78 -45l-103 -973
q-21 -204 -134.5 -318t-330.5 -114q-180 0 -180 65q0 121 31 121q1 0 43.5 -9t91.5 -9q142 0 212.5 61.5t84.5 194.5l104 981q3 45 86 45h17z" />
    <glyph glyph-name="uni01CB" unicode="&#x1cb;" horiz-adv-x="2037" 
d="M1870 1540q43 0 60.5 -10t17.5 -35l-13 -121q0 -45 -77 -45h-25q-44 0 -65 9.5t-21 35.5l12 121q5 45 86 45h25zM1286 1438q78 0 78 -45l-141 -1352q-6 -45 -86 -45h-41q-54 0 -70 29l-582 1019l-43 105l-116 -1108q-6 -45 -86 -45h-15q-44 0 -61 11t-17 34l142 1352
q3 45 86 45h43q34 0 52 -8.5t30 -30.5l563 -987l49 -115l115 1096q3 45 86 45h14zM1812 1075q42 0 60 -10.5t18 -34.5l-125 -1182q-7 -68 -28 -120t-47.5 -82t-62 -49t-66.5 -25t-66 -6q-70 0 -115 23.5t-45 60.5q0 98 23 98q5 0 19 -9t39 -17.5t57 -8.5q52 0 83 33t39 119
l123 1165q6 45 86 45h8z" />
    <glyph glyph-name="uni01CC" unicode="&#x1cc;" horiz-adv-x="1705" 
d="M1538 1540q43 0 60.5 -10t17.5 -35l-12 -121q0 -45 -78 -45h-25q-44 0 -65 9.5t-21 35.5l12 121q5 45 86 45h25zM1038 55q-7 -34 -46.5 -50.5t-76.5 -16.5q-184 0 -184 200q0 38 28.5 305t28.5 283q0 158 -155 158q-29 0 -60 -8.5t-68 -32t-71 -59t-68 -95t-59 -135.5
l-59 -563q-6 -45 -86 -45h-8q-78 0 -78 43q90 801 90 897q0 29 -1 49t-1 21q0 16 15 26.5t38 14.5t37 5t25 1q53 0 53 -138v-38q150 206 362 206q142 0 206.5 -71.5t64.5 -194.5q0 -16 -30 -296t-30 -302q0 -30 6 -48.5t19 -25.5t22.5 -8.5t26.5 -1.5q14 0 32.5 5t22.5 5
q13 0 13 -14q0 -25 -9 -76zM1481 1075q42 0 60 -10.5t18 -34.5l-125 -1182q-9 -85 -37.5 -144t-69.5 -87t-80.5 -39.5t-83.5 -11.5q-70 0 -114.5 23.5t-44.5 60.5q0 98 22 98q5 0 19 -9t39 -17.5t57 -8.5q52 0 83.5 33t39.5 119l122 1165q6 45 87 45h8z" />
    <glyph glyph-name="uni01EA" unicode="&#x1ea;" horiz-adv-x="1497" 
d="M1389 860q0 -368 -149 -588t-415 -270q-1 -12 -20 -63t-19 -82q0 -88 119 -88q37 0 82.5 18t48.5 18q13 0 13 -26q0 -48 -15.5 -80t-44 -47.5t-57 -21t-66.5 -5.5q-68 0 -115 18t-68.5 48.5t-29.5 57.5t-8 58q0 36 15.5 91t46.5 90h-37q-275 0 -418 150t-143 440
q0 95 11 183.5t36.5 176.5t63.5 162.5t95.5 139t130 110t168.5 71t209 25.5q278 0 422 -148.5t144 -437.5zM295 596q0 -223 99.5 -338t291.5 -115q235 0 374.5 182t139.5 515q0 223 -100 336.5t-293 113.5q-238 0 -375 -178t-137 -516z" />
    <glyph glyph-name="uni01EB" unicode="&#x1eb;" horiz-adv-x="1165" 
d="M1044 639q0 -272 -105 -436t-298 -203q-1 -10 -20 -60.5t-19 -82.5q0 -88 119 -88q37 0 82.5 18t48.5 18q12 0 12 -26q0 -48 -15.5 -80t-43.5 -47.5t-56.5 -21t-66.5 -5.5q-68 0 -115 18t-68.5 48.5t-29.5 57.5t-8 58q0 37 15 91.5t46 89.5h-6q-209 0 -316.5 112
t-107.5 328q0 105 19 199t61 178t104 145.5t153.5 97t203.5 35.5q201 0 306 -113.5t105 -330.5zM268 434q0 -152 63.5 -225.5t194.5 -73.5q165 0 252.5 128t87.5 372q0 154 -62.5 227.5t-193.5 73.5q-166 0 -254 -133.5t-88 -368.5z" />
    <glyph glyph-name="uni01F1" unicode="&#x1f1;" horiz-adv-x="2684" 
d="M748 1434q125 0 225.5 -32t179 -99t121.5 -182t43 -271q0 -185 -40 -332t-107 -242.5t-160.5 -158.5t-195.5 -90t-216 -27h-440q-29 0 -42.5 11.5t-13.5 37.5q0 12 24 239.5t60 568.5t54 515q3 32 19 47t48 15h441zM2621 1434q10 0 22.5 -34t12.5 -65q0 -25 -10 -35
l-958 -1144h802q35 0 35 -45q0 -25 -1 -38.5t-5 -33.5t-15.5 -29.5t-29.5 -9.5h-999q-13 0 -26 33.5t-13 64.5q0 25 10 35l958 1145h-739q-35 0 -35 45q0 25 1 38.5t5 33.5t15.5 29.5t29.5 9.5h940zM717 1278h-307l-117 -1122h307q83 0 157.5 22t143.5 72.5t119 125.5
t80 189t30 256q0 100 -21 178t-57.5 130t-89 86t-113 48.5t-132.5 14.5z" />
    <glyph glyph-name="uni01F2" unicode="&#x1f2;" horiz-adv-x="2424" 
d="M748 1434q125 0 225.5 -32t179 -99t121.5 -182t43 -271q0 -185 -40 -332t-107 -242.5t-160.5 -158.5t-195.5 -90t-216 -27h-440q-29 0 -42.5 11.5t-13.5 37.5q0 12 24 239.5t60 568.5t54 515q3 32 19 47t48 15h441zM717 1278h-307l-117 -1122h307q83 0 157.5 22
t143.5 72.5t119 125.5t80 189t30 256q0 100 -21 178t-57.5 130t-89 86t-113 48.5t-132.5 14.5zM2355 1071q13 0 22 -33t9 -65q0 -21 -8 -29l-680 -797h563q20 0 27.5 -14t7.5 -41q0 -92 -51 -92h-758q-11 0 -23 32t-12 62q0 23 10 33l682 797h-524q-20 0 -27.5 14t-7.5 41
q0 92 51 92h719z" />
    <glyph glyph-name="uni01F3" unicode="&#x1f3;" horiz-adv-x="2158" 
d="M1102 145q12 0 12 -14q0 -31 -8 -76q-7 -34 -46.5 -50.5t-76.5 -16.5q-184 0 -184 200v21q-119 -221 -330 -221q-49 0 -98 11.5t-102 42.5t-93 78.5t-66 127.5t-26 182q0 288 141.5 470.5t372.5 182.5q170 0 279 -92l55 504q5 45 86 45h8q42 0 60 -10.5t18 -34.5
q-131 -1215 -131 -1276q0 -30 6 -48.5t19 -25.5t22.5 -8.5t26.5 -1.5q14 0 32.5 5t22.5 5zM2120 973q0 -20 -9 -29l-679 -797h563q20 0 27.5 -14t7.5 -41q0 -92 -52 -92h-757q-11 0 -23 32t-12 62q0 23 10 33l682 797h-524q-20 0 -27.5 14t-7.5 41q0 92 51 92h719
q13 0 22 -33t9 -65zM823 479l39 377q-97 78 -239 78q-82 0 -145.5 -28t-103 -74t-65 -111t-35.5 -133t-10 -146q0 -167 61 -236t183 -69q38 0 77 16.5t82 53t84 106.5t72 166z" />
    <glyph glyph-name="Aringacute" unicode="&#x1fa;" horiz-adv-x="1255" 
d="M723 1683q-45 0 -45 21q24 40 92 145q20 30 51 42t82 12q34 0 54.5 -2.5t30.5 -8.5t9 -16q0 -7 -8.5 -15.5t-47.5 -42.5q-60 -53 -110 -98q-37 -37 -108 -37zM1155 57q2 -8 2 -20q0 -41 -90 -41h-16q-72 0 -80 33l-86 336h-602l-152 -336q-13 -33 -84 -33h-10
q-84 0 -84 33q0 10 10 30l598 1291q-22 36 -22 84q0 77 57 133.5t133 56.5q67 0 111.5 -45t44.5 -111q0 -74 -56 -133zM723 1552q-45 0 -79 -32.5t-34 -77.5q0 -40 24.5 -66t65.5 -26q47 0 80 32.5t33 79.5q0 39 -25.5 64.5t-64.5 25.5zM356 520h490l-150 610
q-12 47 -12 119h-4q-21 -68 -43 -119z" />
    <glyph glyph-name="aringacute" unicode="&#x1fb;" horiz-adv-x="1116" 
d="M588 1587q-45 0 -45 19q0 14 28 59.5t113 169.5q37 53 133 53t96 -24q0 -14 -22.5 -40t-113.5 -118q-50 -50 -81 -82q-37 -37 -108 -37zM563 1155q-68 0 -111.5 44.5t-43.5 111.5q0 77 57 133.5t133 56.5q67 0 111.5 -44.5t44.5 -110.5q0 -78 -57 -134.5t-134 -56.5z
M592 1430q-45 0 -79 -33t-34 -78q0 -40 24.5 -66t65.5 -26q47 0 80 32.5t33 79.5q0 39 -25.5 65t-64.5 26zM1047 145q12 0 12 -14q0 -31 -8 -76q-7 -34 -46.5 -50.5t-76.5 -16.5q-185 0 -185 200v21q-116 -221 -319 -221q-44 0 -87 11.5t-90.5 42.5t-83 78.5t-58.5 127.5
t-23 182q0 190 61.5 338t176 231.5t264.5 83.5q145 0 260 -110q10 28 15.5 42t16 30.5t25 23t35.5 6.5h12q29 0 40 -10.5t11 -32.5q-81 -758 -81 -813q0 -30 6 -48.5t19 -25.5t22 -8.5t26 -1.5q14 0 33 5t23 5zM797 752q4 35 16 102q-101 80 -213 80q-79 0 -139.5 -28
t-98 -74t-61 -111t-32.5 -132.5t-9 -146.5q0 -305 203 -305q37 0 75 17t80 54t82 108t70 167z" />
    <glyph glyph-name="AEacute" unicode="&#x1fc;" horiz-adv-x="1873" 
d="M1135 1862q96 0 96 -25q0 -14 -22.5 -40t-113.5 -118q-50 -50 -81 -82q-36 -36 -109 -36q-45 0 -45 18q0 14 28 59.5t113 169.5q37 54 134 54zM1724 1434q35 0 35 -45q0 -25 -1 -38.5t-5 -33.5t-15.5 -29.5t-29.5 -9.5h-750l54 -467h583q35 0 35 -45q0 -25 -1 -38.5
t-5 -33.5t-15.5 -29.5t-29.5 -9.5h-551l57 -499h508q35 0 35 -45q0 -25 -1 -38.5t-5 -33.5t-15.5 -29.5t-29.5 -9.5h-598q-62 0 -68 59l-32 306h-605l-198 -336q-20 -33 -84 -33h-10q-78 0 -78 31q0 15 12 36l795 1315q33 56 92 56h921zM797 1249h-4l-56 -119l-368 -612h489
l-61 612v119z" />
    <glyph glyph-name="aeacute" unicode="&#x1fd;" horiz-adv-x="1697" 
d="M817 1198q-45 0 -45 19q0 14 28 59.5t113 169.5q37 53 134 53q96 0 96 -24q0 -14 -22.5 -40t-113.5 -118q-50 -50 -81 -82q-37 -37 -109 -37zM1032 463h-176v-33q0 -161 77 -228t222 -67q81 0 153.5 25.5t114.5 50.5t50 25q5 0 7.5 -1t4.5 -6.5t2 -17.5q0 -38 -10 -92
q-6 -34 -47 -60.5t-95.5 -41t-105.5 -22t-88 -7.5q-260 0 -373 131q-70 -57 -178.5 -94t-210.5 -37q-145 0 -232.5 66.5t-87.5 197.5q0 63 20 114.5t53 87t83.5 62.5t102.5 43t120 26.5t126 14.5t130 6q24 134 90 242q-43 88 -200 88q-82 0 -158.5 -21.5t-121 -43
t-48.5 -21.5q-20 0 -40.5 39t-20.5 61q0 42 125.5 87.5t273.5 45.5q214 0 307 -104q136 104 340 104q74 0 134.5 -17.5t98.5 -45.5t64 -64.5t36.5 -72.5t10.5 -72q0 -78 -31 -139t-83 -99.5t-124.5 -64t-149.5 -35.5t-165 -10zM1223 936q-293 0 -353 -326h142q23 0 50.5 1.5
t77 7t93 18.5t84.5 32t65.5 51.5t24.5 74.5q0 65 -48.5 103t-135.5 38zM403 137q147 0 299 103q-24 74 -24 172v51q-432 0 -432 -193q0 -133 157 -133z" />
    <glyph glyph-name="Oslashacute" unicode="&#x1fe;" horiz-adv-x="1497" 
d="M946 1862q96 0 96 -25q0 -14 -22.5 -40t-113.5 -118q-50 -50 -81 -82q-36 -36 -108 -36q-45 0 -45 18q0 14 28 59.5t113 169.5q37 54 133 54zM823 1446q278 0 420 -148l127 125q15 15 29 15q13 0 26 -13l5 -4q10 -10 10 -22q0 -14 -15 -29l-133 -133q97 -145 97 -377
q0 -420 -192.5 -646t-526.5 -226q-308 0 -449 184l-153 -154q-16 -16 -29 -16t-25 12l-4 4q-12 12 -12 25t16 29l166 166q-71 136 -71 340q0 95 11 183.5t36.5 176.5t63.5 162.5t95.5 139t130 110t168.5 71t209 25.5zM807 1290q-238 0 -375 -178t-137 -516q0 -122 31 -213
l784 780q-103 127 -303 127zM1151 1098l-793 -791q95 -164 328 -164q235 0 374.5 182t139.5 515q0 157 -49 258z" />
    <glyph glyph-name="oslashacute" unicode="&#x1ff;" horiz-adv-x="1165" 
d="M551 1198q-45 0 -45 19q0 14 28 59.5t113 169.5q37 53 133 53q97 0 97 -24q0 -14 -21.5 -38.5t-103.5 -107.5q-56 -57 -93 -94t-108 -37zM1110 1026q0 -9 -10 -22l-101 -103q58 -104 58 -262q0 -314 -140 -482.5t-389 -168.5q-202 0 -309 104l-78 -80q-12 -12 -20 -12
q-11 0 -23 12l-10 11q-12 12 -12 22q0 13 10 23l84 86q-66 103 -66 274q0 105 19 199t61 178t104 145.5t153.5 97t203.5 35.5q202 0 309 -116l90 92q9 12 21 12q10 0 22 -12l11 -10q12 -12 12 -23zM623 936q-166 0 -254 -133.5t-88 -368.5q0 -86 18 -145l532 551
q-62 96 -208 96zM539 135q165 0 252.5 128t87.5 372q0 73 -15 125l-526 -545q65 -80 201 -80z" />
    <glyph glyph-name="Scommaaccent" unicode="&#x218;" horiz-adv-x="1024" 
d="M614 1446q124 0 230 -37.5t106 -83.5q0 -26 -29 -69.5t-51 -43.5q-7 0 -34 15q-107 63 -222 63q-124 0 -208 -62.5t-84 -176.5q0 -43 14 -78.5t33 -60t54 -49t62 -38.5t72 -34q147 -67 203 -105q149 -100 161 -259q1 -15 1 -30q0 -83 -31.5 -155t-93 -129.5t-163 -91
t-231.5 -33.5q-62 0 -116.5 8t-104.5 25.5t-79 51t-29 79.5q0 32 9.5 64t29.5 32q5 0 12 -3t12 -6t14.5 -9t14.5 -9q125 -78 272 -78q133 0 215 67t82 171q0 31 -9 58.5t-20 47.5t-35 41t-39.5 33t-49 29t-48.5 24t-51 23q-41 18 -67 30.5t-66.5 35t-66.5 43t-56.5 52
t-48 65t-29.5 78.5t-12 95q0 185 136.5 297.5t340.5 112.5zM457 -104q75 0 75 -58q0 -56 -47 -133.5t-105.5 -131.5t-92.5 -54q-56 0 -56 30q0 20 18.5 52t40 62.5t40 76.5t18.5 90q0 29 24.5 47.5t65.5 18.5h19z" />
    <glyph glyph-name="scommaaccent" unicode="&#x219;" horiz-adv-x="845" 
d="M477 1083q55 0 111.5 -9t101.5 -31.5t45 -53.5q0 -27 -25.5 -64.5t-43.5 -37.5q-12 0 -29 10q-80 39 -158 39q-89 0 -139.5 -37t-50.5 -100q0 -58 41 -94t145 -91q137 -74 195.5 -144t58.5 -163q0 -137 -107.5 -228t-299.5 -91q-69 0 -126.5 12.5t-91 32t-51.5 39.5
t-18 37q0 26 20.5 66t32.5 40q6 0 31 -14q103 -66 211 -66q100 0 161.5 48t61.5 118q0 19 -5.5 36.5t-12.5 30.5t-23 28.5t-27 25t-34.5 24t-35 21t-40 22t-39.5 21.5q-121 68 -174 132t-53 149q0 129 106 210.5t262 81.5zM389 -104q37 0 56.5 -15.5t19.5 -42.5
q0 -56 -47.5 -133.5t-106 -131.5t-92.5 -54q-55 0 -55 30q0 20 18.5 52t40 62.5t40 76.5t18.5 90q0 29 24.5 47.5t65.5 18.5h18z" />
    <glyph glyph-name="uni021A" unicode="&#x21a;" horiz-adv-x="1124" 
d="M1116 1434q35 0 35 -45q0 -25 -1 -38.5t-5 -33.5t-15.5 -29.5t-29.5 -9.5h-389l-129 -1237q-6 -45 -86 -45h-17q-44 0 -61 11t-17 34l129 1237h-397q-35 0 -35 45q0 24 1 38.5t5.5 34t16 29t29.5 9.5h966zM471 -109q76 0 76 -57q0 -56 -47.5 -133.5t-106 -131.5
t-92.5 -54q-55 0 -55 30q0 20 18 52t40 62.5t40 76.5t18 90q0 29 25 47t66 18h18z" />
    <glyph glyph-name="uni021B" unicode="&#x21b;" horiz-adv-x="700" 
d="M379 1331q42 0 60 -10.5t18 -34.5l-23 -215h174q19 0 26 -8.5t7 -30.5q0 -11 -5.5 -32.5t-28.5 -48.5t-58 -27h-131q-70 -631 -70 -672q0 -117 98 -117q38 0 65 7.5t28 7.5q14 0 14 -19q0 -32 -10 -76q-8 -35 -48.5 -51t-91.5 -16q-229 0 -229 225q0 27 18 205t36 342
l18 164h-103q-20 0 -27 13.5t-7 41.5q0 92 51 92h102l25 215q5 45 84 45h8zM336 -104q37 0 56.5 -15.5t19.5 -42.5q0 -56 -47.5 -133.5t-106 -131.5t-92.5 -54q-55 0 -55 30q0 20 18 52t40 62.5t40 76.5t18 90q0 29 24.5 47.5t65.5 18.5h19z" />
    <glyph glyph-name="uni0237" unicode="&#x237;" horiz-adv-x="565" 
d="M340 1075q42 0 60 -10.5t18 -34.5l-125 -1182q-7 -68 -28 -120t-47.5 -82t-62 -49t-66.5 -25t-66 -6q-70 0 -115 23.5t-45 60.5q0 98 22 98q5 0 19 -9t39 -17.5t57 -8.5q52 0 83.5 33t39.5 119l123 1165q6 45 86 45h8z" />
    <glyph glyph-name="uni0259" unicode="&#x259;" horiz-adv-x="1103" 
d="M547 1083q463 0 463 -424q0 -142 -32.5 -260.5t-98.5 -212t-176.5 -146t-256.5 -52.5q-74 0 -134.5 18.5t-98.5 47t-64 66t-36.5 72.5t-10.5 68q0 83 31 148.5t83 107t124.5 69t149.5 39t165 11.5q101 0 176 -14v20q0 161 -77 228t-222 67q-63 0 -122.5 -15.5
t-94.5 -34.5t-63.5 -34.5t-36.5 -15.5q-5 0 -7.5 0.5t-4.5 6t-2 17.5q0 38 10 92q6 34 47 60.5t95.5 41t105.5 22t88 7.5zM465 135q306 0 356 352h-145q-19 0 -34.5 -0.5t-51.5 -2.5t-65.5 -8t-67.5 -15t-67 -25.5t-55 -37.5t-40 -52.5t-14 -69.5q0 -60 49.5 -100.5
t134.5 -40.5z" />
    <glyph glyph-name="uni02BC" unicode="&#x2bc;" horiz-adv-x="409" 
d="M362 1477q37 0 56.5 -15.5t19.5 -42.5q0 -56 -47 -133.5t-105.5 -131.5t-92.5 -54q-56 0 -56 30q0 20 18.5 52t40 62.5t40 76.5t18.5 90q0 29 24.5 47.5t65.5 18.5h18z" />
    <glyph glyph-name="circumflex" unicode="&#x2c6;" horiz-adv-x="655" 
d="M360 1470q68 0 91 -45l96 -180q10 -15 10 -35q-3 -30 -53 -30h-4q-40 0 -66 26l-112 152l-142 -152q-33 -26 -71 -26h-5q-43 0 -43 24q0 17 15 41l135 180q33 45 98 45h51z" />
    <glyph glyph-name="caron" unicode="&#x2c7;" horiz-adv-x="655" 
d="M532 1483q46 0 46 -29q0 -16 -15 -37l-137 -180q-33 -45 -98 -45h-52q-67 0 -90 45l-94 180q-10 17 -10 37q3 29 51 29h4q41 0 68 -27l108 -151l146 151q34 27 69 27h4z" />
    <glyph glyph-name="uni02C9" unicode="&#x2c9;" horiz-adv-x="655" 
d="M643 1399q20 0 27.5 -13t7.5 -40q0 -93 -51 -93h-463q-35 0 -35 56q0 90 51 90h463z" />
    <glyph glyph-name="breve" unicode="&#x2d8;" horiz-adv-x="655" 
d="M600 1464q29 0 29 -24q0 -76 -52.5 -133.5t-123.5 -83t-144 -25.5q-113 0 -193.5 55.5t-80.5 155.5q0 29 6.5 42t28.5 13q13 0 19.5 -4t8.5 -8.5t5.5 -17t7.5 -21.5q35 -80 213 -80q175 0 227 80q6 9 11 21t7.5 17t10 9t20.5 4z" />
    <glyph glyph-name="dotaccent" unicode="&#x2d9;" horiz-adv-x="655" 
d="M344 1438q78 0 78 -45l-10 -105q-7 -45 -95 -45q-44 0 -60.5 11t-16.5 34l10 105q7 45 94 45z" />
    <glyph glyph-name="ring" unicode="&#x2da;" horiz-adv-x="655" 
d="M344 1501q67 0 111.5 -44.5t44.5 -110.5q0 -78 -57 -134.5t-134 -56.5q-68 0 -111.5 44.5t-43.5 111.5q0 77 57 133.5t133 56.5zM338 1430q-45 0 -79 -33t-34 -78q0 -40 24.5 -66t65.5 -26q47 0 80 32.5t33 79.5q0 39 -25.5 65t-64.5 26z" />
    <glyph glyph-name="ogonek" unicode="&#x2db;" horiz-adv-x="655" 
d="M256 29q33 0 33 -25q0 -13 -19.5 -64t-19.5 -83q0 -88 119 -88q37 0 82.5 18t48.5 18q12 0 12 -26q0 -48 -15.5 -80t-43.5 -47.5t-56.5 -21t-66.5 -5.5q-68 0 -115 18t-68.5 48.5t-29.5 57.5t-8 58q0 23 7 56t21.5 72.5t46 66.5t72.5 27z" />
    <glyph glyph-name="tilde" unicode="&#x2dc;" horiz-adv-x="747" 
d="M279 1413q64 0 187.5 -44t168.5 -44q28 0 48.5 13t41.5 46q15 23 29 28t32 -3l17 -6q20 -7 22.5 -18.5t-8.5 -34.5q-33 -75 -78 -107.5t-108 -32.5q-67 0 -193 44t-170 44q-26 0 -45 -13.5t-41 -47.5q-15 -23 -26 -28t-31 3l-21 9q-12 5 -16.5 12t-3.5 15.5t6 23.5
q33 75 79 108t110 33z" />
    <glyph glyph-name="hungarumlaut" unicode="&#x2dd;" horiz-adv-x="786" 
d="M381 1499q96 0 96 -24q0 -14 -22.5 -40t-113.5 -118q-50 -50 -81 -82q-37 -37 -108 -37q-46 0 -46 19q0 14 27.5 58.5t114.5 170.5q37 53 133 53zM680 1499q96 0 96 -24q0 -14 -22.5 -40t-113.5 -118q-50 -50 -81 -82q-37 -37 -108 -37q-45 0 -45 19q0 14 28 59.5
t113 169.5q37 53 133 53z" />
    <glyph glyph-name="gravecomb" unicode="&#x300;" horiz-adv-x="0" 
d="M-72 1499q96 0 127 -53q119 -205 119 -229q0 -19 -47 -19q-74 0 -104 37q-167 191 -177 205q-16 21 -16 35q3 24 98 24z" />
    <glyph glyph-name="acutecomb" unicode="&#x301;" horiz-adv-x="0" 
d="M274 1499q97 0 97 -24q0 -14 -22.5 -40t-113.5 -118q-50 -50 -81 -82q-37 -37 -109 -37q-45 0 -45 19q0 14 28 59.5t113 169.5q37 53 133 53z" />
    <glyph glyph-name="uni0302" unicode="&#x302;" horiz-adv-x="0" 
d="M127 1470q67 0 90 -45l96 -180q11 -17 11 -35q-3 -30 -54 -30h-4q-39 0 -65 26l-113 152l-141 -152q-33 -26 -72 -26h-4q-43 0 -43 24q0 19 14 41l135 180q33 45 99 45h51z" />
    <glyph glyph-name="tildecomb" unicode="&#x303;" horiz-adv-x="0" 
d="M-27 1413q64 0 188 -44t169 -44q28 0 48.5 13t41.5 46q15 23 29 28t32 -3l17 -6q20 -7 22.5 -18.5t-8.5 -34.5q-33 -75 -78 -107.5t-108 -32.5q-67 0 -193 44t-170 44q-26 0 -45 -13.5t-41 -47.5q-15 -23 -26 -28t-31 3l-21 9q-12 5 -16.5 12t-3.5 15.5t6 23.5
q33 76 78.5 108.5t109.5 32.5z" />
    <glyph glyph-name="uni0304" unicode="&#x304;" horiz-adv-x="0" 
d="M322 1399q20 0 27 -13t7 -40q0 -93 -51 -93h-463q-35 0 -35 56q0 90 52 90h463z" />
    <glyph glyph-name="uni0306" unicode="&#x306;" horiz-adv-x="0" 
d="M373 1464q28 0 28 -24q0 -58 -30.5 -105.5t-78 -76.5t-102.5 -44.5t-108 -15.5q-113 0 -194 55.5t-81 155.5q0 29 6.5 42t28.5 13q13 0 19.5 -4t8.5 -8.5t5.5 -17t7.5 -21.5q35 -80 213 -80q176 0 228 80q6 9 11 21t7.5 17t10 9t20.5 4z" />
    <glyph glyph-name="uni0307" unicode="&#x307;" horiz-adv-x="0" 
d="M92 1438q78 0 78 -45l-10 -105q-7 -45 -94 -45q-44 0 -61 11t-17 34l10 105q7 45 94 45z" />
    <glyph glyph-name="uni0308" unicode="&#x308;" horiz-adv-x="0" 
d="M-45 1438q78 0 78 -45l-10 -105q-7 -45 -95 -45q-44 0 -61 11t-17 34l11 105q7 45 94 45zM250 1438q78 0 78 -45l-11 -105q-7 -45 -94 -45q-44 0 -61 11t-17 34l11 105q3 45 94 45z" />
    <glyph glyph-name="hookabovecomb" unicode="&#x309;" horiz-adv-x="0" 
d="M-467 1380q0 24 -19.5 38t-50.5 14q-28 0 -50 -7t-33.5 -13.5t-14.5 -6.5q-11 0 -26 26t-15 42q0 20 56 41.5t110 21.5q40 0 78 -11.5t69 -45.5t31 -86q0 -50 -28.5 -97.5t-66 -77t-68 -47.5t-40.5 -18q-32 0 -55.5 10.5t-23.5 24.5q0 18 23 38.5t50.5 38t50.5 48.5
t23 67z" />
    <glyph glyph-name="uni030A" unicode="&#x30a;" horiz-adv-x="0" 
d="M102 1501q67 0 111.5 -44.5t44.5 -110.5q0 -78 -56.5 -134.5t-133.5 -56.5q-68 0 -112 44.5t-44 111.5q0 77 57 133.5t133 56.5zM96 1430q-45 0 -78.5 -33t-33.5 -78q0 -40 24.5 -66t65.5 -26q47 0 79.5 32.5t32.5 79.5q0 39 -25.5 65t-64.5 26z" />
    <glyph glyph-name="uni030B" unicode="&#x30b;" horiz-adv-x="0" 
d="M96 1499q97 0 97 -24q0 -14 -21.5 -38.5t-103.5 -107.5q-56 -57 -93 -94t-108 -37q-45 0 -45 19q0 14 28 59.5t113 169.5q37 53 133 53zM395 1499q97 0 97 -24q0 -14 -21.5 -38.5t-103.5 -107.5q-56 -57 -93 -94t-108 -37q-45 0 -45 19q0 14 28 59.5t113 169.5
q37 53 133 53z" />
    <glyph glyph-name="uni030C" unicode="&#x30c;" horiz-adv-x="0" 
d="M299 1483q45 0 45 -29q0 -17 -14 -37l-137 -180q-33 -45 -99 -45h-51q-67 0 -90 45l-94 180q-11 19 -11 37q3 29 52 29h4q40 0 67 -27l109 -151l145 151q34 27 70 27h4z" />
    <glyph glyph-name="dotbelowcomb" unicode="&#x323;" horiz-adv-x="0" 
d="M-72 -164q78 0 78 -45l-10 -104q-7 -45 -94 -45q-44 0 -61 11t-17 34l10 104q7 45 94 45z" />
    <glyph glyph-name="uni0326" unicode="&#x326;" horiz-adv-x="0" 
d="M-391 -104q37 0 56.5 -15.5t19.5 -42.5q0 -56 -47.5 -133.5t-106 -131.5t-92.5 -54q-55 0 -55 30q0 20 18 52t40 62.5t40 76.5t18 90q0 29 24.5 47.5t65.5 18.5h19z" />
    <glyph glyph-name="uni0327" unicode="&#x327;" horiz-adv-x="0" 
d="M-37 -100q16 0 33.5 -2t41.5 -10t41.5 -20.5t30.5 -37t13 -57.5q0 -51 -17.5 -89t-43.5 -59.5t-62.5 -34t-67 -16.5t-65.5 -4q-25 0 -53 3t-64 11t-59 26t-23 44q0 31 5 47t9 18t11 2q1 0 21.5 -12.5t58.5 -25.5t80 -13q122 0 122 82q0 26 -19 42t-42 21.5t-42 16
t-19 27.5q12 37 55 141h88l-41 -100h8z" />
    <glyph glyph-name="Delta" unicode="&#x394;" horiz-adv-x="1449" 
d="M827 1454q52 0 66 -47l405 -1270q11 -37 11 -55v-4q0 -78 -70 -78h-1186q-53 0 -53 51v4q0 40 23 82l673 1270q23 47 78 47h53zM782 1268h-10l-598 -1129h965z" />
    <glyph glyph-name="Omega" unicode="&#x3a9;" horiz-adv-x="1497" 
d="M823 1446q277 0 420 -147t143 -435q0 -249 -72 -436t-206 -297q148 8 201 8q34 0 34 -41q0 -98 -51 -98h-485q-35 0 -35 39q0 61 23 67q189 46 296 232t107 506q0 221 -99.5 333.5t-291.5 112.5q-243 0 -378.5 -184t-135.5 -535q0 -200 69 -314t209 -151q13 -3 13 -18
q0 -45 -9.5 -66.5t-33.5 -21.5h-494q-35 0 -35 39q0 100 51 100q17 0 197 -8q-154 157 -154 455q0 417 192 638.5t525 221.5z" />
    <glyph glyph-name="mu" unicode="&#x3bc;" horiz-adv-x="1159" 
d="M1106 145q12 0 12 -14q0 -31 -8 -76q-7 -34 -46.5 -50.5t-76.5 -16.5q-184 0 -184 200v21q-149 -221 -365 -221q-62 0 -125 18l-41 -387q-6 -45 -86 -45h-8q-78 0 -78 43l146 1413q5 45 86 45h8q42 0 60 -10.5t18 -34.5q-74 -706 -74 -735q0 -158 156 -158q38 0 78 16
t85.5 52t89 108t74.5 172l58 545q5 45 86 45h8q42 0 60 -10.5t18 -34.5q-80 -750 -80 -811q0 -30 6 -48.5t19 -25.5t22.5 -8.5t26.5 -1.5q14 0 32.5 5t22.5 5z" />
    <glyph glyph-name="pi" unicode="&#x3c0;" horiz-adv-x="1261" 
d="M1219 1071q24 0 34.5 -10t10.5 -21q0 -9 -2 -22.5t-8.5 -37.5t-24.5 -40t-45 -16h-115q-14 -137 -30.5 -290t-24.5 -223.5t-13.5 -137t-5.5 -105.5q0 -16 1 -50t1 -50q0 -37 -9.5 -54.5t-37.5 -17.5h-57q-39 0 -55.5 27.5t-16.5 91.5q0 81 6 153l70 656h-397
q-34 -206 -104.5 -466t-137.5 -411q-22 -51 -76 -51h-47q-53 0 -53 39q0 5 3 12.5t3 9.5q73 168 140.5 414.5t99.5 452.5q-95 0 -155.5 -9.5t-63.5 -9.5q-37 0 -37 53q0 64 75.5 88.5t239.5 24.5h832z" />
    <glyph glyph-name="uni1E0C" unicode="&#x1e0c;" horiz-adv-x="1423" 
d="M748 1434q125 0 225.5 -32t179 -99t121.5 -182t43 -271q0 -185 -40 -332t-107 -242.5t-160.5 -158.5t-195.5 -90t-216 -27h-440q-29 0 -42.5 11.5t-13.5 37.5q0 12 24 239.5t60 568.5t54 515q3 32 19 47t48 15h441zM717 1278h-307l-117 -1122h307q83 0 157.5 22
t143.5 72.5t119 125.5t80 189t30 256q0 100 -21 178t-57.5 130t-89 86t-113 48.5t-132.5 14.5zM580 -164q43 0 60 -11t17 -34l-10 -104q-7 -45 -94 -45q-44 0 -61 11t-17 34l10 104q7 45 95 45z" />
    <glyph glyph-name="uni1E0D" unicode="&#x1e0d;" horiz-adv-x="1157" 
d="M1102 145q12 0 12 -14q0 -31 -8 -76q-7 -34 -46.5 -50.5t-76.5 -16.5q-184 0 -184 200v21q-119 -221 -330 -221q-49 0 -98 11.5t-102 42.5t-93 78.5t-66 127.5t-26 182q0 288 141.5 470.5t372.5 182.5q170 0 279 -92l55 504q5 45 86 45h8q42 0 60 -10.5t18 -34.5
q-131 -1215 -131 -1276q0 -30 6 -48.5t19 -25.5t22.5 -8.5t26.5 -1.5q14 0 32.5 5t22.5 5zM823 479l39 377q-97 78 -239 78q-82 0 -145.5 -28t-103 -74t-65 -111t-35.5 -133t-10 -146q0 -167 61 -236t183 -69q38 0 77 16.5t82 53t84 106.5t72 166zM518 -164q78 0 78 -45
l-10 -104q-7 -45 -94 -45q-44 0 -61 11t-17 34l10 104q7 45 94 45z" />
    <glyph glyph-name="uni1E24" unicode="&#x1e24;" horiz-adv-x="1501" 
d="M1292 1438q78 0 78 -45l-141 -1352q-6 -45 -86 -45h-17q-44 0 -60.5 11t-16.5 34l63 616h-741l-64 -616q-6 -45 -86 -45h-16q-44 0 -61 11t-17 34l141 1352q3 45 86 45h17q78 0 78 -45l-62 -580h741l62 580q3 45 86 45h16zM698 -160q78 0 78 -45l-10 -104q-7 -45 -94 -45
q-44 0 -61 11t-17 34l10 104q7 45 94 45z" />
    <glyph glyph-name="uni1E25" unicode="&#x1e25;" horiz-adv-x="1157" 
d="M358 1540q42 0 60 -10.5t18 -34.5l-65 -610q149 198 358 198q141 0 205.5 -71.5t64.5 -194.5q0 -16 -29.5 -295.5t-29.5 -302.5q0 -30 6 -48.5t19 -25.5t22.5 -8.5t26.5 -1.5q14 0 32.5 5t22.5 5q12 0 12 -14q0 -31 -8 -76q-7 -34 -46.5 -50.5t-76.5 -16.5
q-184 0 -184 200q0 38 28.5 305t28.5 283q0 158 -155 158q-38 0 -77.5 -15t-84.5 -49t-88.5 -101.5t-75.5 -160.5l-59 -567q-6 -45 -86 -45h-9q-77 0 -77 43l153 1456q5 45 86 45h8zM539 -164q43 0 60 -11t17 -34l-10 -104q-7 -45 -94 -45q-44 0 -61 11t-17 34l10 104
q7 45 95 45z" />
    <glyph glyph-name="uni1E44" unicode="&#x1e44;" horiz-adv-x="1472" 
d="M836 1800q43 0 60 -11t17 -34l-10 -104q-7 -45 -94 -45q-44 0 -61 11t-17 34l10 104q7 45 95 45zM1286 1438q78 0 78 -45l-141 -1352q-6 -45 -86 -45h-41q-54 0 -70 29l-582 1019l-43 105l-116 -1108q-6 -45 -86 -45h-15q-44 0 -61 11t-17 34l142 1352q3 45 86 45h43
q34 0 52 -8.5t30 -30.5l563 -987l49 -115l115 1096q3 45 86 45h14z" />
    <glyph glyph-name="uni1E45" unicode="&#x1e45;" 
d="M600 1243q-44 0 -61 11t-17 34l10 105q7 45 95 45q78 0 78 -45l-11 -105q-7 -45 -94 -45zM1034 145q13 0 13 -14q0 -25 -9 -76q-7 -34 -46.5 -50.5t-76.5 -16.5q-184 0 -184 200q0 38 28.5 305t28.5 283q0 158 -155 158q-29 0 -60 -8.5t-68 -32t-71 -59t-68 -95
t-59 -135.5l-59 -563q-6 -45 -86 -45h-8q-78 0 -78 43q90 801 90 897q0 29 -1 49t-1 21q0 16 15 26.5t38 14.5t37 5t25 1q53 0 53 -138v-38q150 206 362 206q142 0 206.5 -71.5t64.5 -194.5q0 -16 -30 -296t-30 -302q0 -30 6 -48.5t19 -25.5t22.5 -8.5t26.5 -1.5
q14 0 32.5 5t22.5 5z" />
    <glyph glyph-name="uni1E5A" unicode="&#x1e5a;" horiz-adv-x="1249" 
d="M653 1434q228 0 343.5 -75t115.5 -237q0 -148 -73.5 -248.5t-200.5 -148.5v-8q54 -20 87 -80t68 -176l119 -404q4 -16 4 -22q0 -39 -90 -39h-20q-72 0 -80 33l-113 401q-33 116 -96.5 158.5t-188.5 42.5h-184l-61 -590q-6 -45 -86 -45h-17q-44 0 -61 11t-17 34l140 1331
q3 32 19 47t48 15h344zM668 1278h-256l-52 -492h271q121 0 206 86.5t85 202.5q0 101 -67.5 152t-186.5 51zM547 -164q78 0 78 -45l-11 -104q-7 -45 -94 -45q-44 0 -61 11t-17 34l11 104q7 45 94 45z" />
    <glyph glyph-name="uni1E5B" unicode="&#x1e5b;" horiz-adv-x="749" 
d="M653 1083q40 0 71.5 -17.5t31.5 -59.5q0 -38 -20.5 -76.5t-39.5 -38.5q-3 0 -26 11t-54 11q-80 0 -149.5 -86t-110.5 -237l-57 -549q-6 -45 -86 -45h-8q-78 0 -78 43l78 725q12 99 12 172q0 21 -1 42t-1 28q0 16 15 26.5t38 14.5t37 5t25 1q55 0 55 -103q0 -23 -4 -73
q47 96 119.5 151t152.5 55zM195 -164q43 0 60 -11t17 -34l-10 -104q-7 -45 -94 -45q-44 0 -61 11t-17 34l10 104q7 45 95 45z" />
    <glyph glyph-name="uni1E62" unicode="&#x1e62;" horiz-adv-x="1024" 
d="M614 1446q124 0 230 -37.5t106 -83.5q0 -26 -29 -69.5t-51 -43.5q-7 0 -34 15q-107 63 -222 63q-124 0 -208 -62.5t-84 -176.5q0 -43 14 -78.5t33 -60t54 -49t62 -38.5t72 -34q147 -67 203 -105q149 -100 161 -259q1 -15 1 -30q0 -83 -31.5 -155t-93 -129.5t-163 -91
t-231.5 -33.5q-62 0 -116.5 8t-104.5 25.5t-79 51t-29 79.5q0 32 9.5 64t29.5 32q5 0 12 -3t12 -6t14.5 -9t14.5 -9q125 -78 272 -78q133 0 215 67t82 171q0 31 -9 58.5t-20 47.5t-35 41t-39.5 33t-49 29t-48.5 24t-51 23q-41 18 -67 30.5t-66.5 35t-66.5 43t-56.5 52
t-48 65t-29.5 78.5t-12 95q0 185 136.5 297.5t340.5 112.5zM434 -164q78 0 78 -45l-10 -104q-7 -45 -94 -45q-44 0 -61 11t-17 34l10 104q7 45 94 45z" />
    <glyph glyph-name="uni1E63" unicode="&#x1e63;" horiz-adv-x="845" 
d="M477 1083q55 0 111.5 -9t101.5 -31.5t45 -53.5q0 -27 -25.5 -64.5t-43.5 -37.5q-12 0 -29 10q-80 39 -158 39q-89 0 -139.5 -37t-50.5 -100q0 -58 41 -94t145 -91q137 -74 195.5 -144t58.5 -163q0 -137 -107.5 -228t-299.5 -91q-69 0 -126.5 12.5t-91 32t-51.5 39.5
t-18 37q0 26 20.5 66t32.5 40q6 0 31 -14q103 -66 211 -66q100 0 161.5 48t61.5 118q0 19 -5.5 36.5t-12.5 30.5t-23 28.5t-27 25t-34.5 24t-35 21t-40 22t-39.5 21.5q-121 68 -174 132t-53 149q0 129 106 210.5t262 81.5zM367 -164q43 0 60 -11t17 -34l-10 -104
q-7 -45 -94 -45q-44 0 -61 11t-17 34l10 104q7 45 95 45z" />
    <glyph glyph-name="uni1E6C" unicode="&#x1e6c;" horiz-adv-x="1124" 
d="M1116 1434q35 0 35 -45q0 -25 -1 -38.5t-5 -33.5t-15.5 -29.5t-29.5 -9.5h-389l-129 -1237q-6 -45 -86 -45h-17q-44 0 -61 11t-17 34l129 1237h-397q-35 0 -35 45q0 24 1 38.5t5.5 34t16 29t29.5 9.5h966zM449 -168q43 0 60 -11t17 -34l-10 -104q-7 -45 -94 -45
q-44 0 -61 11t-17 34l10 104q7 45 95 45z" />
    <glyph glyph-name="uni1E6D" unicode="&#x1e6d;" horiz-adv-x="700" 
d="M379 1331q42 0 60 -10.5t18 -34.5l-23 -215h174q19 0 26 -8.5t7 -30.5q0 -11 -5.5 -32.5t-28.5 -48.5t-58 -27h-131q-70 -631 -70 -672q0 -117 98 -117q38 0 65 7.5t28 7.5q14 0 14 -19q0 -32 -10 -76q-8 -35 -48.5 -51t-91.5 -16q-229 0 -229 225q0 27 18 205t36 342
l18 164h-103q-20 0 -27 13.5t-7 41.5q0 92 51 92h102l25 215q5 45 84 45h8zM313 -164q78 0 78 -45l-10 -104q-7 -45 -94 -45q-44 0 -61 11t-17 34l10 104q7 45 94 45z" />
    <glyph glyph-name="Wgrave" unicode="&#x1e80;" horiz-adv-x="1806" 
d="M840 1862q95 0 127 -54q118 -203 118 -229q0 -18 -47 -18q-75 0 -104 36q-167 191 -177 205q-16 21 -16 35q3 25 99 25zM1761 1438q86 0 86 -33q0 -7 -506 -1376q-11 -33 -84 -33h-83q-75 0 -80 33l-136 833l-14 266l-72 -266l-309 -833q-13 -33 -84 -33h-84
q-75 0 -80 33l-215 1368q0 25 24.5 33t68.5 8h18q75 0 80 -33l155 -1008q4 -25 8 -71t6.5 -80.5t2.5 -38.5l72 201l352 995q6 20 24.5 27.5t57.5 7.5h32q73 0 78 -35l148 -1008q4 -32 7.5 -79t5.5 -78l1 -31l72 205l352 993q11 33 84 33h12z" />
    <glyph glyph-name="wgrave" unicode="&#x1e81;" horiz-adv-x="1529" 
d="M662 1499q95 0 126 -53q119 -205 119 -229q0 -19 -47 -19q-74 0 -104 37q-167 191 -177 205q-16 21 -16 35q3 24 99 24zM1421 1075q86 0 86 -31q0 -13 -8 -32l-379 -983q-13 -33 -84 -33h-67q-73 0 -78 33l-109 745l-272 -745q-11 -33 -84 -33h-68q-74 0 -79 33
q-175 1008 -175 1011q4 35 93 35h18q75 0 80 -33l129 -817l297 815q13 35 84 35h22q71 0 76 -35l131 -815l299 817q11 33 88 33z" />
    <glyph glyph-name="Wacute" unicode="&#x1e82;" horiz-adv-x="1806" 
d="M1182 1862q96 0 96 -25q0 -14 -22.5 -40t-113.5 -118q-50 -50 -81 -82q-36 -36 -109 -36q-45 0 -45 18q0 14 27.5 58.5t114.5 170.5q37 54 133 54zM1761 1438q86 0 86 -33q0 -7 -506 -1376q-11 -33 -84 -33h-83q-75 0 -80 33l-136 833l-14 266l-72 -266l-309 -833
q-13 -33 -84 -33h-84q-75 0 -80 33l-215 1368q0 25 24.5 33t68.5 8h18q75 0 80 -33l155 -1008q4 -25 8 -71t6.5 -80.5t2.5 -38.5l72 201l352 995q6 20 24.5 27.5t57.5 7.5h32q73 0 78 -35l148 -1008q4 -32 7.5 -79t5.5 -78l1 -31l72 205l352 993q11 33 84 33h12z" />
    <glyph glyph-name="wacute" unicode="&#x1e83;" horiz-adv-x="1529" 
d="M1004 1499q96 0 96 -24q0 -14 -22.5 -40t-113.5 -118q-50 -50 -81 -82q-37 -37 -109 -37q-45 0 -45 19q0 14 28 59.5t113 169.5q37 53 134 53zM1421 1075q86 0 86 -31q0 -13 -8 -32l-379 -983q-13 -33 -84 -33h-67q-73 0 -78 33l-109 745l-272 -745q-11 -33 -84 -33h-68
q-74 0 -79 33q-175 1008 -175 1011q4 35 93 35h18q75 0 80 -33l129 -817l297 815q13 35 84 35h22q71 0 76 -35l131 -815l299 817q11 33 88 33z" />
    <glyph glyph-name="Wdieresis" unicode="&#x1e84;" horiz-adv-x="1806" 
d="M872 1800q78 0 78 -45l-10 -104q-7 -45 -94 -45q-44 0 -61 11t-17 34l10 104q7 45 94 45zM1167 1800q78 0 78 -45l-10 -104q-7 -45 -94 -45q-44 0 -61 11t-17 34l10 104q3 45 94 45zM1761 1438q86 0 86 -33q0 -7 -506 -1376q-11 -33 -84 -33h-83q-75 0 -80 33l-136 833
l-14 266l-72 -266l-309 -833q-13 -33 -84 -33h-84q-75 0 -80 33l-215 1368q0 25 24.5 33t68.5 8h18q75 0 80 -33l155 -1008q4 -25 8 -71t6.5 -80.5t2.5 -38.5l72 201l352 995q6 20 24.5 27.5t57.5 7.5h32q73 0 78 -35l148 -1008q4 -32 7.5 -79t5.5 -78l1 -31l72 205l352 993
q11 33 84 33h12z" />
    <glyph glyph-name="wdieresis" unicode="&#x1e85;" horiz-adv-x="1529" 
d="M694 1438q78 0 78 -45l-10 -105q-7 -45 -94 -45q-44 0 -61 11t-17 34l10 105q7 45 94 45zM989 1438q78 0 78 -45l-10 -105q-7 -45 -94 -45q-44 0 -61 11t-17 34l10 105q3 45 94 45zM1421 1075q86 0 86 -31q0 -13 -8 -32l-379 -983q-13 -33 -84 -33h-67q-73 0 -78 33
l-109 745l-272 -745q-11 -33 -84 -33h-68q-74 0 -79 33q-175 1008 -175 1011q4 35 93 35h18q75 0 80 -33l129 -817l297 815q13 35 84 35h22q71 0 76 -35l131 -815l299 817q11 33 88 33z" />
    <glyph glyph-name="uni1E92" unicode="&#x1e92;" horiz-adv-x="1261" 
d="M1198 1434q10 0 22.5 -34t12.5 -65q0 -25 -10 -35l-959 -1144h803q35 0 35 -45q0 -25 -1 -38.5t-5 -33.5t-15.5 -29.5t-29.5 -9.5h-1000q-13 0 -26 33.5t-13 64.5q0 24 11 35l958 1145h-739q-35 0 -35 45q0 25 1 38.5t5 33.5t15.5 29.5t29.5 9.5h940zM567 -164
q78 0 78 -45l-10 -104q-7 -45 -94 -45q-44 0 -61 11t-17 34l10 104q7 45 94 45z" />
    <glyph glyph-name="uni1E93" unicode="&#x1e93;" horiz-adv-x="1001" 
d="M932 1071q13 0 22 -33t9 -65q0 -20 -9 -29l-680 -797h564q20 0 27 -13.5t7 -41.5q0 -92 -51 -92h-758q-11 0 -22.5 32t-11.5 62q0 23 10 33l682 797h-524q-20 0 -27.5 14t-7.5 41q0 92 51 92h719zM457 -164q78 0 78 -45l-11 -104q-7 -45 -94 -45q-44 0 -61 11t-17 34
l10 104q7 45 95 45z" />
    <glyph glyph-name="uni1E9E" unicode="&#x1e9e;" horiz-adv-x="1433" 
d="M844 1446q294 0 467 -66q9 -5 25 -43t16 -55q0 -20 -11 -35l-348 -434q187 -37 263.5 -119t76.5 -227q0 -102 -31.5 -185.5t-81 -136.5t-114.5 -89.5t-129 -52t-127 -15.5q-30 0 -73.5 3.5t-104.5 13t-103 32t-43 53.5q0 121 31 121q1 0 16 -8t40.5 -19t59 -22t81 -19
t96.5 -8q40 0 79 9t81 32.5t73.5 59.5t51.5 95.5t20 135.5q0 118 -78 167.5t-223 49.5h-53q-12 0 -25.5 39.5t-13.5 58.5q0 22 10 35l358 445q-144 28 -317 28q-194 0 -297 -109t-121 -292l-88 -848q-3 -45 -86 -45h-16q-44 0 -61 11t-17 34l88 840q10 97 35.5 178.5
t75 154.5t119 123.5t171.5 79.5t228 29z" />
    <glyph glyph-name="uni1EA0" unicode="&#x1ea0;" horiz-adv-x="1255" 
d="M731 1438q72 0 80 -33l344 -1348q2 -8 2 -20q0 -41 -90 -41h-16q-72 0 -80 33l-86 336h-602l-152 -336q-13 -33 -84 -33h-10q-84 0 -84 33q0 10 10 30l625 1346q13 33 84 33h59zM684 1249h-4q-21 -68 -43 -119l-281 -610h490l-150 610q-12 47 -12 119zM555 -164
q78 0 78 -45l-10 -104q-7 -45 -95 -45q-44 0 -60.5 11t-16.5 34l10 104q7 45 94 45z" />
    <glyph glyph-name="uni1EA1" unicode="&#x1ea1;" horiz-adv-x="1116" 
d="M1047 145q12 0 12 -14q0 -31 -8 -76q-7 -34 -46.5 -50.5t-76.5 -16.5q-185 0 -185 200v21q-116 -221 -319 -221q-44 0 -87 11.5t-90.5 42.5t-83 78.5t-58.5 127.5t-23 182q0 190 61.5 338t176 231.5t264.5 83.5q145 0 260 -110q10 28 15.5 42t16 30.5t25 23t35.5 6.5h12
q29 0 40 -10.5t11 -32.5q-81 -758 -81 -813q0 -30 6 -48.5t19 -25.5t22 -8.5t26 -1.5q14 0 33 5t23 5zM797 752q4 35 16 102q-101 80 -213 80q-79 0 -139.5 -28t-98 -74t-61 -111t-32.5 -132.5t-9 -146.5q0 -305 203 -305q37 0 75 17t80 54t82 108t70 167zM457 -164
q78 0 78 -45l-11 -104q-7 -45 -94 -45q-44 0 -61 11t-17 34l10 104q7 45 95 45z" />
    <glyph glyph-name="uni1EA2" unicode="&#x1ea2;" horiz-adv-x="1255" 
d="M791 1743q0 24 -19 37.5t-51 13.5q-28 0 -50 -7t-33.5 -13.5t-14.5 -6.5q-11 0 -26 26t-15 42q0 20 56 41.5t110 21.5q40 0 78 -11.5t69 -45.5t31 -86q0 -50 -28.5 -97t-66 -76.5t-68 -47.5t-40.5 -18q-32 0 -56 10t-24 24q0 18 23 38.5t51 38.5t51 49t23 67zM731 1438
q72 0 80 -33l344 -1348q2 -8 2 -20q0 -41 -90 -41h-16q-72 0 -80 33l-86 336h-602l-152 -336q-13 -33 -84 -33h-10q-84 0 -84 33q0 10 10 30l625 1346q13 33 84 33h59zM684 1249h-4q-21 -68 -43 -119l-281 -610h490l-150 610q-12 47 -12 119z" />
    <glyph glyph-name="uni1EA3" unicode="&#x1ea3;" horiz-adv-x="1116" 
d="M502 1405q-11 0 -26 26t-15 42q0 20 56 41.5t110 21.5q40 0 78 -11.5t69 -45.5t31 -86q0 -50 -28.5 -97.5t-66 -77t-68 -47.5t-40.5 -18q-32 0 -56 10.5t-24 24.5q0 15 15 30.5t37 30.5t44 33t37 43.5t15 54.5q0 24 -19.5 38t-50.5 14q-28 0 -50 -7t-33.5 -13.5
t-14.5 -6.5zM1047 145q12 0 12 -14q0 -31 -8 -76q-7 -34 -46.5 -50.5t-76.5 -16.5q-185 0 -185 200v21q-116 -221 -319 -221q-44 0 -87 11.5t-90.5 42.5t-83 78.5t-58.5 127.5t-23 182q0 190 61.5 338t176 231.5t264.5 83.5q145 0 260 -110q10 28 15.5 42t16 30.5t25 23
t35.5 6.5h12q29 0 40 -10.5t11 -32.5q-81 -758 -81 -813q0 -30 6 -48.5t19 -25.5t22 -8.5t26 -1.5q14 0 33 5t23 5zM797 752q4 35 16 102q-101 80 -213 80q-79 0 -139.5 -28t-98 -74t-61 -111t-32.5 -132.5t-9 -146.5q0 -305 203 -305q37 0 75 17t80 54t82 108t70 167z" />
    <glyph glyph-name="uni1EA4" unicode="&#x1ea4;" horiz-adv-x="1255" 
d="M1174 1968q65 0 65 -24q0 -14 -188 -220q-29 -36 -78 -36q-45 0 -45 18q0 29 112 209q32 53 134 53zM768 1833q50 0 70 -45l86 -180q10 -15 10 -35q-3 -31 -53 -31h-4q-52 0 -66 27l-82 151l-141 -151q-34 -27 -72 -27h-4q-43 0 -43 25q0 19 14 41l135 180q33 45 99 45
h51zM731 1438q72 0 80 -33l344 -1348q2 -8 2 -20q0 -41 -90 -41h-16q-72 0 -80 33l-86 336h-602l-152 -336q-13 -33 -84 -33h-10q-84 0 -84 33q0 10 10 30l625 1346q13 33 84 33h59zM684 1249h-4q-21 -68 -43 -119l-281 -610h490l-150 610q-12 47 -12 119z" />
    <glyph glyph-name="uni1EA5" unicode="&#x1ea5;" horiz-adv-x="1116" 
d="M848 1462q-45 0 -45 19q0 14 28 59.5t113 169.5q37 53 133 53q97 0 97 -24q0 -14 -21.5 -38.5t-103.5 -107.5q-56 -57 -93 -94t-108 -37zM391 1180q-43 0 -43 24q0 19 14 41l136 180q33 45 98 45h51q50 0 70 -45l86 -180q10 -15 10 -35q-3 -30 -53 -30h-4q-52 0 -66 26
l-82 152l-141 -152q-33 -26 -72 -26h-4zM1047 145q12 0 12 -14q0 -31 -8 -76q-7 -34 -46.5 -50.5t-76.5 -16.5q-185 0 -185 200v21q-116 -221 -319 -221q-44 0 -87 11.5t-90.5 42.5t-83 78.5t-58.5 127.5t-23 182q0 190 61.5 338t176 231.5t264.5 83.5q145 0 260 -110
q10 28 15.5 42t16 30.5t25 23t35.5 6.5h12q29 0 40 -10.5t11 -32.5q-81 -758 -81 -813q0 -30 6 -48.5t19 -25.5t22 -8.5t26 -1.5q14 0 33 5t23 5zM797 752q4 35 16 102q-101 80 -213 80q-79 0 -139.5 -28t-98 -74t-61 -111t-32.5 -132.5t-9 -146.5q0 -305 203 -305
q37 0 75 17t80 54t82 108t70 167z" />
    <glyph glyph-name="uni1EA6" unicode="&#x1ea6;" horiz-adv-x="1255" 
d="M915 1974q79 0 99 -53q76 -186 76 -215q0 -18 -48 -18q-53 0 -73 36q-82 128 -105 168t-24 58q0 14 16 19t59 5zM768 1833q50 0 70 -45l86 -180q10 -15 10 -35q-3 -31 -53 -31h-4q-52 0 -66 27l-82 151l-141 -151q-34 -27 -72 -27h-4q-43 0 -43 25q0 19 14 41l135 180
q33 45 99 45h51zM731 1438q72 0 80 -33l344 -1348q2 -8 2 -20q0 -41 -90 -41h-16q-72 0 -80 33l-86 336h-602l-152 -336q-13 -33 -84 -33h-10q-84 0 -84 33q0 10 10 30l625 1346q13 33 84 33h59zM684 1249h-4q-21 -68 -43 -119l-281 -610h490l-150 610q-12 47 -12 119z" />
    <glyph glyph-name="uni1EA7" unicode="&#x1ea7;" horiz-adv-x="1116" 
d="M934 1462q-75 0 -105 37q-166 189 -178 207q-14 20 -14 33q3 24 98 24q96 0 127 -53q119 -205 119 -229q0 -19 -47 -19zM391 1180q-43 0 -43 24q0 19 14 41l136 180q33 45 98 45h51q50 0 70 -45l86 -180q10 -15 10 -35q-3 -30 -53 -30h-4q-52 0 -66 26l-82 152l-141 -152
q-33 -26 -72 -26h-4zM1047 145q12 0 12 -14q0 -31 -8 -76q-7 -34 -46.5 -50.5t-76.5 -16.5q-185 0 -185 200v21q-116 -221 -319 -221q-44 0 -87 11.5t-90.5 42.5t-83 78.5t-58.5 127.5t-23 182q0 190 61.5 338t176 231.5t264.5 83.5q145 0 260 -110q10 28 15.5 42t16 30.5
t25 23t35.5 6.5h12q29 0 40 -10.5t11 -32.5q-81 -758 -81 -813q0 -30 6 -48.5t19 -25.5t22 -8.5t26 -1.5q14 0 33 5t23 5zM797 752q4 35 16 102q-101 80 -213 80q-79 0 -139.5 -28t-98 -74t-61 -111t-32.5 -132.5t-9 -146.5q0 -305 203 -305q37 0 75 17t80 54t82 108t70 167
z" />
    <glyph glyph-name="uni1EA8" unicode="&#x1ea8;" horiz-adv-x="1255" 
d="M1057 1851q0 27 -19 41.5t-51 14.5q-28 0 -50 -6.5t-33.5 -13.5t-14.5 -7q-11 0 -26 26t-15 42q0 20 55.5 38.5t110.5 18.5q63 0 112.5 -33.5t49.5 -105.5q0 -29 -15.5 -56.5t-30 -41t-40.5 -33.5q-21 -17 -51 -31t-40 -14q-30 0 -49.5 13t-19.5 28q0 11 12.5 20t42.5 25
q72 39 72 75zM768 1833q50 0 70 -45l86 -180q10 -15 10 -35q-3 -31 -53 -31h-4q-52 0 -66 27l-82 151l-141 -151q-34 -27 -72 -27h-4q-43 0 -43 25q0 19 14 41l135 180q33 45 99 45h51zM731 1438q72 0 80 -33l344 -1348q2 -8 2 -20q0 -41 -90 -41h-16q-72 0 -80 33l-86 336
h-602l-152 -336q-13 -33 -84 -33h-10q-84 0 -84 33q0 10 10 30l625 1346q13 33 84 33h59zM684 1249h-4q-21 -68 -43 -119l-281 -610h490l-150 610q-12 47 -12 119z" />
    </font>
</defs>
</svg>
